<svg width="130" height="130" viewBox="0 0 130 130" fill="none" xmlns="http://www.w3.org/2000/svg">
<circle cx="65" cy="65" r="65" fill="#9AB6DF"/>
<g clip-path="url(#clip0_36_328)">
<path d="M63.9692 67.3819C63.7633 67.7115 63.5367 68.0275 63.2906 68.3282L46.9428 84.7245C46.2848 85.3828 45.5651 85.8971 44.6191 85.9588C43.9509 86.0349 43.2755 85.9016 42.6862 85.5773C42.0969 85.253 41.6227 84.7538 41.329 84.1484C41.0465 83.5549 40.9445 82.8913 41.0359 82.2402C41.1273 81.5891 41.408 80.9793 41.8431 80.4866L42.3366 79.9928L61.2754 61.0456C63.0849 59.2147 64.874 59.2146 66.6835 61.025L85.7868 80.1368C86.8355 81.1654 87.2673 82.3381 86.8149 83.7576C86.6509 84.2536 86.3704 84.7032 85.997 85.0685C85.6237 85.4339 85.1682 85.7044 84.6689 85.8575C84.1695 86.0106 83.6408 86.0418 83.1269 85.9485C82.613 85.8551 82.129 85.64 81.7153 85.3211C81.4399 85.0904 81.1789 84.8431 80.9339 84.5805L64.73 68.3488C64.5244 68.1225 64.3599 67.8756 63.9692 67.3819Z" fill="#162F64"/>
<path d="M63.8252 47.797C63.6755 48.0777 63.5035 48.346 63.3111 48.5993L46.9017 65.0573C45.9558 65.983 44.8453 66.3122 43.591 65.9624C43.0104 65.8232 42.4832 65.5173 42.074 65.0824C41.6649 64.6475 41.3917 64.1025 41.2879 63.5143C41.0206 62.28 41.4113 61.2514 42.2955 60.3667L53.6875 48.9902C56.2374 46.4392 58.7872 43.8676 61.3576 41.3166C63.1055 39.568 64.9151 39.5474 66.663 41.2755L85.8074 60.449C87.2879 61.9302 87.3702 63.9669 86.0335 65.3041C84.6969 66.6413 82.6817 66.6002 81.2423 65.1601C78.6719 62.6091 76.1221 60.0376 73.5722 57.4866L64.5449 48.4347L63.8252 47.797Z" fill="#162F64"/>
</g>
<defs>
<clipPath id="clip0_36_328">
<rect width="46" height="46" fill="white" transform="translate(41 40)"/>
</clipPath>
</defs>
</svg>
