<svg width="130" height="130" viewBox="0 0 130 130" fill="none" xmlns="http://www.w3.org/2000/svg">
<circle cx="65" cy="65" r="65" fill="white" fill-opacity="0.5"/>
<g clip-path="url(#clip0_36_336)">
<path d="M103.789 86.9452C103.46 87.1931 103.148 87.4623 102.854 87.7513C102.652 87.9653 102.53 88.2436 102.511 88.5382C102.473 91.6282 102.492 94.7182 102.492 97.8083C102.502 98.091 102.483 98.374 102.434 98.6527C102.41 98.9123 102.288 99.1526 102.093 99.3241C101.897 99.4955 101.644 99.585 101.385 99.574C100.813 99.574 100.413 99.3053 100.279 98.7295C100.225 98.4255 100.2 98.1171 100.203 97.8083V87.8281H97.2654V97.9042C97.2813 98.1607 97.2685 98.4183 97.2273 98.6719C97.1886 98.9134 97.0693 99.1344 96.8889 99.2984C96.7086 99.4624 96.4781 99.5596 96.2354 99.574C95.6823 99.6124 95.2818 99.382 95.091 98.8638C95.0158 98.6215 94.9772 98.3692 94.9766 98.1153V84.3926C94.9703 84.2126 94.9831 84.0324 95.0147 83.8552C95.1482 83.2218 95.5488 82.8572 96.1973 82.8955C96.8458 82.9339 97.2082 83.3178 97.2463 83.9895C97.2845 84.6613 97.2463 84.8916 97.2463 85.4098H101.462C101.462 83.5097 101.519 81.6288 101.443 79.7479C101.404 78.6923 100.737 77.963 99.7831 77.5408C98.3717 76.9458 96.9221 76.3892 95.4343 75.7751C93.9084 79.8247 91.1618 82.5309 86.9656 83.5097C82.7694 84.4885 79.1645 83.2602 76.1699 80.4197C75.4451 81.648 74.8348 82.8955 73.9955 83.9895C73.1563 85.0835 72.4887 85.5057 71.6304 86.1199C70.7721 86.7341 71.2871 87.425 71.2299 88.0776C71.2108 88.2503 71.6495 88.5574 71.9165 88.6725C73.0609 89.0948 74.2244 89.4402 75.3688 89.8433C77.734 90.6686 78.9738 92.4343 78.9928 94.9293C78.9928 96.0617 79.0119 97.1749 78.9928 98.3073C78.9738 99.0942 78.5351 99.574 77.8675 99.574C77.1999 99.574 76.7421 99.1133 76.7231 98.3265C76.6849 97.2133 76.7231 96.1193 76.704 95.0253C76.6849 93.2596 75.5596 91.9545 73.8048 91.7626C73.6331 91.7434 73.3661 91.9353 73.2326 92.108C69.704 96.5607 63.4859 96.8678 59.5377 92.799C59.1753 92.4151 59.1181 91.5322 58.2216 91.8009C57.0009 92.1848 55.8565 92.6838 55.6467 94.0849C55.4369 95.4859 55.5513 96.5799 55.5131 97.8274C55.5265 98.1365 55.5008 98.4461 55.4369 98.7487C55.3033 99.3053 54.9028 99.5932 54.3115 99.574C53.7202 99.5548 53.2815 99.1901 53.2815 98.6335C53.2815 96.8678 53.2052 95.0445 53.4913 93.298C53.7774 91.5514 54.9028 90.611 56.4096 90.0352C57.9164 89.4594 59.0799 89.0756 60.4342 88.6533C60.911 88.4998 61.0254 88.2503 61.0636 87.7897C61.1399 86.8684 60.8538 86.3118 60.0718 85.7361C57.3824 83.7976 56.0281 81.0914 55.8565 77.7903C55.8374 77.6559 55.8374 77.5216 55.8183 77.3105C54.6358 77.2337 53.5676 76.8307 52.7475 75.8902C52.6712 75.7943 52.2516 75.9286 52.0227 76.0438C47.7502 77.9246 43.6112 77.7135 39.6629 75.2377C36.9545 73.5487 35.1425 71.1112 34.2079 68.0212C34.1316 67.8101 34.0553 67.599 33.979 67.3303C32.6247 67.7525 31.2705 68.1172 29.9735 68.5778C28.6765 69.0384 28.1424 69.9021 28.1234 71.1496C28.0852 74.969 28.1234 78.8075 28.1234 82.6268C28.1234 82.6844 28.1615 82.7228 28.1997 82.7996H33.5784C33.5784 81.1874 33.6166 79.6136 33.5403 78.059C33.5212 77.5984 33.197 77.1569 32.949 76.7539C32.4149 75.8902 31.8236 75.0649 31.2896 74.1821C30.7555 73.2992 31.0416 72.9154 31.5566 72.5699C32.0716 72.2244 32.7392 72.3204 33.1588 72.9346C33.9218 74.0477 34.7419 75.1417 35.3332 76.3316C35.7108 77.1085 35.9065 77.962 35.9054 78.8267C35.9436 85.2371 35.9245 91.6474 35.9245 98.0577C35.9245 98.2881 35.9817 98.5951 35.8482 98.7295C35.7147 98.8638 35.2569 99.4204 34.8754 99.5356C34.494 99.6507 33.9218 99.3629 33.7692 98.8447C33.6726 98.5017 33.6339 98.1449 33.6547 97.7891C33.642 93.9121 33.6356 90.0288 33.6356 86.1391V85.1987H29.4776C29.4585 85.4866 29.4204 85.7936 29.4204 86.0815V97.8083C29.4204 99.0366 29.058 99.5932 28.2378 99.574C27.4176 99.5548 27.1315 99.0366 27.1315 97.8274V86.024C27.1315 85.5441 27.1506 85.1987 26.5402 85.0067C26.216 84.8916 25.8536 84.2774 25.8536 83.8744C25.8154 79.556 25.7964 75.2377 25.8536 70.9193C25.8917 68.693 27.3413 66.9656 29.6111 66.2555L38.118 63.6837L38.8809 63.4342C38.8809 62.4745 38.9191 61.5341 38.8618 60.5937C38.8618 60.3634 38.6329 60.0947 38.4422 59.9411C35.7528 57.6956 34.2079 54.8359 33.731 51.362C33.6952 51.2181 33.6313 51.0829 33.5428 50.9642C33.4544 50.8456 33.3433 50.7459 33.216 50.6711C30.9081 49.4427 30.355 46.7174 32.0144 44.7213C32.2247 44.4462 32.3387 44.1088 32.3386 43.7617C32.3768 41.9768 32.3577 40.1919 32.3577 38.4069C32.3768 32.4764 36.306 28.0813 42.1997 27.7742C45.9954 27.5823 49.8101 27.6782 53.6058 27.7934C55.5704 27.851 56.9055 29.0601 57.7257 30.8642C57.8856 31.2287 58.1195 31.5556 58.4123 31.8239C59.8619 33.1098 60.7012 34.6836 60.7012 36.6412C60.7393 39.0211 60.7012 41.3818 60.7393 43.7617C60.7502 44.1341 60.8844 44.4922 61.1208 44.7789C62.7039 46.6982 62.1699 49.5003 59.9192 50.6135C59.7392 50.6871 59.5841 50.8113 59.4725 50.9713C59.3609 51.1313 59.2974 51.3202 59.2897 51.5155C59.1753 52.3408 58.9655 53.1661 58.7938 54.049L59.3279 54.356C61.4069 55.4116 63.4669 56.4289 65.5078 57.4845C65.9464 57.7148 66.2707 57.638 66.7094 57.5036C68.2162 57.0238 68.8075 56.1026 68.7503 54.4904C68.674 52.3216 68.8647 50.1529 68.9219 47.9841C69.1317 40.5373 74.8157 34.1654 82.1591 33.1482C90.7422 31.9582 98.448 37.7544 99.6878 46.4103C99.9357 48.2528 99.8213 50.1337 99.9548 51.9954C100.336 56.8319 100.737 61.6621 101.156 66.4858C101.252 67.4646 100.699 67.9253 100.012 68.3667C97.6852 69.7764 95.1571 70.8186 92.5161 71.4567L91.6196 71.7254L92.4016 72.0901C94.7668 73.0305 97.0938 74.0477 99.478 74.8922C101.862 75.7367 103.235 76.9458 103.789 79.2873V86.9452ZM79.9656 47.8689C79.8893 47.9649 79.813 48.0033 79.7939 48.08C78.7067 50.4216 76.7231 51.5923 74.3579 52.2449C73.6713 52.4368 73.0609 52.1297 72.8893 51.5347C72.7176 50.9398 72.9656 50.364 73.6522 50.0761C74.0337 49.9225 74.4342 49.8266 74.8157 49.673C76.5133 48.9629 77.753 47.8305 78.0582 45.8729C78.2108 44.8173 79.0882 44.4526 79.9656 45.1052C81.8539 46.5446 84.0474 47.1972 86.3171 47.7346C88.5869 48.272 90.5324 48.6366 92.5733 49.3084C95.0719 50.1145 96.7314 51.8418 97.0938 54.548C97.7804 59.826 95.873 63.9908 91.6578 67.1192C90.6469 67.8677 90.5324 68.1556 90.8567 69.4991C93.4086 68.9443 95.873 68.0403 98.1809 66.8121C98.6769 66.5242 98.8104 66.2171 98.7532 65.6605C98.3717 60.6704 98.0284 55.6803 97.666 50.7094C97.5515 49.0781 97.6087 47.4083 97.2845 45.8345C95.7586 38.7716 89.4643 34.4533 82.3307 35.4513C76.3035 36.2766 71.3824 41.7849 71.2108 47.9073C71.1345 50.2104 71.0773 52.4944 71.001 54.7975C71.001 54.9318 71.0391 55.0662 71.0582 55.2773L73.0228 54.2985C74.3389 53.6651 75.0637 54.1257 75.0827 55.6036C75.1018 57.0814 75.0637 58.3097 75.1018 59.6532C75.1368 60.0204 75.2684 60.3716 75.4833 60.6704C76.3034 61.9755 77.1427 63.2806 78.001 64.5665C78.1783 64.8869 78.4184 65.1677 78.7067 65.3918C80.2898 66.4474 82.0446 66.9464 83.9329 67.0616C90.2845 67.4838 95.7967 61.5341 94.9003 55.2005C94.6714 53.6267 93.9275 52.4176 92.4588 51.7458C91.7414 51.4297 91.0019 51.1667 90.2463 50.959C86.7749 50.0569 83.1509 49.7306 79.9656 47.8689ZM34.7038 43.397C36.5539 43.5698 36.5539 43.5698 37.1071 41.8808C37.1474 41.7879 37.1793 41.6916 37.2024 41.5929C37.8891 39.5393 37.8891 39.5777 40.0635 39.4625C44.7556 39.2322 49.4477 38.9443 53.8347 37.0443C54.5404 36.7372 55.1698 37.0251 55.4178 37.6584C55.6657 38.2918 55.4178 38.8676 54.7121 39.1363C53.3578 39.6353 52.0036 40.1535 50.6112 40.5181C47.3496 41.3434 44.0117 41.6505 40.6738 41.7273C39.7774 41.7465 39.3387 42.0152 39.167 42.898C38.9953 43.7809 38.7474 44.2031 38.5376 44.8557C38.4634 45.1291 38.2975 45.3683 38.0681 45.5327C37.8386 45.6971 37.5598 45.7766 37.2787 45.7577C36.5348 45.7385 35.81 45.7385 35.0662 45.7577C34.3223 45.7769 33.4258 46.2951 33.3495 47.1396C33.2732 47.9841 33.7692 48.5023 34.7801 48.7134C35.791 48.9245 35.9245 49.2892 35.9436 50.0569C35.9626 50.364 35.9817 50.6711 36.0199 50.9781C36.4395 56.3137 41.4559 60.7856 46.7393 60.5361C52.4614 60.2674 56.6194 56.2177 57.0963 50.4791C57.2298 49.0397 57.2298 49.0397 58.6412 48.6366C59.347 48.4447 59.6903 47.9457 59.7284 47.2548C59.7461 46.9196 59.6384 46.5899 59.4266 46.3306C59.2148 46.0713 58.9142 45.9012 58.584 45.8537C58.1105 45.7829 57.6321 45.7508 57.1535 45.7577C56.3715 45.7194 55.8755 45.2971 55.8565 44.6446C55.8374 43.992 56.3142 43.5122 57.0963 43.4546C57.5159 43.4354 57.9355 43.4546 58.3742 43.4546C58.3742 40.9596 58.4314 38.5413 58.3551 36.123C58.317 35.029 57.6494 34.2038 56.8102 33.4936C56.3905 33.1482 55.9709 32.7067 55.7993 32.2269C55.227 30.7107 54.4069 30.0197 52.8047 30.0006C49.4668 29.9814 46.1098 29.9622 42.7529 30.0006C38.5567 30.0773 35.1997 32.9178 34.7419 37.0251C34.494 39.0979 34.7038 41.2475 34.7038 43.397ZM55.5322 69.6334H55.8755C61.4451 69.3263 66.9192 68.597 71.9928 65.9676C72.5459 65.6797 73.0609 65.6989 73.4996 66.1979C73.9383 66.6969 73.8429 67.6374 72.9846 68.0212C71.3252 68.7505 69.6467 69.5183 67.911 70.0556C64.0009 71.284 59.9382 71.783 55.8565 71.9557C54.9028 71.9941 54.1971 72.685 54.2161 73.5103C54.2352 74.3356 54.8837 74.9306 55.8565 74.969H56.8483C57.6494 75.0074 58.069 75.4104 58.1072 76.1973C58.1262 76.5044 58.1262 76.8115 58.1262 77.1186C58.1072 79.8439 59.1562 82.0511 61.2734 83.7784C64.8783 86.7341 70.6576 85.6017 72.9656 81.5329C73.862 79.9399 74.1672 78.2701 74.11 76.466C74.0909 75.372 74.5105 74.9882 75.5787 74.969C76.0555 74.9498 76.5514 74.969 77.0092 74.8346C78.0582 74.5275 78.4016 73.1457 77.5432 72.4739C76.6849 71.8022 76.6658 71.2456 76.704 70.4011C76.7421 69.5566 76.704 69.2304 76.6659 68.6354C76.5126 66.8458 75.9015 65.1267 74.892 63.6453C74.3007 64.2787 73.7094 64.1443 73.0609 63.818C70.9628 62.7432 68.8266 61.7068 66.7475 60.6321C66.5546 60.5153 66.3337 60.4536 66.1086 60.4536C65.8834 60.4536 65.6625 60.5153 65.4696 60.6321C63.4859 61.6685 61.4832 62.6473 59.4995 63.6645C58.7557 64.0292 58.0499 64.4898 57.3251 63.6261C56.1556 65.4086 55.5321 67.4975 55.5322 69.6334ZM93.1837 75.0649C91.9057 74.3548 90.5515 73.779 89.4452 72.8962C88.3389 72.0133 88.4534 70.2668 88.4343 68.7505C85.3225 69.7486 81.9542 69.5572 78.9738 68.2132C78.9738 68.6162 78.9928 68.8849 78.9738 69.1728C78.9123 69.9965 79.1494 70.8147 79.6413 71.4759C81.1482 73.6063 79.9465 76.5428 77.4288 77.1569L76.704 77.3297C78.3253 80.247 82.1018 81.9167 85.8403 81.4177C89.1973 80.9763 92.3253 78.2317 93.1837 75.0649ZM41.2079 61.6876C41.2079 62.7816 41.1507 63.7796 41.2079 64.7585C41.4559 68.5394 45.633 70.9001 48.9518 69.1344C51.8129 67.599 52.2134 65.1039 51.7938 61.726C48.3033 63.1847 44.7937 63.1847 41.2079 61.6876ZM53.2243 68.098C51.5649 70.7082 49.3142 72.1093 46.3769 71.9941C42.4477 71.8214 40.0635 69.5758 38.9763 65.8333L36.2487 66.6586C36.2536 66.7756 36.2728 66.8917 36.306 67.004C36.8591 69.1344 38.0226 70.8809 39.6248 72.3588C42.7338 75.2185 47.9218 75.8135 51.5458 73.6831C51.7366 73.5679 51.8701 73.28 51.9845 73.0497C52.3278 72.3588 52.633 71.6486 52.9573 70.9385C53.0336 70.7658 53.2052 70.593 53.2243 70.4203C53.2434 69.691 53.2243 68.9617 53.2243 68.098ZM68.8838 87.6169H63.3524C63.4859 89.2291 62.8184 90.4383 61.0254 90.8605C63.238 94.1233 69.0936 94.1233 71.1917 90.8413C69.3797 90.4575 68.7312 89.2099 68.8838 87.6169ZM54.1971 64.2979C54.96 63.1847 55.475 62.0139 56.3333 61.2078C57.554 60.0563 57.0009 58.7704 57.1726 57.5228L54.4259 60.1138C54.3036 60.2372 54.2291 60.4006 54.2161 60.5745C54.1971 61.7836 54.1971 62.9927 54.1971 64.2979ZM59.4614 61.1119L63.5622 59.0583L59.4614 57.0046V61.1119ZM72.7367 61.0927V57.0238L68.674 59.0583L72.7367 61.0927Z" fill="#1C8849"/>
<path d="M84.4099 62.8205C83.7684 62.8143 83.1356 62.6707 82.5535 62.3993C81.9714 62.128 81.4534 61.7351 81.0339 61.2467C80.538 60.6901 80.5189 60.0568 80.9766 59.5962C81.4344 59.1355 82.0257 59.1163 82.5979 59.5962C82.6962 59.6759 82.7857 59.766 82.8649 59.8649C83.8377 60.7669 84.944 60.7477 85.9167 59.8457L86.3173 59.481C86.8132 59.1163 87.3282 59.1355 87.7669 59.577C87.8766 59.6672 87.9667 59.7792 88.0314 59.9061C88.0962 60.0329 88.1342 60.1718 88.1432 60.3141C88.1521 60.4565 88.1318 60.5991 88.0834 60.7331C88.0351 60.8672 87.9598 60.9898 87.8622 61.0932C87.4536 61.6245 86.9307 62.0559 86.3328 62.3551C85.735 62.6542 85.0776 62.8133 84.4099 62.8205Z" fill="#1C8849"/>
<path d="M80.3091 54.5293C80.3186 54.7083 80.3186 54.8877 80.3091 55.0667C80.2328 55.7768 79.7559 56.2758 79.1647 56.2566C78.5734 56.2374 78.0774 55.7576 78.0393 54.9707C78.0202 54.6191 78.0202 54.2667 78.0393 53.9151C78.0774 53.1666 78.5161 52.6868 79.1265 52.6676C79.7369 52.6484 80.2328 53.1282 80.3091 53.8384C80.3282 54.0687 80.3091 54.299 80.3091 54.5293Z" fill="#1C8849"/>
<path d="M90.7233 54.5101C90.7424 55.7 90.38 56.2566 89.617 56.2566C88.8541 56.2566 88.4535 55.6808 88.4535 54.5293C88.4434 54.2274 88.4626 53.9253 88.5108 53.6272C88.6252 52.9939 89.0448 52.6676 89.6361 52.6868C90.2274 52.706 90.6661 53.0898 90.7233 53.7424C90.7424 54.0111 90.7233 54.2606 90.7233 54.5101Z" fill="#1C8849"/>
<path d="M46.5487 56.2758C45.9196 56.257 45.3009 56.1095 44.7303 55.8422C44.1597 55.5749 43.6492 55.1935 43.2299 54.7212C42.7149 54.1454 42.6767 53.4929 43.1345 53.0131C43.5923 52.5332 44.2408 52.5332 44.813 53.109C45.3852 53.6848 46.2435 54.203 47.1972 53.8191C47.5651 53.6568 47.901 53.4292 48.189 53.1474C48.8566 52.5716 49.4479 52.514 49.9438 53.0131C50.4397 53.5121 50.3825 54.1454 49.8103 54.7788C48.9628 55.6925 47.7899 56.2308 46.5487 56.2758Z" fill="#1C8849"/>
<path d="M50.6304 47.9078V47.6007C50.6495 46.6219 51.0501 46.1037 51.7749 46.1037C52.4997 46.1037 52.9002 46.6603 52.9193 47.6391C52.9352 47.9659 52.9224 48.2934 52.8811 48.6179C52.8615 48.9166 52.7271 49.1958 52.5063 49.3965C52.2856 49.5971 51.9959 49.7034 51.6986 49.6927C51.1073 49.6543 50.6877 49.1937 50.6304 48.522V47.9078Z" fill="#1C8849"/>
<path d="M42.4478 47.8886V48.3492C42.4288 49.1745 41.9901 49.6927 41.3225 49.6927C40.6549 49.6927 40.1972 49.1745 40.1781 48.3301C40.1463 47.9529 40.1527 47.5735 40.1972 47.1977C40.2734 46.5068 40.7694 46.0845 41.3606 46.1229C41.9519 46.1613 42.3906 46.5835 42.4478 47.2745V47.8886Z" fill="#1C8849"/>
<path d="M66.1183 82.5122C65.4702 82.5064 64.831 82.3593 64.2449 82.081C63.6588 81.8026 63.1396 81.3997 62.7232 80.9C62.2463 80.3434 62.2654 79.6908 62.7422 79.2494C63.2191 78.808 63.7913 78.8656 64.3253 79.2878C65.8512 80.5737 66.3853 80.5737 67.9112 79.2878C68.4262 78.8464 69.0747 78.8464 69.4943 79.2494C69.9139 79.6525 69.9711 80.3626 69.5134 80.9C69.0986 81.4017 68.5798 81.806 67.9933 82.0845C67.4068 82.363 66.7668 82.509 66.1183 82.5122Z" fill="#1C8849"/>
<path d="M62.2082 73.7027C62.3541 73.6975 62.4996 73.722 62.6359 73.7747C62.7723 73.8274 62.8967 73.9071 63.0017 74.0092C63.1067 74.1113 63.1903 74.2337 63.2473 74.369C63.3043 74.5043 63.3336 74.6497 63.3335 74.7967C63.3412 74.9435 63.3194 75.0904 63.2695 75.2286C63.2195 75.3667 63.1423 75.4934 63.0426 75.6008C62.9429 75.7083 62.8227 75.7945 62.6892 75.8542C62.5556 75.9139 62.4115 75.9459 62.2654 75.9482C62.1139 75.9594 61.9618 75.9379 61.8192 75.8852C61.6766 75.8325 61.5468 75.7498 61.4385 75.6427C61.3302 75.5355 61.2458 75.4063 61.1911 75.2637C61.1363 75.1212 61.1124 74.9685 61.121 74.8159C61.1158 74.6699 61.1402 74.5244 61.1927 74.3882C61.2453 74.2521 61.3248 74.1281 61.4266 74.024C61.5283 73.9198 61.6501 73.8376 61.7845 73.7823C61.9189 73.7271 62.063 73.7 62.2082 73.7027Z" fill="#1C8849"/>
<path d="M69.9902 75.9483C69.8442 75.9509 69.6992 75.9238 69.5638 75.8688C69.4284 75.8138 69.3055 75.7319 69.2022 75.628C69.099 75.5241 69.0176 75.4004 68.9629 75.2641C68.9082 75.1279 68.8814 74.982 68.8839 74.8351C68.8784 74.6833 68.9044 74.5319 68.9602 74.3908C69.0161 74.2496 69.1005 74.1216 69.2081 74.0151C69.3158 73.9086 69.4443 73.8258 69.5856 73.772C69.7268 73.7182 69.8776 73.6946 70.0284 73.7027C70.1728 73.7052 70.3153 73.7366 70.4475 73.7951C70.5798 73.8536 70.6991 73.938 70.7985 74.0434C70.898 74.1489 70.9755 74.2732 71.0267 74.4091C71.0778 74.545 71.1016 74.6898 71.0965 74.8351C71.0991 74.982 71.0722 75.1279 71.0175 75.2641C70.9629 75.4004 70.8815 75.5241 70.7782 75.628C70.675 75.7319 70.552 75.8138 70.4166 75.8688C70.2812 75.9238 70.1362 75.9509 69.9902 75.9483Z" fill="#1C8849"/>
</g>
<defs>
<clipPath id="clip0_36_336">
<rect width="77.9922" height="71.9149" fill="white" transform="translate(25.8156 27.6595)"/>
</clipPath>
</defs>
</svg>
