<svg width="130" height="130" viewBox="0 0 130 130" fill="none" xmlns="http://www.w3.org/2000/svg">
<circle cx="65" cy="65" r="65" fill="white" fill-opacity="0.5"/>
<g clip-path="url(#clip0_36_322)">
<path d="M103.865 51.0705C103.502 51.4714 103.177 51.8724 102.796 52.2542L94.2804 60.7694C94.131 60.9379 93.9716 61.0972 93.8031 61.2467C93.2303 61.724 92.543 61.7431 92.0656 61.3039C91.5883 60.8648 91.5502 60.1393 92.0656 59.5284C92.2048 59.3448 92.365 59.1782 92.543 59.032L100.237 51.3187C100.433 51.1553 100.636 51.0023 100.848 50.8605L90.7292 40.7416C90.6311 40.9897 90.4959 41.2214 90.3283 41.4289L58.0051 73.7712C56.8596 74.9358 55.5613 75.5277 53.9576 74.974C53.3891 74.7647 52.874 74.4322 52.4493 74.0003C50.2346 71.862 48.0772 69.6854 45.9197 67.4898C45.2133 66.8025 45.137 66.1152 45.6715 65.5615C46.2061 65.0078 46.9698 65.0651 47.6762 65.7906L53.6139 71.7092C54.9694 73.0648 55.2177 73.0839 56.5541 71.7283L89.4882 38.7942C90.8247 37.4577 91.1492 37.4577 92.5239 38.8324L102.853 49.1804C103.216 49.5431 103.521 49.925 103.865 50.3068V51.0705Z" fill="#EF4932"/>
<path d="M38.7601 60.3875L28.9085 70.2391C29.0306 70.3957 29.1646 70.5425 29.3095 70.6782L49.8336 91.2024C51.972 93.3598 54.473 94.0853 57.4132 93.1498C58.6352 92.768 59.5898 91.9852 60.468 91.0878L88.0181 63.5568C88.2362 63.3096 88.4794 63.0857 88.7436 62.8886C88.9709 62.714 89.2571 62.6343 89.542 62.6664C89.8268 62.6984 90.0882 62.8397 90.271 63.0604C90.7101 63.4996 90.7483 64.0532 90.4046 64.5878C90.2405 64.8091 90.055 65.0137 89.851 65.1988C80.5976 74.4649 71.3442 83.7182 62.0908 92.9589C57.9287 97.121 52.2392 97.1019 48.0771 92.9398L26.6175 71.4992C25.5292 70.411 25.5292 69.9336 26.6366 68.8454L37.4237 58.0583C38.4547 57.0273 38.932 57.0273 39.9629 58.0583C40.9939 59.0893 42.4831 60.5212 43.6668 61.8003C44.0161 62.1798 44.2073 62.6784 44.2014 63.1941C44.106 64.1487 42.9031 64.416 42.1204 63.6905C41.3376 62.965 40.173 61.7622 39.1993 60.8076C39.0631 60.6572 38.9164 60.5168 38.7601 60.3875V60.3875Z" fill="#EF4932"/>
</g>
<defs>
<clipPath id="clip0_36_322">
<rect width="78.0491" height="58.2695" fill="white" transform="translate(25.8156 37.8014)"/>
</clipPath>
</defs>
</svg>
