<svg width="130" height="130" viewBox="0 0 130 130" fill="none" xmlns="http://www.w3.org/2000/svg">
<circle cx="65" cy="65" r="65" fill="white" fill-opacity="0.5"/>
<g clip-path="url(#clip0_36_349)">
<path d="M76.6858 23.0496L76.9006 23.1567C79.6287 23.9273 81.0035 25.7256 81.0035 28.5515V53.5346C81.5191 53.3847 81.9272 53.3419 82.3139 53.192L91.787 49.4242C92.0534 49.2966 92.3349 49.2031 92.6248 49.1459C93.2478 49.0175 93.7203 49.2958 93.9566 49.8952C94.1929 50.4946 93.9566 50.9442 93.4626 51.2867C93.2585 51.408 93.0426 51.5085 92.8181 51.5864C89.8752 52.7639 86.9538 53.9413 84.0109 55.0759C83.345 55.3328 83.0872 55.6325 83.0872 56.3818C83.1301 62.8899 83.1086 69.4193 83.1086 75.9273C83.1339 76.1984 83.1267 76.4715 83.0872 76.7408C82.9368 77.383 82.5286 77.7684 81.8413 77.7256C81.1539 77.6828 80.8102 77.2974 80.7242 76.6552C80.6956 76.4208 80.6884 76.1844 80.7028 75.9487V58.0088C80.445 58.2871 80.2731 58.437 80.1443 58.6083C79.0272 59.9141 77.9532 61.2628 76.7932 62.5045C76.4495 62.8684 75.8695 63.211 75.3754 63.211C68.4442 63.2538 61.4986 63.2538 54.5387 63.211C53.9978 63.1637 53.4932 62.9199 53.1209 62.5259C51.8106 61.0916 50.5862 59.593 49.2328 57.9874V102.644H80.7028V82.6494C80.6884 82.3781 80.6956 82.1061 80.7242 81.8359C80.7689 81.5603 80.9087 81.3088 81.1195 81.1249C81.3303 80.941 81.5989 80.8362 81.879 80.8286C82.1591 80.8209 82.433 80.911 82.6536 81.0832C82.8742 81.2554 83.0275 81.4989 83.0872 81.7717C83.1265 82.0339 83.1337 82.2998 83.1086 82.5638V103.329C83.1086 104.785 82.7864 105.106 81.3257 105.106H48.5884C47.0847 105.106 46.784 104.785 46.784 103.265C46.784 87.6232 46.784 71.974 46.784 56.3176C46.784 55.654 46.6121 55.3328 45.9677 55.0973C42.9818 53.9413 39.9959 52.7425 37.0315 51.565C36.7952 51.458 36.473 51.4152 36.3871 51.2439C36.3012 51.0727 35.9145 50.3448 35.9789 49.9166C36.0434 49.4885 36.5804 49.0603 37.1819 49.1245C37.5021 49.182 37.8129 49.2828 38.1056 49.4242L47.7077 53.2349C48.0514 53.3633 48.4166 53.4061 48.8892 53.5346V42.745C48.8931 42.4282 48.9291 42.1126 48.9966 41.803C49.0629 41.5401 49.225 41.3112 49.4513 41.1609C49.6776 41.0105 49.952 40.9494 50.221 40.9895C50.4932 40.9997 50.7519 41.1106 50.9465 41.3006C51.1411 41.4906 51.2577 41.746 51.2736 42.0171C51.338 42.5737 51.295 43.1303 51.3165 43.6869V53.3847H78.5546C78.5546 53.085 78.5761 52.8067 78.5761 52.507C78.5904 44.5718 78.5904 36.6151 78.5761 28.6371C78.5761 26.4749 77.545 25.4473 75.3754 25.4473H54.4743C52.3476 25.4473 51.3165 26.4963 51.3165 28.6157C51.295 31.2061 51.3165 33.7964 51.295 36.3868C51.295 37.3716 50.8439 37.9496 50.0921 37.9282C49.3403 37.9068 48.9106 37.3501 48.8892 36.4082V28.4658C48.9106 25.7256 50.3069 23.9273 52.9921 23.1567L53.2069 23.0496H76.6858ZM79.2635 55.9323H50.6291C52.0254 57.5593 53.2928 59.0792 54.6246 60.5778C54.775 60.7705 55.1402 60.8347 55.3979 60.8347H74.5162C74.7745 60.8552 75.0322 60.7872 75.2465 60.642C76.5784 59.122 77.8672 57.5593 79.2635 55.9323Z" fill="#CB6D3F"/>
<path d="M61.069 74.9425H55.355V96.5646H61.069V88.7292C61.0904 87.8301 61.4986 87.3163 62.2289 87.2949C62.9593 87.2735 63.4749 87.7873 63.4963 88.7292V97.5279C63.4749 98.5555 63.0452 99.0051 62.0356 99.0051C59.4794 99.0265 56.9446 99.0265 54.3883 99.0051C53.2928 99.0051 52.9061 98.5769 52.9061 97.3995C52.8918 90.4918 52.8846 83.5771 52.8846 76.6552C52.8846 75.756 52.8846 74.8355 52.9061 73.9364C52.9276 73.0372 53.3357 72.502 54.3239 72.502C56.8801 72.4806 59.4579 72.4806 62.0356 72.502C63.0667 72.502 63.4749 72.9516 63.4963 73.9792V82.7136C63.4749 83.6556 63.0237 84.2122 62.2934 84.2336C61.563 84.255 61.0904 83.677 61.069 82.6922V74.9425Z" fill="#CB6D3F"/>
<path d="M71.0577 28.3374C72.3301 28.3374 73.5508 28.8397 74.4526 29.7344C75.3543 30.629 75.8638 31.8433 75.8695 33.1114C75.8723 33.7411 75.7507 34.3653 75.5114 34.9481C75.2722 35.531 74.9202 36.0612 74.4753 36.5085C74.0305 36.9558 73.5017 37.3114 72.9189 37.555C72.3362 37.7986 71.7111 37.9254 71.0792 37.9282C69.8064 37.9227 68.5868 37.4193 67.6828 36.5264C66.7788 35.6335 66.2628 34.4225 66.2459 33.1542C66.2515 31.8821 66.7596 30.6634 67.6601 29.7619C68.5607 28.8604 69.7813 28.3486 71.0577 28.3374ZM71.1006 35.5305C71.7351 35.5083 72.3361 35.2414 72.777 34.7861C73.2178 34.3308 73.464 33.7227 73.4636 33.09C73.4411 32.4559 73.1697 31.8559 72.7076 31.4194C72.2455 30.983 71.6298 30.7449 70.9932 30.7565C70.372 30.7839 69.7849 31.0479 69.3533 31.4941C68.9216 31.9402 68.6782 32.5344 68.6733 33.1542C68.69 33.7866 68.9524 34.3878 69.4052 34.8311C69.8581 35.2744 70.4659 35.5252 71.1006 35.5305Z" fill="#CB6D3F"/>
<path d="M58.8134 28.3374C60.0899 28.343 61.3127 28.8493 62.2173 29.7468C63.1219 30.6443 63.6354 31.8608 63.6467 33.1328C63.6355 34.4011 63.1249 35.6144 62.225 36.5113C61.325 37.4082 60.1076 37.917 58.8349 37.9282C57.5642 37.9226 56.3468 37.4185 55.4462 36.525C54.5457 35.6315 54.0344 34.4206 54.0231 33.1542C54.0231 31.8841 54.5264 30.6654 55.4236 29.7633C56.3207 28.8612 57.539 28.3487 58.8134 28.3374ZM58.8349 35.5305C59.4695 35.5139 60.0727 35.2523 60.5176 34.801C60.9624 34.3497 61.214 33.744 61.2193 33.1114C61.2024 32.4773 60.9363 31.8751 60.4783 31.4347C60.0203 30.9942 59.407 30.7507 58.7705 30.7565C58.1473 30.7731 57.555 31.0301 57.1182 31.4734C56.6814 31.9167 56.4344 32.5116 56.429 33.1328C56.4401 33.7653 56.6971 34.3687 57.1459 34.816C57.5947 35.2633 58.2003 35.5195 58.8349 35.5305Z" fill="#CB6D3F"/>
<path d="M71.0792 40.9895C71.7109 40.9866 72.3368 41.1089 72.9207 41.3491C73.5046 41.5894 74.0348 41.9428 74.4805 42.389C74.9261 42.8351 75.2784 43.3651 75.5169 43.948C75.7553 44.531 75.8752 45.1554 75.8695 45.7849C75.8667 46.4136 75.7393 47.0356 75.4946 47.6152C75.2499 48.1947 74.8928 48.7204 74.4437 49.162C73.9946 49.6036 73.4624 49.9524 72.8776 50.1885C72.2929 50.4245 71.6671 50.5431 71.0362 50.5375C69.7655 50.5262 68.5504 50.0167 67.6539 49.1192C66.7573 48.2217 66.2515 47.0085 66.2459 45.7421C66.2487 45.1133 66.3761 44.4913 66.6208 43.9118C66.8655 43.3323 67.2226 42.8066 67.6717 42.365C68.1208 41.9234 68.653 41.5746 69.2378 41.3385C69.8225 41.1025 70.4483 40.9839 71.0792 40.9895ZM71.0577 43.3872C70.7428 43.3872 70.4309 43.4494 70.1402 43.5701C69.8495 43.6909 69.5857 43.8678 69.364 44.0908C69.1423 44.3137 68.9671 44.5782 68.8486 44.869C68.73 45.1597 68.6705 45.471 68.6733 45.7849C68.6896 46.4043 68.9438 46.9939 69.3834 47.4321C69.8231 47.8702 70.4147 48.1235 71.0362 48.1398C71.6726 48.1399 72.2836 47.8909 72.7376 47.4464C73.1916 47.002 73.4523 46.3976 73.4636 45.7635C73.4579 45.1313 73.2019 44.5269 72.7514 44.0819C72.3008 43.6368 71.6921 43.3872 71.0577 43.3872Z" fill="#CB6D3F"/>
<path d="M58.8349 40.9895C59.4658 40.9867 60.091 41.1081 60.6747 41.3467C61.2584 41.5854 61.789 41.9366 62.2361 42.3802C62.6832 42.8237 63.0379 43.351 63.28 43.9316C63.5221 44.5122 63.6467 45.1347 63.6467 45.7635C63.6439 46.3932 63.5166 47.0162 63.2722 47.597C63.0278 48.1777 62.671 48.7048 62.2222 49.1481C61.7734 49.5914 61.2413 49.9422 60.6565 50.1806C60.0716 50.419 59.4453 50.5403 58.8134 50.5374C57.541 50.5318 56.3226 50.0241 55.4249 49.1254C54.5271 48.2267 54.0231 47.0102 54.0231 45.7421C54.0259 45.1151 54.1526 44.4949 54.396 43.9168C54.6393 43.3386 54.9945 42.8139 55.4414 42.3726C55.8882 41.9313 56.4178 41.582 57.0001 41.3447C57.5824 41.1074 58.2058 40.9867 58.8349 40.9895ZM58.8349 43.3872C58.2005 43.3872 57.5918 43.6368 57.1413 44.0819C56.6907 44.5269 56.4347 45.1313 56.429 45.7635C56.4457 46.3959 56.7081 46.9971 57.161 47.4404C57.6138 47.8837 58.2217 48.1344 58.8564 48.1398C59.4796 48.1288 60.0743 47.8771 60.515 47.4379C60.9558 46.9986 61.2083 46.406 61.2193 45.7849C61.2193 45.1527 60.9688 44.546 60.5223 44.097C60.0757 43.6479 59.4693 43.3928 58.8349 43.3872Z" fill="#CB6D3F"/>
</g>
<defs>
<clipPath id="clip0_36_349">
<rect width="58.0851" height="82.0567" fill="white" transform="translate(35.9575 23.0496)"/>
</clipPath>
</defs>
</svg>
