<svg width="281" height="521" viewBox="0 0 281 521" fill="none" xmlns="http://www.w3.org/2000/svg">
<path d="M112.686 130.12C112.495 132.878 111.698 135.559 110.351 137.973C109.004 140.387 107.141 142.474 104.895 144.085C102.649 145.695 100.075 146.791 97.3565 147.292C94.6383 147.794 91.8427 147.689 89.1696 146.985C86.4966 146.282 84.0123 144.997 81.893 143.223C79.7736 141.448 78.0719 139.228 76.9096 136.72C75.7474 134.212 75.1528 131.479 75.1688 128.715C75.1847 125.951 75.811 123.224 77.0021 120.73C77.4485 118.24 78.3927 115.866 79.7792 113.75C81.1656 111.634 82.9657 109.82 85.0705 108.417C87.1752 107.014 89.5415 106.051 92.0277 105.584C94.514 105.118 97.069 105.159 99.539 105.705C102.02 106.421 104.334 107.626 106.343 109.247C108.353 110.869 110.019 112.876 111.243 115.15C112.468 117.424 113.226 119.919 113.473 122.49C113.721 125.06 113.453 127.654 112.686 130.12Z" fill="#83592F"/>
<path d="M95.7833 170.812C95.8121 171.151 95.771 171.493 95.6633 171.816C95.5557 172.139 95.3832 172.436 95.1567 172.69H93.279C85.0559 173.702 76.7102 172.846 68.8637 170.186L66.3594 168.934C65.1073 168.308 65.7335 166.43 65.7335 165.178L67.6119 152.031C67.6681 149.685 68.0902 147.361 68.8637 145.145C70.2262 143.367 71.9289 141.877 73.8722 140.763C80.1325 137.633 90.7744 120.73 98.2868 120.104C105.799 119.478 98.9128 146.397 98.2868 150.779C97.6608 155.162 97.0354 163.926 95.7833 170.186" fill="#FABA8E"/>
<path d="M83.2625 172.064C83.8886 170.186 83.8881 168.308 85.1402 167.056L88.2703 162.674C90.0624 158.529 90.9176 154.04 90.7746 149.527C90.9359 146.255 91.7895 143.055 93.2789 140.137L94.5306 137.007C87.4347 137.196 80.4337 138.681 73.872 141.389C71.9287 142.503 70.226 143.993 68.8635 145.771C68.0901 147.987 67.6679 150.311 67.6117 152.657L65.7333 165.804C65.7333 167.056 65.1071 168.934 66.3592 169.56L68.8635 170.812C73.2991 172.449 77.9286 173.501 82.6359 173.942C82.6359 173.316 83.2625 172.69 83.2625 172.064Z" fill="#CB6D3F"/>
<path d="M103.295 120.73C103.295 140.763 87.6447 156.414 73.872 156.414C60.0994 156.414 53.8386 140.763 53.8386 120.73C53.8386 100.697 65.1072 85.6722 78.8798 85.6722C92.6525 85.6722 103.295 101.323 103.295 120.73Z" fill="#FABA8E"/>
<path d="M109.555 129.494C108.967 131.599 107.613 133.407 105.76 134.565C103.907 135.723 101.689 136.148 99.5391 135.755C95.1568 134.503 93.9049 128.868 95.783 123.86C97.6611 118.852 102.043 115.721 105.799 117.599C109.556 119.478 111.434 123.86 109.555 129.494Z" fill="#FABA8E"/>
<path d="M104.547 120.73C107.677 121.356 108.303 125.112 107.051 128.242C105.799 131.372 102.669 133.877 100.165 132.624" fill="#F59770"/>
<path d="M87.6444 115.721C86.8746 115.076 85.961 114.625 84.9804 114.407C83.9997 114.19 82.9807 114.211 82.01 114.469H80.7582C80.1322 114.469 80.1323 114.469 80.1323 115.095H85.1401L88.8961 116.974C89.5222 117.6 89.5228 116.974 89.5228 116.348C89.5228 115.722 88.2704 114.469 87.6444 114.469" fill="#83592F"/>
<path d="M60.7247 114.469C62.4816 113.642 64.4635 113.422 66.3591 113.843H67.6117C67.6117 114.469 68.2377 114.469 67.6117 114.469H62.6031L59.4729 116.348C58.2208 116.974 58.221 116.347 58.847 115.095C59.4731 113.843 60.0986 113.843 60.7247 113.843" fill="#83592F"/>
<path d="M95.783 126.364C91.5688 125.81 87.2835 126.238 83.2624 127.616C82.0104 128.242 80.7583 128.242 80.1323 129.494C79.5063 130.746 79.5057 130.746 79.5057 131.372C79.5057 131.998 80.132 133.25 81.384 133.876C83.9284 135.086 86.7058 135.727 89.5227 135.755C91.6902 136.031 93.8887 135.592 95.783 134.503C97.538 133.277 98.8543 131.522 99.5391 129.494V128.242L97.6607 126.99H95.783" fill="#F59770"/>
<path d="M56.343 126.364C58.9158 125.84 61.591 126.286 63.855 127.616L65.7334 128.868C65.7334 129.494 66.3593 130.746 66.3593 131.372C66.3593 131.998 65.7335 133.25 65.1075 133.876C63.6974 135.049 61.9323 135.711 60.099 135.755C59.4185 135.855 58.7241 135.794 58.0716 135.577C57.419 135.359 56.8268 134.991 56.343 134.502C55.7117 133.835 55.2204 133.048 54.8979 132.188C54.5753 131.328 54.4277 130.412 54.4646 129.494V128.242C54.5041 127.76 54.729 127.311 55.0912 126.99H56.343" fill="#F59770"/>
<path d="M83.8884 121.356C83.8884 122.608 83.2619 123.86 82.6358 123.86C82.0098 123.86 80.7584 123.234 80.1323 121.982C80.1323 121.484 80.3296 121.006 80.6818 120.654C81.034 120.302 81.5119 120.104 82.01 120.104L83.8884 121.356Z" fill="#402740"/>
<path d="M66.9848 120.73C67.6108 121.982 66.9851 122.608 65.7331 123.234C65.235 123.234 64.7571 123.036 64.4049 122.684C64.0527 122.332 63.8547 121.854 63.8547 121.356C63.2287 120.73 64.4812 119.478 65.1072 119.478C65.7332 119.478 66.9848 120.104 66.9848 120.73Z" fill="#402740"/>
<path d="M48.2043 464.421C47.6843 453.554 48.1036 442.662 49.4569 431.867C50.2488 425.265 51.717 418.762 53.8388 412.46C55.7169 403.07 56.9694 393.679 58.2214 384.289C59.4735 374.898 60.7253 354.24 62.6034 339.215C64.1948 334.808 64.8352 330.114 64.4818 325.442C63.7169 322.956 62.4264 320.663 60.6982 318.719C58.9701 316.775 56.844 315.225 54.4646 314.174L50.7086 312.295C57.0151 311.014 63.5616 311.669 69.4895 314.174C71.8689 315.225 73.995 316.775 75.7231 318.719C77.4513 320.663 78.741 322.956 79.5059 325.442C79.8593 330.114 79.2197 334.808 77.6283 339.215C75.7502 354.24 75.1237 369.264 73.2456 384.289C71.3675 399.314 70.7418 403.07 68.8637 412.46C66.8268 418.829 65.1544 425.308 63.8551 431.867C63.0204 442.697 62.8115 453.567 63.2292 464.421C62.6032 471.307 61.3513 479.446 56.343 483.202C53.5515 484.268 50.5568 484.695 47.5785 484.454H37.5621L41.3181 483.202C46.3264 479.446 47.5783 471.307 48.2043 464.421Z" fill="#39364A"/>
<path d="M27.5456 482.576C26.2935 481.95 26.2932 480.698 25.6672 479.446C22.9556 472.231 21.4746 464.613 21.2853 456.908L13.7724 364.256C12.8333 358.241 12.8333 352.116 13.7724 346.101C15.7298 337.266 20.5765 329.336 27.5456 323.564C34.4841 318.122 42.6527 314.467 51.3343 312.921H52.5868L56.3428 314.799C58.8165 315.812 61.0452 317.341 62.8805 319.285C64.7159 321.228 66.1152 323.541 66.985 326.068C66.7095 330.7 66.0821 335.304 65.1074 339.841C63.2293 354.865 61.977 369.89 60.0989 384.915C58.2208 399.94 57.595 403.696 55.717 413.086C53.6801 419.455 52.0076 425.934 50.7084 432.493C49.3552 443.288 48.9366 454.18 49.4566 465.047C49.4566 471.933 48.2047 480.072 42.5705 483.828L38.1878 485.08H31.3016L27.5456 483.828" fill="#423F55"/>
<path d="M130.215 399.939C129.492 403.69 129.706 407.561 130.841 411.208C132.154 413.557 133.846 415.672 135.849 417.468C141.396 423.227 146.621 429.288 151.5 435.623C155.41 439.884 158.206 445.045 159.638 450.648C160.176 456.261 159.09 461.911 156.508 466.925C155.377 469.911 153.424 472.515 150.874 474.437C149.353 475.525 147.607 476.259 145.766 476.584C143.924 476.909 142.033 476.817 140.231 476.315C126.459 474.437 115.19 461.29 106.426 449.396C88.3373 424.527 72.8158 397.889 60.0994 369.89C56.6253 363.317 54.6981 356.036 54.465 348.605C55.091 336.71 65.7335 328.572 76.376 324.816C85.2108 320.88 94.9344 319.367 104.547 320.434C111.575 321.554 118.231 324.345 123.955 328.572C130.841 333.58 130.841 337.336 130.841 346.101C131.575 364.046 131.367 382.017 130.215 399.939Z" fill="#49455C"/>
<path d="M10.0166 289.758C10.1173 291.247 9.90421 292.74 9.39069 294.14L7.51229 297.897C5.39243 301.311 3.51051 304.867 1.87863 308.539C0.743389 311.328 0.107361 314.295 0.000236511 317.304C0.000236511 319.182 0.625961 319.808 1.25199 319.808H2.50451C2.44007 320.302 2.52445 320.805 2.74752 321.251C2.9706 321.697 3.3219 322.067 3.75626 322.312H5.63466L6.88642 323.564H9.39069L11.895 324.816C15.0251 324.19 16.903 319.182 15.651 317.93C15.651 317.763 15.585 317.604 15.4676 317.487C15.3502 317.369 15.1911 317.304 15.0251 317.304C15.7235 316.163 16.1515 314.879 16.2769 313.547V319.182C16.2769 320.434 16.903 324.19 18.7811 323.564C20.6592 322.938 20.0329 320.434 20.0329 319.808C20.1511 317.672 20.5731 315.564 21.2854 313.547V306.035C21.2854 304.783 20.6594 303.531 21.2854 302.279C21.9114 301.027 23.1637 299.149 23.7897 297.271C26.0993 294.076 28.1908 290.73 30.05 287.254" fill="#FABA8E"/>
<path d="M107.677 200.236C103.921 201.488 97.035 200.862 93.2788 202.114C89.5227 203.366 85.1401 200.862 82.01 203.366C77.4253 206.903 73.4131 211.126 70.1152 215.886C65.1971 220.806 60.5972 226.034 56.3429 231.537C53.6722 237.226 51.3722 243.081 49.4567 249.066C46.3265 255.326 42.5704 262.213 40.0662 268.473C37.5621 274.733 36.9358 281.62 35.0577 286.628C33.32 291.572 31.2278 296.384 28.7974 301.027C26.2933 304.783 26.9196 304.157 24.4155 306.035C21.1823 307.066 17.7866 307.49 14.3991 307.287C11.5633 306.923 8.81038 306.076 6.26043 304.783C3.7563 303.531 5.63424 304.783 3.75615 301.653C1.5584 297.179 0.484024 292.237 0.625999 287.254C-3.05176e-05 282.246 3.13027 274.733 3.13027 268.473C3.13027 262.213 3.75661 254.7 5.00867 247.188C6.26073 239.676 13.1469 227.155 15.025 220.895C16.9031 214.634 18.7812 204.618 21.2853 197.732C25.5996 185.407 32.4203 174.109 41.318 164.552C69.4894 162.674 92.6527 181.455 115.816 196.479C113.433 198.349 110.646 199.636 107.677 200.236Z" fill="#30A15E"/>
<path d="M71.9937 141.389H81.3841C82.0102 141.389 82.01 142.641 82.01 143.267L80.7583 145.145C78.8558 146.76 76.4716 147.697 73.979 147.81C71.4865 147.923 69.0262 147.206 66.9851 145.771C65.733 145.145 63.2295 142.015 64.4816 140.763C65.7337 139.511 70.7416 141.389 71.9937 141.389Z" fill="white"/>
<path d="M33.1801 203.366L46.3266 175.821C51.8372 170.399 58.633 166.465 66.0781 164.384C73.5231 162.304 81.3736 162.146 88.8962 163.926C116.442 168.934 132.093 211.504 128.336 249.066C124.58 286.628 157.134 345.475 130.841 354.866C104.547 364.256 12.5207 354.865 6.88641 341.093C1.25214 327.32 23.1637 224.651 33.1801 203.366Z" fill="#1C8849"/>
<path d="M75.7497 135.129C75.2366 135.625 74.6239 136.006 73.9515 136.246C73.2792 136.486 72.5629 136.579 71.8515 136.52C71.1401 136.461 70.4497 136.25 69.8264 135.902C69.203 135.554 68.6614 135.077 68.2376 134.502" stroke="#F59770" stroke-width="0.22" stroke-miterlimit="10" stroke-linecap="round"/>
<path d="M122.076 60.6309C121.942 61.0641 121.715 61.4628 121.412 61.7998C121.109 62.1367 120.736 62.4039 120.319 62.5825C119.902 62.7611 119.452 62.847 118.999 62.8343C118.545 62.8216 118.1 62.7106 117.694 62.509C116.993 62.1742 116.205 62.0651 115.44 62.1964C114.674 62.3278 113.969 62.6931 113.419 63.2424C112.87 63.7916 112.504 64.4977 112.373 65.2633C112.242 66.0289 112.351 66.8162 112.686 67.5171C112.887 67.9233 112.999 68.3684 113.011 68.8216C113.024 69.2749 112.938 69.7256 112.759 70.1423C112.58 70.5591 112.313 70.9319 111.977 71.2353C111.64 71.5387 111.24 71.7654 110.807 71.8994C110.137 72.1916 109.567 72.6731 109.167 73.2847C108.766 73.8963 108.553 74.6114 108.553 75.3425C108.553 76.0736 108.766 76.7889 109.167 77.4005C109.567 78.0121 110.137 78.4936 110.807 78.7858C111.262 78.9886 111.671 79.2796 112.012 79.6421C112.353 80.0045 112.619 80.4311 112.794 80.8971C112.969 81.3631 113.049 81.8592 113.03 82.3565C113.012 82.8538 112.895 83.3424 112.686 83.794C112.525 84.4605 112.55 85.1581 112.758 85.8115C112.965 86.4648 113.348 87.0489 113.864 87.5003C114.38 87.9518 115.009 88.2533 115.684 88.3725C116.36 88.4916 117.055 88.4238 117.694 88.1763C118.143 87.9765 118.632 87.8853 119.123 87.91C119.614 87.9346 120.093 88.0746 120.519 88.3184C120.946 88.5623 121.309 88.9031 121.579 89.3134C121.85 89.7237 122.02 90.1921 122.076 90.6804C122.368 91.3505 122.85 91.9209 123.462 92.3215C124.073 92.722 124.788 92.9353 125.52 92.9353C126.251 92.9353 126.966 92.722 127.578 92.3215C128.189 91.9209 128.67 91.3505 128.962 90.6804C129.101 90.1705 129.346 89.6956 129.681 89.2868C130.016 88.8781 130.434 88.5448 130.906 88.3085C131.379 88.0721 131.897 87.9381 132.425 87.9153C132.953 87.8925 133.48 87.9815 133.971 88.1763C134.574 88.6284 135.319 88.8477 136.071 88.7943C136.822 88.7409 137.53 88.4183 138.062 87.8855C138.595 87.3527 138.918 86.6456 138.971 85.894C139.024 85.1424 138.805 84.3968 138.353 83.794C138.12 82.7982 138.243 81.7525 138.7 80.8379C139.158 79.9232 139.921 79.1973 140.857 78.7858C141.527 78.4936 142.097 78.0121 142.498 77.4005C142.898 76.7889 143.112 76.0736 143.112 75.3425C143.112 74.6114 142.898 73.8963 142.498 73.2847C142.097 72.6731 141.527 72.1916 140.857 71.8994C139.97 71.6104 139.222 71.0017 138.759 70.1916C138.296 69.3816 138.151 68.4281 138.353 67.5171C138.6 66.8778 138.668 66.183 138.549 65.5079C138.43 64.8327 138.129 64.2031 137.677 63.6872C137.226 63.1712 136.642 62.7887 135.988 62.581C135.335 62.3733 134.637 62.3484 133.971 62.509C133.519 62.718 133.031 62.8352 132.533 62.8538C132.036 62.8724 131.54 62.792 131.074 62.6173C130.608 62.4425 130.181 62.1771 129.819 61.8361C129.457 61.4951 129.165 61.0854 128.962 60.6309C128.67 59.9608 128.189 59.3904 127.578 58.9898C126.966 58.5893 126.251 58.3758 125.52 58.3758C124.788 58.3758 124.073 58.5893 123.462 58.9898C122.85 59.3904 122.368 59.9608 122.076 60.6309Z" fill="#1C8849"/>
<path d="M48.8309 56.2486C47.5788 58.1267 45.7004 59.3787 43.8223 58.1266C43.1214 57.7919 42.3343 57.6827 41.5687 57.8141C40.8031 57.9454 40.0966 58.3108 39.5474 58.8601C38.9981 59.4093 38.6326 60.1154 38.5012 60.881C38.3699 61.6466 38.479 62.4341 38.8138 63.135C40.0658 65.0131 38.8142 66.8911 36.9361 68.1432C36.106 68.1432 35.3093 68.473 34.7223 69.06C34.1353 69.647 33.806 70.4432 33.806 71.2733C33.806 72.1035 34.1353 72.8996 34.7223 73.4866C35.3093 74.0737 36.106 74.4035 36.9361 74.4035C37.3906 74.6063 37.8003 74.8973 38.1413 75.2598C38.4823 75.6222 38.7475 76.0488 38.9223 76.5148C39.097 76.9807 39.1778 77.4769 39.1592 77.9742C39.1406 78.4715 39.0228 78.9602 38.8138 79.4118C38.479 80.1128 38.3699 80.9001 38.5012 81.6657C38.6326 82.4312 38.9981 83.1373 39.5474 83.6866C40.0966 84.2358 40.8031 84.6012 41.5687 84.7326C42.3343 84.8639 43.1214 84.7548 43.8223 84.42C45.7004 83.168 47.5788 84.4199 48.8309 86.298C48.8309 87.1282 49.1601 87.9245 49.7471 88.5115C50.3341 89.0986 51.1308 89.4282 51.961 89.4282C52.7912 89.4282 53.5871 89.0986 54.1741 88.5115C54.7611 87.9245 55.0911 87.1282 55.0911 86.298C55.2939 85.8436 55.5846 85.4339 55.947 85.0929C56.3095 84.7519 56.7359 84.4864 57.2019 84.3117C57.6678 84.137 58.1642 84.0566 58.6615 84.0752C59.1588 84.0938 59.6473 84.2109 60.0989 84.42C60.7998 84.7548 61.5877 84.8639 62.3533 84.7326C63.1189 84.6012 63.8246 84.2358 64.3738 83.6866C64.9231 83.1373 65.2887 82.4312 65.42 81.6657C65.5514 80.9001 65.4422 80.1128 65.1075 79.4118C64.8984 78.9602 64.7807 78.4715 64.762 77.9742C64.7434 77.4769 64.8242 76.9807 64.9989 76.5148C65.1737 76.0488 65.4389 75.6222 65.78 75.2598C66.121 74.8973 66.5306 74.6063 66.9851 74.4035C67.8153 74.4035 68.6119 74.0737 69.199 73.4866C69.786 72.8996 70.1152 72.1035 70.1152 71.2733C70.1152 70.4432 69.786 69.647 69.199 69.06C68.6119 68.473 67.8153 68.1432 66.9851 68.1432C65.107 66.8911 63.8554 65.0131 65.1075 63.135C65.4422 62.4341 65.5514 61.6466 65.42 60.881C65.2887 60.1154 64.9231 59.4093 64.3738 58.8601C63.8246 58.3108 63.1189 57.9454 62.3533 57.8141C61.5877 57.6827 60.7998 57.7919 60.0989 58.1266C59.6473 58.3357 59.1588 58.4531 58.6615 58.4717C58.1642 58.4903 57.6678 58.4099 57.2019 58.2352C56.7359 58.0604 56.3095 57.7948 55.947 57.4538C55.5846 57.1127 55.2939 56.7031 55.0911 56.2486C55.0911 55.4185 54.7611 54.6223 54.1741 54.0353C53.5871 53.4483 52.7912 53.1185 51.961 53.1185C51.1308 53.1185 50.3341 53.4483 49.7471 54.0353C49.1601 54.6223 48.8309 55.4185 48.8309 56.2486Z" fill="#1C8849"/>
<path d="M111.434 131.998C107.678 137.633 102.669 120.104 92.6528 112.591C82.6363 105.079 72.6198 100.071 77.002 95.0626C81.3843 90.0544 92.0268 91.3063 102.043 98.8187C112.06 106.331 115.816 126.99 111.434 131.998Z" fill="#83592F"/>
<path d="M51.9607 120.73C54.4648 123.86 57.5944 113.217 63.8547 108.209C70.115 103.201 75.7492 100.697 73.2451 97.5668C70.741 94.4366 63.8553 95.6887 58.221 100.071C52.5867 104.453 49.4566 117.6 51.9607 120.73Z" fill="#83592F"/>
<path d="M112.06 135.755C110.893 127.828 107.512 120.392 102.307 114.301C97.1024 108.21 90.2837 103.712 82.6361 101.323C56.9689 93.8105 51.3346 112.591 51.3346 112.591C51.3346 112.591 45.7009 80.6639 51.9612 76.2816C58.2215 71.8994 58.8474 81.2898 93.2791 81.2898C110.182 81.2898 120.199 72.5255 123.955 76.2816C127.711 80.0378 128.337 110.087 112.06 135.755Z" fill="#C0B2BB"/>
<path d="M55.717 353.613C55.717 332.328 56.3432 309.165 58.2213 285.376C60.7254 249.066 64.4811 215.261 69.4893 183.959H66.9851C61.9768 214.634 58.2211 248.44 55.717 284.75C53.839 308.539 53.2128 331.702 53.2128 352.987H55.717" fill="white"/>
<path d="M78.8798 271.603L74.4979 269.099H70.7418L58.8471 267.221C55.8298 266.415 53.0425 264.914 50.7084 262.839C49.4563 261.587 49.4566 260.961 49.4566 260.335C49.4566 259.709 49.4565 259.709 50.0825 259.083C50.7085 258.457 48.8308 257.831 48.8308 256.579C48.802 256.239 48.8423 255.898 48.95 255.575C49.0576 255.252 49.2301 254.955 49.4566 254.701V252.822C49.4566 252.336 49.5695 251.857 49.7868 251.423C50.0041 250.988 50.3196 250.61 50.7084 250.318C50.7409 249.449 50.9539 248.596 51.3343 247.814C52.516 247.045 53.9433 246.747 55.3341 246.979C56.7249 247.211 57.9787 247.955 58.8471 249.066L62.6031 250.944L58.2212 247.188C56.9692 246.562 54.4647 243.432 56.3428 242.806C58.2209 242.18 59.4728 243.432 60.0989 244.058L65.1074 246.562C67.4559 247.875 69.5712 249.567 71.3677 251.57L74.4979 254.075H80.1323L91.4004 255.953" fill="#F8A87C"/>
<g opacity="0.38">
<g opacity="0.38">
<path opacity="0.38" d="M160.89 152.031C161.752 145.821 163.883 139.854 167.15 134.502C178.418 114.469 203.46 106.957 225.371 108.835C231.661 109.283 237.515 112.211 241.648 116.974C238.998 122.772 235.099 127.912 230.228 132.025C225.358 136.138 219.636 139.122 213.476 140.763C207.576 142.428 201.394 142.854 195.321 142.015C190.723 141.611 186.092 141.821 181.549 142.641C179.82 142.822 178.149 143.36 176.64 144.223C175.131 145.085 173.818 146.252 172.784 147.649C172.075 149.703 171.821 151.885 172.037 154.047C172.253 156.208 172.935 158.297 174.037 160.17C179.671 170.186 192.191 169.56 200.956 173.316C204.34 174.734 207.937 175.58 211.599 175.82C215.156 176.235 218.757 176.023 222.241 175.194L216.606 177.699C204.682 182.659 191.404 183.323 179.045 179.577C173.392 177.65 168.54 173.898 165.253 168.911C161.966 163.924 160.431 157.986 160.89 152.031Z" fill="#EF4932"/>
</g>
</g>
<path d="M224.745 48.1103C245.404 56.8747 247.908 83.168 239.143 100.697C230.379 118.226 198.452 142.015 169.654 130.746C165.387 128.438 161.842 124.993 159.412 120.795C156.981 116.596 155.759 111.807 155.882 106.957C155.78 103.814 155.989 100.668 156.508 97.5667C160.107 82.2951 169.255 68.9072 182.175 60.0048C194.695 51.2404 209.094 41.8499 224.745 48.1103Z" fill="#1C8849"/>
<path d="M156.508 97.5666C160.107 82.2951 169.255 68.9071 182.175 60.0048C193.444 51.8664 206.59 43.7279 220.363 46.8581C220.04 53.4021 218.334 59.8033 215.355 65.639C211.87 73.805 205.366 80.3092 197.2 83.7939C190.519 85.9708 184.029 88.6929 177.793 91.9324C172.625 94.6977 168.299 98.8071 165.273 103.827C164.494 104.779 163.924 105.884 163.601 107.07C163.277 108.257 163.207 109.498 163.394 110.713C164.379 113.612 166.106 116.202 168.403 118.226C170.543 120.385 173.099 122.088 175.915 123.234C179.045 125.112 183.428 123.86 187.184 123.86C189.647 123.224 192.232 123.224 194.696 123.86L200.33 125.112C204.029 126.04 207.9 126.04 211.599 125.112C218.396 121.338 224.358 116.227 229.127 110.087L235.388 103.201C237.149 102.076 238.645 100.58 239.77 98.8186C239.799 99.1577 239.758 99.4992 239.65 99.8222C239.543 100.145 239.37 100.443 239.144 100.697C226.623 126.99 198.452 142.015 169.655 130.746C165.388 128.438 161.843 124.993 159.412 120.795C156.981 116.596 155.76 111.807 155.882 106.957C155.78 103.814 155.99 100.668 156.508 97.5666Z" fill="#197E43"/>
<path d="M210.346 16.8088C213.129 24.419 213.779 32.6452 212.225 40.5979C209.179 55.2875 200.959 68.3948 189.061 77.5337C183.103 81.8995 176.253 84.8931 169.001 86.3002C161.75 87.7072 154.276 87.4928 147.118 85.6722C142.42 84.1688 138.134 81.5974 134.597 78.1597C132.003 75.2772 130.079 71.8566 128.962 68.1432C126.536 60.2512 126.125 51.8774 127.765 43.7855C129.405 35.6936 133.045 28.1412 138.353 21.8169C154.004 2.40996 197.2 -13.2407 210.346 16.8088Z" fill="#3056A5"/>
<g style="mix-blend-mode:multiply" opacity="0.3">
<g style="mix-blend-mode:multiply" opacity="0.3">
<g style="mix-blend-mode:multiply" opacity="0.3">
<path d="M133.971 67.5171C137.618 68.6517 141.488 68.8668 145.239 68.1432H154.003L160.264 69.3953C168.402 70.6474 174.037 63.761 180.297 59.3788C186.557 54.9966 195.321 56.2486 201.582 51.8664C204.48 48.6831 207.198 45.3391 209.72 41.85C211.138 39.2965 212.192 36.557 212.85 33.7115C212.85 36.2156 212.225 38.7198 212.225 41.2239C209.179 55.9136 200.958 69.0209 189.061 78.1597C183.102 82.5255 176.252 85.5192 169.001 86.9262C161.749 88.3333 154.276 88.1187 147.117 86.2981C142.419 84.7947 138.134 82.2235 134.597 78.7858C132.003 75.9033 130.079 72.4827 128.962 68.7693C128.692 67.7392 128.483 66.694 128.336 65.6391C129.962 66.9545 131.905 67.8182 133.971 68.1432" fill="#141718"/>
</g>
</g>
</g>
<path d="M105.799 307.913C106.425 311.043 107.052 313.547 108.304 313.547C109.556 313.547 109.555 311.043 109.555 307.913C109.555 304.783 108.303 301.653 107.677 301.653C107.051 301.653 105.799 304.157 105.799 307.913Z" fill="#9AB6DF"/>
<path d="M124.58 298.523C125.206 301.653 125.833 304.157 127.085 304.157C128.337 304.157 128.336 301.653 128.336 297.897C128.336 294.14 127.084 292.262 126.458 292.262C125.832 292.262 124.58 294.766 124.58 298.523Z" fill="#9AB6DF"/>
<path d="M64.4816 317.929C64.4816 321.686 65.7331 324.19 66.3592 324.19C66.9852 324.19 68.2375 321.06 68.2375 317.929C68.2375 314.799 66.9853 311.669 65.7333 311.669C64.4813 311.669 64.4816 314.799 64.4816 317.929Z" fill="#9AB6DF"/>
<path d="M74.4979 304.783C75.1239 307.913 75.7501 310.417 77.0022 310.417C78.2543 310.417 78.254 307.913 78.254 304.157C78.254 300.401 77.0016 298.523 76.3756 298.523C75.7495 298.523 74.4979 301.027 74.4979 304.783Z" fill="#9AB6DF"/>
<path d="M62.6032 286.628C62.6032 290.384 63.8554 292.888 65.1075 292.888C66.3596 292.888 66.3593 289.758 66.3593 286.628C66.3593 283.498 65.1076 280.994 64.4816 280.994C63.8556 280.994 62.6032 283.498 62.6032 286.628Z" fill="#9AB6DF"/>
<path d="M93.9047 262.213C93.9047 265.343 95.1571 267.847 95.7832 267.847C96.4092 267.847 97.6608 265.343 97.6608 261.587C97.6608 257.831 96.4086 255.952 95.1565 255.952C93.9044 255.952 93.9047 258.457 93.9047 262.213Z" fill="#9AB6DF"/>
<path d="M73.872 247.188C73.872 250.318 75.1237 252.822 75.7497 252.822C76.3757 252.822 77.6281 250.318 77.6281 246.562C77.6281 242.806 76.3759 240.928 75.1238 240.928C73.8717 240.928 73.872 243.432 73.872 247.188Z" fill="#9AB6DF"/>
<path d="M125.206 271.603C125.832 274.733 126.458 277.237 127.71 277.237C128.963 277.237 128.962 274.733 128.962 270.977C128.962 267.221 127.711 265.343 127.085 265.343C126.459 265.343 125.206 267.847 125.206 271.603Z" fill="#9AB6DF"/>
<path d="M114.564 250.318C114.564 253.448 115.189 255.952 116.441 255.952C117.693 255.952 118.32 253.448 117.694 249.692C117.068 245.936 117.068 244.058 115.816 244.058C114.563 244.058 113.938 246.562 114.564 250.318Z" fill="#9AB6DF"/>
<path d="M93.2788 294.766C93.2788 297.897 94.5305 300.401 95.1565 300.401C95.7825 300.401 97.0349 297.897 97.0349 294.766C97.0349 291.636 95.7827 288.506 94.5306 288.506C93.2785 288.506 93.2788 291.01 93.2788 294.766Z" fill="#9AB6DF"/>
<path d="M75.1236 277.237C75.1236 280.368 76.3759 282.872 77.628 282.872C78.8801 282.872 78.8798 280.368 78.8798 276.612C78.8798 272.855 77.6281 270.977 77.0021 270.977C76.376 270.977 75.1236 273.481 75.1236 277.237Z" fill="#9AB6DF"/>
<path d="M111.434 281.62C111.434 284.75 112.686 287.88 113.312 287.88C113.938 287.88 115.19 284.75 115.19 281.62C115.19 278.49 113.938 275.359 112.686 275.359C111.434 275.359 111.434 278.49 111.434 281.62Z" fill="#9AB6DF"/>
<path d="M75.1236 338.589C75.7497 341.719 76.3759 344.223 77.628 344.223C78.8801 344.223 78.8798 341.719 78.8798 337.963C78.8798 334.206 77.6281 332.328 77.0021 332.328C76.376 332.328 75.1236 334.832 75.1236 338.589Z" fill="#9AB6DF"/>
<path d="M100.165 340.467C100.791 343.597 102.043 346.101 103.295 346.101C103.81 345.151 104.13 344.109 104.237 343.034C104.345 341.959 104.237 340.873 103.921 339.841C103.295 336.084 102.043 333.58 100.791 334.206C99.5389 334.832 99.539 336.71 100.165 340.467Z" fill="#9AB6DF"/>
<path d="M133.345 334.832C133.971 337.963 135.849 340.467 136.475 339.841C137.101 339.215 137.727 336.71 136.475 333.58C135.223 330.45 134.597 327.946 133.345 328.572C132.093 329.198 132.093 331.702 133.345 334.832Z" fill="#9AB6DF"/>
<path d="M120.824 324.19C122.077 327.32 123.328 329.824 124.58 329.824C125.833 329.824 125.206 326.694 124.58 322.938C123.954 319.182 122.077 317.93 120.824 317.93C119.572 317.93 120.198 321.06 120.824 324.19Z" fill="#9AB6DF"/>
<path d="M87.6443 322.938C87.6443 326.068 88.8967 329.198 89.5227 329.198C90.1488 329.198 91.4004 326.068 91.4004 322.938C91.4004 319.808 90.1482 316.677 88.8961 316.677C87.644 316.677 87.6443 319.808 87.6443 322.938Z" fill="#9AB6DF"/>
<path d="M14.3991 311.043C14.3991 314.173 14.3988 317.304 15.6509 317.304C16.9029 317.304 17.5291 314.799 18.1551 311.669C18.7812 308.539 18.7813 305.409 17.5293 305.409C16.2772 305.409 15.0251 307.287 14.3991 311.043Z" fill="#9AB6DF"/>
<path d="M28.1717 299.775C27.5457 303.531 27.5455 306.035 28.7976 306.035C30.0496 306.035 31.3019 304.157 31.3019 300.401C31.3019 296.644 31.928 294.766 30.676 294.14C29.4239 293.514 28.7977 296.644 28.1717 299.775Z" fill="#9AB6DF"/>
<path d="M20.0329 280.368C19.4069 283.498 19.4075 286.002 20.6596 286.628C21.9116 287.254 23.1631 284.124 23.1631 280.994C23.1631 277.863 23.7892 274.733 22.5372 274.107C21.2851 273.481 20.659 276.611 20.0329 280.368Z" fill="#9AB6DF"/>
<path d="M39.44 243.432C38.814 246.562 39.4397 249.692 40.6918 249.692C41.9439 249.692 42.5701 247.188 43.1961 244.058C43.8221 240.928 43.1963 237.798 42.5702 237.798C41.9442 237.798 40.0661 240.302 39.44 243.432Z" fill="#9AB6DF"/>
<path d="M247.282 147.649C241.744 160.365 231.758 170.625 219.195 176.503C206.632 182.381 192.356 183.474 179.045 179.577C173.392 177.65 168.54 173.898 165.253 168.911C161.967 163.924 160.432 157.986 160.89 152.031C161.752 145.821 163.883 139.854 167.15 134.502C178.419 114.469 203.46 106.957 225.371 108.835C247.282 110.713 253.543 130.746 247.282 147.649Z" fill="#F27A67"/>
<path d="M43.8219 291.01C43.1959 294.14 43.8218 297.271 44.4478 297.271C45.0738 297.271 46.952 294.766 47.578 291.636C48.2041 288.506 47.5783 285.376 46.3262 285.376C45.0741 285.376 44.4479 287.88 43.8219 291.01Z" fill="#9AB6DF"/>
<path d="M34.4319 273.481C34.1156 274.514 34.0081 275.6 34.1155 276.674C34.223 277.749 34.5432 278.792 35.0578 279.742C36.3099 279.742 37.562 277.238 38.1881 273.481C38.5044 272.449 38.612 271.363 38.5045 270.288C38.397 269.213 38.0768 268.171 37.5622 267.221C36.3101 267.221 35.058 269.725 34.4319 273.481Z" fill="#9AB6DF"/>
<path d="M21.9111 254.701C21.9111 257.831 21.9108 260.961 23.1629 260.961C24.4149 260.961 25.0411 258.457 25.6672 255.326C26.2932 252.196 26.2933 249.066 25.0413 249.066C23.7892 249.066 22.5371 251.57 21.9111 254.701Z" fill="#9AB6DF"/>
<path d="M21.285 332.954C20.659 336.085 21.2849 339.215 21.9109 339.215C22.5369 339.215 24.415 336.71 25.0411 333.58C25.6671 330.45 25.0412 327.32 24.4152 327.32C23.7892 327.32 21.9111 329.824 21.285 332.954Z" fill="#9AB6DF"/>
<path d="M46.3266 340.467C45.7006 343.597 46.9523 346.727 47.5783 346.727C48.2043 346.727 49.4567 344.223 49.4567 340.467C49.4567 336.71 48.8302 334.832 48.2042 334.832C47.5782 334.832 46.3266 337.336 46.3266 340.467Z" fill="#9AB6DF"/>
<path d="M38.1879 319.182C37.5619 322.312 37.5617 325.442 38.8138 325.442C40.0659 325.442 41.3181 322.938 41.3181 319.808C41.3181 316.677 41.9443 313.547 40.6922 313.547C39.4401 313.547 38.8139 315.425 38.1879 319.182Z" fill="#9AB6DF"/>
<path d="M93.2792 170.812C93.2792 170.646 93.3452 170.487 93.4626 170.37C93.58 170.252 93.7391 170.186 93.9051 170.186C121.45 168.308 135.849 185.837 147.744 213.382C159.638 240.928 168.403 254.7 165.273 265.969C154.63 302.905 112.06 292.262 99.5395 287.88C87.0189 283.498 87.0188 286.628 81.3845 282.246C77.6247 279.559 74.4334 276.154 71.994 272.229C71.368 270.351 70.7421 269.725 71.3682 268.473L73.2458 254.7C73.8718 253.448 73.246 252.822 75.7501 251.57C78.4314 248.58 81.9038 246.41 85.7664 245.31C95.4063 243.085 105.346 242.45 115.19 243.432C116.442 243.432 116.442 242.18 116.442 241.554C116.442 240.928 104.547 203.366 101.417 196.48C98.7031 189.906 95.3482 183.615 91.4008 177.699L93.2792 171.438" fill="#30A15E"/>
<path d="M50.7082 150.779C56.3425 147.649 64.4812 151.405 71.3675 152.657H80.758C83.2522 152.972 85.7758 152.972 88.27 152.657C96.4084 152.657 108.929 141.389 114.564 158.292C115.713 160.49 116.415 162.894 116.63 165.366C116.845 167.837 116.568 170.327 115.816 172.69C112.059 180.203 100.791 184.585 89.5225 185.837C80.1625 187.195 70.6417 186.983 61.3512 185.211C55.3468 183.957 49.6193 181.624 44.4479 178.325C38.8136 173.942 40.0657 171.438 41.3177 165.804C41.4796 162.625 42.4206 159.535 44.0582 156.806C45.6957 154.076 47.9796 151.792 50.7082 150.153" fill="#EF4932"/>
<path d="M118.32 327.32L122.076 317.304H121.45L102.043 311.669L83.8884 304.783H82.6359L79.5057 314.173H80.1324L100.165 322.312L117.694 326.694L118.32 327.32ZM119.572 319.182L117.068 324.816L100.791 320.434L82.01 312.921L83.8884 306.661L101.417 313.547L119.572 319.182Z" fill="white"/>
<path d="M61.3515 250.318C86.4588 212.461 122.17 182.846 164.02 165.178V163.926C121.894 181.994 85.8292 211.758 60.099 249.692L61.3515 250.318Z" fill="#141718"/>
<path d="M58.2213 249.066C81.3406 190.378 107.46 132.916 136.475 76.9075H135.223C105.799 133.876 80.1319 190.845 56.9688 249.066H58.2213Z" fill="#141718"/>
<path d="M69.4894 287.88H70.1152C66.6881 285.623 63.8681 282.559 61.9032 278.957C59.9383 275.354 58.8891 271.324 58.8472 267.221H57.5947C57.7631 271.541 58.9236 275.764 60.9862 279.564C63.0488 283.364 65.9584 286.638 69.4894 289.132" fill="#141718"/>
<path d="M159.012 172.064C157.76 171.438 158.385 170.186 157.759 168.934L155.882 164.552C155.256 164.552 155.256 163.926 155.882 163.3L162.768 162.048H164.646C167.776 164.552 161.516 170.186 159.012 172.064Z" fill="#F27A67"/>
<path d="M59.4731 249.692C66.655 235.3 74.5962 221.299 83.2625 207.748C104.922 175.415 131.299 146.506 161.516 121.982H160.264C130.107 146.383 103.92 175.316 82.6359 207.748C73.7374 221.157 65.7887 235.173 58.8472 249.692H59.4731Z" fill="#141718"/>
<path d="M63.2291 294.14H63.855C59.3222 286.12 56.9495 277.06 56.9688 267.847V266.595H55.7171C53.9193 270.728 53.2701 275.27 53.8387 279.742C53.7384 283.583 54.3762 287.409 55.7171 291.01H56.3429C55.5284 288.159 55.1075 285.211 55.0912 282.246C54.6154 278.483 54.8274 274.664 55.7171 270.977C55.7825 276.14 56.8454 281.242 58.8472 286.002C59.7972 289.346 61.2763 292.516 63.2291 295.393" fill="#141718"/>
<path d="M267.607 199.475C258.917 210.285 246.582 217.554 232.915 219.918C219.248 222.282 205.188 219.579 193.372 212.315C188.425 208.969 184.732 204.072 182.874 198.396C181.016 192.72 181.098 186.587 183.108 180.963C185.574 175.198 189.2 170.003 193.761 165.7C209.905 149.339 236.041 148.683 256.685 156.262C277.329 163.842 278.096 184.816 267.607 199.475Z" fill="#F9AA44"/>
<path d="M61.2083 249.583C95.395 219.669 137.642 200.499 182.667 194.47L182.996 193.262C137.6 199.604 94.9726 218.826 60.1648 248.65L61.2083 249.583Z" fill="#141718"/>
<path d="M176.023 199.795C174.98 198.861 175.913 197.818 175.638 196.445L174.98 191.724C174.377 191.559 174.541 190.955 175.31 190.516L182.283 191.12L184.095 191.615C186.456 194.854 178.933 198.642 176.023 199.795Z" fill="#F9AA44"/>
<path d="M159.012 126.364C159.012 126.99 158.386 127.616 157.76 128.868H156.508C155.882 126.99 152.126 123.234 152.752 121.982C153.378 120.73 154.004 120.73 155.256 120.73L159.638 118.226C160.89 117.6 161.516 118.226 162.768 119.478L159.012 125.738" fill="#1C8849"/>
<path d="M135.222 86.9242C135.183 87.4066 134.959 87.8552 134.597 88.1763C134.431 88.1763 134.272 88.1103 134.154 87.9929C134.037 87.8755 133.971 87.7163 133.971 87.5503C132.278 86.8764 130.774 85.8023 129.588 84.4201C128.962 83.7941 127.71 83.1681 128.336 82.5421V81.2899L133.971 75.6557H135.222C137.727 75.0297 136.474 78.7857 135.848 80.0378C135.222 81.2899 135.223 85.0461 134.597 87.5503" fill="#2464AF"/>
<path d="M55.717 481.95H56.3429C60.0991 482.576 61.3514 483.828 61.3514 487.584C61.348 494.513 60.7191 501.427 59.473 508.243C59.416 510.386 58.9929 512.504 58.2213 514.504L9.39063 518.886C7.51254 514.503 7.51254 510.121 12.5208 508.243L19.407 506.365H21.2854C22.5374 505.739 22.5373 503.861 21.9112 502.609C21.288 497.41 21.288 492.156 21.9112 486.958C21.9112 483.202 23.1634 481.324 27.5457 481.324L55.717 482.576" fill="#EF4932"/>
<path d="M159.012 451.9H159.638C162.142 449.396 164.02 448.77 167.15 451.9L181.549 466.299C182.957 467.95 184.022 469.865 184.679 471.933L157.134 511.999C152.751 510.121 148.995 506.991 150.873 501.983L154.003 495.722C154.23 495.468 154.402 495.171 154.51 494.848C154.618 494.525 154.658 494.183 154.629 493.844C154.491 493.161 154.192 492.521 153.757 491.976C153.321 491.432 152.762 490.999 152.126 490.714C147.756 488.134 143.755 484.975 140.231 481.324C137.101 478.82 137.101 476.315 139.605 473.185L159.012 452.526" fill="#EF4932"/>
<path d="M57.5947 515.755V513.877L8.13897 518.259C8.13897 518.886 8.76485 519.512 8.76485 520.138L56.9688 515.755" fill="#141718"/>
<path d="M185.931 471.933L184.679 470.681C175.289 483.828 165.898 497.601 155.882 510.747L157.76 511.999L185.931 471.933Z" fill="#141718"/>
</svg>
