<svg width="46" height="53" fill="none" xmlns="http://www.w3.org/2000/svg"><path d="M2 9v34.983" stroke="#EF4932" stroke-width="3" stroke-linecap="round"/><path d="M44 19.5V44M9 2h17.5" stroke="#EF4932" stroke-width="3" stroke-linecap="round" stroke-linejoin="round"/><path d="M9 51h28" stroke="#EF4932" stroke-width="3" stroke-linecap="round"/><path d="M44 44c.02 3.496-3.5 7-7 7M2 44c0 3.5 3.5 7 7 7M2 8.995C2 5.5 5.5 2.078 9 2m34.98 17.516L26.5 2m0 10.5c.011 3.481 3.514 7 7 7m-7-7V2m7 17.5H44M9 44h10.5M9 37h17.5M9 30h10.5" stroke="#EF4932" stroke-width="3" stroke-linecap="round" stroke-linejoin="round"/></svg>