<svg width="46" height="53" viewBox="0 0 46 53" fill="none" xmlns="http://www.w3.org/2000/svg">
<path d="M2 8.99976V43.983" stroke="#EF4932" stroke-width="3" stroke-linecap="round"/>
<path d="M43.9997 19.5V44" stroke="#EF4932" stroke-width="3" stroke-linecap="round" stroke-linejoin="round"/>
<path d="M9.00079 2H26.5008" stroke="#EF4932" stroke-width="3" stroke-linecap="round" stroke-linejoin="round"/>
<path d="M9.00079 51H37.0008" stroke="#EF4932" stroke-width="3" stroke-linecap="round"/>
<path d="M43.9999 44C44.0191 47.496 40.4999 51 36.9999 51" stroke="#EF4932" stroke-width="3" stroke-linecap="round" stroke-linejoin="round"/>
<path d="M2.0008 44C2.0008 47.5 5.5008 51 9.00079 51" stroke="#EF4932" stroke-width="3" stroke-linecap="round" stroke-linejoin="round"/>
<path d="M2.0008 8.995C2.0008 5.50008 5.5008 2.07803 9.00079 2.00008" stroke="#EF4932" stroke-width="3" stroke-linecap="round" stroke-linejoin="round"/>
<path d="M43.9809 19.5157L26.5 2" stroke="#EF4932" stroke-width="3" stroke-linecap="round" stroke-linejoin="round"/>
<path d="M26.5003 12.5001C26.5111 15.9811 30.0144 19.5001 33.5003 19.5001" stroke="#EF4932" stroke-width="3" stroke-linecap="round" stroke-linejoin="round"/>
<path d="M26.5 12.5V2" stroke="#EF4932" stroke-width="3" stroke-linecap="round" stroke-linejoin="round"/>
<path d="M33.5003 19.5H44.0003" stroke="#EF4932" stroke-width="3" stroke-linecap="round" stroke-linejoin="round"/>
<path d="M9.00079 44H19.5008" stroke="#EF4932" stroke-width="3" stroke-linecap="round" stroke-linejoin="round"/>
<path d="M9.00079 37.0001H26.5008" stroke="#EF4932" stroke-width="3" stroke-linecap="round" stroke-linejoin="round"/>
<path d="M9.00079 30.0001H19.5008" stroke="#EF4932" stroke-width="3" stroke-linecap="round" stroke-linejoin="round"/>
</svg>
