<svg width="597" height="587" viewBox="0 0 597 587" fill="none" xmlns="http://www.w3.org/2000/svg">
<g clip-path="url(#clip0_540_2)">
<path d="M430.045 312.551C425.289 336.311 411.379 357.23 391.335 370.768C371.291 384.305 346.73 389.366 322.986 384.854C299.887 377.761 280.511 361.821 269.058 340.492C257.605 319.163 255.001 294.165 261.812 270.923C263.183 258.519 267.181 246.553 273.536 235.824C279.892 225.095 288.457 215.851 298.662 208.71C308.868 201.569 320.478 196.695 332.713 194.416C344.948 192.137 357.527 192.505 369.609 195.495C381.691 198.484 392.998 204.027 402.771 211.752C412.545 219.477 420.56 229.206 426.282 240.288C432.003 251.37 435.301 263.55 435.95 276.012C436.599 288.474 434.584 300.932 430.045 312.551Z" fill="#83592F"/>
<path d="M357.946 511.929C357.946 516.311 357.943 518.502 355.759 520.693H347.021C308.251 526.414 268.697 523.421 231.222 511.929L220.298 505.357C216.488 499.54 214.934 492.525 215.929 485.637C219.909 465.355 222.824 444.878 224.666 424.29C225.266 413.541 228.252 403.061 233.406 393.617C235.625 388.459 238.919 383.836 243.064 380.057C247.209 376.279 252.109 373.432 257.439 371.707C285.843 356.37 336.097 277.495 368.87 275.304C401.643 273.113 373.239 397.999 371.054 417.718L357.946 509.738" fill="#FABA8E"/>
<path d="M298.951 518.502C300.534 510.044 303.486 501.903 307.691 494.402C312.061 485.638 318.614 481.256 322.984 472.492C327.354 463.728 331.723 433.054 333.908 413.335C335.953 397.426 340.374 381.916 347.02 367.325C347.434 362.26 349.78 357.55 353.573 354.179C320.57 354.573 287.944 361.266 257.438 373.898C252.107 375.623 247.207 378.47 243.062 382.249C238.918 386.027 235.624 390.65 233.405 395.808C228.251 405.252 225.264 415.732 224.665 426.481C222.823 447.07 219.908 467.547 215.928 487.828C214.933 494.716 216.486 501.73 220.296 507.547L231.221 514.12C252.423 520.943 274.504 524.633 296.767 525.075C296.767 522.884 298.951 520.693 298.951 518.502Z" fill="#E7A787"/>
<path d="M299.506 460.106C260.502 467.351 220.476 471.761 180.101 473.262C170.419 475.455 154.28 471.07 144.598 479.841C137.556 487.752 134.185 496.92 134.919 506.153C131.692 525.887 128.463 550.007 125.236 571.934C73.8006 623.934 31.5551 679.867 -0.627075 738.58C-58.7171 828.481 -90.9862 973.199 -94.2134 1054.33C-91.9307 1170.25 -78.9982 1285.96 -55.4883 1400.78C-55.4946 1432.07 -44.426 1462.9 -23.2161 1490.68C12.2834 1536.73 73.6007 1543.3 138.145 1549.88C364.051 1569.62 586.73 1574 812.636 1580.58C825.545 1580.58 838.453 1582.77 848.135 1576.19C855.434 1572.15 861.477 1567.16 865.91 1561.51C870.342 1555.86 873.077 1549.68 873.954 1543.3C909.454 1427.09 783.591 1317.45 748.092 1201.24C712.592 1085.03 773.909 990.741 699.683 867.949C654.502 797.783 554.457 681.57 493.14 598.247C477.88 574.218 460.641 550.792 441.505 528.08C444.339 514.765 442.115 501.179 435.048 488.611C412.458 427.216 354.369 451.336 299.506 460.106Z" fill="#C0B2BB"/>
<path d="M392.902 277.494C392.902 369.515 320.799 444.009 257.438 444.009C194.077 444.009 161.306 369.515 161.306 277.494C161.306 185.473 213.741 110.981 277.103 110.981C340.464 110.981 392.902 185.473 392.902 277.494Z" fill="#FABA8E"/>
<path d="M427.859 281.877C427.859 305.978 412.566 327.888 392.902 327.888C373.238 327.888 357.945 305.978 357.945 281.877C357.945 257.776 373.238 235.866 392.902 235.866C412.566 235.866 427.859 255.585 427.859 281.877Z" fill="#FABA8E"/>
<path d="M392.901 251.203C406.011 251.203 414.75 264.349 414.75 281.877C414.75 299.405 406.011 312.551 392.901 312.551" fill="#F59770"/>
<path d="M279.979 397.659C299.643 402.041 282.163 362.604 249.39 362.604C216.617 362.604 190.398 397.659 210.061 397.659C233.251 394.363 256.789 394.363 279.979 397.659Z" fill="white"/>
<path d="M183.156 240.249L174.416 246.822C173.089 248.707 172.202 250.868 171.824 253.144C171.445 255.42 171.586 257.753 172.232 259.968L180.969 255.585C186.008 251.907 192.277 250.336 198.449 251.204L215.929 255.585H222.482C233.407 253.394 213.743 242.44 211.558 242.44C202.6 238.549 192.602 237.777 183.156 240.249Z" fill="#83592F"/>
<path d="M314.246 242.44C300.948 236.961 286.032 236.961 272.734 242.44C268.233 244.081 264.395 247.16 261.81 251.203C261.81 251.203 259.625 253.394 261.81 253.394C263.994 253.394 263.993 255.585 266.178 255.585C276.712 251.992 287.846 250.504 298.951 251.203L327.355 259.967C333.91 262.158 333.909 257.776 331.724 253.394C327.337 247.825 321.161 243.953 314.246 242.44Z" fill="#83592F"/>
<path d="M207.188 334.46C207.05 336.149 206.268 337.719 205.004 338.843C205.004 343.225 211.556 345.415 213.741 345.415H233.405L239.961 338.843C242.146 334.461 239.961 332.27 237.777 327.888C236.286 320.531 237.047 312.893 239.961 305.978C242.457 298.169 243.925 290.067 244.33 281.877C244.33 279.686 244.331 273.113 239.961 275.304C235.591 277.495 235.59 284.068 235.59 286.259L207.188 330.079" fill="#F59770"/>
<path d="M338.28 286.259C318.596 282.135 298.15 283.653 279.287 290.641L266.178 297.214C263.503 300.25 261.96 304.121 261.81 308.169C262.292 310.56 263.336 312.802 264.855 314.707C266.375 316.612 268.329 318.127 270.55 319.124C282.909 325.082 296.223 328.791 309.876 330.079C319.733 330.215 329.479 327.959 338.28 323.505C347.164 317.226 353.394 307.853 355.757 297.214V292.832L347.02 286.259H338.28Z" fill="#F59770"/>
<path d="M215.928 292.832L207.188 288.449H170.044C165.674 288.449 161.306 290.641 163.491 295.023V332.269C174.752 332.391 185.915 330.153 196.264 325.696C200.865 323.344 204.847 319.935 207.884 315.747C210.922 311.559 212.927 306.71 213.741 301.595V295.023" fill="#F59770"/>
<path d="M292.399 281.877C291.916 284.268 290.87 286.51 289.35 288.415C287.83 290.321 285.879 291.835 283.658 292.832C279.289 292.832 274.918 290.641 274.918 286.259C273.872 285.224 273.201 283.866 273.017 282.404C272.832 280.942 273.143 279.46 273.899 278.197C274.656 276.933 275.815 275.96 277.188 275.436C278.561 274.911 280.071 274.865 281.474 275.304C283.752 275.116 286.03 275.649 287.99 276.828C289.95 278.007 291.492 279.773 292.399 281.877Z" fill="#402740"/>
<path d="M213.741 279.686C213.741 284.068 211.558 288.45 207.188 288.45C202.819 288.45 196.264 286.259 196.264 281.877C196.076 279.593 196.608 277.308 197.784 275.343C198.96 273.377 200.719 271.831 202.817 270.922C205.373 270.871 207.867 271.719 209.863 273.321C211.859 274.922 213.231 277.174 213.741 279.686Z" fill="#402740"/>
<path d="M349.205 233.676C356.341 247.722 362.189 262.389 366.683 277.495C367.14 282.842 368.625 288.05 371.054 292.832C372.24 295.348 374.087 297.493 376.396 299.037C378.706 300.581 381.39 301.466 384.163 301.596C390.717 299.405 395.087 290.641 397.271 281.877C399.456 273.113 403.826 246.822 408.196 229.294C412.153 214.916 415.074 200.272 416.936 185.474C417.793 177.188 416.279 168.827 412.567 161.374C410.105 156.705 406.299 152.887 401.643 150.419C370.752 126.399 333.547 111.933 294.584 108.79C283.659 106.599 296.767 124.127 298.952 130.7C303.893 142.808 309.737 154.527 316.432 165.756L349.205 233.676Z" fill="#83592F"/>
<path d="M440.265 137.649C446.496 80.4925 388.889 27.3528 314.307 22.3725C239.724 17.3923 174.295 57.5029 170.641 116.372L166.513 161.924L431.02 190.946L440.265 137.649Z" fill="#EF4932"/>
<path d="M366.592 148.134C299.267 134.974 227.661 122.682 165.13 133.141L155.296 139.609C153.155 140.043 153.589 142.191 154.025 144.339L146.526 206.224C146.58 212.119 147.764 217.951 150.014 223.401C153.027 227.261 160.758 232.399 165.04 231.529L171.462 230.226C185.313 223.28 200.508 219.433 215.993 218.95C240.418 218.462 266.546 215.394 291.407 217.054L339.426 222.955L438.47 238.62L447.035 236.881C450.882 233.864 446.996 225.71 446.125 221.416C445.253 217.121 450.728 189.182 443.831 177.168C436.933 165.154 387.607 152.811 367.028 150.282" fill="#EF4932"/>
<path d="M401.517 210.35L403.66 209.915C405.414 207.264 406.414 204.184 406.554 201.005C406.694 197.825 405.968 194.667 404.454 191.868L403.582 187.574C401.005 185.861 402.71 183.28 404.415 180.698C407.123 177.269 408.618 173.034 408.66 168.658C409.929 163.929 407.352 162.216 406.916 160.069L390.618 156.67C395.773 160.095 398.787 163.955 397.518 168.684C396.249 173.413 395.811 171.266 394.106 173.848C391.599 178.91 390.439 184.535 390.735 190.182C391.607 194.476 394.184 196.189 394.62 198.336C395.188 198.22 395.777 198.336 396.261 198.658C396.744 198.979 397.081 199.479 397.196 200.048L395.056 200.483L391.646 205.647C388.236 210.81 391.683 216.817 392.554 221.112C393.426 225.406 395.134 222.824 395.57 224.971L392.593 232.282L406.312 233.969C406.52 230.248 406.509 226.518 406.276 222.798L404.532 214.209" fill="#F27A67"/>
<path d="M426.418 223.181C425.982 221.034 423.405 219.321 425.11 216.739L428.087 209.428C427.989 205.573 426.446 201.895 423.766 199.127C423.33 196.979 425.471 196.545 425.035 194.397L430.585 188.8C431.197 184.664 430.893 180.442 429.694 176.435C428.495 172.428 426.432 168.734 423.649 165.615C423.213 163.468 421.073 163.902 420.637 161.755L409.059 159.635C420.675 172.926 419.841 179.802 418.135 182.384L419.007 186.678C417.302 189.26 413.457 192.276 414.329 196.571C415.201 200.865 415.637 203.012 416.509 207.307C414.803 209.888 414.804 209.889 415.24 212.036C414.345 216.449 414.506 221.014 415.712 225.354L417.856 224.919L427.29 227.475C428.678 223.88 428.667 219.891 427.254 216.304" fill="#F27A67"/>
<path d="M172.297 223.348L175.706 218.185L178.244 208.726C179.104 205.052 179.093 201.226 178.207 197.555C177.336 193.261 176.899 191.114 179.04 190.68C181.182 190.245 180.309 185.951 182.014 183.369L187.131 175.623C189.72 169.941 190.004 163.471 187.925 157.577C186.181 148.988 188.322 148.554 187.886 146.406C190.548 139.345 195.717 133.519 202.401 130.046L183.129 133.958C179.694 137.3 177.45 141.683 176.744 146.432C175.849 150.846 176.012 155.41 177.219 159.75C178.526 166.192 176.822 168.774 177.694 173.068L172.141 178.666L165.322 188.993L167.501 199.729C168.373 204.023 168.807 206.171 166.666 206.606C164.525 207.041 165.397 211.335 165.833 213.482C163.472 215.39 161.846 218.062 161.231 221.04C160.616 224.019 161.052 227.121 162.463 229.816C162.899 231.963 163.334 234.11 165.475 233.675L174.04 231.937" fill="#F27A67"/>
<path d="M225.827 212.481C227.629 207.384 228.053 201.899 227.057 196.582C226.919 195.399 226.544 194.255 225.951 193.223C225.358 192.19 224.56 191.289 223.609 190.575C223.173 188.427 222.736 186.281 226.146 181.117L228.287 180.682L234.673 168.208C235.567 163.794 235.404 159.23 234.198 154.89L233.326 150.596C232.454 146.302 235.864 141.138 241.416 135.539L225.557 134.287C222.511 138.346 221.146 143.428 221.748 148.475C220.831 151.395 220.695 154.506 221.351 157.498L223.095 166.086L217.981 173.832L215.837 174.267C213.584 176.807 211.952 179.839 211.071 183.122C210.19 186.405 210.085 189.849 210.762 193.183C211.198 195.33 213.775 197.043 214.211 199.19L215.082 203.484C217.224 203.049 215.519 205.631 214.25 210.36L212.106 210.796L213.414 217.237L221.979 215.498C222.547 215.383 223.045 215.046 223.365 214.562C223.685 214.077 223.8 213.486 223.684 212.916L225.827 212.481Z" fill="#F27A67"/>
<path d="M268.651 203.788L266.907 195.199C266.907 195.199 266.47 193.052 269.881 187.889L272.021 187.454C273.291 182.725 277.138 179.708 277.971 172.832C278.831 169.158 278.817 165.332 277.932 161.662L276.188 153.073L278.329 152.638L281.741 147.474C283.759 143.967 284.501 139.866 283.843 135.869L270.124 134.182L271.868 142.772L269.727 143.206L266.315 148.37C263.927 153.324 263.489 159.001 265.086 164.269L266.393 170.711C266.975 173.574 265.268 176.156 261.277 178.457C258.498 180.294 256.302 182.889 254.946 185.936C253.59 188.984 253.13 192.358 253.622 195.66C254.671 198.489 255.973 201.217 257.509 203.814L259.253 212.403L272.1 209.795C273.805 207.213 272.496 200.772 272.061 198.624" fill="#F27A67"/>
<path d="M318.807 209.255C318.807 209.255 316.23 207.542 318.371 207.108C318.036 205.964 317.936 204.765 318.08 203.583C318.223 202.401 318.606 201.261 319.204 200.232C320.93 197.386 321.812 194.105 321.744 190.773C322.079 186.32 321.174 181.86 319.128 177.89L317.384 169.301C316.949 167.154 319.089 166.72 320.794 164.138C322.499 161.556 322.499 161.556 322.063 159.409C323.757 156.682 324.889 153.642 325.394 150.468C325.898 147.294 325.765 144.05 325 140.928L308.702 137.529C312.587 145.683 313.895 152.125 312.19 154.707L310.049 155.141L305.371 165.033C304.853 167.615 304.854 170.275 305.378 172.857C305.902 175.438 306.938 177.889 308.422 180.064L311.038 192.946C308.329 196.375 306.835 200.611 306.793 204.987L308.101 211.428L319.678 213.549C320.87 210.684 321.01 207.487 320.075 204.526" fill="#F27A67"/>
<path d="M365.515 208.715C365.399 208.146 365.062 207.646 364.579 207.325C364.096 207.003 363.506 206.887 362.938 207.003L362.066 202.709C364.384 200.655 366.117 198.02 367.086 195.074C368.055 192.128 368.225 188.975 367.58 185.939C367.144 183.792 364.132 179.933 363.696 177.785C363.58 177.216 363.695 176.624 364.015 176.14C364.335 175.656 364.832 175.319 365.4 175.204C366.675 172.003 367.178 168.546 366.868 165.113C366.558 161.68 365.444 158.367 363.618 155.445L349.463 151.611C351.266 152.557 352.684 154.104 353.473 155.984C354.261 157.864 354.371 159.96 353.784 161.912C354.655 166.206 355.092 168.354 352.951 168.788L349.974 176.099C349.783 178.398 350.111 180.712 350.935 182.867C351.758 185.022 353.058 186.964 354.733 188.547L356.874 188.113C357.31 190.26 353.462 193.277 353.898 195.424C354.334 197.571 347.514 207.898 350.963 213.905C354.412 219.912 351.835 218.199 353.976 217.765L350.566 222.928L364.721 226.762C366.072 223.971 366.657 220.871 366.421 217.776C366.184 214.682 365.133 211.705 363.374 209.15" fill="#F27A67"/>
</g>
<g clip-path="url(#clip1_540_2)">
<path d="M315.161 533.921C315.161 533.921 330.806 1848.38 539.41 2082.4C539.41 2082.4 610.681 2018.97 814.07 1959.92C814.07 1959.92 605.467 1362.84 612.42 1056.64C612.42 1056.64 588.084 568.914 452.492 564.54L315.161 533.921Z" fill="#F9AA44"/>
<path d="M546.361 608.282C638.494 682.644 718.461 772.316 774.088 912.291C817.547 1019.46 833.192 1196.62 777.564 1314.72C750.206 1373.15 713.506 1423.79 669.787 1463.44C662.292 1471.74 653.364 1477.73 643.711 1480.94C635.32 1480.12 627.144 1477.18 619.677 1472.3C612.21 1467.41 605.604 1460.68 600.252 1452.51C581.661 1434.26 568.246 1408.94 562.007 1380.33C560.381 1359.69 562.157 1338.84 567.223 1319.09C577.653 1262.23 588.083 1203.18 601.99 1146.31C605.273 1134.34 607.032 1121.79 607.204 1109.13C606.611 1101.15 604.198 1093.55 600.252 1087.26C558.531 982.278 534.194 903.542 487.259 792C469.875 750.445 409.032 603.908 374.265 564.54C433.944 552.701 495.016 568.224 546.361 608.282Z" fill="#FCB737"/>
<path d="M501.164 575.476L450.751 485.804C450.751 485.804 369.049 542.669 315.16 536.108C315.16 536.108 369.048 603.908 362.095 638.902L501.164 575.476Z" fill="#F9AA44"/>
<path d="M501.164 575.476L360.357 632.341L367.311 636.715C362.208 600.21 348.239 566.591 327.328 540.482L323.852 536.108H322.114C322.114 533.921 320.375 533.921 316.898 533.921C313.421 533.921 309.945 536.108 308.206 540.482V544.856V632.341L311.682 737.322L318.636 844.491L348.19 1268.79C353.405 1340.97 360.357 1410.95 369.049 1480.94C377.211 1551.59 388.236 1621.67 402.078 1690.9C414.855 1760.65 431.11 1829.32 450.751 1896.49C470.177 1963.65 499.028 2025.88 535.932 2080.21H537.67C520.54 2051.7 505.965 2020.89 494.211 1988.35C481.998 1957.24 471.543 1925.08 462.921 1892.12C444.418 1824.86 429.322 1756.19 417.724 1686.53C393.387 1548.74 376.003 1408.77 360.357 1268.79C343.328 1128.2 332.302 986.565 327.328 844.491V737.322L323.852 630.154V540.482L318.636 544.856H316.898L320.374 549.231C339.687 573.022 352.992 603.454 358.619 636.715V643.276H363.833L501.164 577.663V575.476Z" fill="white"/>
<path d="M256.137 532.638C256.137 532.638 241.129 1847.09 41.0286 2081.11C41.0286 2081.11 -27.3378 2017.69 -222.435 1958.64C-222.435 1958.64 -22.3357 1361.55 -29.0057 1055.36C-29.0057 1055.36 -5.66147 567.632 124.404 563.257L256.137 532.638Z" fill="#F9AA44"/>
<path d="M34.3605 606.999C-54.0172 681.361 -130.724 771.033 -184.084 911.008C-225.771 1018.18 -240.778 1195.33 -187.418 1313.44C-161.175 1371.86 -125.971 1422.5 -84.0338 1462.16C-76.8447 1470.46 -68.2812 1476.45 -59.0213 1479.66C-50.972 1478.84 -43.1298 1475.9 -35.9669 1471.01C-28.804 1466.13 -22.4676 1459.4 -17.3337 1451.23C0.499954 1432.97 13.3673 1407.66 19.3525 1379.05C20.9124 1358.4 19.2086 1337.56 14.3492 1317.81C4.34419 1260.95 -5.66081 1201.89 -19.0008 1145.03C-22.1501 1133.06 -23.8371 1120.51 -24.0021 1107.85C-23.4337 1099.87 -21.1189 1092.27 -17.3337 1085.98C22.6863 980.995 46.0313 902.259 91.0539 790.717C107.729 749.161 166.091 602.625 199.442 563.257C142.195 551.417 83.613 566.941 34.3605 606.999Z" fill="#FCB737"/>
<path d="M77.7151 574.193L126.073 484.521C126.073 484.521 204.445 541.386 256.137 534.825C256.137 534.825 204.445 602.625 211.115 637.619L77.7151 574.193Z" fill="#F9AA44"/>
<path d="M77.7149 574.193L212.782 631.058L206.112 635.432C211.007 598.927 224.406 565.308 244.465 539.199L247.8 534.825H249.467C249.467 532.638 251.135 532.638 254.47 532.638C257.805 532.638 261.14 534.825 262.807 539.199V543.574V631.058L259.473 736.039L252.803 843.208L224.454 1267.51C219.452 1339.68 212.782 1409.67 204.445 1479.66C196.615 1550.31 186.04 1620.39 172.762 1689.62C160.506 1759.37 144.913 1828.03 126.073 1895.21C107.439 1962.37 79.7641 2024.59 44.3648 2078.93H42.6977C59.129 2050.41 73.1095 2019.61 84.3853 1987.07C96.1 1955.95 106.129 1923.8 114.399 1890.83C132.149 1823.58 146.629 1754.91 157.754 1685.25C181.099 1547.46 197.775 1407.48 212.782 1267.51C229.118 1126.92 239.694 985.283 244.465 843.208V736.039L247.8 628.871V539.199L252.803 543.574H254.47L251.136 547.948C232.61 571.739 219.848 602.171 214.449 635.432V641.994H209.448L77.7149 576.38V574.193Z" fill="white"/>
</g>
<defs>
<clipPath id="clip0_540_2">
<rect width="841" height="731" fill="white" transform="matrix(-1 0 0 1 709 -5)"/>
</clipPath>
<clipPath id="clip1_540_2">
<rect width="798" height="237" fill="white" transform="matrix(-1 0 0 1 709 485)"/>
</clipPath>
</defs>
</svg>
