<svg width="189" height="281" viewBox="0 0 189 281" fill="none" xmlns="http://www.w3.org/2000/svg">
<g clip-path="url(#clip0_532_2)">
<path d="M117.742 248.535L106.343 251.721C87.8233 253.531 69.2167 249.277 53.3234 239.599C36.7011 231.086 23.5768 217.032 16.2202 199.866C12.7559 192.482 11.1543 184.362 11.5553 176.216C11.9563 168.069 14.3477 160.145 18.5204 153.137L31.8578 128.139L33.9927 137.468L22.692 156.225C19.3502 162.706 17.5426 169.869 17.4086 177.159C17.2747 184.45 18.8182 191.674 21.9197 198.273C28.9294 213.976 40.6127 227.135 55.3764 235.953C70.2917 244.614 87.6341 248.151 104.75 246.022C112.236 245.509 119.486 243.19 125.879 239.263C132.273 235.335 137.619 229.917 141.46 223.471L148.129 210.972L162.074 199.984L145.632 226.559C142.704 231.913 138.725 236.619 133.932 240.396C129.139 244.173 123.632 246.941 117.742 248.535Z" fill="#ECECEC"/>
<path d="M122.639 119.78C87.2103 98.7227 47.7903 103.124 32.8925 127.614C17.9947 152.103 34.8462 190.406 69.7489 210.429C104.652 230.451 146.158 227.594 160.53 202.069C174.902 176.545 158.576 139.277 122.639 119.78ZM138.241 206.882C136.697 208.968 133.576 207.949 131.49 206.405L62.4577 124.312C61.4065 122.243 61.39 119.648 63.4596 118.597C65.5291 117.545 68.1242 117.529 70.2102 119.073L139.243 201.166C140.294 203.235 140.31 205.831 138.241 206.882Z" fill="#ECECEC"/>
</g>
<g clip-path="url(#clip1_532_2)">
<path d="M123.517 87.8048L119.97 91.1601C113.559 95.3828 105.951 97.4092 98.289 96.9344C90.5853 97.025 83.0923 94.4203 77.1058 89.5709C74.4212 87.5425 72.2748 84.8871 70.8542 81.837C69.4336 78.787 68.7822 75.4351 68.957 72.075L69.016 60.3864L71.5896 63.3805L71.0734 72.3995C71.1004 75.4075 71.8184 78.3691 73.1719 81.0555C74.5253 83.742 76.4781 86.0814 78.8794 87.8933C84.458 92.2757 91.2527 94.8305 98.3368 95.2088C105.446 95.5007 112.455 93.4557 118.292 89.3865C120.926 87.7596 123.125 85.5187 124.703 82.8556C126.281 80.1926 127.19 77.1868 127.352 74.0956L127.381 68.2513L130.357 61.559L129.468 74.4201C129.43 76.937 128.883 79.4202 127.86 81.7203C126.837 84.0205 125.36 86.0901 123.517 87.8048Z" fill="#ECECEC"/>
<path d="M100.538 39.8744C83.5585 39.0043 70.0189 48.1929 69.2925 59.9958C68.5662 71.7986 82.0836 82.5358 98.6725 83.1294C115.261 83.7231 129.859 74.6966 130.195 62.6172C130.53 50.5378 117.404 40.0772 100.538 39.8744ZM122.986 68.6607C122.824 69.7189 121.489 69.9476 120.431 69.7853L79.4472 53.1042C78.6655 52.5511 78.1604 51.6073 78.7135 50.8256C79.2666 50.0439 80.2104 49.5387 81.2687 49.7009L122.252 66.3819C123.034 66.935 123.539 67.879 122.986 68.6607Z" fill="#ECECEC"/>
</g>
<g clip-path="url(#clip2_532_2)">
<path d="M113.048 17.0797L112.719 19.6235C111.514 23.4716 109.091 26.824 105.815 29.1762C102.711 31.7724 98.7962 33.2019 94.7491 33.2174C92.9828 33.2839 91.2272 32.9165 89.6358 32.1473C88.0444 31.3781 86.6658 30.2306 85.6206 28.8052L81.7613 24.0293L83.8033 24.3926L86.5896 28.2342C87.5999 29.4492 88.876 30.4158 90.3192 31.0593C91.7625 31.7028 93.3344 32.006 94.9134 31.9455C98.6394 31.8755 102.253 30.6577 105.261 28.4581C108.251 26.215 110.424 23.0542 111.447 19.4592C111.978 17.9223 112.129 16.2796 111.886 14.6718C111.644 13.0639 111.015 11.5389 110.054 10.2272L108.124 7.83927L107.112 4.12746L111.023 9.65608C111.843 10.6931 112.446 11.8853 112.794 13.1611C113.142 14.4368 113.228 15.7697 113.048 17.0797Z" fill="#ECECEC"/>
<path d="M87.7737 5.21004C80.5753 10.497 78.1185 18.7343 81.7441 23.7784C85.3697 28.8226 94.4374 28.7009 101.385 23.4312C108.333 18.1615 111.274 9.63871 107.397 4.61189C103.521 -0.414923 94.704 -0.310572 87.7737 5.21004ZM106.472 9.46599C106.757 9.95051 106.29 10.487 105.806 10.7725L83.5867 17.6005C83.0848 17.6351 82.5657 17.4188 82.5311 16.917C82.4964 16.4152 82.7127 15.896 83.1972 15.6105L105.416 8.78247C105.918 8.74783 106.437 8.96416 106.472 9.46599Z" fill="#ECECEC"/>
</g>
<defs>
<clipPath id="clip0_532_2">
<rect width="147.397" height="153.2" fill="white" transform="translate(188.633 213.83) rotate(153.073)"/>
</clipPath>
<clipPath id="clip1_532_2">
<rect width="60.8061" height="63.2" fill="white" transform="translate(142.713 61.5037) rotate(125.281)"/>
</clipPath>
<clipPath id="clip2_532_2">
<rect width="31.9424" height="33.2" fill="white" transform="translate(112.121) rotate(86.0516)"/>
</clipPath>
</defs>
</svg>
