<svg width="262" height="38" viewBox="0 0 262 38" fill="none" xmlns="http://www.w3.org/2000/svg">
<g clip-path="url(#clip0_36_772)">
<path d="M22.592 34.5453V37.9998H16.1853V34.5453C5.73231 33.8544 0 29.018 0 20.7271C0 12.4362 5.73231 7.59984 16.1853 6.90893V3.7998H22.592V6.90893C33.045 7.59984 38.6087 12.4362 38.6087 20.7271C38.6087 29.018 33.045 34.0271 22.592 34.5453ZM16.1853 28.8453V12.6089C9.94724 13.2998 6.91249 15.8907 6.91249 20.7271C6.91249 25.5635 10.1158 28.1544 16.1853 28.8453ZM31.8649 20.7271C31.8649 15.8907 28.6615 13.2998 22.592 12.6089V28.8453C28.8301 28.1544 31.8649 25.5635 31.8649 20.7271Z" fill="white"/>
<path d="M56.8173 31.4365H45.8585L43.8353 36.6183H38.2716L48.7246 12.4365H54.1197L64.7413 36.6183H59.009L56.8173 31.4365ZM55.1313 27.1183L51.4222 17.7911L47.713 27.1183H55.1313Z" fill="white" stroke="white" stroke-width="0.5" stroke-miterlimit="10"/>
<path d="M88.3449 21.0729C88.3449 26.6002 84.2985 29.882 78.0604 29.882H73.3397V36.6183H67.7761V12.4365H78.0604C84.2985 12.4365 88.3449 15.7183 88.3449 21.0729ZM82.7812 21.0729C82.7812 18.482 81.0952 16.9274 77.7233 16.9274H73.3397V25.3911H77.7233C81.0952 25.3911 82.7812 23.8365 82.7812 21.0729Z" fill="white" stroke="white" stroke-width="0.5" stroke-miterlimit="10"/>
<path d="M91.8854 12.4365H97.2806V28.1547L108.577 12.4365H113.803V36.6183H108.408V20.9001L97.112 36.6183H91.8854V12.4365Z" fill="white" stroke="white" stroke-width="0.5" stroke-miterlimit="10"/>
<path d="M141.284 12.4365V36.6183H135.721V26.6002H125.099V36.6183H119.535V12.4365H125.099V21.9365H135.721V12.4365H141.284Z" fill="white" stroke="white" stroke-width="0.5" stroke-miterlimit="10"/>
<path d="M163.708 16.9274H152.58V36.6183H147.185V12.4365H163.876L163.708 16.9274Z" fill="white" stroke="white" stroke-width="0.5" stroke-miterlimit="10"/>
<path d="M178.544 31.4365H167.586L165.562 36.6183H159.83L170.452 12.4365H175.847L186.3 36.6183H180.568L178.544 31.4365ZM176.858 27.1183L173.149 17.7911L169.272 27.1183H176.858Z" fill="white" stroke="white" stroke-width="0.5" stroke-miterlimit="10"/>
<path d="M207.375 29.7091C207.375 34.3727 202.485 36.9636 196.753 36.9636C193.444 36.9178 190.199 36.0273 187.311 34.3727L188.997 30.4C191.138 31.7185 193.581 32.4336 196.078 32.4727C199.282 32.4727 201.811 31.2636 201.811 29.0182C201.811 26.7727 200.125 26.2545 197.764 26.2545H191.864V22.1091H197.259C199.45 22.1091 200.799 21.0727 200.799 19.5182C200.799 17.9636 198.776 16.4091 196.078 16.4091C193.833 16.4075 191.626 17.0027 189.672 18.1364L187.986 13.8182C190.498 12.5366 193.272 11.8853 196.078 11.9182C201.642 11.9182 206.363 14.3364 206.363 18.8273C206.332 19.928 205.999 20.9975 205.403 21.9138C204.806 22.83 203.971 23.5561 202.991 24.0091C204.225 24.3452 205.32 25.0825 206.11 26.1104C206.901 27.1382 207.344 28.4009 207.375 29.7091Z" fill="white" stroke="white" stroke-width="0.5" stroke-miterlimit="10"/>
<path d="M209.903 24.527C209.903 17.2725 215.467 11.918 222.885 11.918C230.304 11.918 235.867 17.2725 235.867 24.527C235.867 31.7816 230.304 36.9634 222.885 36.9634C215.467 36.9634 209.903 31.6089 209.903 24.527ZM230.304 24.527C230.35 23.5083 230.192 22.4906 229.838 21.5375C229.483 20.5843 228.942 19.716 228.246 18.9868C227.55 18.2576 226.715 17.6831 225.792 17.299C224.87 16.9149 223.881 16.7295 222.885 16.7543C221.89 16.7295 220.901 16.9149 219.979 17.299C219.056 17.6831 218.221 18.2576 217.525 18.9868C216.829 19.716 216.287 20.5843 215.933 21.5375C215.579 22.4906 215.421 23.5083 215.467 24.527C215.444 25.5315 215.62 26.5304 215.985 27.4632C216.349 28.3959 216.895 29.2432 217.589 29.9537C218.282 30.6642 219.109 31.2231 220.02 31.5967C220.93 31.9703 221.905 32.1507 222.885 32.127C223.866 32.1507 224.841 31.9703 225.751 31.5967C226.662 31.2231 227.489 30.6642 228.182 29.9537C228.876 29.2432 229.421 28.3959 229.786 27.4632C230.151 26.5304 230.327 25.5315 230.304 24.527Z" fill="white" stroke="white" stroke-width="0.5" stroke-miterlimit="10"/>
<path d="M261.663 12.4365V36.6183H256.268V26.6002H245.477V36.6183H240.082V12.4365H245.477V21.9365H256.268V12.4365H261.663Z" fill="white" stroke="white" stroke-width="0.5" stroke-miterlimit="10"/>
<path d="M196.753 7.42742H191.695L190.683 9.84559H189.335L193.55 0.172852H194.898L199.113 9.84559H197.764L196.753 7.42742ZM196.247 6.21831L194.224 1.5547L192.201 6.21831H196.247Z" fill="white"/>
<path d="M209.566 9.84559V2.76376L206.194 8.63653H205.52L202.148 2.76376V9.84559H200.799V0.172852H201.979L205.857 6.90926L209.735 0.172852H210.915V9.84559H209.566Z" fill="white"/>
<path d="M213.781 0.172852H220.862V1.20923H215.13V3.97287H217.996C220.357 3.97287 221.537 5.00926 221.537 6.90926C221.537 8.80926 220.188 9.84559 217.828 9.84559H213.781V0.172852ZM217.828 8.63653C219.345 8.63653 220.188 8.11835 220.188 6.90926C220.188 5.70017 219.345 5.18198 217.828 5.18198H215.13V8.63653H217.828Z" fill="white"/>
<path d="M229.798 7.42742H224.74L223.728 9.84559H222.38L226.595 0.172852H227.943L232.158 9.84559H230.809L229.798 7.42742ZM229.292 6.21831L227.269 1.5547L225.246 6.21831H229.292Z" fill="white"/>
<path d="M240.251 7.08161C240.251 8.80889 238.396 9.84526 236.373 9.84526C235.121 9.85232 233.892 9.49275 232.833 8.80889L233.338 7.77256C234.166 8.39539 235.18 8.70103 236.205 8.6362C237.722 8.6362 238.902 8.11802 238.902 6.90893C238.902 5.69984 238.059 5.35434 236.71 5.35434H234.519V4.14528H236.542C237.722 4.14528 238.565 3.62707 238.565 2.76343C238.565 1.89979 237.385 1.2089 236.205 1.2089C235.262 1.19377 234.332 1.43198 233.507 1.89979L233.17 0.863473C234.061 0.240528 235.128 -0.0631123 236.205 -0.000163735C238.228 -0.000163735 239.914 0.863473 239.914 2.59075C239.901 3.0545 239.748 3.50276 239.476 3.87392C239.205 4.24508 238.827 4.52088 238.396 4.66344C238.931 4.78352 239.409 5.09045 239.747 5.53161C240.086 5.97278 240.264 6.52071 240.251 7.08161Z" fill="white"/>
<path d="M241.768 5.009C241.745 4.34469 241.855 3.68253 242.092 3.06386C242.33 2.44519 242.689 1.88328 243.148 1.41323C243.607 0.943187 244.155 0.575069 244.759 0.331896C245.363 0.0887229 246.009 -0.024266 246.658 -8.51406e-05C247.32 -0.0491663 247.985 0.0453791 248.609 0.277392C249.233 0.509404 249.802 0.873629 250.279 1.34634C250.757 1.81906 251.131 2.38963 251.379 3.02074C251.626 3.65186 251.741 4.32935 251.716 5.009C251.717 5.67426 251.585 6.33273 251.327 6.94322C251.069 7.5537 250.691 8.10308 250.216 8.557C249.741 9.01092 249.18 9.35962 248.568 9.5813C247.956 9.80298 247.305 9.89286 246.658 9.84534C246.024 9.86855 245.392 9.76065 244.799 9.52801C244.207 9.29537 243.667 8.9428 243.21 8.49137C242.754 8.03994 242.391 7.4989 242.143 6.90057C241.895 6.30225 241.768 5.65891 241.768 5.009ZM250.367 5.009C250.391 4.50343 250.312 3.99827 250.134 3.52604C249.956 3.05382 249.683 2.62498 249.334 2.26707C248.985 1.90915 248.566 1.63009 248.105 1.44787C247.644 1.26564 247.151 1.18427 246.658 1.20897C246.178 1.20842 245.704 1.30764 245.263 1.50063C244.822 1.69362 244.424 1.97636 244.093 2.33169C243.762 2.68702 243.504 3.10758 243.337 3.56779C243.169 4.02801 243.094 4.51832 243.117 5.009C243.117 5.97101 243.49 6.89362 244.154 7.57386C244.818 8.25411 245.719 8.63628 246.658 8.63628C247.137 8.65967 247.615 8.58314 248.064 8.41136C248.514 8.23957 248.924 7.97609 249.271 7.63691C249.618 7.29773 249.894 6.88991 250.082 6.43818C250.271 5.98645 250.367 5.50023 250.367 5.009Z" fill="white"/>
<path d="M262 0.172852V9.84559H260.651V5.52741H255.256V9.84559H253.907V0.172852H255.256V4.31835H260.651V0.172852H262Z" fill="white"/>
</g>
<defs>
<clipPath id="clip0_36_772">
<rect width="262" height="38" fill="white"/>
</clipPath>
</defs>
</svg>
