<svg width="171" height="40" viewBox="0 0 171 40" fill="none" xmlns="http://www.w3.org/2000/svg">
<g clip-path="url(#clip0_206_76)">
<path d="M150.516 0.198696H28.6713C28.5109 0.795525 28.3686 1.43533 28.253 2.10473C28.1404 3.30698 28.0286 5.05641 28.0286 7.24415V12.3855L32.1864 8.44641C33.5347 8.11886 34.6596 8.00905 35.67 8.00905C38.1432 8.00905 39.9423 8.55718 41.2897 9.8702C42.5273 11.1823 43.2015 13.0425 43.2015 15.5558V24.5226C43.2015 24.9008 43.2062 25.2579 43.2148 25.6017C44.1278 26.5299 45.0483 27.2021 46.0605 27.6949C47.0727 28.1303 48.1957 28.4588 49.208 28.4588C50.3329 28.4588 51.2315 28.1303 51.9056 27.5841C52.5798 27.1477 52.9179 26.4907 52.9179 25.6179C52.9179 25.0698 52.6925 24.4137 52.131 23.7596C51.5676 23.2124 50.4455 22.4475 48.8699 21.4602C46.961 20.149 45.499 18.9458 44.7122 17.8524C43.9253 16.867 43.4765 15.7745 43.4765 14.4615C43.4765 12.6022 44.3741 11.0725 46.1732 9.75943C47.9713 8.55718 50.1056 8.00905 52.8042 8.00905C53.8155 8.00905 54.7141 8.00905 55.3902 8.11886C56.0643 8.33754 56.9639 8.55718 57.8615 8.88567V13.2602C57.0737 12.6022 56.2887 12.0551 55.5009 11.6177C54.7141 11.2921 53.8155 11.1823 52.8042 11.1823C51.7939 11.1823 50.8934 11.4 50.1056 11.8374C49.4324 12.2757 49.0953 12.9317 49.0953 13.5858C49.0953 14.3545 49.3206 14.9008 49.7695 15.447C50.2202 16.1021 51.1121 16.7676 52.4662 17.6357C54.7074 19.069 56.2887 20.2589 57.1864 21.3513C57.9751 22.4475 58.424 23.6469 58.424 24.8511C58.424 26.8202 57.6371 28.4588 56.0643 29.7718C54.3789 30.976 52.3554 31.6301 49.8831 31.6301C48.5338 31.6301 47.4098 31.6301 46.3986 31.4124C45.7702 31.337 44.9738 31.2042 44.0924 30.9827C44.1335 31.0524 44.1669 31.1269 44.2127 31.1937H36.5714C37.0193 30.4288 37.3564 29.6639 37.47 28.6785C37.6944 27.6949 37.8052 26.273 37.8052 24.5226V16.1021C37.8052 14.79 37.3564 13.8055 36.6822 13.1504C35.8972 12.4934 34.7723 12.2757 33.3113 12.2757C32.2991 12.2757 30.9507 12.4934 29.2643 13.1504L28.0286 13.6975V24.5226C28.0286 26.273 28.1404 27.6949 28.253 28.5705C28.4784 29.5532 28.8155 30.4288 29.1516 31.1937H21.3986C21.4005 31.189 21.4033 31.1851 21.4053 31.1794C20.3911 31.4773 19.2719 31.6301 18.0477 31.6301C15.2364 31.6301 12.766 30.8662 10.7416 29.3345V31.7419C10.7416 32.9441 10.7416 34.0385 10.966 35.0211C11.0472 35.7277 11.2467 36.4917 11.5151 37.3482C14.1554 38.6727 17.132 39.4214 20.2804 39.4214H150.516C161.329 39.4214 170.127 30.6255 170.127 19.811C170.127 8.99644 161.329 0.198696 150.516 0.198696ZM10.7416 12.3855L14.4505 8.77585L15.1237 8.44641C15.9106 8.11886 16.9228 8.00905 18.1585 8.00905C19.8478 8.00905 21.3432 8.38529 22.6333 9.11581V6.58716C22.6333 5.05641 22.5216 3.85511 22.2952 2.87058C22.1931 1.97964 21.9037 1.08869 21.516 0.198696H20.2804C13.6999 0.198696 7.87106 3.45882 4.31109 8.44641H10.7416V12.3855ZM150.516 37.4972H74.143V37.4733C65.3739 36.3618 58.592 28.8819 58.592 19.811C58.592 10.7392 65.3739 3.25829 74.143 2.14579V2.12574H150.516C160.268 2.12574 168.2 10.0593 168.2 19.811C168.2 29.5627 160.268 37.4972 150.516 37.4972ZM15.7989 12.2757C14.7886 12.2757 13.6637 12.3855 12.3153 12.8219C11.8665 13.0425 11.304 13.2602 10.7416 13.5858V26.0534C11.9782 27.3654 13.4402 28.0215 15.2364 28.0215C17.4843 28.0215 19.2777 27.3626 20.4074 26.0534C21.6392 24.6277 22.3172 22.7732 22.3172 20.2589C22.3172 17.7426 21.643 15.7745 20.5191 14.3545C19.3961 12.9317 17.7097 12.2757 15.7989 12.2757ZM4.17455 8.64025C1.96771 11.8125 0.669006 15.6618 0.669006 19.811C0.669006 24.5856 2.38596 28.9678 5.2326 32.3692C5.2326 32.163 5.2345 31.9539 5.2345 31.7419V15.1185C5.2345 13.9153 5.23451 12.8219 5.00915 11.8374C4.90315 10.9025 4.58994 9.86447 4.17455 8.64025Z" fill="white"/>
<path d="M62.7923 22.6772V17.0794C62.7923 16.2496 62.7588 15.5487 62.692 14.9843C62.6232 14.4171 62.5048 13.8308 62.3301 13.2263H63.8083H65.4632C67.0493 13.2263 68.2353 13.5529 69.0279 14.207C69.8158 14.8611 70.2111 15.8437 70.2111 17.1539C70.2111 18.5643 69.748 19.5976 68.8217 20.2479C67.9536 20.8542 66.6148 21.1789 64.8043 21.219V22.6839C64.8043 23.5204 64.8368 24.2223 64.9046 24.7857C64.9724 25.3529 65.0908 25.9335 65.2646 26.5332H63.8026H62.3301C62.502 25.944 62.6213 25.3653 62.6891 24.801C62.7588 24.2337 62.7923 23.5261 62.7923 22.6772ZM64.8043 20.202C65.9015 20.1915 66.7122 19.9614 67.2327 19.5193C67.7541 19.0724 68.0157 18.3609 68.0157 17.3812C68.0157 16.4234 67.7751 15.7072 67.2928 15.2326C66.8125 14.7551 66.0896 14.5174 65.128 14.5174H64.8043V20.202Z" fill="white"/>
<path d="M71.1951 23.8332V16.5337C71.1951 15.934 71.1655 15.4374 71.1091 15.0402C71.0538 14.6448 70.9525 14.2409 70.8055 13.8351L72.1261 13.5715L73.4459 13.3003C73.2959 13.7195 73.1909 14.1855 73.1307 14.6993C73.0696 15.2149 73.0391 15.9178 73.0391 16.8058V18.9096L74.439 17.2967C74.9145 17.1668 75.3108 17.1019 75.6269 17.1019C76.4644 17.1019 77.0994 17.3626 77.5349 17.8868C77.9703 18.4111 78.189 19.1741 78.189 20.1739V23.8332C78.189 24.6009 78.2119 25.1825 78.2606 25.5769C78.3093 25.9703 78.3952 26.2892 78.5213 26.5337H77.2388H75.9564C76.1015 26.2501 76.2018 25.9101 76.26 25.5148C76.3145 25.1175 76.3431 24.557 76.3431 23.836V20.4317C76.3431 19.895 76.218 19.4949 75.9697 19.2314C75.7214 18.9678 75.3395 18.837 74.8267 18.837C74.4781 18.837 74.0198 18.9678 73.4535 19.2275L73.0391 19.4128V23.836C73.0391 24.5532 73.0696 25.1089 73.1307 25.5014C73.1909 25.8948 73.2959 26.2386 73.4459 26.5337H72.1261H70.8055C70.9525 26.2501 71.0538 25.9101 71.1091 25.5148C71.1655 25.1175 71.1951 24.557 71.1951 23.8332Z" fill="white"/>
<path d="M82.0007 26.7358C81.1002 26.7358 80.4089 26.5429 79.9218 26.161C79.4367 25.7761 79.1932 25.2271 79.1932 24.5156C79.1932 24.041 79.3642 23.5951 79.706 23.1778C80.0479 22.7595 80.5101 22.4282 81.0926 22.1866L83.8065 21.0645V20.2251C83.8065 19.7219 83.6508 19.3218 83.3405 19.0238C83.0311 18.7269 82.6109 18.5788 82.0867 18.5788C81.7496 18.5788 81.4211 18.6371 81.1079 18.7507C80.7908 18.8653 80.4461 19.0563 80.066 19.3199L80.575 17.5456C80.9369 17.3919 81.2864 17.2801 81.6254 17.2076C81.9635 17.1388 82.3073 17.1016 82.6568 17.1016C83.6527 17.1016 84.4005 17.3632 84.9008 17.8846C85.4022 18.4031 85.6514 19.1805 85.6514 20.2175V23.8338C85.6514 24.6016 85.6781 25.1831 85.724 25.5775C85.7727 25.97 85.8586 26.2899 85.9837 26.5334H84.8951H83.8065V25.6482L82.3722 26.7187L82.0007 26.7358ZM83.8065 25.1335V22.602H81.4392C81.3838 22.602 81.3122 22.7719 81.2244 23.1128C81.1356 23.4557 81.0955 23.7431 81.0955 23.9723C81.0955 24.4068 81.2349 24.7343 81.5156 24.952C81.7973 25.1698 82.2223 25.2777 82.7828 25.2777C83.1323 25.2777 83.4684 25.2299 83.7874 25.1335H83.8065Z" fill="white"/>
<path d="M87.4545 23.8332V20.0039C87.4545 19.5073 87.4249 19.0595 87.3705 18.6632C87.3142 18.2669 87.2129 17.8142 87.0668 17.3043H88.1803H89.2995V18.942L90.728 17.3301C91.152 17.1773 91.5579 17.1019 91.9456 17.1019C92.2674 17.1019 92.5433 17.1639 92.7697 17.289L92.3953 19.2782L92.3113 19.218C91.9666 18.964 91.5579 18.837 91.0842 18.837C90.7347 18.837 90.2783 18.9649 89.7129 19.2247L89.2995 19.4099V23.8332C89.2995 24.5503 89.3291 25.1089 89.3892 25.5014C89.4503 25.8948 89.5554 26.2386 89.7063 26.5337H88.3865H87.0668C87.2129 26.2501 87.3142 25.9101 87.3705 25.5148C87.4249 25.1166 87.4545 24.557 87.4545 23.8332Z" fill="white"/>
<path d="M93.5207 23.8332V20.0039C93.5207 19.5073 93.493 19.0595 93.4367 18.6632C93.3823 18.2669 93.2791 17.8142 93.134 17.3043H94.2455H95.3666V19.0795L96.5221 17.6538L96.9365 17.4065C97.3318 17.2031 97.7845 17.1019 98.2944 17.1019C99.0221 17.1019 99.5807 17.3301 99.9655 17.7885C100.254 18.1294 100.431 18.5877 100.493 19.1645L101.861 17.6366L102.237 17.4246C102.634 17.2079 103.057 17.1019 103.505 17.1019C104.222 17.1019 104.766 17.3253 105.14 17.7732C105.515 18.2191 105.702 18.8742 105.702 19.7317V23.8332C105.702 24.6143 105.725 25.2025 105.769 25.5988C105.814 25.9961 105.896 26.3064 106.014 26.5337H104.743H103.469C103.614 26.2501 103.716 25.9101 103.773 25.5148C103.827 25.1175 103.855 24.557 103.855 23.836V20.3133C103.855 19.8148 103.74 19.4453 103.505 19.2008C103.274 18.9583 102.92 18.837 102.443 18.837C101.998 18.837 101.512 18.9859 100.977 19.2858L100.534 19.5579V23.836C100.534 24.5532 100.564 25.1089 100.625 25.5014C100.686 25.8948 100.791 26.2386 100.941 26.5337H99.6198H98.3001C98.4453 26.2501 98.5475 25.9101 98.6038 25.5148C98.6601 25.1175 98.6888 24.557 98.6888 23.836V20.32C98.6888 19.8177 98.5723 19.4453 98.3421 19.2008C98.1091 18.9583 97.7539 18.837 97.2726 18.837C96.8668 18.837 96.3664 18.9926 95.7734 19.3039L95.3666 19.514V23.836C95.3666 24.5532 95.3962 25.1089 95.4573 25.5014C95.5184 25.8948 95.6216 26.2386 95.7734 26.5337H94.4537H93.134C93.2791 26.2501 93.3823 25.9101 93.4367 25.5148C93.493 25.1166 93.5207 24.557 93.5207 23.8332Z" fill="white"/>
<path d="M112.145 19.2793C111.884 18.9718 111.616 18.7484 111.344 18.607C111.068 18.4657 110.764 18.3931 110.429 18.3931C110.059 18.3931 109.752 18.4896 109.506 18.6825C109.262 18.8744 109.14 19.1151 109.14 19.4025C109.14 19.6851 109.223 19.9401 109.387 20.1664C109.546 20.3927 109.851 20.6792 110.298 21.023C111.056 21.6055 111.588 22.1183 111.893 22.5595C112.193 22.9949 112.343 23.4686 112.343 23.9766C112.343 24.7692 112.067 25.4281 111.514 25.9495C110.962 26.4728 110.265 26.7363 109.427 26.7363C108.968 26.7363 108.574 26.7086 108.248 26.6552C107.922 26.6026 107.521 26.5014 107.046 26.3477V24.1513C107.402 24.582 107.759 24.9029 108.116 25.111C108.474 25.3202 108.839 25.4252 109.214 25.4252C109.576 25.4252 109.876 25.3202 110.115 25.1063C110.353 24.8933 110.472 24.6259 110.472 24.3032C110.472 24.0415 110.376 23.7894 110.184 23.545C109.998 23.3081 109.636 22.9825 109.095 22.5681C108.414 22.0419 107.937 21.5673 107.657 21.1424C107.386 20.7231 107.248 20.2562 107.248 19.7415C107.248 18.9833 107.552 18.354 108.156 17.8517C108.76 17.3523 109.519 17.1021 110.434 17.1021C110.769 17.1021 111.057 17.1307 111.301 17.1851C111.546 17.2424 111.828 17.3437 112.145 17.4898V19.2793Z" fill="white"/>
<path d="M116.099 26.7358C115.374 26.7358 114.846 26.5219 114.514 26.0913C114.183 25.6606 114.017 24.973 114.017 24.0277V18.5788H112.705V18.5693L115.845 15.2738H115.861V17.305H118.001V18.5788H115.861V23.2551C115.861 23.8749 115.969 24.3409 116.181 24.6512C116.392 24.9568 116.711 25.1115 117.136 25.1115C117.397 25.1115 117.636 25.08 117.856 25.0189C118.073 24.9559 118.336 24.8451 118.639 24.6875L117.909 26.4599C117.587 26.5697 117.304 26.6423 117.064 26.6785C116.823 26.7187 116.501 26.7358 116.099 26.7358Z" fill="white"/>
<path d="M121.533 26.7358C120.635 26.7358 119.943 26.5429 119.456 26.161C118.971 25.7761 118.727 25.2271 118.727 24.5156C118.727 24.041 118.898 23.5951 119.239 23.1778C119.581 22.7595 120.044 22.4282 120.627 22.1866L123.342 21.0645V20.2251C123.342 19.7219 123.187 19.3218 122.874 19.0238C122.563 18.7269 122.147 18.5788 121.622 18.5788C121.283 18.5788 120.957 18.6371 120.642 18.7507C120.326 18.8653 119.978 19.0563 119.601 19.3199L120.111 17.5456C120.472 17.3919 120.822 17.2801 121.16 17.2076C121.498 17.1388 121.839 17.1016 122.189 17.1016C123.187 17.1016 123.935 17.3632 124.435 17.8846C124.934 18.4031 125.186 19.1805 125.186 20.2175V23.8338C125.186 24.6016 125.21 25.1831 125.259 25.5775C125.307 25.97 125.392 26.2899 125.519 26.5334H124.43H123.342V25.6482L121.909 26.7187L121.533 26.7358ZM123.342 25.1335V22.602H120.975C120.919 22.602 120.845 22.7719 120.758 23.1128C120.671 23.4557 120.628 23.7431 120.628 23.9723C120.628 24.4068 120.769 24.7343 121.049 24.952C121.331 25.1698 121.754 25.2777 122.319 25.2777C122.667 25.2777 123.001 25.2299 123.323 25.1335H123.342Z" fill="white"/>
<path d="M127.248 23.8332V20.0039C127.248 19.5006 127.218 19.0509 127.163 18.6536C127.105 18.2592 127.005 17.8085 126.859 17.3043H127.971H129.092V18.9095L130.492 17.2967C130.967 17.1668 131.363 17.1019 131.678 17.1019C132.516 17.1019 133.153 17.3626 133.589 17.8868C134.022 18.4111 134.242 19.1741 134.242 20.1739V23.8332C134.242 24.6009 134.265 25.1825 134.314 25.5769C134.36 25.9703 134.449 26.2892 134.572 26.5337H133.29H132.007C132.155 26.2501 132.256 25.9101 132.313 25.5148C132.367 25.1175 132.396 24.557 132.396 23.836V20.4317C132.396 19.895 132.272 19.4949 132.024 19.2314C131.772 18.9678 131.393 18.837 130.879 18.837C130.529 18.837 130.071 18.9678 129.506 19.2275L129.092 19.4128V23.836C129.092 24.5532 129.123 25.1089 129.182 25.5014C129.243 25.8948 129.349 26.2386 129.498 26.5337H128.177H126.859C127.005 26.2501 127.105 25.9101 127.163 25.5148C127.218 25.1166 127.248 24.557 127.248 23.8332Z" fill="white"/>
<path d="M138.905 26.7359C137.769 26.7359 136.866 26.3807 136.2 25.6664C135.536 24.955 135.201 23.9895 135.201 22.772C135.201 21.1477 135.662 19.7974 136.582 18.7203C137.503 17.6402 138.658 17.1017 140.044 17.1017C140.418 17.1017 140.768 17.1523 141.089 17.2535V16.5325C141.089 15.9347 141.062 15.4363 141.004 15.0409C140.951 14.6446 140.849 14.2416 140.701 13.8348L141.99 13.5713L143.285 13.3001C143.152 13.6744 143.06 14.1175 143.009 14.6332C142.96 15.1479 142.934 15.8717 142.934 16.8066V23.8339C142.934 24.551 142.965 25.1087 143.025 25.5022C143.086 25.8956 143.189 26.2394 143.341 26.5335H142.214H141.089V25.2758L139.993 26.5153C139.568 26.6672 139.206 26.7426 138.905 26.7359ZM139.42 18.4128C138.599 18.4128 138.008 18.6916 137.646 19.2483C137.284 19.8051 137.104 20.7141 137.104 21.9756C137.104 22.9821 137.322 23.7814 137.76 24.3734C138.199 24.9645 138.789 25.2596 139.538 25.2596C139.899 25.2596 140.236 25.1908 140.546 25.0562L141.089 24.7659V18.9437C140.66 18.5904 140.102 18.4128 139.42 18.4128Z" fill="white"/>
<path d="M160.449 26.7359C159.31 26.7359 158.407 26.3807 157.743 25.6664C157.077 24.955 156.744 23.9895 156.744 22.772C156.744 21.1477 157.204 19.7974 158.124 18.7203C159.045 17.6402 160.199 17.1017 161.585 17.1017C161.959 17.1017 162.309 17.1523 162.63 17.2535V16.5325C162.63 15.9347 162.603 15.4363 162.546 15.0409C162.49 14.6446 162.39 14.2416 162.243 13.8348L163.531 13.5713L164.828 13.3001C164.692 13.6744 164.6 14.1175 164.552 14.6332C164.501 15.1479 164.478 15.8717 164.478 16.8066V23.8339C164.478 24.551 164.506 25.1087 164.568 25.5022C164.628 25.8956 164.733 26.2394 164.883 26.5335H163.758H162.63V25.2758L161.535 26.5153C161.109 26.6672 160.748 26.7426 160.449 26.7359ZM160.96 18.4128C160.14 18.4128 159.549 18.6916 159.186 19.2483C158.825 19.8051 158.644 20.7141 158.644 21.9756C158.644 22.9821 158.864 23.7814 159.302 24.3734C159.74 24.9645 160.332 25.2596 161.08 25.2596C161.441 25.2596 161.777 25.1908 162.087 25.0562L162.63 24.7659V18.9437C162.201 18.5904 161.643 18.4128 160.96 18.4128Z" fill="white"/>
<path d="M146.748 26.7358C145.85 26.7358 145.157 26.5429 144.671 26.161C144.184 25.7761 143.942 25.2271 143.942 24.5156C143.942 24.041 144.111 23.5951 144.454 23.1778C144.796 22.7595 145.26 22.4282 145.841 22.1866L148.554 21.0645V20.2251C148.554 19.7219 148.399 19.3218 148.089 19.0238C147.78 18.7269 147.362 18.5788 146.837 18.5788C146.499 18.5788 146.172 18.6371 145.857 18.7507C145.541 18.8653 145.194 19.0563 144.816 19.3199L145.326 17.5456C145.686 17.3919 146.036 17.2801 146.373 17.2076C146.711 17.1388 147.055 17.1016 147.403 17.1016C148.4 17.1016 149.151 17.3632 149.65 17.8846C150.151 18.4031 150.4 19.1805 150.4 20.2175V23.8338C150.4 24.6016 150.426 25.1831 150.472 25.5775C150.522 25.97 150.607 26.2899 150.733 26.5334H149.645H148.554V25.6482L147.122 26.7187L146.748 26.7358ZM148.554 25.1335V22.602H146.188C146.132 22.602 146.061 22.7719 145.973 23.1128C145.885 23.4557 145.841 23.7431 145.841 23.9723C145.841 24.4068 145.983 24.7343 146.265 24.952C146.546 25.1698 146.968 25.2777 147.531 25.2777C147.884 25.2777 148.216 25.2299 148.538 25.1335H148.554Z" fill="white"/>
<path d="M151.908 23.8332V20.0039C151.908 19.5073 151.879 19.0595 151.824 18.6632C151.767 18.2669 151.666 17.8142 151.521 17.3043H152.632H153.753V18.942L155.183 17.3301C155.605 17.1773 156.012 17.1019 156.4 17.1019C156.722 17.1019 156.995 17.1639 157.223 17.289L156.85 19.2782L156.766 19.218C156.421 18.964 156.012 18.837 155.538 18.837C155.188 18.837 154.733 18.9649 154.166 19.2247L153.753 19.4099V23.8332C153.753 24.5503 153.784 25.1089 153.843 25.5014C153.905 25.8948 154.008 26.2386 154.16 26.5337H152.839H151.521C151.666 26.2501 151.767 25.9101 151.824 25.5148C151.879 25.1166 151.908 24.557 151.908 23.8332Z" fill="white"/>
</g>
<defs>
<clipPath id="clip0_206_76">
<rect width="170.428" height="40" fill="white"/>
</clipPath>
</defs>
</svg>
