<svg width="221" height="25" viewBox="0 0 221 25" fill="none" xmlns="http://www.w3.org/2000/svg">
<g clip-path="url(#clip0_206_20)">
<path fill-rule="evenodd" clip-rule="evenodd" d="M3.79739 1.4231H217.202C219.291 1.4231 221 3.13203 221 5.22209V19.9108C221 22.0009 219.291 23.7098 217.202 23.7098H3.79739C1.70852 23.7098 0 22.0009 0 19.9108V5.22209C0 3.13203 1.70852 1.4231 3.79739 1.4231Z" fill="#DA251D"/>
<path fill-rule="evenodd" clip-rule="evenodd" d="M14.1476 18.8079C14.2039 18.7923 14.3476 18.7482 14.3639 18.7102C14.3639 18.6628 14.3639 18.6153 14.3639 18.5678C14.3639 18.5455 14.3598 18.5224 14.3557 18.5007C14.3551 18.4966 14.3537 18.4905 14.3524 18.4858C14.3327 18.4627 14.3225 18.4356 14.3225 18.4044C14.3225 18.3705 14.3198 18.3339 14.309 18.3013C14.2954 18.2613 14.2818 18.2206 14.269 18.182L13.3815 15.6965H8.46339L7.69794 17.8734C7.66811 17.9643 7.64235 18.0572 7.6193 18.1501C7.61455 18.1684 7.60709 18.1833 7.59557 18.1982C7.56235 18.2396 7.53251 18.2884 7.52031 18.3407C7.51556 18.3868 7.49658 18.4498 7.48641 18.4885C7.46675 18.5604 7.45997 18.6363 7.45997 18.7102C7.45997 18.7787 7.55692 18.7842 7.60845 18.7882C7.61591 18.7882 7.62201 18.7896 7.62947 18.7916C7.69591 18.8079 7.79557 18.8079 7.86337 18.8079H8.37322C8.44305 18.8079 8.5 18.8649 8.5 18.9347V20.0157C8.5 20.0855 8.44305 20.1425 8.37322 20.1425H4.13242C4.09717 20.1425 4.06666 20.1296 4.04158 20.1045C4.01717 20.0794 4.00496 20.0489 4.00564 20.013L4.02598 18.932C4.02734 18.8642 4.08225 18.8093 4.15005 18.8079C4.55752 18.8004 5.22872 18.7462 5.5128 18.4051C5.8023 18.0579 6.01925 17.5364 6.17451 17.1159L9.41799 8.36438C9.50409 8.14533 9.67359 7.70928 9.67359 7.47261C9.67359 7.29697 9.59427 7.20745 9.42477 7.16744C9.41731 7.16609 9.41121 7.16405 9.40375 7.16066C9.30205 7.11726 9.15561 7.1098 9.04646 7.1098H8.8017C8.73187 7.1098 8.67492 7.05284 8.67492 6.98299V6.24923C8.67492 6.17938 8.73187 6.12241 8.8017 6.12241C9.87224 6.12241 10.7713 5.62601 11.5272 4.89361C11.5516 4.86987 11.5808 4.85767 11.6153 4.85767H12.5123C12.5666 4.85767 12.6133 4.89022 12.6316 4.94108L16.9138 16.7314C17.0589 17.1457 17.2155 17.5967 17.408 17.9921C17.5328 18.2491 17.7233 18.4539 17.9572 18.6167C18.2338 18.8079 18.5769 18.8404 18.903 18.8086C18.9403 18.8052 18.9735 18.816 19.0013 18.8418C19.0284 18.8669 19.042 18.8994 19.042 18.9374L19.021 20.0184C19.0203 20.0869 18.9633 20.1425 18.8949 20.1425H13.471C13.4011 20.1425 13.3442 20.0855 13.3442 20.0157V18.9347C13.3442 18.8649 13.4011 18.8079 13.471 18.8079H14.1476L14.1476 18.8079ZM20.7302 5.18389H35.9611C36.0309 5.18389 36.0878 5.24086 36.0878 5.31071V6.39168C36.0878 6.42762 36.075 6.45814 36.0499 6.48255C36.0241 6.50696 35.9936 6.51917 35.9577 6.51849C35.6546 6.51103 35.1495 6.50425 34.8607 6.60326C34.7061 6.65684 34.5807 6.74567 34.5332 6.90707C34.46 7.15324 34.4566 7.52283 34.4566 7.77849V17.5479C34.4566 17.8002 34.4607 18.1562 34.5332 18.399C34.5834 18.5685 34.7325 18.6587 34.8912 18.7129C35.1922 18.816 35.6417 18.8167 35.9577 18.8079C35.9929 18.8072 36.0241 18.8194 36.0492 18.8438C36.075 18.8689 36.0878 18.8994 36.0878 18.9347V20.0157C36.0878 20.0855 36.0309 20.1425 35.9611 20.1425H29.3548C29.2849 20.1425 29.228 20.0855 29.228 20.0157V18.9347C29.228 18.8988 29.2415 18.8682 29.2666 18.8432C29.2931 18.8187 29.3243 18.8065 29.3595 18.8079C29.6463 18.8194 30.3514 18.8357 30.5955 18.6587C30.8138 18.5007 30.8389 18.0741 30.8389 17.8334V7.69711C30.8389 7.47942 30.8199 7.0054 30.5975 6.87926C30.3345 6.73074 29.6511 6.72261 29.3548 6.72261H27.3364C27.0049 6.72261 26.6089 6.71243 26.2808 6.75245C26.1276 6.77076 26.0279 6.89418 25.9594 7.02235C25.8279 7.26987 25.8116 7.70796 25.8116 7.98261V17.5479C25.8116 17.8002 25.8157 18.1562 25.8876 18.399C25.9377 18.5685 26.0876 18.6587 26.2455 18.7129C26.5499 18.8174 27.0144 18.8167 27.333 18.8079C27.3683 18.8072 27.3988 18.8194 27.4245 18.8438C27.4496 18.8689 27.4625 18.8994 27.4625 18.9347V20.0157C27.4625 20.0855 27.4062 20.1425 27.3364 20.1425H20.7301C20.6603 20.1425 20.6033 20.0855 20.6033 20.0157V18.9347C20.6033 18.8994 20.6155 18.8689 20.6406 18.8445C20.6664 18.8194 20.6969 18.8072 20.7322 18.8079C20.9945 18.8126 21.8061 18.8167 22.0027 18.6038C22.1973 18.3935 22.2136 17.8151 22.2136 17.5479V7.7785C22.2136 7.50385 22.1966 6.89623 21.9858 6.68532C21.7729 6.47238 21.0095 6.5029 20.7369 6.51849C20.701 6.52053 20.6691 6.509 20.6427 6.48391C20.6162 6.45882 20.6033 6.42762 20.6033 6.39168V5.31071C20.6033 5.24086 20.6603 5.18389 20.7301 5.18389L20.7302 5.18389ZM49.7031 5.27476L50.6415 8.43562C50.653 8.47563 50.6462 8.51496 50.6211 8.54752C50.5967 8.58075 50.5608 8.59906 50.5194 8.59906H49.6631C49.6231 8.59906 49.5886 8.5821 49.5635 8.55023C48.8096 7.59064 47.8434 6.84672 46.5831 6.74092C46.4014 6.70905 46.1336 6.68464 45.9674 6.78568C45.8047 6.88469 45.7783 7.27259 45.7729 7.43196V7.92158C45.7729 8.01991 45.7722 8.12164 45.762 8.21929C45.7546 8.29592 45.7525 8.37459 45.7525 8.45189V17.5479C45.7525 17.8076 45.7668 18.108 45.8393 18.359C45.8929 18.5427 46.0203 18.6506 46.1986 18.713C46.4895 18.816 46.9282 18.8167 47.2332 18.8079C47.2685 18.8072 47.2997 18.8194 47.3255 18.8438C47.3505 18.8683 47.3634 18.8994 47.3634 18.9347V20.0157C47.3634 20.0855 47.3065 20.1425 47.2366 20.1425H40.671C40.6012 20.1425 40.5443 20.0855 40.5443 20.0157V18.9347C40.5443 18.8994 40.5571 18.8689 40.5822 18.8445C40.6073 18.8194 40.6385 18.8072 40.6737 18.8079C40.9368 18.8126 41.768 18.8174 41.9646 18.6038C42.1592 18.3935 42.1755 17.8151 42.1755 17.5479V8.45189C42.1755 8.36034 42.1734 8.26812 42.166 8.17657C42.1592 8.0918 42.1551 8.00635 42.1551 7.92158C42.1551 7.83274 42.1626 7.74391 42.1775 7.65575C42.1877 7.59336 42.1823 7.53232 42.1619 7.47197C42.1572 7.4584 42.1551 7.4462 42.1551 7.43196C42.1551 7.2102 42.1253 6.89418 41.9172 6.7694C41.7924 6.70634 41.4704 6.73007 41.3355 6.74228C41.1497 6.75923 40.9429 6.7789 40.7612 6.82094C39.7741 7.05084 38.9774 7.77645 38.3645 8.5509C38.3394 8.5821 38.3055 8.59905 38.2655 8.59905H37.4092C37.3679 8.59905 37.332 8.58074 37.3076 8.54751C37.2825 8.51496 37.2757 8.47563 37.2872 8.43562L38.2255 5.27476C38.2418 5.21983 38.2899 5.18389 38.3469 5.18389H49.5818C49.6387 5.18389 49.6869 5.21983 49.7031 5.27476L49.7031 5.27476ZM57.0491 11.3435H58.3292C58.8749 11.3435 59.82 11.3327 60.3312 11.1279C60.7448 10.9624 60.8119 10.4531 60.8119 10.0632C60.8119 9.99333 60.8689 9.93636 60.9387 9.93636H61.6933C61.7631 9.93636 61.8201 9.99333 61.8201 10.0632V14.1829C61.8201 14.2182 61.8072 14.2487 61.7821 14.2738C61.7564 14.2982 61.7252 14.3104 61.6899 14.3091L60.9353 14.2894C60.8668 14.2874 60.8119 14.2311 60.8119 14.1626C60.8119 13.4716 60.5096 13.0552 59.8173 12.9412C59.6011 12.906 59.3638 12.9019 59.1448 12.9019H57.0491V17.3438C57.0491 17.5757 57.06 18.1657 57.222 18.3522C57.3786 18.5319 57.8742 18.5868 58.0912 18.6045C58.6424 18.635 59.2607 18.6004 59.8173 18.5835C60.1577 18.5835 60.5007 18.5434 60.8316 18.4844C62.0316 18.2356 62.8384 17.4042 63.3957 16.3469C63.4188 16.3042 63.4601 16.2791 63.5083 16.2791H64.4256C64.4649 16.2791 64.4988 16.2954 64.5239 16.3259C64.549 16.3564 64.5578 16.393 64.5497 16.4317L63.7951 20.0415C63.7829 20.1012 63.732 20.1425 63.671 20.1425H51.9676C51.8978 20.1425 51.8408 20.0856 51.8408 20.0157V18.9347C51.8408 18.8988 51.8537 18.8683 51.8795 18.8432C51.9053 18.8188 51.9364 18.8066 51.9724 18.8079C52.2592 18.8194 52.9643 18.8357 53.2083 18.6587C53.426 18.5007 53.4517 18.0742 53.4517 17.8334V7.49296C53.4517 7.23662 53.4212 6.82295 53.1887 6.65816C52.931 6.47506 52.2944 6.4988 51.9961 6.51847C51.9588 6.5205 51.9263 6.50897 51.8998 6.4832C51.8734 6.45811 51.8605 6.42624 51.8612 6.38962L51.8815 5.30864C51.8829 5.23947 51.9392 5.18386 52.0083 5.18386H62.9781C63.0398 5.18386 63.0913 5.22727 63.1028 5.28762L63.7551 8.83638C63.7618 8.87503 63.753 8.91097 63.7279 8.94081C63.7028 8.97065 63.6696 8.98625 63.6303 8.98625H62.713C62.6587 8.98625 62.6126 8.9537 62.5937 8.90284C62.3828 8.32302 62.0438 7.83136 61.5794 7.42515C61.1346 7.03657 60.6234 6.80328 60.0207 6.76124C59.9021 6.74157 59.7549 6.74293 59.6288 6.74293C59.1366 6.72258 58.6383 6.72258 58.1454 6.72258C57.9339 6.72258 57.6654 6.73411 57.4647 6.80667C57.3142 6.86093 57.2213 6.97825 57.1617 7.12337C57.062 7.36343 57.0491 7.72624 57.0491 7.98258V11.3435V11.3435ZM71.4441 11.9145H71.5262L75.3791 7.61642C75.4612 7.51469 75.5412 7.41365 75.6225 7.31193C75.6259 7.30786 75.6286 7.30515 75.632 7.30176C75.6646 7.2692 75.6964 7.2353 75.7249 7.20003C75.7432 7.17698 75.7622 7.15324 75.7819 7.13222C75.8117 7.07729 75.8666 6.98031 75.8815 6.92945C75.8822 6.92064 75.8842 6.91182 75.8869 6.90233C75.9025 6.85553 75.9371 6.76466 75.9425 6.72736C75.9141 6.44797 75.4083 6.46831 75.2185 6.4778C75.1825 6.47916 75.1507 6.46763 75.1249 6.44322C75.0984 6.41813 75.0856 6.38693 75.0856 6.35099V5.31071C75.0856 5.24086 75.1425 5.1839 75.2123 5.1839H79.7589C79.8274 5.1839 79.883 5.23815 79.8857 5.30596L79.9264 6.34624C79.9277 6.38218 79.9155 6.41338 79.8904 6.43915C79.8654 6.4656 79.8342 6.47848 79.7982 6.4778C78.7311 6.46288 77.8565 7.06101 77.1629 7.82122L75.1412 10.1412L78.1772 15.6911C78.5419 16.3415 78.923 17.0237 79.344 17.6395C79.5738 17.9765 79.8579 18.3007 80.2044 18.5217C80.5074 18.7157 80.8437 18.7998 81.2024 18.7876C81.2383 18.7862 81.2688 18.7984 81.2946 18.8235C81.3203 18.8479 81.3332 18.8784 81.3332 18.9144V20.0157C81.3332 20.0856 81.2769 20.1425 81.2071 20.1425H74.8449C74.7757 20.1425 74.7195 20.0869 74.7181 20.0177L74.6978 18.9164C74.6971 18.8812 74.7093 18.8506 74.7344 18.8255C74.7588 18.8005 74.7893 18.7876 74.8246 18.7876H75.1303C75.1846 18.7876 75.4015 18.7808 75.4395 18.7333C75.4449 18.7265 75.4497 18.7218 75.4558 18.7164C75.5269 18.6553 75.5541 18.5787 75.5541 18.4858C75.5541 18.3332 75.1764 17.6103 75.1012 17.4659L72.617 12.9304L71.4441 14.2114V17.8334C71.4441 18.0362 71.4611 18.3061 71.5533 18.4905C71.6292 18.6431 71.7892 18.7137 71.9472 18.7503C72.2564 18.8208 72.6496 18.8174 72.9655 18.8079C73.0008 18.8072 73.032 18.8188 73.0577 18.8439C73.0828 18.8683 73.0957 18.8988 73.0957 18.9347V20.0157C73.0957 20.0856 73.0387 20.1425 72.9689 20.1425H66.3626C66.2928 20.1425 66.2358 20.0856 66.2358 20.0157V18.9347C66.2358 18.8995 66.2487 18.869 66.2738 18.8445C66.2996 18.8195 66.3301 18.8072 66.3653 18.8079C66.6609 18.814 67.3423 18.8161 67.5972 18.6458C67.8217 18.496 67.8467 18.0721 67.8467 17.8334V7.47263C67.8467 7.3621 67.8461 7.23528 67.8271 7.12067C67.7979 6.87383 67.7023 6.66564 67.4542 6.58358C67.1362 6.47711 66.7037 6.49067 66.3735 6.51848C66.3369 6.52119 66.3043 6.50966 66.2772 6.48525C66.2501 6.46016 66.2358 6.42828 66.2358 6.39166V5.31069C66.2358 5.24084 66.2928 5.18388 66.3626 5.18388H72.9689C73.0387 5.18388 73.0957 5.24084 73.0957 5.31069V6.39166C73.0957 6.42761 73.0821 6.4588 73.0564 6.48389C73.0299 6.50898 72.9981 6.52051 72.9621 6.51848C72.6638 6.50152 72.2306 6.48254 71.9397 6.55578C71.756 6.60121 71.638 6.71378 71.5675 6.88807C71.4624 7.14712 71.4441 7.50247 71.4441 7.77848V11.9145L71.4441 11.9145ZM92.6291 18.8079C92.686 18.7923 92.8291 18.7482 92.8453 18.7103C92.8453 18.6628 92.8453 18.6153 92.8453 18.5679C92.8453 18.5455 92.8413 18.5224 92.8372 18.5007C92.8365 18.4966 92.8352 18.4905 92.8338 18.4858C92.8142 18.4627 92.8047 18.4356 92.8047 18.4044C92.8047 18.3705 92.8013 18.3339 92.7904 18.3013C92.7769 18.2613 92.7633 18.2206 92.7504 18.182L91.8629 15.6966H86.9448L86.1801 17.8734C86.1496 17.9643 86.1245 18.0572 86.1008 18.1501C86.096 18.1684 86.0892 18.1833 86.077 18.1983C86.0438 18.2396 86.014 18.2885 86.0018 18.3407C85.997 18.3868 85.9787 18.4499 85.9679 18.4885C85.9482 18.5604 85.9414 18.6364 85.9414 18.7103C85.9414 18.7788 86.0384 18.7842 86.0899 18.7883C86.0974 18.7883 86.1035 18.7896 86.1109 18.7916C86.1774 18.8079 86.277 18.8079 86.3448 18.8079H86.8547C86.9245 18.8079 86.9815 18.8649 86.9815 18.9347V20.0157C86.9815 20.0856 86.9245 20.1425 86.8547 20.1425H82.6139C82.5786 20.1425 82.5481 20.1296 82.523 20.1045C82.4986 20.0795 82.4864 20.0489 82.4871 20.013L82.5074 18.932C82.5088 18.8642 82.5637 18.8093 82.6322 18.8079C83.0397 18.8005 83.7109 18.7462 83.9949 18.4051C84.2838 18.0579 84.5007 17.5364 84.656 17.1159L87.8995 8.3644C87.9855 8.14535 88.1557 7.7093 88.1557 7.47263C88.1557 7.29699 88.0757 7.20748 87.9062 7.16746C87.8988 7.16611 87.8927 7.16407 87.8859 7.16068C87.7842 7.11728 87.6371 7.10982 87.5279 7.10982H87.2832C87.2133 7.10982 87.1564 7.05286 87.1564 6.98301V6.24925C87.1564 6.1794 87.2133 6.12243 87.2832 6.12243C88.3537 6.12243 89.2527 5.62603 90.0087 4.89363C90.0331 4.86989 90.0629 4.85769 90.0968 4.85769H90.9938C91.0487 4.85769 91.0948 4.89024 91.1131 4.9411L95.3959 16.7314C95.5403 17.1458 95.697 17.5967 95.8895 17.9921C96.0143 18.2491 96.2048 18.4539 96.4387 18.6167C96.7153 18.8079 97.0583 18.8405 97.3845 18.8086C97.4217 18.8052 97.455 18.8161 97.4828 18.8418C97.5099 18.8669 97.5241 18.8995 97.5234 18.9374L97.5031 20.0184C97.5017 20.0869 97.4448 20.1425 97.3763 20.1425H91.9524C91.8826 20.1425 91.8257 20.0856 91.8257 20.0157V18.9347C91.8257 18.8649 91.8826 18.8079 91.9524 18.8079H92.6291V18.8079ZM10.868 9.06767L9.02316 14.1375H12.7602L10.9344 9.06767H10.868H10.868ZM89.3493 9.06767L87.5045 14.1375H91.2416L89.4164 9.06767H89.3493H89.3493Z" fill="#FEFEFE" stroke="white" stroke-width="0.0761999"/>
<path fill-rule="evenodd" clip-rule="evenodd" d="M135.212 10.9114H140.878V7.31249C140.86 7.04327 140.798 6.67232 140.562 6.50075C140.303 6.31222 139.714 6.33121 139.411 6.35155C139.375 6.35427 139.343 6.34274 139.316 6.31765C139.289 6.29256 139.276 6.26136 139.276 6.22542V5.14444C139.276 5.0746 139.333 5.01763 139.402 5.01763H146.278C146.348 5.01763 146.405 5.0746 146.405 5.14444V6.24576C146.405 6.28442 146.389 6.31765 146.359 6.34274C146.329 6.36715 146.294 6.37732 146.256 6.37054C145.974 6.32104 145.274 6.21796 145.066 6.49464C144.855 6.77743 144.798 7.27587 144.78 7.61359C144.78 7.72956 144.783 7.84416 144.791 7.95945C144.799 8.06795 144.802 8.17646 144.802 8.28496V16.7286C144.802 16.8269 144.798 16.9259 144.791 17.0242C144.781 17.1422 144.78 17.2609 144.78 17.3762C144.794 17.6468 144.838 18.2252 145.027 18.4395C145.213 18.6505 146.022 18.6457 146.276 18.641C146.311 18.641 146.342 18.6532 146.367 18.6776C146.392 18.7027 146.405 18.7325 146.405 18.7678V19.8487C146.405 19.9186 146.348 19.9756 146.278 19.9756H139.402C139.333 19.9756 139.276 19.9186 139.276 19.8487V18.7678C139.276 18.7325 139.288 18.702 139.314 18.6776C139.339 18.6525 139.37 18.6403 139.405 18.641C139.712 18.6484 140.302 18.643 140.565 18.4599C140.8 18.2965 140.861 17.9235 140.878 17.6644V12.4705H135.212V17.381C135.212 17.6617 135.233 18.2083 135.444 18.4246C135.66 18.6477 136.425 18.6464 136.707 18.641C136.743 18.641 136.774 18.6532 136.799 18.6776C136.824 18.702 136.837 18.7325 136.837 18.7678V19.8488C136.837 19.9186 136.78 19.9756 136.71 19.9756H129.79C129.754 19.9756 129.723 19.9627 129.698 19.9369C129.674 19.9111 129.662 19.8793 129.664 19.844L129.708 18.763C129.709 18.7278 129.723 18.6986 129.749 18.6749C129.775 18.6511 129.806 18.6396 129.84 18.6416C130.138 18.6538 130.774 18.6654 131.029 18.4816C131.256 18.3175 131.288 17.9201 131.288 17.6665V7.30568C131.288 7.07646 131.261 6.70009 131.052 6.55293C130.812 6.38407 130.119 6.38678 129.837 6.39288C129.768 6.39424 129.711 6.33999 129.708 6.27082L129.664 5.14916C129.662 5.11321 129.674 5.08202 129.699 5.05625C129.723 5.03048 129.755 5.0176 129.79 5.0176H136.71C136.78 5.0176 136.837 5.07456 136.837 5.14441V6.22538C136.837 6.26133 136.823 6.29252 136.797 6.31693C136.771 6.34203 136.739 6.35355 136.703 6.35152C136.419 6.33592 135.661 6.30812 135.447 6.54479C135.236 6.77808 135.212 7.31653 135.212 7.6122V10.9114V10.9114ZM154.675 11.1766H156.083C156.686 11.1766 157.707 11.1691 158.276 10.9603C158.718 10.7982 158.805 10.316 158.805 9.89624C158.805 9.82639 158.862 9.76943 158.932 9.76943H159.755C159.825 9.76943 159.882 9.82639 159.882 9.89624V14.016C159.882 14.0513 159.869 14.0818 159.843 14.1069C159.818 14.1313 159.787 14.1435 159.751 14.1428L158.928 14.1225C158.86 14.1204 158.805 14.0641 158.805 13.9957C158.805 13.2612 158.427 12.8828 157.711 12.775C157.473 12.739 157.214 12.7357 156.974 12.7357H154.675V17.1775C154.675 17.4135 154.687 17.9967 154.862 18.1812C155.037 18.3657 155.589 18.4199 155.823 18.4375C156.429 18.4681 157.097 18.4335 157.708 18.4172C158.079 18.4172 158.455 18.3765 158.818 18.3175C160.094 18.0747 160.99 17.2793 161.625 16.1759C161.648 16.1359 161.688 16.1122 161.735 16.1122H162.736C162.776 16.1122 162.81 16.1291 162.836 16.1603C162.86 16.1915 162.869 16.2288 162.86 16.2675L162.036 19.8772C162.023 19.9356 161.972 19.9756 161.913 19.9756H149.142C149.072 19.9756 149.015 19.9186 149.015 19.8488V18.7678C149.015 18.7325 149.028 18.7013 149.053 18.6769C149.079 18.6518 149.11 18.6403 149.146 18.6417C149.46 18.6532 150.234 18.6701 150.506 18.4891C150.742 18.3324 150.772 17.9194 150.772 17.6665V7.32669C150.772 7.05747 150.736 6.65736 150.485 6.4946C150.198 6.30744 149.498 6.33253 149.171 6.35151C149.134 6.35355 149.102 6.34202 149.076 6.31625C149.049 6.29116 149.036 6.25929 149.037 6.22267L149.059 5.14169C149.06 5.07252 149.117 5.01759 149.186 5.01759H161.156C161.217 5.01759 161.269 5.05964 161.281 5.11931L161.993 8.66807C162 8.70673 161.991 8.74267 161.966 8.77318C161.942 8.8037 161.908 8.81998 161.869 8.81998H160.867C160.814 8.81998 160.769 8.78878 160.749 8.73996C160.515 8.14861 160.139 7.65967 159.642 7.26226C159.145 6.86351 158.581 6.63633 157.934 6.59496C157.801 6.57462 157.641 6.57598 157.503 6.57598C156.965 6.55563 156.422 6.55563 155.883 6.55563C155.65 6.55563 155.357 6.56716 155.133 6.64108C154.972 6.69465 154.867 6.80723 154.797 6.96049C154.69 7.19716 154.675 7.56065 154.675 7.81564V11.1765L154.675 11.1766ZM175.72 11.8378C176.739 11.9788 177.689 12.3288 178.525 12.9452C179.452 13.6301 179.834 14.6128 179.811 15.7521C179.78 17.303 179.235 18.6423 177.716 19.2228C176.425 19.7165 175.081 19.9756 173.699 19.9756H165.377C165.307 19.9756 165.25 19.9186 165.25 19.8488V18.7678C165.25 18.7325 165.263 18.7013 165.289 18.6769C165.315 18.6518 165.346 18.6403 165.382 18.6417C165.695 18.6532 166.449 18.6695 166.72 18.4891C166.956 18.3324 166.986 17.9194 166.986 17.6665C166.986 17.6448 166.991 17.6258 167.002 17.6061C167.027 17.558 167.031 17.4345 167.031 17.381V17.0548C167.031 17.0039 167.029 16.951 167.021 16.9008C167.014 16.8541 167.003 16.8079 166.991 16.7618C166.987 16.7503 166.986 16.7401 166.986 16.7286V8.28498C166.986 8.27346 166.987 8.26328 166.991 8.25176C167.003 8.20564 167.014 8.15953 167.021 8.11273C167.029 8.06255 167.031 8.00966 167.031 7.95879V7.61226C167.031 7.52681 167.023 7.43052 166.994 7.34914C166.988 7.3349 166.986 7.32133 166.986 7.30574C166.986 7.03787 166.947 6.65607 166.699 6.49467C166.412 6.3075 165.712 6.33259 165.385 6.35158C165.349 6.35361 165.317 6.34209 165.291 6.31699C165.264 6.29258 165.25 6.26139 165.25 6.22544V5.14447C165.25 5.07462 165.307 5.01766 165.377 5.01766H172.297C173.881 5.01766 175.658 5.1404 177.167 5.65647C178.533 6.1244 179.095 7.18435 179.077 8.59286C179.064 9.51718 178.595 10.2353 177.882 10.7914C177.239 11.2939 176.518 11.673 175.72 11.8378L175.72 11.8378ZM187.747 14.2154H187.786L193.591 7.64546V7.61223C193.591 7.32944 193.572 6.74623 193.36 6.52719C193.142 6.3034 192.227 6.33799 191.943 6.35155C191.907 6.35359 191.876 6.34206 191.85 6.31697C191.824 6.29188 191.811 6.26136 191.811 6.22542V5.14444C191.811 5.07459 191.867 5.01763 191.937 5.01763H199.169C199.239 5.01763 199.295 5.07459 199.295 5.14444V6.22542C199.295 6.26068 199.283 6.2912 199.258 6.31561C199.232 6.3407 199.201 6.35291 199.166 6.35155C198.828 6.34409 198.285 6.33596 197.961 6.43768C197.801 6.48854 197.653 6.57534 197.598 6.74352C197.521 6.98495 197.516 7.35928 197.516 7.61223V17.3809C197.516 17.6305 197.521 17.9906 197.598 18.2293C197.655 18.4043 197.83 18.4938 197.994 18.5453C198.329 18.6504 198.817 18.6498 199.166 18.641C199.201 18.6403 199.232 18.6525 199.258 18.6776C199.283 18.702 199.295 18.7325 199.295 18.7678V19.8487C199.295 19.9186 199.239 19.9756 199.169 19.9756H191.937C191.867 19.9756 191.811 19.9186 191.811 19.8487V18.7678C191.811 18.7325 191.824 18.7013 191.849 18.6769C191.875 18.6518 191.906 18.6403 191.942 18.6416C192.265 18.6532 193.033 18.6694 193.316 18.4884C193.558 18.3317 193.591 17.9241 193.591 17.6664V10.3085H193.508L187.747 16.8784V17.6664C187.747 17.8692 187.764 18.1391 187.857 18.3242C187.934 18.4795 188.111 18.5487 188.271 18.5833C188.606 18.6559 189.033 18.6504 189.375 18.6409C189.411 18.6403 189.442 18.6525 189.467 18.6769C189.492 18.702 189.505 18.7325 189.505 18.7678V19.8487C189.505 19.9186 189.448 19.9755 189.379 19.9755H182.17C182.1 19.9755 182.043 19.9186 182.043 19.8487V18.7678C182.043 18.7325 182.056 18.7013 182.081 18.6769C182.107 18.6518 182.138 18.6403 182.174 18.6416C182.478 18.6525 183.261 18.6715 183.524 18.4985C183.756 18.3473 183.808 17.9092 183.823 17.6651V7.31176C183.807 7.04796 183.749 6.64242 183.503 6.48509C183.223 6.30538 182.495 6.33318 182.177 6.35149C182.14 6.35353 182.109 6.342 182.083 6.31691C182.056 6.29249 182.043 6.2613 182.043 6.22536V5.14438C182.043 5.07453 182.1 5.01757 182.17 5.01757H189.379C189.448 5.01757 189.505 5.07453 189.505 5.14438V6.22536C189.505 6.2613 189.492 6.29181 189.466 6.31691C189.44 6.342 189.408 6.35353 189.372 6.35149C189.09 6.33725 188.196 6.30334 187.979 6.52713C187.767 6.74617 187.747 7.32938 187.747 7.61217V14.2153L187.747 14.2154ZM215.294 9.12586H214.337C214.286 9.12586 214.242 9.0967 214.221 9.04991C213.522 7.45965 212.415 6.27967 210.593 6.24983C210.012 6.22338 209.456 6.33935 208.928 6.58484C208.344 6.8561 207.866 7.2874 207.473 7.79194C206.991 8.41042 206.673 9.1496 206.46 9.90031C206.188 10.8592 206.1 11.8771 206.119 12.8713C206.149 14.3686 206.44 15.9664 207.352 17.1931C208.138 18.2504 209.199 18.7305 210.509 18.723C211.546 18.7169 212.461 18.3853 213.267 17.7316C214.035 17.109 214.594 16.3353 214.837 15.3716C214.851 15.3147 214.901 15.276 214.96 15.276H215.939C215.975 15.276 216.007 15.2896 216.032 15.3167C216.057 15.3431 216.068 15.375 216.065 15.4116L215.843 18.6342C215.84 18.6776 215.817 18.7135 215.779 18.7352C214.015 19.7518 212.078 20.236 210.046 20.2814C208.623 20.314 207.21 20.0712 205.908 19.4853C204.663 18.9251 203.681 18.0618 202.97 16.8968C202.182 15.6056 201.906 14.1048 201.906 12.6088C201.906 11.1352 202.203 9.70568 202.935 8.41585C203.621 7.20603 204.586 6.27968 205.824 5.64357C207.151 4.96135 208.603 4.67924 210.088 4.69077C211.872 4.70569 213.564 5.13903 215.151 5.94873C215.191 5.96976 215.217 6.00773 215.22 6.05317L215.42 8.99023C215.423 9.02685 215.411 9.05873 215.386 9.08518C215.362 9.1123 215.33 9.12586 215.294 9.12586H215.294ZM170.933 11.2234C171.851 11.2647 172.897 11.2051 173.735 10.8212C174.489 10.4754 174.83 9.83657 174.908 9.02278C174.953 8.67964 174.92 8.33514 174.833 8.00081C174.727 7.5885 174.393 7.26231 174.059 7.02156C173.525 6.63637 172.735 6.55567 172.097 6.55567C171.838 6.55567 171.301 6.57737 171.133 6.81812C170.958 7.06632 170.933 7.52339 170.933 7.81568V11.2234V11.2234ZM170.933 12.8503V17.1775C170.933 17.4535 170.954 17.9859 171.155 18.2022C171.351 18.4138 171.832 18.4375 172.097 18.4375H172.253C172.944 18.4375 173.704 18.3277 174.283 17.9201C174.718 17.6136 175.095 17.2257 175.307 16.73C175.466 16.357 175.597 15.9352 175.597 15.529C175.506 12.9784 172.946 12.7289 170.933 12.8503H170.933Z" fill="#FEFEFE" stroke="white" stroke-width="0.0761999"/>
<path fill-rule="evenodd" clip-rule="evenodd" d="M3.42382 1.29224H217.576C219.459 1.29224 221 2.83367 221 4.71757V20.2845C221 22.1684 219.459 23.7098 217.576 23.7098H3.42382C1.54038 23.7098 0 22.1684 0 20.2845V4.71757C0 2.83367 1.54038 1.29224 3.42382 1.29224ZM3.42382 2.30675H217.576C218.902 2.30675 219.986 3.39111 219.986 4.71757V20.2845C219.986 21.611 218.902 22.6953 217.576 22.6953H3.42382C2.09837 22.6953 1.01359 21.611 1.01359 20.2845V4.71757C1.01359 3.3911 2.09837 2.30675 3.42382 2.30675Z" fill="#FEFEFE"/>
<path fill-rule="evenodd" clip-rule="evenodd" d="M98.3667 12.6089L113.163 25L127.713 12.6L113.122 0L98.3667 12.6089Z" fill="#FEFEFE"/>
<path fill-rule="evenodd" clip-rule="evenodd" d="M107.366 6.80587C108.508 7.75529 109.656 8.7047 110.799 9.65479C111.393 8.15703 112.554 7.22798 114.132 7.14519C115.361 7.07732 115.989 6.04783 116.609 5.0672C115.455 4.08589 114.301 3.09983 113.144 2.11377C113.066 2.26307 112.989 2.41169 112.904 2.5576C112.733 2.86366 112.541 3.15751 112.314 3.41879C111.722 4.10828 110.996 4.45371 110.127 4.51004C108.82 4.59215 107.949 5.63725 107.366 6.80587H107.366Z" fill="#00A0E3"/>
<path fill-rule="evenodd" clip-rule="evenodd" d="M117.505 5.92017C117.427 6.06743 117.347 6.21266 117.265 6.35789C117.091 6.66531 116.9 6.95712 116.674 7.22247C116.081 7.9079 115.356 8.25808 114.488 8.30965C113.176 8.3938 112.308 9.43686 111.726 10.6082C112.871 11.5569 114.014 12.5084 115.159 13.4571C115.753 11.9594 116.914 11.0296 118.491 10.9455C119.718 10.8796 120.349 9.85083 120.97 8.86885C119.815 7.88686 118.661 6.90283 117.505 5.92017V5.92017Z" fill="#393185"/>
<path fill-rule="evenodd" clip-rule="evenodd" d="M110.053 10.8022C108.899 9.81955 107.743 8.83417 106.588 7.85083C106.508 7.99538 106.43 8.144 106.348 8.28923C106.175 8.59665 105.983 8.89254 105.757 9.1545C105.162 9.83924 104.44 10.1887 103.571 10.2423C102.261 10.3245 101.389 11.3682 100.809 12.5389C101.954 13.4883 103.097 14.4384 104.242 15.3905C104.837 13.89 105.997 12.961 107.574 12.8761C108.803 12.8103 109.431 11.7822 110.053 10.8022L110.053 10.8022Z" fill="#393185"/>
<path fill-rule="evenodd" clip-rule="evenodd" d="M118.807 18.3204C117.651 17.3364 116.495 16.3517 115.339 15.3669C115.264 15.5176 115.184 15.6642 115.102 15.8094C114.928 16.1155 114.739 16.408 114.511 16.672C113.919 17.3581 113.193 17.7069 112.323 17.7618C111.014 17.844 110.145 18.8863 109.562 20.0577C110.705 21.0105 111.852 21.9592 112.996 22.908C113.588 21.4116 114.75 20.4798 116.326 20.395C117.56 20.3291 118.183 19.3003 118.807 18.3204V18.3204Z" fill="#393185"/>
<path fill-rule="evenodd" clip-rule="evenodd" d="M125.519 12.6483C124.363 11.6636 123.21 10.6795 122.054 9.69482C121.975 9.84073 121.897 9.99342 121.815 10.1325C121.637 10.44 121.447 10.7352 121.22 10.9992C120.628 11.6832 119.906 12.0348 119.036 12.0877C117.725 12.1664 116.857 13.2156 116.273 14.3856C117.418 15.3336 118.563 16.2844 119.705 17.2324C120.303 15.7374 121.461 14.8029 123.038 14.7201C124.27 14.6529 124.895 13.6275 125.519 12.6483V12.6483Z" fill="#00A0E3"/>
<path fill-rule="evenodd" clip-rule="evenodd" d="M110.938 11.6987C110.862 11.8474 110.784 11.9953 110.701 12.1399C110.527 12.4466 110.336 12.7391 110.109 13.0038C109.516 13.6885 108.792 14.0387 107.922 14.0923C106.614 14.1744 105.743 15.2195 105.161 16.3902C106.306 17.3389 107.45 18.2883 108.594 19.2377C109.19 17.7413 110.347 16.8082 111.926 16.7247C113.158 16.6596 113.783 15.6314 114.405 14.6522C113.252 13.6681 112.095 12.6828 110.938 11.6987L110.938 11.6987Z" fill="#00A0E3"/>
</g>
<defs>
<clipPath id="clip0_206_20">
<rect width="221" height="25" fill="white"/>
</clipPath>
</defs>
</svg>
