<svg width="234" height="49" viewBox="0 0 234 49" fill="none" xmlns="http://www.w3.org/2000/svg">
<path d="M228.339 6.125H5.66129C2.53465 6.125 0 8.65631 0 11.7788V38.1635C0 41.286 2.53465 43.8173 5.66129 43.8173H228.339C231.465 43.8173 234 41.286 234 38.1635V11.7788C234 8.65631 231.465 6.125 228.339 6.125Z" fill="#EC1D24"/>
<path fill-rule="evenodd" clip-rule="evenodd" d="M21.2393 14.6057L27.2572 30.8671C27.3006 30.9661 27.3478 31.1121 27.4233 31.3072C27.4931 31.4909 27.5799 31.7105 27.6856 31.9423C27.7875 32.1779 27.9054 32.4116 28.047 32.6434C28.1791 32.8742 28.3376 33.0825 28.5065 33.2634C28.6792 33.4519 28.8509 33.5838 29.0198 33.6743C29.1849 33.7647 29.3689 33.8156 29.5736 33.8439C29.7737 33.8674 30.0133 33.8712 30.2841 33.8552V35.3365H22.5744V33.8552H23.5519C23.6463 33.8674 23.7406 33.8552 23.835 33.8307C23.9293 33.8081 23.9907 33.7138 24.0275 33.5612C24.0426 33.5301 24.0426 33.498 24.0378 33.4585C24.0312 33.4151 24.0275 33.384 24.0275 33.3529C24.0275 33.3454 24.019 33.2983 23.9907 33.2163C23.968 33.1371 23.9246 32.993 23.8501 32.7923L23.6651 32.2759C21.177 28.3191 16.4583 28.6254 15.6261 28.7281L15.4072 29.1785H15.3987L14.2721 32.3456C14.24 32.4323 14.2013 32.5454 14.1532 32.6829C14.107 32.8205 14.0645 32.9562 14.0249 33.0976C13.9853 33.2361 13.9541 33.3369 13.9456 33.4113C13.9305 33.4434 13.9268 33.4792 13.9268 33.5178C13.9268 33.5574 13.9305 33.5885 13.9456 33.6205C13.9777 33.6903 14.04 33.7374 14.1221 33.7732C14.2127 33.8081 14.307 33.8307 14.4089 33.8429C14.5118 33.8514 14.6024 33.8552 14.6882 33.8552H15.4261V35.3365H9.43548V33.8552C9.8865 33.8354 10.2488 33.792 10.5225 33.7298C10.8008 33.662 11.0169 33.58 11.1829 33.4792C11.3433 33.3689 11.4849 33.2436 11.5915 33.0985C11.7009 32.9496 11.8142 32.7781 11.9283 32.5849C12.0614 32.3541 12.1595 32.1732 12.219 32.0441C12.2775 31.9178 12.3171 31.8085 12.3492 31.718C12.3803 31.6238 12.419 31.523 12.4624 31.3976L16.7603 20.0391L18.3973 15.8062C18.7153 14.9676 18.5388 15.4651 18.8379 14.6057H21.2393ZM130.059 14.6057L136.079 30.8671C136.117 30.9661 136.167 31.1121 136.243 31.3072C136.309 31.4909 136.399 31.7105 136.502 31.9423C136.608 32.1779 136.725 32.4116 136.863 32.6434C136.997 32.8742 137.157 33.0825 137.322 33.2634C137.495 33.4519 137.668 33.5838 137.836 33.6743C138.006 33.7647 138.189 33.8156 138.389 33.8439C138.595 33.8674 138.83 33.8712 139.105 33.8552V35.3365H131.391V33.8552H132.372C132.467 33.8674 132.561 33.8552 132.654 33.8307C132.745 33.8081 132.812 33.7138 132.847 33.5612C132.859 33.5301 132.859 33.498 132.855 33.4585C132.852 33.4151 132.847 33.384 132.847 33.3529C132.847 33.3454 132.836 33.2983 132.812 33.2163C132.788 33.1371 132.741 32.993 132.667 32.7923L132.486 32.2759C129.997 28.3191 125.275 28.6254 124.443 28.7281L124.227 29.1785H124.214L123.089 32.3456C123.06 32.4323 123.021 32.5454 122.971 32.6829C122.927 32.8205 122.884 32.9562 122.842 33.0976C122.802 33.2361 122.774 33.3369 122.762 33.4113C122.751 33.4434 122.743 33.4792 122.743 33.5178C122.743 33.5574 122.751 33.5885 122.762 33.6205C122.798 33.6903 122.857 33.7374 122.942 33.7732C123.029 33.8081 123.124 33.8307 123.229 33.8429C123.331 33.8514 123.422 33.8552 123.504 33.8552H124.246V35.3365H118.255V33.8552C118.707 33.8354 119.068 33.792 119.343 33.7298C119.622 33.662 119.837 33.58 120.003 33.4792C120.164 33.3689 120.301 33.2436 120.411 33.0985C120.52 32.9496 120.635 32.7781 120.749 32.5849C120.883 32.3541 120.98 32.1732 121.039 32.0441C121.098 31.9178 121.137 31.8085 121.169 31.718C121.196 31.6238 121.235 31.523 121.282 31.3976L125.581 20.0391L127.213 15.8062C127.537 14.9676 127.359 15.4651 127.657 14.6057H130.06H130.059ZM104.512 14.6217V16.1313H103.877C103.436 16.1313 103.095 16.1822 102.86 16.284C102.62 16.382 102.456 16.512 102.362 16.6637C102.263 16.8239 102.216 16.9935 102.201 17.1744C102.184 17.3535 102.177 17.5306 102.184 17.7021V24.1051H102.518L108.109 18.0367C108.348 17.7728 108.529 17.558 108.654 17.3865C108.776 17.2131 108.858 17.068 108.898 16.9539C108.941 16.8371 108.96 16.7306 108.956 16.6439C108.952 16.4837 108.913 16.3707 108.823 16.3C108.736 16.2218 108.622 16.1784 108.489 16.1586C108.348 16.1398 108.206 16.1275 108.049 16.1304H107.715V14.6217H114.1V16.1313C113.568 16.1747 113.09 16.2717 112.665 16.4404C112.238 16.6053 111.844 16.8211 111.476 17.1028C111.115 17.3818 110.754 17.7106 110.409 18.0951L107.386 21.4148L111.83 29.3585L112.419 30.4044C112.646 30.7927 112.886 31.1856 113.148 31.5814C113.412 31.9809 113.69 32.3541 113.977 32.6905C114.26 33.0278 114.551 33.2983 114.849 33.5056C115.147 33.7176 115.437 33.8241 115.732 33.8278H116.364V35.3365H107.201V33.8288H107.598C107.703 33.8307 107.815 33.8241 107.935 33.7958C108.053 33.777 108.159 33.7214 108.246 33.6356C108.332 33.5489 108.379 33.4085 108.383 33.2238C108.379 33.106 108.332 32.9458 108.25 32.7451C108.171 32.5454 108.08 32.3494 107.979 32.1543C107.877 31.9611 107.802 31.817 107.747 31.7143L104.029 25.0691L102.184 27.0932V32.2598C102.177 32.4323 102.188 32.617 102.216 32.797C102.24 32.9769 102.306 33.1494 102.404 33.3058C102.51 33.4585 102.679 33.5838 102.911 33.6827C103.142 33.777 103.465 33.8278 103.877 33.8278H104.512V35.3365H95.0153V33.8288H95.6201C96.024 33.8288 96.3467 33.7883 96.5778 33.7063C96.8175 33.6271 96.9864 33.5141 97.0968 33.3689C97.2025 33.2276 97.2723 33.0636 97.3044 32.8705C97.3355 32.6867 97.3515 32.4794 97.344 32.2598V17.4854C97.3393 17.345 97.3251 17.2121 97.3044 17.0878C97.2723 16.8946 97.2025 16.7297 97.0968 16.5902C96.9864 16.4442 96.8175 16.3358 96.5778 16.2529C96.3457 16.1747 96.024 16.1304 95.6201 16.1304H95.0153V14.6217H104.511H104.512ZM91.2949 14.6217L91.326 19.6593H90.357C90.2985 19.5142 90.2391 18.0875 89.7796 17.5815C89.2295 16.9813 88.9474 16.9775 88.4058 16.7617C87.8679 16.5506 87.2282 16.4404 86.4866 16.4328H84.2806C83.8682 16.4291 83.5342 16.4649 83.2823 16.5459C83.0313 16.6251 82.8435 16.7777 82.7303 17.0095C82.6124 17.2319 82.5567 17.5655 82.5567 18.0046V23.3211H84.6136C85.3402 23.3211 85.9327 23.2966 86.3922 23.258C86.8508 23.2184 87.2093 23.1562 87.4641 23.0827C87.7189 23.0026 87.9076 22.9056 88.0246 22.7906C88.1472 22.6738 88.2246 22.5447 88.2718 22.392C88.3152 22.2459 88.3586 22.081 88.3944 21.902C88.4058 21.7993 88.4218 21.7098 88.4369 21.6231C88.4529 21.5411 88.469 21.444 88.4841 21.3263H89.4503V27.0932H88.4841C88.469 26.9782 88.4529 26.8764 88.4369 26.7982C88.4218 26.7125 88.4058 26.622 88.3935 26.5193C88.3661 26.3629 88.3237 26.2065 88.2529 26.0463C88.1812 25.8842 88.0604 25.7353 87.8878 25.5987C87.7113 25.4573 87.4603 25.3471 87.1263 25.2613C86.7885 25.1746 86.3451 25.1313 85.7921 25.1313H82.5567V31.9536C82.5529 32.3381 82.6001 32.6396 82.7058 32.8705C82.8124 33.1023 82.9889 33.2709 83.2436 33.3765C83.4946 33.4745 83.8399 33.5263 84.2806 33.5263H86.8508C87.181 33.5367 87.5698 33.5141 88.0142 33.4669C88.4652 33.4198 88.9559 33.3256 89.4456 33.0947C90.4901 32.601 91.2128 30.5034 91.3544 30.2329H92.3545L92.2922 35.3365H75.3886V33.8288H76.0245C76.468 33.8241 76.8058 33.7723 77.0445 33.678C77.2804 33.5772 77.4455 33.4519 77.5446 33.2945C77.638 33.1343 77.6927 32.9694 77.705 32.7809C77.7201 32.601 77.7239 32.4276 77.7201 32.2598V17.672C77.7239 17.4788 77.7135 17.2951 77.6889 17.1151C77.6616 16.9313 77.5984 16.7664 77.4974 16.6213C77.3908 16.4687 77.2257 16.3537 76.9945 16.2679C76.7624 16.1784 76.4378 16.1313 76.0245 16.1313H75.3895V14.6217H91.2959H91.2949ZM73.041 14.6217L73.2373 19.0911H72.2711C71.6861 17.7464 71.8371 17.7813 70.8548 16.9106C70.6189 16.7033 70.0905 16.6006 69.748 16.5308C69.4102 16.4602 69.1083 16.4291 68.8403 16.4328C68.6488 16.4291 68.4676 16.4328 68.295 16.4442C68.1195 16.4526 67.9694 16.496 67.8317 16.5591C67.6949 16.6288 67.5883 16.7466 67.5109 16.9191C67.4279 17.0878 67.3882 17.3309 67.3882 17.6409V32.2598C67.3845 32.4276 67.3882 32.601 67.4043 32.7809C67.4194 32.9694 67.4665 33.1334 67.5647 33.2945C67.659 33.4519 67.8289 33.5772 68.0638 33.679C68.2997 33.7732 68.645 33.8241 69.0809 33.8278H69.716V35.3365H60.2201V33.8288H60.8249C61.2287 33.8288 61.5514 33.7883 61.7826 33.7063C62.0223 33.6271 62.1912 33.5141 62.3044 33.3689C62.411 33.2276 62.4818 33.0636 62.5091 32.8705C62.5403 32.6867 62.5563 32.4794 62.5488 32.2598V17.6399C62.5488 17.329 62.5091 17.0868 62.4299 16.9181C62.3516 16.7457 62.2459 16.6279 62.1128 16.5582C61.9789 16.495 61.826 16.4517 61.6571 16.4432C61.4882 16.4319 61.3118 16.4281 61.1278 16.4319C60.7862 16.4281 60.4447 16.4602 60.1106 16.5299C59.7728 16.5996 59.2275 16.7372 59.0661 16.9097C58.1235 17.9377 58.3868 17.607 57.9008 19.0902H56.9337L56.9262 14.6208H73.0401L73.041 14.6217ZM54.2229 14.6217V16.1313H53.6445C53.2444 16.1275 52.9151 16.1747 52.6632 16.2651C52.4047 16.3537 52.2197 16.5158 52.098 16.7457C51.9848 16.9747 51.9216 17.2951 51.9216 17.7031V32.2598C51.9216 32.6669 51.9848 32.9892 52.098 33.2116C52.2207 33.4472 52.4047 33.6083 52.6642 33.6988C52.9151 33.7883 53.2444 33.8307 53.6454 33.8278H54.2229V35.3365H44.7582V33.8288H45.362C45.7942 33.8307 46.132 33.7883 46.383 33.6988C46.6424 33.6083 46.8179 33.4481 46.9293 33.2116C47.034 32.9892 47.0897 32.6669 47.0859 32.2598V18.0046C47.0859 17.5655 47.0302 17.2319 46.9132 17.0095C46.8 16.7777 46.6103 16.6251 46.3594 16.5469C46.1074 16.4649 45.7744 16.4291 45.362 16.4338H41.4284C41.017 16.4291 40.683 16.4649 40.432 16.5469C40.181 16.6251 39.9914 16.7777 39.8781 17.0086C39.7602 17.2319 39.7055 17.5646 39.7055 18.0046V32.2598C39.7017 32.6669 39.7564 32.9892 39.8621 33.2116C39.9725 33.4472 40.1565 33.6083 40.4075 33.6988C40.6594 33.7883 41.001 33.8307 41.4284 33.8278H42.0341V35.3365H32.5411V33.8288H33.177C33.6177 33.8241 33.9583 33.7723 34.1942 33.678C34.4301 33.5772 34.598 33.4519 34.6924 33.2945C34.7867 33.1343 34.8415 32.9694 34.8528 32.7809C34.8698 32.601 34.8736 32.4276 34.8698 32.2598V17.9594C34.8688 17.9236 34.8679 17.8972 34.8651 17.8793C34.8651 17.8482 34.8575 17.8246 34.8537 17.8133C34.849 17.8011 34.849 17.7775 34.8415 17.7379C34.8377 17.6993 34.8377 17.6126 34.8377 17.4911C34.8377 17.3507 34.8226 17.2055 34.7981 17.0482C34.7792 16.8918 34.716 16.7466 34.6188 16.6053C34.515 16.4687 34.3508 16.3537 34.1197 16.2679C33.8913 16.1784 33.563 16.1313 33.1459 16.1313H32.5732V14.6217H54.2229ZM19.1352 20.0287H18.7785L16.4272 26.4533C17.7142 26.426 19.9523 26.5975 22.0413 27.8725L21.511 26.524L19.1352 20.0287ZM127.952 20.0287H127.599L125.243 26.4533C126.535 26.426 128.772 26.5975 130.861 27.8725L130.33 26.524L127.953 20.0287H127.952Z" fill="white"/>
<path fill-rule="evenodd" clip-rule="evenodd" d="M189.927 4.41945C192.786 2.51788 196.148 1.42669 199.557 1.06672C206.303 0.352455 214.252 2.5094 218.321 8.27821C219.974 10.6246 220.788 13.3224 220.788 16.1879C220.788 18.8283 220.293 21.3801 219.274 23.8159C217.109 28.9826 212.884 32.9883 208.489 36.3034C203.434 40.1216 197.809 43.3556 192.427 46.6989L192.407 46.7159L192.387 46.7272C188.514 49.0123 185.288 49.148 181.409 46.8214L181.392 46.8129L181.376 46.8016C175.965 43.4376 170.311 40.1866 165.22 36.3571C160.804 33.0289 156.543 29.0071 154.369 23.815C153.35 21.381 152.855 18.8292 152.855 16.1889C152.855 13.3233 153.669 10.6255 155.323 8.27915C159.391 2.50845 167.34 0.352455 174.087 1.06672C177.68 1.44742 181.204 2.64038 184.147 4.71346C186.664 6.38511 186.906 6.4473 189.927 4.41945Z" fill="white"/>
<path fill-rule="evenodd" clip-rule="evenodd" d="M188.542 8.26696C197.952 -1.3361 218.903 2.6885 218.903 16.2634C218.903 29.3473 205.571 36.3572 191.361 45.1828C188.019 47.1569 185.594 47.1739 182.449 45.2865C168.178 36.4099 154.742 29.3973 154.742 16.2634C154.742 2.68756 175.694 -1.3361 185.103 8.26602C186.211 9.32235 186.969 9.78313 188.542 8.26602V8.26696Z" fill="#EC1D24"/>
<path fill-rule="evenodd" clip-rule="evenodd" d="M218.573 36.8443C218.099 37.9883 216.909 38.2973 215.837 37.8055C207.012 33.9363 196.107 32.4984 186.537 32.4984C177.047 32.4984 166.315 33.9043 157.54 37.6745L157.515 37.6839L157.49 37.6943C156.064 38.2455 154.9 37.7649 154.301 36.3873L148.411 23.0131C147.692 21.5968 148.466 19.9638 149.873 19.3325C161.198 14.1771 174.14 11.9165 186.537 11.9165C199.227 11.9165 212.541 14.2911 224.062 19.7311C225.109 20.2239 225.411 21.3151 224.963 22.3337L218.573 36.8443Z" fill="#EC1D24"/>
<path fill-rule="evenodd" clip-rule="evenodd" d="M186.537 13.2886C200.467 13.2886 213.287 16.1598 223.478 20.9731C223.853 21.1521 223.841 21.4706 223.707 21.7797L217.305 36.3101C217.141 36.7266 216.775 36.7294 216.403 36.5551C208.766 33.2033 198.204 31.1255 186.537 31.1255C175.037 31.1255 164.606 33.1458 156.997 36.4119C156.137 36.7464 155.807 36.4081 155.562 35.838L149.653 22.4233C149.302 21.7722 149.653 20.9363 150.44 20.582C160.492 16.0052 172.99 13.2886 186.537 13.2886Z" fill="white"/>
<path fill-rule="evenodd" clip-rule="evenodd" d="M165.528 28.0592C165.524 28.0403 165.483 27.9499 165.418 27.7906C165.348 27.6276 165.254 27.4118 165.141 27.1433C165.023 26.8785 164.888 26.5684 164.741 26.2264C164.59 25.8843 164.427 25.5263 164.26 25.1427L163.742 23.9959L163.237 22.8869C163.07 22.5325 162.914 22.2122 162.774 21.9219C162.694 21.7636 162.6 21.6458 162.486 21.5714C162.372 21.4941 162.25 21.4489 162.122 21.4338C161.992 21.4216 161.866 21.4216 161.739 21.4414C161.613 21.4659 161.5 21.4904 161.397 21.5233C161.333 21.5394 161.25 21.5639 161.157 21.5968C161.063 21.6289 160.968 21.6694 160.871 21.7269C160.768 21.7796 160.68 21.8494 160.598 21.9304C160.533 22.0001 160.484 22.0812 160.451 22.1754C160.415 22.2678 160.39 22.3573 160.374 22.4477C160.362 22.5373 160.353 22.6108 160.349 22.6635C160.349 22.7889 160.345 22.9321 160.345 23.0829C160.341 23.2421 160.341 23.4004 160.336 23.5672V24.0515C160.341 24.1863 160.346 24.3418 160.349 24.5208C160.357 24.6961 160.357 24.8789 160.353 25.0749C160.349 25.2652 160.332 25.4528 160.304 25.6365C160.276 25.8155 160.227 25.9823 160.161 26.1256C160.154 26.1406 160.142 26.1661 160.12 26.1944C160.105 26.2226 160.08 26.2556 160.051 26.2839C160.023 26.3121 159.985 26.3329 159.945 26.3451C159.904 26.3527 159.864 26.3574 159.823 26.3489C159.782 26.3414 159.742 26.3291 159.71 26.3112C159.677 26.2961 159.652 26.2876 159.639 26.2754C159.506 26.1906 159.379 26.0766 159.256 25.938C159.138 25.7948 159.02 25.645 158.913 25.4857C158.809 25.3227 158.711 25.1682 158.621 25.0127C158.527 24.8629 158.449 24.7281 158.376 24.6141C158.298 24.4794 158.212 24.3408 158.126 24.1995L157.866 23.7952C157.78 23.6652 157.703 23.5474 157.63 23.4409C157.6 23.3957 157.559 23.3401 157.499 23.2704C157.442 23.2044 157.373 23.1394 157.294 23.0791C157.217 23.0178 157.132 22.9726 157.042 22.949C156.928 22.9198 156.813 22.9123 156.704 22.9198C156.59 22.9236 156.484 22.9406 156.389 22.9604C156.291 22.9811 156.21 23.0046 156.15 23.0263C156.038 23.0546 155.929 23.0904 155.81 23.1394C155.692 23.1884 155.583 23.2581 155.48 23.3401C155.378 23.4174 155.301 23.5191 155.244 23.6454C155.187 23.7679 155.17 23.9177 155.187 24.0921C155.223 24.4143 155.264 24.7686 155.313 25.1559C155.362 25.5423 155.416 25.9465 155.472 26.3649C155.525 26.7842 155.583 27.2007 155.643 27.6154C155.7 28.0234 155.758 28.4182 155.81 28.7838C155.863 29.1551 155.912 29.4849 155.957 29.7742C155.998 30.0635 156.035 30.2953 156.064 30.4668C156.092 30.642 156.108 30.7344 156.113 30.7551C156.16 30.9304 156.226 31.0736 156.308 31.1829C156.389 31.2894 156.5 31.362 156.642 31.3865C156.785 31.4147 156.972 31.3987 157.205 31.3337C157.429 31.2677 157.601 31.1867 157.711 31.0887C157.829 30.9879 157.902 30.8654 157.94 30.7146C157.976 30.5676 157.984 30.3848 157.972 30.1728C157.959 29.9608 157.936 29.7129 157.898 29.4236L157.829 28.8328C157.805 28.6538 157.789 28.4747 157.775 28.3032C157.764 28.1327 157.768 27.9546 157.775 27.7755C157.78 27.7171 157.796 27.6596 157.825 27.6069C157.853 27.5598 157.887 27.5145 157.923 27.4806C157.956 27.4439 157.992 27.4241 158.021 27.4118C158.135 27.3835 158.244 27.4033 158.355 27.4693C158.461 27.5381 158.572 27.6399 158.681 27.7793C158.792 27.9122 158.901 28.0714 159.011 28.2505C159.125 28.4333 159.236 28.6217 159.354 28.8177C159.472 29.0119 159.595 29.2041 159.729 29.3907C159.864 29.5744 160.002 29.7412 160.149 29.8835C160.291 30.0229 160.443 30.1285 160.598 30.1935C160.753 30.2585 160.903 30.2708 161.063 30.2303C161.218 30.1813 161.34 30.0917 161.434 29.9523C161.528 29.8147 161.597 29.6507 161.641 29.4529C161.69 29.2569 161.719 29.0448 161.736 28.8177C161.748 28.5888 161.753 28.356 161.748 28.128C161.744 27.9018 161.739 27.6851 161.739 27.4731C161.736 27.261 161.744 27.0698 161.765 26.8945C161.784 26.7202 161.821 26.5769 161.878 26.4591C161.936 26.3461 162.021 26.2707 162.136 26.2349C162.168 26.2264 162.208 26.2264 162.258 26.2386C162.306 26.2518 162.355 26.2716 162.4 26.2961C162.454 26.3291 162.49 26.3649 162.522 26.4139C162.629 26.5609 162.723 26.7117 162.808 26.8624C162.89 27.0132 162.972 27.1725 163.054 27.3345C163.13 27.5013 163.216 27.6851 163.306 27.8764C163.428 28.1364 163.542 28.3607 163.64 28.553C163.742 28.7358 163.848 28.8865 163.958 28.9921C164.069 29.0976 164.195 29.1636 164.344 29.1871C164.496 29.2126 164.684 29.1918 164.908 29.1268C165.136 29.0609 165.304 28.9798 165.41 28.878C165.515 28.78 165.573 28.6575 165.589 28.5237C165.601 28.3862 165.581 28.2307 165.528 28.0592ZM173.831 26.0398C173.72 25.8269 173.599 25.6045 173.471 25.3679C173.341 25.1305 173.21 24.8949 173.08 24.6669C172.953 24.4388 172.832 24.223 172.721 24.0318C172.611 23.8358 172.517 23.6774 172.444 23.5474C172.371 23.4211 172.326 23.3439 172.309 23.3109C172.233 23.1648 172.138 22.9933 172.032 22.7926C171.922 22.5985 171.808 22.394 171.689 22.1782C171.571 21.9596 171.453 21.7467 171.338 21.5394C171.22 21.3358 171.119 21.1436 171.026 20.9777C170.931 20.8109 170.859 20.6762 170.801 20.5735C170.744 20.4774 170.715 20.4237 170.715 20.4199C170.626 20.2606 170.511 20.1466 170.373 20.0731C170.234 20.0043 170.087 19.96 169.928 19.9469C169.77 19.9346 169.614 19.9393 169.463 19.9563C169.308 19.9751 169.174 19.9959 169.051 20.0156C168.925 20.0326 168.787 20.0571 168.639 20.0816C168.492 20.1061 168.358 20.1419 168.232 20.1871C168.109 20.2324 168.011 20.2936 167.946 20.3662C167.86 20.4689 167.787 20.5735 167.729 20.6847C167.673 20.7864 167.624 20.9089 167.584 21.039C167.543 21.1737 167.506 21.3311 167.473 21.5111C167.436 21.6948 167.4 21.9144 167.355 22.1669C167.31 22.4232 167.257 22.7248 167.192 23.0753L166.869 24.8874C166.829 25.0947 166.788 25.3142 166.743 25.5508C166.699 25.791 166.658 26.0276 166.608 26.2716C166.567 26.5119 166.523 26.7437 166.483 26.968C166.441 27.1923 166.405 27.3911 166.377 27.5748C166.343 27.7539 166.319 27.9009 166.302 28.0149C166.283 28.1251 166.279 28.1939 166.283 28.2147C166.307 28.3654 166.36 28.4785 166.441 28.553C166.518 28.6255 166.613 28.6745 166.719 28.6915C166.829 28.7103 166.935 28.715 167.05 28.7065C167.16 28.6943 167.257 28.683 167.352 28.666C167.587 28.6255 167.774 28.5765 167.913 28.5115C168.053 28.4455 168.154 28.373 168.227 28.2919C168.293 28.2109 168.345 28.1214 168.382 28.0271C168.416 27.9329 168.443 27.8349 168.472 27.7369C168.505 27.6361 168.546 27.5381 168.603 27.4401C168.659 27.343 168.741 27.2497 168.859 27.1593C168.974 27.0698 169.133 26.9887 169.341 26.9143C169.545 26.8417 169.814 26.7767 170.14 26.7239C170.45 26.6749 170.711 26.6542 170.928 26.6674C171.135 26.6712 171.311 26.7032 171.449 26.7522C171.583 26.8012 171.698 26.8624 171.787 26.9397C171.873 27.0123 171.95 27.0943 172.02 27.1753C172.081 27.2601 172.147 27.343 172.216 27.4203C172.285 27.4976 172.366 27.5664 172.465 27.6238C172.558 27.6766 172.682 27.7181 172.827 27.7341C172.978 27.7539 173.166 27.7454 173.394 27.7086C173.471 27.7011 173.561 27.6804 173.668 27.6596C174.569 27.457 174.14 26.6382 173.83 26.0398H173.831ZM170.544 24.223C170.568 24.4021 170.552 24.5576 170.491 24.6754C170.425 24.7979 170.34 24.8874 170.227 24.9524C170.116 25.0174 170.001 25.0617 169.879 25.0787C169.744 25.0984 169.614 25.0984 169.483 25.0787C169.353 25.0579 169.24 25.0004 169.141 24.9119C169.039 24.8224 168.974 24.6838 168.941 24.5001V24.3418C168.949 24.2607 168.957 24.1533 168.97 24.028C168.982 23.9055 169.002 23.7754 169.027 23.6369C169.056 23.5022 169.088 23.3721 169.128 23.2506C169.169 23.1243 169.223 23.0216 169.279 22.9396C169.341 22.8595 169.41 22.8105 169.496 22.7936C169.577 22.7823 169.659 22.8058 169.741 22.8671C169.822 22.9236 169.903 23.0046 169.981 23.1074C170.059 23.2091 170.127 23.3194 170.198 23.4409C170.262 23.5634 170.324 23.6774 170.373 23.7868C170.422 23.9017 170.462 23.9959 170.495 24.077C170.524 24.1543 170.54 24.2033 170.544 24.223ZM182.15 26.5364C182.08 25.775 179.499 23.669 179.433 22.7823C179.34 21.4941 183.054 18.2733 179.755 18.7454C178.459 18.9329 178.312 20.7572 177.472 21.5394C176.949 22.0237 176.681 21.3481 176.636 20.908C176.542 19.9148 176.465 18.8472 175.115 19.1977C174.731 19.2995 174.398 19.5652 174.422 20.0043L175.234 26.6919C175.319 27.7501 177.33 27.6681 177.333 26.4827C177.338 26.0474 177.039 24.6348 177.713 24.5943C178.389 24.5491 179.352 26.6834 180.11 26.9802C180.502 27.131 182.186 27.2648 182.149 26.5364H182.15ZM188.086 25.7948C188.086 25.6723 188.062 25.547 188.013 25.4292C187.964 25.3105 187.891 25.2087 187.784 25.1305C187.688 25.0542 187.561 25.0127 187.406 25.0089C187.275 25.0127 187.165 25.0212 187.072 25.0494C186.977 25.0702 186.888 25.0984 186.802 25.1305C186.721 25.1644 186.631 25.1927 186.533 25.2134C186.435 25.237 186.321 25.2502 186.187 25.2539C183.221 25.2652 183.217 20.3426 186.072 20.3341C186.195 20.3341 186.3 20.3426 186.39 20.3624C186.479 20.3794 186.557 20.4067 186.626 20.4359C186.7 20.4604 186.77 20.4887 186.843 20.5179C186.916 20.5499 187.002 20.5697 187.095 20.5904C187.193 20.6112 187.312 20.6187 187.45 20.6225C187.593 20.6187 187.708 20.582 187.793 20.5132C187.882 20.4434 187.944 20.3464 187.985 20.2277C188.022 20.1099 188.042 19.9798 188.042 19.8319C188.038 19.5963 187.994 19.389 187.895 19.226C187.801 19.0545 187.675 18.9207 187.519 18.8151C187.36 18.7049 187.185 18.6229 186.994 18.5673C186.798 18.5051 186.606 18.4646 186.406 18.4448C186.211 18.4203 186.023 18.4071 185.853 18.4118C180.363 18.4524 180.167 27.164 185.922 27.1753C186.027 27.1753 186.154 27.1725 186.3 27.1593C186.443 27.1517 186.599 27.131 186.762 27.1027C186.924 27.0745 187.08 27.0292 187.239 26.968C187.393 26.9077 187.536 26.8248 187.666 26.7239C187.793 26.6259 187.895 26.4959 187.968 26.3451C188.045 26.1944 188.086 26.0106 188.086 25.7948ZM196.561 26.7277C196.565 26.6467 196.549 26.5242 196.512 26.3527C196.475 26.1774 196.427 25.9786 196.365 25.7458C196.3 25.5149 196.23 25.2737 196.152 25.0127C196.075 24.7564 195.998 24.5001 195.917 24.2475C195.838 23.9997 195.766 23.7632 195.696 23.5512C195.627 23.3401 195.569 23.1648 195.524 23.0216C195.483 22.8831 195.455 22.7973 195.447 22.7615C195.398 22.6023 195.346 22.4148 195.28 22.199C195.215 21.9879 195.146 21.7589 195.072 21.5233C195.002 21.2878 194.933 21.0541 194.864 20.8307C194.79 20.6027 194.73 20.3992 194.672 20.2116C194.615 20.0288 194.57 19.8818 194.538 19.7725C194.505 19.6613 194.489 19.6057 194.484 19.6057C194.432 19.4305 194.343 19.2919 194.224 19.1939C194.106 19.0959 193.966 19.0224 193.816 18.9772C193.665 18.9329 193.51 18.9047 193.359 18.8877C193.205 18.8754 193.066 18.8689 192.944 18.8641C192.812 18.8557 192.674 18.8472 192.527 18.8434C192.376 18.8349 192.238 18.8434 192.107 18.8604C191.977 18.8754 191.871 18.9169 191.789 18.9782C191.684 19.0592 191.589 19.1487 191.512 19.2382C191.434 19.3325 191.361 19.4389 191.296 19.5605C191.23 19.683 191.157 19.8291 191.087 20.0006C191.015 20.1674 190.933 20.3747 190.835 20.6149C190.74 20.8552 190.623 21.1398 190.488 21.4706L189.795 23.1733L189.534 23.7999C189.44 24.0233 189.346 24.2475 189.253 24.4765C189.159 24.6989 189.069 24.9194 188.984 25.1305C188.898 25.3397 188.817 25.53 188.751 25.7015C188.682 25.8693 188.629 26.0068 188.588 26.1133C188.547 26.2226 188.527 26.2839 188.527 26.3084C188.518 26.4591 188.547 26.5816 188.612 26.6712C188.674 26.7607 188.755 26.8248 188.853 26.8672C188.959 26.9077 189.061 26.9359 189.175 26.9482C189.285 26.9595 189.388 26.967 189.477 26.9718C189.717 26.9812 189.913 26.9718 190.06 26.9397C190.211 26.903 190.325 26.8549 190.411 26.7889C190.496 26.7202 190.566 26.6476 190.618 26.5609C190.672 26.4761 190.721 26.3856 190.769 26.2971C190.819 26.2066 190.884 26.1171 190.957 26.036C191.036 25.9503 191.136 25.8759 191.267 25.8118C191.398 25.7458 191.573 25.7015 191.789 25.6733C192.006 25.6403 192.278 25.6327 192.612 25.6525C192.926 25.6685 193.188 25.7015 193.392 25.7543C193.596 25.8071 193.763 25.8721 193.885 25.9503C194.008 26.0276 194.106 26.1086 194.178 26.2028C194.248 26.2924 194.305 26.3856 194.354 26.4827C194.398 26.5807 194.448 26.6712 194.496 26.7654C194.546 26.854 194.615 26.935 194.697 27.0123C194.779 27.0858 194.888 27.147 195.031 27.196C195.173 27.245 195.362 27.2771 195.59 27.2903C195.667 27.2987 195.761 27.2987 195.867 27.2987C195.968 27.294 196.075 27.2771 196.177 27.2497C196.279 27.2205 196.365 27.1593 196.437 27.0782C196.512 27 196.552 26.8822 196.56 26.7277H196.561ZM193.527 23.2864C193.514 23.4701 193.465 23.6162 193.38 23.718C193.294 23.8244 193.188 23.897 193.066 23.9347C192.943 23.979 192.821 23.9959 192.698 23.9875C192.563 23.978 192.438 23.9545 192.311 23.9055C192.189 23.8565 192.087 23.7802 192.009 23.6699C191.932 23.5597 191.9 23.4127 191.904 23.2251C191.904 23.2054 191.915 23.1564 191.937 23.0706C191.96 22.9896 191.989 22.8916 192.031 22.7691C192.067 22.6513 192.111 22.5288 192.165 22.3987C192.222 22.2725 192.278 22.15 192.344 22.0407C192.413 21.9304 192.482 21.8409 192.561 21.7721C192.638 21.7024 192.715 21.6694 192.797 21.6741C192.882 21.6779 192.955 21.7184 193.025 21.7966C193.094 21.8701 193.156 21.9624 193.209 22.0774C193.265 22.1952 193.31 22.3215 193.35 22.4515C193.392 22.5815 193.426 22.7078 193.449 22.8265C193.477 22.949 193.493 23.0499 193.51 23.1319C193.522 23.2176 193.527 23.2657 193.527 23.2864ZM204.043 26.1661C204.076 25.8928 204.072 25.6563 204.027 25.449C203.978 25.2454 203.909 25.0664 203.82 24.9119C203.729 24.7564 203.636 24.6179 203.541 24.4963C203.447 24.37 203.371 24.2513 203.308 24.1411C203.248 24.028 203.227 23.9149 203.239 23.7952C203.253 23.7057 203.288 23.6247 203.342 23.5474C203.394 23.4701 203.46 23.3891 203.533 23.3024C203.611 23.2214 203.689 23.1234 203.766 23.0178C203.843 22.9085 203.917 22.7775 203.983 22.6315C204.047 22.4807 204.091 22.3017 204.124 22.0925C204.157 21.8409 204.14 21.6091 204.085 21.3895C204.023 21.1728 203.934 20.973 203.802 20.794C203.676 20.6187 203.524 20.4604 203.351 20.3304C203.178 20.1956 202.992 20.0854 202.8 20.0043C202.604 19.9224 202.408 19.8658 202.217 19.8413L198.909 19.3768C198.779 19.356 198.649 19.3683 198.518 19.4135C198.384 19.4587 198.269 19.5398 198.168 19.6613C198.07 19.7801 198.004 19.9469 197.967 20.1551L197.05 26.6787C197.042 26.756 197.045 26.8455 197.066 26.9397C197.09 27.0339 197.123 27.1235 197.175 27.213C197.229 27.3025 197.295 27.3798 197.371 27.4401C197.454 27.5013 197.547 27.5419 197.653 27.5588L201.404 28.0874C201.764 28.1327 202.093 28.1129 202.395 28.0271C202.702 27.9423 202.967 27.8029 203.199 27.6154C203.432 27.4325 203.619 27.213 203.766 26.9595C203.909 26.7117 204.003 26.4469 204.043 26.1661ZM202.003 22.2527C201.984 22.3987 201.934 22.5165 201.866 22.6145C201.796 22.7125 201.706 22.7851 201.609 22.8463C201.507 22.9038 201.4 22.9443 201.291 22.9726C201.181 23.0018 201.079 23.0131 200.977 23.0178C200.879 23.0216 200.797 23.0216 200.728 23.0084C200.531 22.9811 200.369 22.9198 200.239 22.8228C200.108 22.7285 200.01 22.606 199.954 22.4553C199.896 22.3083 199.879 22.1462 199.905 21.9596C199.933 21.7712 199.995 21.6119 200.092 21.4819C200.186 21.3556 200.312 21.2633 200.463 21.2095C200.617 21.153 200.793 21.136 200.989 21.1653C201.095 21.1775 201.21 21.2143 201.335 21.2699C201.458 21.3236 201.576 21.3961 201.686 21.4904C201.796 21.5846 201.882 21.6948 201.943 21.8202C202.003 21.9474 202.025 22.0934 202.003 22.2527ZM201.833 25.6327C201.809 25.7948 201.76 25.9296 201.678 26.0398C201.6 26.1454 201.507 26.2311 201.393 26.2924C201.282 26.3527 201.165 26.3979 201.038 26.4224C200.912 26.4469 200.789 26.4591 200.67 26.4591C200.548 26.4629 200.442 26.4554 200.349 26.4422C199.991 26.3904 199.733 26.2669 199.586 26.0766C199.439 25.8806 199.387 25.628 199.431 25.3189C199.469 25.0702 199.542 24.8827 199.66 24.7526C199.774 24.6264 199.916 24.5406 200.084 24.5039C200.255 24.468 200.443 24.4633 200.647 24.4963C200.777 24.5123 200.915 24.5491 201.058 24.6019C201.205 24.6546 201.344 24.7281 201.47 24.8186C201.593 24.9128 201.695 25.0259 201.764 25.1597C201.833 25.2944 201.858 25.4528 201.833 25.6327ZM214.713 22.7069L214.821 22.7125C214.926 22.7248 215.017 22.7408 215.082 22.7691L218.821 24.0515C219 24.1137 219.143 24.1985 219.258 24.306C219.367 24.4096 219.437 24.5415 219.469 24.6923C219.498 24.8421 219.483 25.0089 219.417 25.2012C219.351 25.384 219.278 25.5215 219.192 25.6111C219.107 25.7015 219.016 25.7618 218.916 25.7863C218.813 25.8118 218.711 25.8203 218.597 25.8033C218.487 25.7948 218.373 25.7797 218.255 25.7581C218.137 25.7392 218.013 25.7298 217.892 25.7345C217.774 25.7345 217.656 25.7628 217.536 25.8193C217.423 25.8721 217.31 25.9701 217.202 26.1133C217.1 26.2518 217.003 26.4469 216.913 26.7032L215.523 30.7316C215.461 30.9068 215.375 31.0331 215.266 31.1226C215.155 31.2074 215.038 31.2602 214.907 31.2847C214.776 31.3092 214.654 31.313 214.531 31.2979C214.413 31.2809 214.312 31.2602 214.225 31.2282C214.14 31.1999 214.046 31.1547 213.949 31.0972C213.851 31.0369 213.76 30.9587 213.679 30.8616C213.598 30.7674 213.545 30.6534 213.517 30.5186C213.487 30.3857 213.503 30.2303 213.561 30.055L214.952 26.0276C215.037 25.7713 215.082 25.5592 215.087 25.384C215.09 25.2087 215.061 25.0617 215.004 24.9486C214.948 24.8337 214.871 24.7366 214.776 24.6584C214.682 24.5811 214.58 24.517 214.474 24.4549C214.368 24.4021 214.269 24.3455 214.177 24.2843C214.079 24.2278 214.002 24.158 213.94 24.0723C213.875 23.9912 213.837 23.8895 213.827 23.767C213.814 23.6445 213.842 23.4899 213.903 23.3062C213.964 23.1281 214.051 22.998 214.156 22.9085C214.258 22.8181 214.368 22.7615 214.486 22.737C214.605 22.7088 214.715 22.6993 214.821 22.7125L214.713 22.7069ZM206.902 20.6187C207.015 20.6187 207.105 20.6272 207.171 20.6442C207.358 20.6932 207.517 20.7657 207.649 20.8637C207.779 20.9608 207.873 21.0833 207.925 21.234C207.982 21.381 207.982 21.5516 207.937 21.7429L207.392 23.9338C207.375 24.0025 207.358 24.0883 207.35 24.1948C207.338 24.3013 207.338 24.4059 207.35 24.517C207.363 24.6301 207.388 24.7244 207.436 24.8092C207.482 24.8949 207.55 24.9486 207.644 24.9722C207.742 24.9929 207.856 24.9722 207.991 24.9081C208.125 24.8421 208.276 24.7526 208.431 24.6348C208.59 24.517 208.744 24.3861 208.904 24.2438C209.058 24.1053 209.206 23.962 209.34 23.832C209.475 23.6972 209.589 23.5842 209.679 23.4862C209.773 23.3929 209.83 23.3316 209.854 23.3034C209.931 23.2251 210.029 23.1356 210.137 23.0339C210.245 22.9321 210.359 22.8228 210.49 22.7078C210.616 22.59 210.746 22.4769 210.886 22.362C211.02 22.2527 211.155 22.1453 211.29 22.052C211.416 21.9672 211.543 21.9144 211.668 21.8937C211.803 21.8701 211.933 21.8701 212.073 21.8852C212.207 21.9021 212.35 21.9304 212.492 21.9709C212.595 21.9917 212.704 22.0322 212.832 22.0934C212.954 22.1547 213.067 22.2319 213.178 22.3337C213.283 22.4317 213.365 22.5533 213.418 22.6993C213.467 22.8426 213.471 23.0094 213.427 23.2054L211.893 29.3492C211.844 29.5424 211.775 29.6922 211.685 29.7987C211.595 29.9089 211.494 29.9862 211.379 30.0305C211.266 30.0757 211.143 30.0955 211.016 30.0917C210.893 30.0917 210.768 30.0719 210.645 30.039C210.315 29.9523 210.087 29.8109 209.96 29.6036C209.833 29.3954 209.805 29.1513 209.878 28.8583L210.454 26.5449C210.475 26.4761 210.49 26.3941 210.507 26.3037C210.524 26.2189 210.527 26.1293 210.515 26.0426C210.51 25.9541 210.478 25.8806 210.43 25.8118C210.38 25.7458 210.303 25.6968 210.196 25.6685C210.107 25.6497 210.017 25.6525 209.919 25.6855C209.826 25.7138 209.732 25.7581 209.638 25.8203C209.543 25.8806 209.455 25.9465 209.373 26.0191C209.291 26.0916 209.219 26.1623 209.153 26.2226C209.088 26.2886 209.039 26.3366 209.005 26.3734C208.729 26.6382 208.459 26.9077 208.19 27.1753C207.92 27.4439 207.644 27.7086 207.354 27.9659C207.061 28.226 206.747 28.4747 206.399 28.7103C206.303 28.7725 206.183 28.8093 206.062 28.8177C205.935 28.8243 205.805 28.8177 205.675 28.7923C205.54 28.7687 205.413 28.7395 205.291 28.7075C205.173 28.6792 205.055 28.6378 204.932 28.5765C204.814 28.52 204.704 28.4465 204.611 28.357C204.517 28.2627 204.446 28.1496 204.406 28.0187C204.365 27.8886 204.365 27.7341 204.406 27.5588L205.977 21.2736C206.022 21.1078 206.095 20.9777 206.197 20.8835C206.299 20.7893 206.413 20.7252 206.54 20.6847C206.67 20.6442 206.788 20.6225 206.903 20.6187H206.902Z" fill="#EC1D24"/>
</svg>
