<svg width="200" height="31" viewBox="0 0 200 31" fill="none" xmlns="http://www.w3.org/2000/svg">
<g clip-path="url(#clip0_219_13)">
<path fill-rule="evenodd" clip-rule="evenodd" d="M38.1013 14.3595L35.8733 19.7109H40.3826L38.1013 14.3595ZM40.7983 6.78003L48.4204 23.8897H42.2162L41.1395 21.3206H35.1804L34.1677 23.8897H32.2062L39.3699 6.78003H40.7983Z" fill="#DE002B"/>
<path fill-rule="evenodd" clip-rule="evenodd" d="M67.8434 6.78003V23.8897H62.3427V8.75218H57.5243V23.8897H52.0236V6.78003H67.8434Z" fill="#DE002B"/>
<path fill-rule="evenodd" clip-rule="evenodd" d="M85.4648 6.78003V8.75218H81.3606V23.8897H75.8492V8.75218H71.7557V6.78003H85.4648Z" fill="#DE002B"/>
<path fill-rule="evenodd" clip-rule="evenodd" d="M101.029 21.9176V23.8897H89.2812V6.78003H101.039L101.029 8.75218H94.7818V13.1335H101.039V15.1483H94.7818V21.9176H101.029Z" fill="#DE002B"/>
<path fill-rule="evenodd" clip-rule="evenodd" d="M117.797 6.78003V23.8897H112.297V19.2312C106.167 19.2312 104.11 16.4489 104.11 12.366V6.78003H109.6V14.4554C109.6 15.8306 111.305 17.1418 112.297 17.1418V6.78003H117.797Z" fill="#DE002B"/>
<path fill-rule="evenodd" clip-rule="evenodd" d="M136.517 15.2334C136.517 11.1186 139.352 6.79053 144.672 6.79053C146.601 6.79053 150.066 7.4408 150.066 10.2018C150.066 10.6495 150.002 11.7156 148.446 11.7156C147.71 11.7156 146.889 11.4384 146.207 10.5536C146.719 10.2871 146.868 9.99926 146.868 9.58351C146.868 9.22106 146.623 8.70937 145.322 8.70937C144.832 8.70937 142.209 8.79465 142.209 13.3146L142.188 17.1096C142.188 19.9559 143.616 21.992 146.164 21.992C147.497 21.9814 148.072 21.0646 147.891 19.8813C149.202 19.7321 150.13 21.4484 150.13 21.992C149.266 23.0261 148.115 23.8789 144.874 23.8789C139.704 23.8789 136.517 20.926 136.517 15.2334Z" fill="#DE002B"/>
<path fill-rule="evenodd" clip-rule="evenodd" d="M165.683 6.78003V8.75218H161.579V23.8897H156.078V8.75218H151.974V6.78003H165.683Z" fill="#DE002B"/>
<path fill-rule="evenodd" clip-rule="evenodd" d="M174.169 21.9176H174.531C175.395 21.9176 176.386 21.2033 176.386 18.3571C176.386 16.2143 175.501 15.1483 174.659 15.1483H174.169V21.9176ZM174.169 13.1549H174.552C175.245 13.1549 175.96 12.6005 175.96 10.9162C175.96 9.13594 175.096 8.75218 174.68 8.75218H174.169V13.1549ZM168.657 6.78003H175.672C179.478 6.78003 181.226 7.87803 181.226 10.4365C181.226 12.3127 180.469 13.7199 178.529 14.0503C180.661 14.3381 182.74 15.7879 182.74 18.7088C182.74 21.9815 181.524 23.8897 176.621 23.8897H168.657V6.78003Z" fill="#DE002B"/>
<path fill-rule="evenodd" clip-rule="evenodd" d="M191.119 20.2119C191.119 22.0454 191.875 22.2053 192.579 22.2053C193.251 22.2053 194.007 22.0454 194.007 20.2119V10.6923C194.007 8.8587 193.251 8.69879 192.579 8.69879C191.875 8.69879 191.119 8.8587 191.119 10.6923V20.2119ZM199.86 15.3188C199.86 21.3205 196.342 23.9003 192.579 23.9003C188.869 23.9003 185.223 21.3205 185.223 15.2975C185.223 9.31709 188.848 6.76929 192.558 6.76929C196.385 6.76929 199.86 9.31709 199.86 15.3188Z" fill="#DE002B"/>
<path fill-rule="evenodd" clip-rule="evenodd" d="M134.097 21.9176V23.8897H122.349V6.78003H134.107L134.097 8.75218H127.861V13.1335H134.107V15.1483H127.861V21.9176H134.097Z" fill="#DE002B"/>
<path fill-rule="evenodd" clip-rule="evenodd" d="M15.6401 0C7.07996 0 0.140137 6.93982 0.140137 15.5C0.140137 24.0602 7.07996 31 15.6401 31C24.2003 31 31.1401 24.0602 31.1401 15.5C31.1401 6.93982 24.2003 0 15.6401 0Z" fill="#FEFEFE"/>
<path fill-rule="evenodd" clip-rule="evenodd" d="M15.6508 31C24.211 31 31.1401 24.0602 31.1401 15.5C31.1401 6.93982 24.211 0.0106602 15.6508 0C7.09061 0 0.150787 6.93982 0.150787 15.5C0.150787 24.0602 7.09061 31 15.6508 31ZM15.6508 1.33253V29.6675C7.82617 29.6675 1.48332 23.3246 1.48332 15.5C1.48332 7.67538 7.82617 1.33253 15.6508 1.33253Z" fill="#DE002B"/>
<path fill-rule="evenodd" clip-rule="evenodd" d="M18.6357 5.87378H15.6295V25.1262H18.6357V18.7087H25.0531V12.2912H18.6357V5.87378Z" fill="#FEFEFE"/>
<path fill-rule="evenodd" clip-rule="evenodd" d="M12.6659 5.87378H15.6721V25.1262H12.6659V18.7087H6.24847V12.2912H12.6659V5.87378Z" fill="#DE002B"/>
</g>
<defs>
<clipPath id="clip0_219_13">
<rect width="200" height="31" fill="white"/>
</clipPath>
</defs>
</svg>
