<svg width="176" height="33" viewBox="0 0 176 33" fill="none" xmlns="http://www.w3.org/2000/svg">
<path d="M28.4539 10.3645H29.0651C31.1314 10.3645 32.8098 12.0419 32.8098 14.107V18.7027C32.8098 20.7679 31.1314 22.4452 29.0651 22.4452H24.1562C22.9921 22.4452 22.4391 23.0366 22.4391 24.1613V29.0673C22.4391 31.1324 20.7608 32.8098 18.6944 32.8098H14.096C12.0296 32.8098 10.3513 31.1324 10.3513 29.0673C10.3513 29.0673 10.3513 25.3927 10.3513 24.1613C10.3513 22.9397 9.74979 22.4452 8.62444 22.4452H3.7447C1.67832 22.4355 0 20.7582 0 18.693V14.0973C0 12.0322 1.67832 10.3549 3.7447 10.3549H8.64385C9.73039 10.3549 10.3707 9.744 10.3707 8.6097V3.7425C10.3707 1.6773 12.049 0 14.1154 0H18.7138C20.7802 0 22.4585 1.6773 22.4585 3.7425V8.6193C22.4585 9.8119 22.895 10.3645 24.1465 10.3645H25.0099L22.4876 13.8065C20.557 13.6513 19.0145 12.0322 19.0145 10.064V5.1774C19.0145 3.9849 18.5586 3.4419 17.278 3.4419H15.5318C14.4452 3.4419 13.8146 4.0237 13.8146 5.1774V10.064C13.8146 12.1291 12.1363 13.8065 10.0699 13.8065H5.18049C3.91932 13.8065 3.44396 14.6306 3.44396 15.5517V17.2775C3.44396 18.3149 4.07454 19.0033 5.16109 19.0033H10.0699C12.1363 19.0033 13.8146 20.6806 13.8146 22.7458V27.642C13.8146 28.7473 14.3676 29.3678 15.5124 29.3678H17.2683C18.3548 29.3678 19.0048 28.7085 19.0048 27.6226V22.7458C19.0048 20.6806 20.6831 19.0033 22.7495 19.0033H27.6584C28.8419 19.0033 29.3755 18.4022 29.3755 17.2581V15.5323C29.3755 14.3494 28.7546 13.8065 27.6196 13.8065H25.9315L28.4539 10.3645Z" fill="url(#paint0_linear_206_175)"/>
<path d="M71.4468 6.90723L79.262 25.9023H75.6529L73.8351 21.3973H65.1243L63.3331 25.9023H59.8899L67.5923 6.90723H71.4468ZM66.345 18.279H72.5879L69.4698 10.4899L66.345 18.279Z" fill="#8168F0"/>
<path d="M95.4561 10.0321H85.3388V25.9023H81.9487V6.90723H98.8529V25.9023H95.4627V10.0321H95.4561Z" fill="#8168F0"/>
<path d="M117.782 10.0321H111.38V25.9023H107.99V10.0321H101.694V6.91382H117.782V10.0321Z" fill="#8168F0"/>
<path d="M132.762 17.6819H124.025V22.784H134.062V25.9023H120.635V6.90723H133.764V10.0255H124.025V14.557H132.762V17.6819Z" fill="#8168F0"/>
<path d="M57.0249 17.6819H48.2876V22.784H58.3252V25.9023H44.8975V6.90723H58.0267V10.0255H48.2876V14.557H57.0249V17.6819Z" fill="#8168F0"/>
<path d="M141.491 25.9023H138.101V6.90723H141.491V14.8821H144.338L150.441 6.90723H154.568L147.323 15.9436L155.735 25.9023H151.396L144.503 17.6819H141.491V25.9023Z" fill="#8168F0"/>
<path d="M167.629 6.90723L175.444 25.9023H171.835L170.017 21.3973H161.307L159.515 25.9023H156.072L163.775 6.90723H167.629ZM162.527 18.279H168.77L165.652 10.4899L162.527 18.279Z" fill="#8168F0"/>
<defs>
<linearGradient id="paint0_linear_206_175" x1="9.21677" y1="28.8425" x2="24.0286" y2="3.1724" gradientUnits="userSpaceOnUse">
<stop stop-color="#8168F0"/>
<stop offset="0.137" stop-color="#7F6DF0"/>
<stop offset="0.2924" stop-color="#787AF0"/>
<stop offset="0.4568" stop-color="#6C91F1"/>
<stop offset="0.6273" stop-color="#5DB1F1"/>
<stop offset="0.8012" stop-color="#48D9F2"/>
<stop offset="0.8195" stop-color="#46DEF2"/>
<stop offset="1" stop-color="#50E3C2"/>
</linearGradient>
</defs>
</svg>
