<svg width="176" height="56" viewBox="0 0 176 56" fill="none" xmlns="http://www.w3.org/2000/svg">
<path fill-rule="evenodd" clip-rule="evenodd" d="M22.5791 0C10.109 0 0 10.1231 0 22.6106V55.7176H153.271C165.741 55.7176 175.85 45.5943 175.85 33.1069V0H22.5791ZM18.3207 25.2552V37.7035H22.4643V25.2552H25.5363V22.2219H22.4643V20.977C22.4643 19.5176 23.2407 18.7879 24.7934 18.7879C25.2887 18.7879 25.7078 18.8308 26.0507 18.9166L26.0936 15.7116C25.2649 15.5208 24.5647 15.4254 23.9932 15.4254C22.2024 15.4254 20.8069 15.9071 19.8067 16.8705C18.816 17.8244 18.3207 19.1694 18.3207 20.9055V22.2219H16.0203V25.2552H18.3207ZM35.7606 37.7035C35.5702 37.3314 35.4319 36.869 35.3462 36.3155C34.3461 37.4317 33.0458 37.9896 31.4455 37.9896C29.9309 37.9896 28.6735 37.5509 27.6733 36.6731C26.6827 35.7957 26.1873 34.6891 26.1873 33.3537C26.1873 31.713 26.7922 30.4539 28.0019 29.5763C29.2212 28.6988 30.9787 28.2552 33.2744 28.2456H35.1746V27.3585C35.1746 26.6431 34.989 26.0708 34.6175 25.6415C34.2555 25.2123 33.6792 24.9977 32.8886 24.9977C32.1932 24.9977 31.6455 25.1646 31.2454 25.4984C30.8549 25.8323 30.6596 26.2902 30.6596 26.8721H26.5302C26.5302 25.9754 26.8065 25.1455 27.359 24.3824C27.9115 23.6193 28.6926 23.0231 29.7023 22.5939C30.712 22.1551 31.8455 21.9357 33.1029 21.9357C35.0079 21.9357 36.5178 22.4174 37.6324 23.3808C38.7564 24.3347 39.3183 25.6797 39.3183 27.4158V34.1264C39.3279 35.5954 39.5328 36.7068 39.9328 37.4602V37.7035H35.7606ZM34.0316 34.4269C33.5173 34.6939 32.9553 34.8275 32.3456 34.8275C31.7169 34.8275 31.2216 34.6606 30.8596 34.3267C30.4976 33.9928 30.3167 33.5684 30.3167 33.0533L30.331 32.81C30.4643 31.3792 31.5645 30.6637 33.6316 30.6637H35.1746V33.3251C34.9269 33.783 34.5461 34.1502 34.0316 34.4269ZM48.8138 25.9849C49.2426 25.9849 49.738 26.0231 50.3 26.0994L50.3569 22.1217C49.9569 21.9977 49.5284 21.9357 49.0711 21.9357C47.6041 21.9357 46.4561 22.6463 45.6276 24.0676L45.5133 22.2219H41.6125V37.7035H45.7418V27.5732C46.2276 26.5144 47.2517 25.9849 48.8138 25.9849ZM55.2945 22.2219L55.4232 23.9532C56.5186 22.6082 57.9997 21.9357 59.8668 21.9357C61.8577 21.9357 63.2245 22.7226 63.9676 24.2965C65.0534 22.7226 66.6014 21.9357 68.6112 21.9357C70.2878 21.9357 71.5356 22.4269 72.3549 23.4094C73.1741 24.3824 73.5838 25.8514 73.5838 27.8164V37.7035H69.4401V27.8307C69.4401 26.9531 69.2685 26.314 68.9258 25.9134C68.5827 25.5032 67.9779 25.2982 67.1109 25.2982C65.8727 25.2982 65.0154 25.8896 64.5392 27.0724L64.5532 37.7035H60.4239V27.845C60.4239 26.9484 60.2479 26.2997 59.8952 25.8991C59.5429 25.4985 58.9428 25.2982 58.0951 25.2982C56.9235 25.2982 56.0757 25.7846 55.5518 26.7576V37.7035H51.4222V22.2219H55.2945ZM76.1064 37.7035H80.2502V15.7259H76.1064V37.7035ZM89.9027 37.9896C87.6356 37.9896 85.7878 37.2933 84.3589 35.9005C82.9396 34.508 82.2297 32.6526 82.2297 30.3347V29.934C82.2297 28.3792 82.5299 26.9913 83.13 25.7703C83.73 24.5398 84.5778 23.5954 85.6732 22.9373C86.7783 22.2696 88.0357 21.9357 89.4454 21.9357C91.5601 21.9357 93.2224 22.6034 94.4321 23.9389C95.6514 25.2743 96.261 27.1678 96.261 29.6193V31.3076H86.4163C86.5498 32.3188 86.9498 33.1296 87.6164 33.74C88.293 34.3505 89.1455 34.6558 90.1741 34.6558C91.765 34.6558 93.0079 34.0787 93.9034 32.9245L95.9324 35.1996C95.3131 36.0771 94.4749 36.7638 93.4176 37.2599C92.3602 37.7464 91.1886 37.9896 89.9027 37.9896ZM87.4308 26.1137C87.9451 25.5605 88.6121 25.2838 89.4313 25.2838C90.3076 25.2838 90.9838 25.5366 91.4603 26.0422C91.9365 26.5382 92.1842 27.2441 92.2031 28.1598V28.4889H86.4592C86.602 27.4587 86.9258 26.667 87.4308 26.1137ZM101.67 24.0104L101.541 22.2219H97.655V37.7035H101.784V26.7862C102.365 25.7942 103.237 25.2982 104.399 25.2982C105.285 25.2982 105.918 25.4985 106.3 25.8991C106.681 26.2902 106.871 26.9245 106.871 27.8021V37.7035H111V27.7019C110.981 25.7846 110.572 24.3443 109.772 23.3808C108.971 22.4174 107.752 21.9357 106.114 21.9357C104.256 21.9357 102.775 22.6273 101.67 24.0104ZM112.623 29.8482C112.623 27.4348 113.161 25.5128 114.238 24.0819C115.324 22.6511 116.805 21.9357 118.681 21.9357C120.186 21.9357 121.429 22.4985 122.411 23.6241V15.7259H126.554V37.7035H122.825L122.625 36.0582C121.596 37.3458 120.272 37.9896 118.653 37.9896C116.833 37.9896 115.371 37.2744 114.266 35.8434C113.171 34.4029 112.623 32.4046 112.623 29.8482ZM117.51 33.4825C117.005 32.7098 116.753 31.5986 116.753 30.1486C116.753 26.915 117.748 25.2982 119.739 25.2982C121.006 25.2982 121.896 25.8371 122.411 26.915V33.0246C121.887 34.1025 120.986 34.6413 119.71 34.6413C118.748 34.6413 118.014 34.2552 117.51 33.4825ZM151.354 37.9896C153.155 37.9896 154.564 37.3695 155.584 36.1296L155.698 37.7035H159.584V22.2219H155.441V33.182C154.917 34.155 153.955 34.6413 152.555 34.6413C151.088 34.6413 150.354 33.8354 150.354 32.2234V22.2219H146.225V32.3665C146.244 34.2074 146.687 35.605 147.554 36.5587C148.43 37.5128 149.697 37.9896 151.354 37.9896ZM145.202 26.0994C144.64 26.0231 144.145 25.9849 143.716 25.9849C142.154 25.9849 141.13 26.5144 140.644 27.5732V37.7035H136.515V22.2219H140.416L140.53 24.0676C141.359 22.6463 142.506 21.9357 143.973 21.9357C144.431 21.9357 144.859 21.9977 145.259 22.1217L145.202 26.0994ZM129.748 34.0691C129.31 34.4792 129.091 35.0134 129.091 35.6717C129.091 36.3203 129.31 36.8497 129.748 37.2599C130.187 37.6605 130.744 37.8608 131.42 37.8608C132.106 37.8608 132.668 37.6605 133.106 37.2599C133.545 36.8497 133.763 36.3203 133.763 35.6717C133.763 35.0134 133.54 34.4792 133.092 34.0691C132.654 33.659 132.096 33.4539 131.42 33.4539C130.754 33.4539 130.196 33.659 129.748 34.0691Z" fill="#00A052"/>
</svg>
