<svg width="199" height="41" viewBox="0 0 199 41" fill="none" xmlns="http://www.w3.org/2000/svg">
<g clip-path="url(#clip0_219_104)">
<path d="M69.3375 11.6982C69.5151 11.5983 69.7149 11.4984 69.948 11.4096C70.1811 11.3208 70.4253 11.2542 70.6917 11.1987C70.9469 11.1432 71.2133 11.121 71.4908 11.121C71.8571 11.121 72.1457 11.1654 72.3455 11.2542C72.5452 11.3319 72.6784 11.454 72.7561 11.6094C72.8338 11.7537 72.8782 11.9313 72.8671 12.12C72.2012 12.12 71.5796 12.1866 71.0246 12.2975C70.4697 12.4196 69.9813 12.5972 69.5817 12.8414C69.171 13.0856 68.8603 13.3853 68.6383 13.7627C68.4163 14.14 68.3053 14.584 68.3053 15.0946C68.3053 15.4165 68.3608 15.7272 68.4829 16.0047C68.5939 16.3044 68.7715 16.5597 68.9935 16.7706C69.2154 17.0037 69.4818 17.1702 69.7926 17.3033C70.1145 17.4254 70.4697 17.492 70.8581 17.492C71.3132 17.492 71.7239 17.4254 72.1013 17.27C72.4786 17.1258 72.8005 16.8927 73.0669 16.5819H73.1113L73.2667 17.3366H75.5754C75.5421 17.1813 75.5088 17.0148 75.4977 16.8261C75.4755 16.6263 75.4644 16.4043 75.4533 16.1712C75.4533 15.9381 75.4422 15.705 75.4422 15.4498V12.7637C75.4533 12.2975 75.3978 11.8536 75.2757 11.454C75.1647 11.0433 74.976 10.6881 74.7096 10.3774C74.4543 10.0666 74.0991 9.82239 73.6441 9.6448C73.2001 9.46721 72.6451 9.37842 71.9792 9.37842C71.4908 9.37842 71.0357 9.42281 70.6251 9.50051C70.2255 9.56711 69.8814 9.667 69.5817 9.76689C69.282 9.87789 69.049 9.97778 68.8714 10.0777L69.3375 11.6982ZM72.9559 14.5174C72.9559 14.7394 72.9115 14.9281 72.8449 15.0724C72.7783 15.2278 72.6895 15.3388 72.5785 15.4276C72.4675 15.5164 72.3566 15.5829 72.2456 15.6273C72.1235 15.6717 72.0236 15.6939 71.9348 15.705C71.846 15.7272 71.7794 15.7272 71.735 15.7272C71.5574 15.7272 71.402 15.6939 71.2688 15.6384C71.1245 15.5718 71.0135 15.472 70.9358 15.3499C70.847 15.2167 70.8137 15.0502 70.8026 14.8504C70.8137 14.5618 70.9025 14.3398 71.0912 14.1622C71.2688 13.9957 71.5241 13.8736 71.846 13.796C72.1679 13.7183 72.5452 13.685 72.9559 13.685V14.5174ZM85.6092 17.3366V11.454H88.0954V17.3366H90.5817V9.54491H83.1229V17.3366H85.6092ZM100.327 11.4651V17.3366H102.813V11.4651H105.477V9.54491H97.6186V11.4651H100.327ZM119.273 15.3166C118.94 15.4276 118.596 15.5053 118.241 15.5607C117.886 15.6051 117.509 15.6273 117.12 15.6273C116.843 15.6273 116.576 15.6051 116.332 15.5496C116.077 15.4831 115.855 15.4054 115.666 15.2833C115.466 15.1723 115.3 15.028 115.189 14.8615C115.067 14.695 114.989 14.4952 114.967 14.2843H119.951C119.973 14.1844 119.984 14.0512 120.006 13.8847C120.017 13.7183 120.028 13.5185 120.028 13.2854C120.028 12.8747 119.995 12.4751 119.906 12.0867C119.817 11.6982 119.695 11.3541 119.518 11.0211C119.34 10.6881 119.107 10.4107 118.829 10.1554C118.552 9.91119 118.219 9.7225 117.842 9.5893C117.453 9.44501 117.009 9.37842 116.51 9.37842C115.966 9.37842 115.477 9.45611 115.045 9.6226C114.623 9.77799 114.245 9.99998 113.924 10.2775C113.613 10.5438 113.346 10.8657 113.136 11.2209C112.936 11.5761 112.78 11.9535 112.68 12.353C112.569 12.7415 112.525 13.1522 112.525 13.5518C112.525 14.362 112.692 15.0724 113.025 15.6606C113.358 16.2489 113.835 16.6929 114.456 17.0148C115.089 17.3366 115.855 17.492 116.754 17.492C117.264 17.492 117.764 17.4587 118.241 17.3699C118.73 17.2922 119.185 17.1591 119.606 16.9815L119.273 15.3166ZM114.967 12.5639C114.989 12.4085 115.022 12.242 115.078 12.0756C115.144 11.898 115.233 11.7426 115.344 11.5872C115.455 11.4318 115.6 11.3097 115.777 11.2098C115.944 11.121 116.155 11.0655 116.399 11.0655C116.654 11.0655 116.865 11.121 117.031 11.2209C117.198 11.3097 117.331 11.4429 117.431 11.5983C117.52 11.7537 117.586 11.9202 117.62 12.0867C117.653 12.2642 117.675 12.4196 117.675 12.5639H114.967ZM129.829 17.3366V14.251C129.929 14.251 130.051 14.251 130.195 14.2732C130.328 14.2843 130.484 14.3398 130.65 14.4064C130.817 14.4841 130.983 14.6173 131.15 14.7838C131.316 14.9614 131.483 15.2056 131.638 15.5164C131.805 15.9381 131.971 16.3044 132.126 16.6041C132.271 16.9038 132.426 17.148 132.582 17.3366H135.19C135.079 17.1702 134.979 16.9815 134.879 16.7817C134.779 16.5819 134.69 16.3821 134.602 16.1712C134.502 15.9603 134.424 15.7494 134.335 15.5607C134.258 15.361 134.191 15.1834 134.124 15.028C133.991 14.6728 133.825 14.3509 133.647 14.0623C133.47 13.7627 133.248 13.5185 133.003 13.3076C132.759 13.1078 132.471 12.9635 132.126 12.8858L135.146 9.54491H132.16L130.106 12.6194H129.829V9.54491H127.365V17.3366H129.829ZM144.835 17.3366C144.902 17.2145 144.98 17.0481 145.102 16.8039C145.213 16.5708 145.335 16.2822 145.479 15.9603C145.634 15.6384 145.79 15.2944 145.945 14.9281C146.112 14.5729 146.267 14.2066 146.422 13.8404C146.578 13.4741 146.722 13.1411 146.855 12.8192C146.977 12.4973 147.088 12.2198 147.177 11.9868H147.244C147.222 12.3308 147.21 12.6527 147.199 12.9302C147.188 13.2077 147.166 13.463 147.166 13.7183C147.155 13.9735 147.144 14.2288 147.144 14.4952C147.133 14.7727 147.133 15.0613 147.133 15.3943V17.3366H149.453V9.54491H146.533L145.124 12.6305C144.968 12.9746 144.813 13.3187 144.669 13.6739C144.524 14.0401 144.38 14.4175 144.247 14.8282H144.158C144.203 14.3731 144.236 13.8736 144.258 13.3076C144.28 12.7526 144.291 12.1422 144.291 11.4873V9.54491H141.983V17.3366H144.835Z" fill="#188B30"/>
<path d="M61.8455 20.6995H57.1172V17.5917C57.1061 17.4807 57.1283 17.3031 57.1616 17.0367C57.206 16.7703 57.2948 16.4817 57.4502 16.1709C57.5945 15.8713 57.8386 15.616 58.1716 15.394C58.5046 15.1831 58.9597 15.061 59.5479 15.0499C59.8032 15.0499 60.0807 15.0721 60.3915 15.1165C60.7023 15.1609 61.3238 15.394 61.6346 15.4939V10.0663C61.4237 9.98861 60.7578 9.73332 60.2916 9.63343C59.8365 9.52243 59.2483 9.42254 58.5379 9.33374C57.8276 9.24495 56.9951 9.20055 56.0628 9.18945C54.8307 9.20055 53.7874 9.34484 52.9216 9.61123C52.0448 9.88871 51.3233 10.255 50.7462 10.7101C50.1801 11.1762 49.725 11.6757 49.381 12.2418C49.0369 12.7967 48.7816 13.3628 48.6262 13.9511C48.4597 14.5282 48.3487 15.0832 48.2932 15.5938C48.2488 16.1154 48.2266 16.5594 48.2266 16.9257V20.6995H44.3419V27.2814H48.2266V40.4785H57.1172V27.2814H61.8455V20.6995Z" fill="#E41B41"/>
<path d="M81.0141 22.6639C80.337 22.0756 79.5489 21.6095 78.661 21.2654C77.7842 20.9102 76.8407 20.666 75.8418 20.5106C74.8539 20.3552 73.8439 20.2775 72.8227 20.2886C71.9237 20.2886 70.9692 20.333 69.9591 20.4218C68.9491 20.5106 67.9279 20.6549 66.8957 20.8325C65.8635 21.0101 64.8645 21.2321 63.91 21.4985V26.6597C64.7535 26.2934 65.5638 26.0048 66.3407 25.7939C67.1066 25.583 67.7947 25.4276 68.4163 25.3277C69.0268 25.2389 69.5151 25.1723 69.8925 25.1391C70.2588 25.1169 70.4697 25.1058 70.5141 25.1058C70.9803 25.1058 71.4686 25.1391 71.9792 25.1945C72.4898 25.25 72.967 25.3721 73.411 25.5386C73.855 25.7051 74.2102 25.9493 74.4876 26.2712C74.7651 26.5931 74.9094 27.0037 74.9205 27.5254V28.1248H73.6552C72.856 28.1137 72.0014 28.1359 71.1134 28.1581C70.2144 28.1914 69.3043 28.2802 68.4052 28.4023C67.5062 28.5354 66.6515 28.7352 65.8413 29.0238C65.0199 29.3124 64.2985 29.712 63.6658 30.2114C63.0331 30.722 62.5226 31.3658 62.1563 32.1538C61.79 32.9419 61.6013 33.8964 61.6013 35.0175C61.6013 35.8388 61.7234 36.6158 61.9898 37.3261C62.2562 38.0365 62.6669 38.6691 63.2107 39.2019C63.7546 39.7458 64.4316 40.1676 65.2641 40.4672C66.0965 40.778 67.0733 40.9223 68.2054 40.9334C68.716 40.9445 69.2599 40.9112 69.8259 40.8446C70.4031 40.778 70.9803 40.6448 71.5685 40.445C72.1568 40.2563 72.7229 39.9678 73.2667 39.5793C73.8217 39.2019 74.3101 38.7024 74.7762 38.0698H74.9205V40.4783H83.2228V27.9028C83.2117 26.7152 83.0119 25.7051 82.6235 24.8283C82.235 23.9736 81.7022 23.2522 81.0141 22.6639ZM74.9205 32.9863C74.9094 33.7299 74.7873 34.3404 74.5431 34.8066C74.299 35.2727 73.9882 35.6168 73.6108 35.8277C73.2223 36.0497 72.8227 36.1496 72.3899 36.1496C71.7461 36.1385 71.2355 35.9609 70.8471 35.6168C70.4697 35.2727 70.2699 34.8288 70.2588 34.2627C70.2699 33.7632 70.3698 33.3637 70.5696 33.0418C70.7694 32.7421 71.0358 32.4979 71.3576 32.3425C71.6906 32.176 72.0347 32.065 72.4121 31.9984C72.7894 31.9318 73.1557 31.9096 73.5109 31.8985C73.8661 31.8874 74.188 31.8874 74.4432 31.8874H74.9205V32.9863Z" fill="#E41B41"/>
<path d="M100.693 20.2886C99.9384 20.2886 99.2503 20.4329 98.6287 20.7104C98.0071 20.9878 97.4633 21.3541 96.9749 21.8203C96.4976 22.2865 96.0869 22.8192 95.7651 23.4075C95.4321 23.9847 95.1768 24.5951 94.9881 25.2278H94.8438V20.7436H86.3306V40.4783H95.421V33.3192C95.4321 32.176 95.6541 31.2214 96.0869 30.4445C96.5198 29.6675 97.097 29.0793 97.8295 28.6797C98.5621 28.2912 99.3834 28.0914 100.294 28.0914C100.627 28.0914 100.948 28.1136 101.259 28.1802C101.581 28.2357 101.881 28.3023 102.169 28.3911V20.4773C101.936 20.4218 101.692 20.3774 101.437 20.333C101.17 20.3108 100.926 20.2886 100.693 20.2886Z" fill="#E41B41"/>
<path d="M137.654 24.2956C137.443 23.563 137.088 22.886 136.6 22.2866C136.122 21.6872 135.456 21.21 134.602 20.8437C133.758 20.4774 132.67 20.2887 131.35 20.2887C130.228 20.2887 129.285 20.4441 128.519 20.7327C127.753 21.0102 127.11 21.3765 126.61 21.8315C126.1 22.2866 125.7 22.775 125.389 23.3077C125.023 22.6418 124.601 22.0979 124.113 21.6983C123.635 21.2988 123.125 20.9991 122.581 20.7882C122.037 20.5884 121.504 20.4552 120.972 20.3775C120.428 20.3109 119.928 20.2776 119.473 20.2887C119.051 20.2776 118.552 20.3109 117.997 20.3886C117.431 20.4663 116.854 20.6328 116.254 20.8881C115.655 21.1434 115.089 21.5208 114.545 22.0535C114.001 22.5752 113.535 23.2855 113.147 24.1735H113.002V20.7438H104.411V40.4784H113.513V29.1016C113.502 28.8352 113.513 28.5466 113.524 28.2358C113.546 27.9362 113.602 27.6476 113.702 27.3701C113.79 27.0926 113.957 26.8706 114.179 26.693C114.412 26.5266 114.723 26.4378 115.133 26.4267C115.544 26.4378 115.855 26.5266 116.066 26.693C116.288 26.8595 116.443 27.0815 116.532 27.359C116.632 27.6254 116.687 27.914 116.71 28.2248C116.721 28.5355 116.732 28.8241 116.721 29.1016V40.4784H125.822V29.1016C125.811 28.8241 125.822 28.5355 125.844 28.2248C125.855 27.914 125.911 27.6254 126.011 27.359C126.1 27.0815 126.255 26.8595 126.477 26.693C126.699 26.5266 127.01 26.4378 127.409 26.4267C127.82 26.4378 128.142 26.5266 128.364 26.693C128.586 26.8706 128.752 27.0926 128.852 27.3701C128.941 27.6476 128.996 27.9362 129.019 28.2358C129.03 28.5466 129.041 28.8352 129.03 29.1016V40.4784H138.131V28.6465C138.142 27.9806 138.12 27.2813 138.065 26.5266C138.009 25.7718 137.876 25.017 137.654 24.2956Z" fill="#E41B41"/>
<path d="M159.908 22.6639C159.22 22.0756 158.432 21.6095 157.555 21.2654C156.667 20.9102 155.724 20.666 154.725 20.5106C153.737 20.3552 152.727 20.2775 151.706 20.2886C150.807 20.2886 149.852 20.333 148.842 20.4218C147.832 20.5106 146.811 20.6549 145.779 20.8325C144.746 21.0101 143.748 21.2321 142.793 21.4985V26.6597C143.637 26.2934 144.447 26.0048 145.224 25.7939C145.99 25.583 146.678 25.4276 147.299 25.3277C147.91 25.2389 148.409 25.1723 148.776 25.1391C149.142 25.1169 149.353 25.1058 149.397 25.1058C149.863 25.1058 150.352 25.1391 150.862 25.1945C151.373 25.25 151.85 25.3721 152.294 25.5386C152.738 25.7051 153.093 25.9493 153.371 26.2712C153.648 26.5931 153.792 27.0037 153.804 27.5254V28.1248H152.538C151.739 28.1137 150.895 28.1359 149.996 28.1581C149.097 28.1914 148.198 28.2802 147.288 28.4023C146.4 28.5354 145.535 28.7352 144.724 29.0238C143.914 29.3124 143.181 29.712 142.549 30.2114C141.916 30.722 141.417 31.3658 141.05 32.1538C140.673 32.9419 140.484 33.8964 140.484 35.0175C140.484 35.8388 140.618 36.6158 140.873 37.3261C141.139 38.0365 141.55 38.6691 142.094 39.2019C142.638 39.7458 143.315 40.1676 144.147 40.4672C144.98 40.778 145.956 40.9223 147.088 40.9334C147.599 40.9445 148.143 40.9112 148.709 40.8446C149.286 40.778 149.863 40.6448 150.452 40.445C151.04 40.2563 151.606 39.9678 152.15 39.5793C152.705 39.2019 153.204 38.7024 153.659 38.0698H153.804V40.4783H162.106V27.9028C162.095 26.7152 161.906 25.7051 161.506 24.8283C161.118 23.9736 160.585 23.2522 159.908 22.6639ZM153.804 32.9863C153.792 33.7299 153.67 34.3404 153.426 34.8066C153.193 35.2727 152.871 35.6168 152.494 35.8277C152.105 36.0497 151.706 36.1496 151.273 36.1496C150.629 36.1385 150.119 35.9609 149.73 35.6168C149.353 35.2727 149.153 34.8288 149.142 34.2627C149.153 33.7632 149.253 33.3637 149.453 33.0418C149.652 32.7421 149.919 32.4979 150.241 32.3425C150.574 32.176 150.918 32.065 151.295 31.9984C151.672 31.9318 152.039 31.9096 152.405 31.8985C152.749 31.8874 153.071 31.8874 153.337 31.8874H153.804V32.9863Z" fill="#E41B41"/>
<path d="M186.502 24.4288C186.369 23.9516 186.169 23.4632 185.892 22.9748C185.614 22.4975 185.237 22.0425 184.76 21.6429C184.271 21.2322 183.661 20.9103 182.917 20.6662C182.173 20.422 181.274 20.2888 180.209 20.2888C179.743 20.2777 179.232 20.3221 178.666 20.422C178.1 20.5219 177.534 20.6995 176.957 20.9769C176.391 21.2433 175.847 21.6318 175.358 22.1424C174.859 22.664 174.437 23.33 174.115 24.1735H173.96V20.7438H165.369V40.4785H174.47V29.1016C174.47 28.8353 174.47 28.5467 174.493 28.2359C174.504 27.9362 174.57 27.6476 174.67 27.3702C174.759 27.0927 174.914 26.8707 175.136 26.6931C175.37 26.5266 175.691 26.4378 176.091 26.4267C176.502 26.4378 176.812 26.5266 177.034 26.6931C177.245 26.8596 177.412 27.0816 177.501 27.3591C177.589 27.6254 177.645 27.914 177.667 28.2248C177.689 28.5356 177.689 28.8242 177.689 29.1016V40.4785H186.78V26.7708C186.791 26.5155 186.769 26.1825 186.735 25.7718C186.702 25.3723 186.624 24.9172 186.502 24.4288Z" fill="#E41B41"/>
<path d="M189.899 9.45605V17.3477H199V9.45605H189.899Z" fill="#E41B41"/>
<path d="M189.899 40.4783H199V20.7437H189.899V40.4783Z" fill="#E41B41"/>
<path d="M0 0.065918H40.2573V40.3898H23.3752V31.8766H31.7441V20.7662H23.3752V17.2033C23.3641 17.0257 23.3863 16.7371 23.4529 16.3153C23.5195 15.8936 23.6749 15.4385 23.9191 14.9501C24.1633 14.484 24.5628 14.0622 25.1178 13.7181C25.6617 13.374 26.4164 13.1964 27.3932 13.1853C27.8038 13.1853 28.27 13.2075 28.7806 13.2852C29.2911 13.3518 31.2224 13.7736 31.7219 13.929V5.3492C31.3778 5.22711 29.391 4.77204 28.6252 4.60555C27.8482 4.42796 26.8826 4.27257 25.7061 4.12827C24.5406 3.99508 23.1754 3.92849 21.6215 3.91739C19.6014 3.92849 17.881 4.15047 16.4381 4.58335C15.0063 5.01622 13.8187 5.59339 12.8641 6.31484C11.9207 7.0474 11.1659 7.84655 10.5999 8.7345C10.0449 9.62245 9.62312 10.5104 9.34564 11.4427C9.07926 12.3529 8.89057 13.2186 8.81287 14.04C8.72408 14.8613 8.69078 15.5606 8.70188 16.1489V20.7662H0V0.065918L0 0.065918ZM8.70188 40.3898V31.8766H0V40.3898H8.70188Z" fill="#188B30"/>
</g>
<defs>
<clipPath id="clip0_219_104">
<rect width="199" height="41" fill="white"/>
</clipPath>
</defs>
</svg>
