<svg width="224" height="29" viewBox="0 0 224 29" fill="none" xmlns="http://www.w3.org/2000/svg">
<path fill-rule="evenodd" clip-rule="evenodd" d="M129.22 17.0709C128.73 17.0709 128.268 17.2909 127.959 17.6679C126.883 18.8959 125.553 19.5039 123.971 19.5039C122.974 19.5039 122.084 19.2839 121.301 18.8509C120.531 18.4246 119.897 17.7905 119.47 17.0209C119.031 16.2369 118.817 15.3469 118.817 14.3509C118.817 13.3529 119.036 12.4629 119.47 11.6809C119.897 10.911 120.531 10.2765 121.301 9.84995C122.084 9.40995 122.974 9.19694 123.971 9.19694C125.261 9.19694 126.387 9.60195 127.345 10.4129C127.728 10.7459 128.004 10.9369 128.544 10.9369C128.741 11.1191 128.979 11.2504 129.238 11.3194C129.497 11.3885 129.769 11.3932 130.03 11.3331C130.291 11.273 130.534 11.15 130.736 10.9747C130.939 10.7995 131.096 10.5773 131.193 10.3276C131.29 10.0778 131.325 9.8081 131.294 9.54187C131.264 9.27564 131.168 9.02098 131.016 8.80007C130.865 8.57916 130.661 8.39871 130.424 8.27441C130.186 8.15012 129.922 8.08576 129.654 8.08695L129.648 8.08095L129.626 8.05895C129.015 7.51801 128.321 7.07876 127.57 6.75795C126.443 6.26795 125.182 6.01995 123.785 6.01995C122.129 6.01995 120.636 6.37495 119.312 7.08995C117.989 7.80495 116.941 8.79095 116.186 10.0579C115.426 11.3259 115.049 12.7559 115.049 14.3499C115.049 15.9449 115.426 17.3749 116.186 18.6419C116.937 19.8985 118.018 20.9253 119.312 21.6109C120.636 22.3259 122.123 22.6809 123.762 22.6809C125.159 22.6809 126.421 22.4329 127.559 21.9429C128.645 21.4814 129.606 20.7693 130.364 19.8649C130.662 19.5719 130.854 19.1549 130.854 18.7049C130.854 17.8029 130.121 17.0709 129.22 17.0709ZM110.047 6.03095C110.937 6.03095 111.658 6.75795 111.658 7.64195V21.0699C111.658 21.9539 110.931 22.6809 110.047 22.6809C109.62 22.6791 109.212 22.5089 108.91 22.2074C108.609 21.9059 108.438 21.4975 108.436 21.0709V20.9349C107.205 21.889 105.731 22.4787 104.182 22.6371C102.633 22.7955 101.07 22.5162 99.6713 21.831C98.2728 21.1458 97.0944 20.0821 96.2701 18.7607C95.4457 17.4394 95.0085 15.9133 95.008 14.3559C95.0085 12.7986 95.4457 11.2725 96.2701 9.95117C97.0944 8.62983 98.2728 7.56613 99.6713 6.88092C101.07 6.1957 102.633 5.91643 104.182 6.07482C105.731 6.23321 107.205 6.82291 108.436 7.77695V7.64195C108.436 6.75795 109.163 6.03195 110.047 6.03195V6.03095ZM108.436 14.6659V14.0519C108.353 12.728 107.759 11.4881 106.779 10.5943C105.798 9.70055 104.509 9.22294 103.183 9.26241C101.857 9.30188 100.598 9.85535 99.6729 10.8058C98.7475 11.7563 98.2279 13.0294 98.224 14.3559C98.2239 15.0269 98.3559 15.6913 98.6126 16.3112C98.8693 16.9311 99.2456 17.4944 99.7201 17.9688C100.195 18.4433 100.758 18.8196 101.378 19.0763C101.998 19.333 102.662 19.4651 103.333 19.4649C104.636 19.4675 105.89 18.9717 106.839 18.0793C107.787 17.1868 108.359 15.9652 108.436 14.6649V14.6659ZM173.335 6.30695C174.18 6.30695 174.872 6.96695 174.934 7.79395C176.164 6.83696 177.638 6.24441 179.188 6.08371C180.739 5.923 182.303 6.20059 183.703 6.88489C185.103 7.56919 186.283 8.63274 187.109 9.95456C187.935 11.2764 188.373 12.8034 188.374 14.3619C188.373 15.9199 187.935 17.4463 187.11 18.7678C186.285 20.0893 185.106 21.1529 183.707 21.8376C182.307 22.5223 180.744 22.8007 179.194 22.6411C177.644 22.4815 176.171 21.8904 174.94 20.9349V26.0489C174.94 26.9339 174.219 27.6549 173.335 27.6549C172.909 27.6542 172.501 27.4847 172.2 27.1837C171.899 26.8827 171.73 26.4746 171.729 26.0489V14.6769C171.724 14.5759 171.724 14.4689 171.724 14.3619C171.724 14.2549 171.724 14.1529 171.729 14.0459V7.90595C171.729 7.02795 172.45 6.30695 173.335 6.30695ZM180.049 9.24694C178.694 9.24694 177.395 9.78521 176.436 10.7433C175.478 11.7015 174.94 13.001 174.94 14.3559C174.94 15.7109 175.478 17.0104 176.436 17.9686C177.395 18.9267 178.694 19.4649 180.049 19.4649C180.72 19.4649 181.384 19.3328 182.004 19.076C182.624 18.8193 183.187 18.443 183.662 17.9686C184.136 17.4941 184.512 16.9309 184.769 16.3111C185.026 15.6912 185.158 15.0269 185.158 14.3559C185.158 13.685 185.026 13.0207 184.769 12.4008C184.512 11.781 184.136 11.2178 183.662 10.7433C183.187 10.2689 182.624 9.8926 182.004 9.63585C181.384 9.37909 180.72 9.24694 180.049 9.24694ZM222.181 13.6909C222.724 13.0299 223.068 12.2282 223.173 11.3791C223.278 10.5301 223.14 9.66869 222.775 8.89511C222.41 8.12152 221.832 7.46758 221.11 7.0094C220.387 6.55121 219.549 6.30761 218.694 6.30695H211.76C210.808 6.30695 210.037 7.06695 210.02 8.01895V20.9799C210.02 21.7689 210.662 22.4099 211.451 22.4099H219.094C220.108 22.4099 221.097 22.0956 221.926 21.5103C222.754 20.925 223.38 20.0973 223.719 19.1413C224.057 18.1853 224.091 17.1479 223.816 16.1719C223.54 15.1958 222.969 14.3291 222.181 13.6909ZM213.749 19.6449V15.5399H218.531C219.065 15.5566 219.572 15.7805 219.944 16.1643C220.316 16.548 220.524 17.0615 220.524 17.5959C220.524 18.1304 220.316 18.6439 219.944 19.0276C219.572 19.4114 219.065 19.6353 218.531 19.6519H213.749V19.6459V19.6449ZM214.43 9.34295H218.221C218.64 9.34295 219.042 9.50941 219.338 9.80572C219.635 10.102 219.801 10.5039 219.801 10.9229C219.801 11.342 219.635 11.7439 219.338 12.0402C219.042 12.3365 218.64 12.5029 218.221 12.5029H213.743V9.34295H214.43ZM205.215 15.5389H194.536C195.093 17.5159 196.913 18.9749 199.064 18.9749C200.63 18.9749 202.106 18.4449 203.109 17.5219C203.275 17.3657 203.47 17.244 203.683 17.1638C203.896 17.0837 204.123 17.0467 204.351 17.0551C204.578 17.0634 204.802 17.117 205.009 17.2125C205.215 17.3081 205.401 17.4438 205.555 17.6118C205.708 17.7798 205.827 17.9766 205.904 18.191C205.981 18.4053 206.015 18.6328 206.003 18.8602C205.992 19.0876 205.935 19.3104 205.836 19.5157C205.738 19.721 205.599 19.9046 205.429 20.0559C203.796 21.5539 201.475 22.4109 199.059 22.4109C194.57 22.4109 190.92 18.7609 190.92 14.2709C190.92 9.78195 194.57 6.13195 199.059 6.13195C203.154 6.13195 206.595 9.35995 207.035 13.4219C207.046 13.5059 207.051 13.5959 207.051 13.6859C207.052 14.1747 206.859 14.6439 206.515 14.9911C206.171 15.3383 205.704 15.5352 205.215 15.5389ZM203.621 12.4969C203.252 11.611 202.628 10.8543 201.829 10.3222C201.03 9.79014 200.092 9.50645 199.132 9.50695C198.172 9.50645 197.234 9.79014 196.435 10.3222C195.636 10.8543 195.012 11.611 194.643 12.4969H203.621ZM201.7 5.16995C201.203 5.16995 200.726 4.97235 200.374 4.62062C200.022 4.2689 199.824 3.79186 199.824 3.29445C199.824 2.79703 200.022 2.31999 200.374 1.96827C200.726 1.61654 201.203 1.41895 201.7 1.41895C202.197 1.41895 202.674 1.61654 203.026 1.96827C203.378 2.31999 203.575 2.79703 203.575 3.29445C203.575 3.79186 203.378 4.2689 203.026 4.62062C202.674 4.97235 202.197 5.16995 201.7 5.16995ZM195.905 5.16995C195.408 5.17021 194.931 4.97292 194.579 4.62148C194.227 4.27003 194.029 3.79323 194.029 3.29595C194.029 2.79866 194.226 2.32165 194.577 1.96983C194.929 1.61801 195.406 1.42021 195.903 1.41995C196.149 1.41981 196.393 1.46818 196.621 1.56229C196.848 1.65639 197.055 1.7944 197.229 1.96841C197.403 2.14243 197.542 2.34905 197.636 2.57649C197.73 2.80393 197.779 3.04772 197.779 3.29395C197.779 3.54017 197.731 3.78402 197.637 4.01155C197.543 4.23909 197.405 4.44586 197.231 4.62006C197.057 4.79427 196.85 4.93249 196.622 5.02684C196.395 5.12119 196.151 5.16981 195.905 5.16995ZM66.411 6.03195C68.6188 6.03248 70.7359 6.90974 72.2971 8.47087C73.8582 10.032 74.7355 12.1492 74.736 14.3569C74.7355 16.5647 73.8582 18.6819 72.2971 20.243C70.7359 21.8041 68.6188 22.6814 66.411 22.6819C64.2032 22.6814 62.086 21.8041 60.5249 20.243C58.9638 18.6819 58.0865 16.5647 58.086 14.3569C58.081 9.76095 61.809 6.03195 66.411 6.03195ZM66.411 9.24795C65.7401 9.24795 65.0757 9.38009 64.4559 9.63684C63.836 9.8936 63.2728 10.2699 62.7984 10.7443C62.324 11.2188 61.9476 11.782 61.6909 12.4018C61.4341 13.0217 61.302 13.686 61.302 14.3569C61.302 15.0279 61.4341 15.6922 61.6909 16.3121C61.9476 16.9319 62.324 17.4951 62.7984 17.9696C63.2728 18.444 63.836 18.8203 64.4559 19.077C65.0757 19.3338 65.7401 19.4659 66.411 19.4659C67.0819 19.4659 67.7463 19.3338 68.3661 19.077C68.986 18.8203 69.5492 18.444 70.0236 17.9696C70.498 17.4951 70.8743 16.9319 71.1311 16.3121C71.3878 15.6922 71.52 15.0279 71.52 14.3569C71.52 13.686 71.3878 13.0217 71.1311 12.4018C70.8743 11.782 70.498 11.2188 70.0236 10.7443C69.5492 10.2699 68.986 9.8936 68.3661 9.63684C67.7463 9.38009 67.0819 9.24795 66.411 9.24795ZM41.369 6.84795C41.391 6.87094 41.408 6.89394 41.431 6.91094L46.646 12.3579L51.952 6.84295C52.2141 6.58316 52.5473 6.40683 52.9095 6.3362C53.2717 6.26557 53.6467 6.30381 53.9872 6.44608C54.3277 6.58836 54.6184 6.8283 54.8227 7.13563C55.027 7.44296 55.1356 7.80392 55.135 8.17295V20.5299C55.135 21.5559 54.295 22.3999 53.265 22.3999C52.7692 22.3994 52.2939 22.2022 51.9433 21.8517C51.5927 21.5011 51.3955 21.0257 51.395 20.5299V12.2899L47.863 15.9619L47.823 16.0019L47.813 16.0129C47.513 16.2999 47.142 16.4529 46.759 16.4809H46.522C46.126 16.4573 45.7519 16.291 45.469 16.0129L45.458 16.0019L45.418 15.9619L41.915 12.3239V20.5299C41.915 21.5559 41.075 22.3999 40.045 22.3999C39.5495 22.3984 39.0748 22.2008 38.7244 21.8505C38.3741 21.5001 38.1766 21.0254 38.175 20.5299V8.17094C38.1759 7.80132 38.2862 7.44024 38.492 7.13317C38.6977 6.8261 38.9897 6.58678 39.3312 6.44533C39.6727 6.30388 40.0484 6.26663 40.411 6.33827C40.7736 6.40992 41.107 6.58725 41.369 6.84795ZM150.055 6.30795C151.075 6.30795 151.908 7.14195 151.908 8.16095V11.5969H156.003C157.963 11.5969 159.473 12.0369 160.526 12.9099C161.574 13.7829 162.103 15.0779 162.103 16.7959C162.103 18.6209 161.523 20.0119 160.369 20.9699C159.208 21.9269 157.58 22.4059 155.479 22.4059H150.061C149.57 22.4046 149.099 22.209 148.752 21.8618C148.405 21.5145 148.209 21.044 148.208 20.5529V8.15494C148.208 7.91224 148.255 7.67183 148.348 7.44751C148.44 7.22319 148.576 7.01935 148.748 6.84769C148.92 6.67602 149.123 6.53989 149.348 6.4471C149.572 6.35431 149.812 6.30668 150.055 6.30695V6.30795ZM151.903 14.3579V19.6459H155.26C156.223 19.6459 156.983 19.4099 157.524 18.9309C158.07 18.4579 158.341 17.7649 158.341 16.8639C158.341 15.1909 157.316 14.3569 155.26 14.3569H151.903V14.3579ZM166.486 6.30795C167.505 6.30795 168.339 7.14195 168.339 8.16095V20.5589C168.339 21.5789 167.505 22.4119 166.486 22.4119C165.995 22.4106 165.524 22.215 165.177 21.8678C164.829 21.5206 164.634 21.0501 164.632 20.5589V8.15995C164.635 7.66914 164.831 7.19919 165.178 6.85223C165.525 6.50526 165.995 6.30931 166.486 6.30695V6.30795ZM138.903 6.30795H144.378C145.211 6.30795 145.898 6.98995 145.898 7.82795C145.897 8.23038 145.736 8.61597 145.451 8.90016C145.166 9.18435 144.78 9.34395 144.378 9.34395H140.745V20.5699C140.744 21.0581 140.55 21.5261 140.204 21.8713C139.859 22.2165 139.391 22.4109 138.903 22.4119C138.415 22.4109 137.947 22.2165 137.602 21.8713C137.256 21.5261 137.062 21.0581 137.061 20.5699V9.34295H133.45C133.049 9.34163 132.664 9.18159 132.38 8.89776C132.096 8.61392 131.936 8.22934 131.935 7.82795C131.935 6.99395 132.617 6.30795 133.45 6.30795H138.903ZM79.563 6.30795C80.057 6.30926 80.5305 6.50604 80.8799 6.85529C81.2294 7.20455 81.4264 7.6779 81.428 8.17195V12.6559H88.744V8.17094C88.7456 7.6769 88.9426 7.20355 89.292 6.85429C89.6415 6.50504 90.1149 6.30826 90.609 6.30695C91.1029 6.30853 91.5761 6.50542 91.9253 6.85465C92.2745 7.20387 92.4714 7.67707 92.473 8.17094V20.5459C92.4717 21.04 92.2749 21.5134 91.9256 21.8629C91.5764 22.2123 91.103 22.4094 90.609 22.4109C90.1148 22.4096 89.6412 22.2127 89.2917 21.8632C88.9422 21.5138 88.7453 21.0402 88.744 20.5459V15.8099H81.428V20.5469C81.4267 21.0412 81.2298 21.5148 80.8803 21.8642C80.5308 22.2137 80.0572 22.4106 79.563 22.4119C79.0689 22.4104 78.5956 22.2133 78.2463 21.8639C77.8971 21.5144 77.7003 21.041 77.699 20.5469V8.17094C77.699 7.14094 78.539 6.30695 79.563 6.30695V6.30795Z" fill="#00893D"/>
<path fill-rule="evenodd" clip-rule="evenodd" d="M16.868 28.4879C14.7617 28.8645 12.5978 28.7644 10.5353 28.1951C8.4727 27.6258 6.56388 26.6016 4.94901 25.1979C8.53692 26.4646 12.3868 26.8041 16.141 26.1849L16.446 26.1339C16.676 26.0939 16.902 26.0439 17.127 25.9939C22.912 24.6189 26.798 19.1889 26.269 13.2969C26.6866 17.0056 26.1777 20.7601 24.788 24.2239C22.6746 26.4591 19.8975 27.9543 16.868 28.4879Z" fill="url(#paint0_linear_219_117)"/>
<path fill-rule="evenodd" clip-rule="evenodd" d="M16.74 18.2649C16.677 18.1639 16.61 18.0679 16.548 17.9669C16.553 17.9669 16.553 17.9609 16.558 17.9609C16.643 18.1009 16.705 18.2089 16.739 18.2649H16.74Z" fill="#FFF8B4"/>
<path fill-rule="evenodd" clip-rule="evenodd" d="M14.034 6.8252C15.5939 11.9408 18.3555 16.6089 22.088 20.4392H18.866C15.4706 16.4852 12.9763 11.8397 11.556 6.8252H14.034Z" fill="#FFCC00"/>
<path fill-rule="evenodd" clip-rule="evenodd" d="M17.161 6.8252C15.7475 11.8382 13.2607 16.4839 9.87301 20.4402H6.65701C10.3763 16.6056 13.1259 11.9381 14.677 6.8262H17.161V6.8252Z" fill="#E5310E"/>
<path fill-rule="evenodd" clip-rule="evenodd" d="M22.36 17.4479C19.894 18.7527 17.1459 19.4336 14.356 19.4309C11.5658 19.4356 8.81726 18.7546 6.35199 17.4479V14.7109C8.74809 16.2211 11.5237 17.0201 14.356 17.0149C17.296 17.0149 20.04 16.1699 22.36 14.7109V17.4479Z" fill="#5CB136"/>
<path fill-rule="evenodd" clip-rule="evenodd" d="M4.065 4.34714C4.105 4.30714 4.145 4.26214 4.184 4.22314C4.144 4.26814 4.104 4.30814 4.065 4.34714ZM4.95 25.1991C2.46281 23.0492 0.79356 20.107 0.223999 16.8691C-0.171065 14.6588 -0.0409468 12.3865 0.603854 10.2356C1.24865 8.08477 2.39008 6.11564 3.936 4.48714L3.924 4.49814C2.5338 7.96008 2.02491 11.713 2.443 15.4201C2.477 15.7631 2.516 16.1071 2.578 16.4501C3.716 22.8551 9.748 27.1521 16.142 26.1841L16.446 26.1331C12.57 26.9671 8.74 26.5781 4.95 25.1981V25.1991Z" fill="url(#paint1_linear_219_117)"/>
<path fill-rule="evenodd" clip-rule="evenodd" d="M11.85 0.223876C13.9561 -0.152476 16.1198 -0.0523139 18.1822 0.517007C20.2445 1.08633 22.1532 2.11035 23.768 3.51388C20.18 2.24748 16.3302 1.90832 12.576 2.52788L12.272 2.57788C6.116 3.67088 1.897 9.29788 2.45 15.4149C2.0316 11.7078 2.54015 7.95489 3.93 4.49288C6.03966 2.25166 8.81818 0.753646 11.85 0.222876V0.223876Z" fill="url(#paint2_linear_219_117)"/>
<path fill-rule="evenodd" clip-rule="evenodd" d="M24.646 24.3651C24.606 24.4051 24.567 24.4501 24.528 24.4891C24.568 24.4441 24.607 24.4051 24.646 24.3651ZM23.762 3.51309C26.2491 5.66305 27.9184 8.60524 28.488 11.8431C28.8828 14.0533 28.7526 16.3254 28.1078 18.476C27.463 20.6267 26.3217 22.5957 24.776 24.2241L24.787 24.2141C26.1776 20.7523 26.6868 16.9993 26.269 13.2921C26.2403 12.9464 26.1949 12.6024 26.133 12.2611C24.996 5.85609 18.963 1.55909 12.57 2.52809L12.266 2.57809C16.146 1.73909 19.976 2.13309 23.762 3.51309Z" fill="url(#paint3_linear_219_117)"/>
<defs>
<linearGradient id="paint0_linear_219_117" x1="27.378" y1="19.9209" x2="4.70101" y2="23.7109" gradientUnits="userSpaceOnUse">
<stop stop-color="#FFE500"/>
<stop offset="1" stop-color="#F18500"/>
</linearGradient>
<linearGradient id="paint1_linear_219_117" x1="0.406999" y1="6.09114" x2="11.508" y2="28.5701" gradientUnits="userSpaceOnUse">
<stop stop-color="#FDC300"/>
<stop offset="1" stop-color="#D7030D"/>
</linearGradient>
<linearGradient id="paint2_linear_219_117" x1="1.28" y1="8.86088" x2="23.996" y2="4.82588" gradientUnits="userSpaceOnUse">
<stop stop-color="#FFED00"/>
<stop offset="1" stop-color="#9FC515"/>
</linearGradient>
<linearGradient id="paint3_linear_219_117" x1="19.34" y1="1.31909" x2="23.453" y2="24.6751" gradientUnits="userSpaceOnUse">
<stop stop-color="#32A934"/>
<stop offset="1" stop-color="#C7D300"/>
</linearGradient>
</defs>
</svg>
