<svg width="206" height="49" viewBox="0 0 206 49" fill="none" xmlns="http://www.w3.org/2000/svg">
<path fill-rule="evenodd" clip-rule="evenodd" d="M24 0.100098C10.8 0.100098 0 10.9001 0 24.1001C0 37.3001 10.8 48.1001 24 48.1001C37.2 48.1001 48 37.3001 48 24.1001C48.1 10.9001 37.3 0.100098 24 0.100098ZM24 5.1001C13.5 5.1001 5 13.6001 5 24.1001C5 34.6001 13.5 43.1001 24 43.1001C34.5 43.1001 43 34.6001 43 24.1001C43.1 13.7001 34.5 5.1001 24 5.1001Z" fill="#2AD1C5"/>
<path fill-rule="evenodd" clip-rule="evenodd" d="M24.9 10.7002L29.9 15.7002C28.4 16.7002 26.7 17.3002 24.9 17.5002V10.7002ZM25.1 31.7002V39.0002H23.1V31.7002C21.8 32.7002 20.3 33.3002 18.5 33.3002C17.6 33.3002 16.8 33.2002 16 32.9002C17.6 30.6002 20.2 29.0002 23.2 28.7002V31.6002L23.1 31.7002H24.8V28.7002C27.8 29.0002 30.4 30.5002 32 32.9002C31.2 33.2002 30.4 33.3002 29.5 33.3002C27.9 33.2002 26.3 32.7002 25.1 31.7002ZM31.1 17.0002L35 20.9002C35.4 21.4002 35.8 21.9002 36.1 22.5002H24.9V19.3002C27.2 19.1002 29.4 18.2002 31.1 17.0002ZM36.8 24.1002C36.9 24.7002 37 25.2002 37 25.8002C37 28.4002 35.7 30.7002 33.7 32.0002C31.8 29.1002 28.6 27.2002 25 26.9002V24.1002H36.8ZM14.5 32.1002C12.5 30.8002 11.1 28.5002 11.1 25.9002C11.1 25.3002 11.2 24.7002 11.3 24.2002H23.2V27.0002C19.6 27.2002 16.4 29.2002 14.5 32.1002ZM11.9 22.4002C12.4 21.5002 13 20.7002 13.8 20.1002L17 16.9002C18.8 18.2002 20.9 19.0002 23.2 19.2002V22.4002H11.9ZM18.2 15.7002L23.2 10.7002V17.5002C21.4 17.4002 19.6 16.7002 18.2 15.7002Z" fill="#2AD1C5"/>
<path fill-rule="evenodd" clip-rule="evenodd" d="M57.7 21.6H62.7V8H68.8V21.6H73.8V3.7H57.7V21.6ZM78 21.9C78.6 21.9 79.1 21.8 79.6 21.7C80.1 21.6 80.6 21.3 81 20.9C81.4 20.5 81.8 20 82.2 19.4C82.5 18.8 82.8 18 83.1 17C83.3 16 83.5 14.9 83.7 13.5C83.8 12.1 83.9 10.5 83.9 8.7V8H88.1V21.6H93.1V3.7H79.3V6.2C79.3 7.7 79.3 9.1 79.2 10.3C79.1 11.5 79.1 12.5 79 13.3C78.9 14.1 78.8 14.8 78.7 15.4C78.6 16 78.4 16.4 78.3 16.7C78.1 17 78 17.3 77.8 17.4C77.6 17.6 77.4 17.7 77.2 17.7C77 17.8 76.8 17.8 76.6 17.8C76.5 17.8 76.4 17.8 76.2 17.8C76.1 17.8 75.9 17.8 75.7 17.8C75.6 17.8 75.4 17.8 75.3 17.7L75 21.5C75.1 21.5 75.4 21.6 75.7 21.7C76 21.8 76.3 21.8 76.8 21.9C77.2 21.9 77.6 21.9 78 21.9ZM94.8 21.6H100L101.3 18.4H108.2L109.5 21.6H114.8L107.2 3.5H102.4L94.8 21.6ZM102.8 14.6L104.8 9.5L106.8 14.6H102.8ZM116.6 21.6H121.6V14.8H128V21.6H133V3.7H128V10.4H121.6V3.7H116.6V21.6ZM136.1 21.6H150.7V17.4H141.1V14.6H149.7V10.7H141.1V7.9H150.6V3.7H136.2V21.6H136.1ZM157.6 21.6H162.6V8H168V3.7H152.3V8H157.7V21.6H157.6ZM166.9 21.6H172.1L173.4 18.4H180.3L181.6 21.6H186.9L179.3 3.5H174.5L166.9 21.6ZM174.9 14.6L176.9 9.5L178.9 14.6H174.9ZM64.7 44.3C65.8 44.3 66.8 44.2 67.7 43.9C68.6 43.6 69.3 43.2 69.9 42.7C70.5 42.2 71 41.6 71.3 40.9C71.6 40.2 71.8 39.5 71.8 38.7C71.8 37.9 71.7 37.3 71.4 36.8C71.1 36.3 70.8 35.8 70.3 35.4C69.8 35 69.3 34.8 68.7 34.5C69.2 34.3 69.7 33.9 70.1 33.6C70.5 33.2 70.8 32.8 71 32.3C71.2 31.8 71.3 31.2 71.3 30.5C71.3 29.8 71.1 29.2 70.8 28.6C70.5 28 70 27.5 69.4 27.1C68.8 26.7 68.1 26.3 67.3 26.1C66.5 25.9 65.6 25.7 64.6 25.7C63.5 25.7 62.4 25.8 61.5 26.1C60.6 26.4 59.8 26.7 59 27.2C58.3 27.7 57.6 28.2 57 28.8L59.5 31.7C59.8 31.4 60.1 31.2 60.5 31C60.9 30.8 61.3 30.6 61.7 30.4C62.1 30.2 62.5 30.1 63 30C63.4 29.9 63.8 29.9 64.2 29.9C64.7 29.9 65.1 30 65.4 30.1C65.7 30.2 66 30.4 66.2 30.6C66.4 30.8 66.5 31.1 66.5 31.4C66.5 31.7 66.4 32 66.2 32.2C66 32.4 65.8 32.6 65.4 32.8C65 32.9 64.5 33 63.9 33H62.1V36.7H64C65 36.7 65.7 36.8 66.2 37.1C66.7 37.4 66.9 37.8 66.9 38.3C66.9 38.6 66.8 38.9 66.6 39.2C66.4 39.5 66.1 39.7 65.7 39.8C65.3 39.9 64.8 40 64.2 40C63.5 40 62.8 39.9 62.2 39.7C61.6 39.5 61 39.3 60.5 39C60 38.7 59.5 38.3 59.1 37.9L56.5 41.2C57 41.6 57.5 42.1 58.1 42.4C58.6 42.8 59.2 43.1 59.9 43.3C60.5 43.6 61.3 43.8 62.1 43.9C62.7 44.2 63.6 44.3 64.7 44.3ZM72.8 47.6H77.3L77.6 44H87.1V47.6H91.3L91.9 39.7H89.9V26H76.2V26.5C76.2 27.8 76.2 29.1 76.1 30.1C76 31.2 76 32.2 75.9 33.1C75.8 34 75.7 34.8 75.5 35.5C75.4 36.2 75.2 37 75 37.6C74.8 38.3 74.6 38.9 74.3 39.6H72.7V47.6H72.8ZM79.6 39.6C79.8 39 80 38.4 80.2 37.7C80.4 37.1 80.5 36.4 80.6 35.6C80.7 34.9 80.8 34.1 80.9 33.2C81 32.4 81 31.4 81 30.5V30.3H84.9V39.5H79.6V39.6ZM102.9 44.3C104 44.3 105.1 44.1 106 43.8C107 43.5 107.9 43 108.7 42.5C109.5 41.9 110.2 41.3 110.8 40.5C111.4 39.7 111.8 38.9 112.1 37.9C112.4 37 112.6 36 112.6 35C112.6 34 112.4 33 112.1 32C111.8 31.1 111.3 30.2 110.8 29.4C110.2 28.6 109.5 28 108.7 27.4C107.9 26.8 107 26.4 106 26.1C105 25.8 104 25.6 102.9 25.6C101.8 25.6 100.7 25.8 99.8 26.1C98.8 26.4 97.9 26.9 97.1 27.4C96.3 28 95.6 28.6 95 29.4C94.4 30.2 94 31 93.7 32C93.4 33 93.3 34 93.3 35C93.3 36 93.5 37 93.8 38C94.1 38.9 94.6 39.8 95.1 40.6C95.7 41.4 96.4 42 97.2 42.6C98 43.2 98.9 43.6 99.9 43.9C100.8 44.2 101.8 44.3 102.9 44.3ZM103 39.8C102.3 39.8 101.7 39.7 101.1 39.4C100.5 39.1 100.1 38.8 99.7 38.3C99.3 37.9 99 37.3 98.8 36.8C98.6 36.2 98.5 35.6 98.5 34.9C98.5 34.2 98.6 33.6 98.8 33C99 32.4 99.3 31.9 99.7 31.5C100.1 31.1 100.6 30.7 101.1 30.5C101.7 30.2 102.3 30.1 103 30.1C103.7 30.1 104.3 30.2 104.9 30.5C105.5 30.8 105.9 31.1 106.4 31.6C106.8 32 107.1 32.6 107.3 33.1C107.5 33.7 107.6 34.3 107.6 35C107.6 35.7 107.5 36.3 107.3 36.9C107.1 37.5 106.8 38 106.4 38.4C106 38.8 105.5 39.2 105 39.4C104.3 39.7 103.7 39.8 103 39.8ZM115.2 44H120.2V38.9H122.7C123.8 38.9 124.8 38.8 125.8 38.5C126.7 38.2 127.6 37.8 128.2 37.3C128.9 36.8 129.4 36.1 129.8 35.3C130.2 34.5 130.4 33.6 130.4 32.5C130.4 31.5 130.2 30.6 129.9 29.8C129.5 29 129 28.3 128.4 27.8C127.8 27.3 127 26.8 126 26.6C125.1 26.3 124.1 26.2 122.9 26.2H115.2V44ZM120.2 34.9V30.2H122.5C123.1 30.2 123.6 30.3 124 30.5C124.4 30.7 124.8 30.9 125 31.3C125.2 31.7 125.3 32.1 125.3 32.6C125.3 33.1 125.2 33.5 125 33.9C124.8 34.3 124.4 34.5 124 34.7C123.6 34.9 123.1 35 122.5 35H120.2V34.9ZM141.5 44.3C142.6 44.3 143.7 44.1 144.6 43.8C145.6 43.5 146.5 43 147.3 42.5C148.1 41.9 148.8 41.3 149.4 40.5C150 39.7 150.4 38.9 150.7 37.9C151 37 151.2 36 151.2 35C151.2 34 151 33 150.7 32C150.4 31.1 149.9 30.2 149.4 29.4C148.8 28.6 148.1 28 147.3 27.4C146.5 26.8 145.6 26.4 144.6 26.1C143.6 25.8 142.6 25.6 141.5 25.6C140.4 25.6 139.3 25.8 138.4 26.1C137.4 26.4 136.5 26.9 135.7 27.4C134.9 28 134.2 28.6 133.6 29.4C133 30.2 132.6 31 132.3 32C132 32.9 131.8 33.9 131.8 34.9C131.8 35.9 132 36.9 132.3 37.9C132.6 38.8 133.1 39.7 133.6 40.5C134.2 41.3 134.9 41.9 135.7 42.5C136.5 43.1 137.4 43.5 138.4 43.8C139.3 44.2 140.4 44.3 141.5 44.3ZM141.5 39.8C140.8 39.8 140.2 39.7 139.6 39.4C139 39.1 138.6 38.8 138.2 38.3C137.8 37.9 137.5 37.3 137.3 36.8C137.1 36.2 137 35.6 137 34.9C137 34.2 137.1 33.6 137.3 33C137.5 32.4 137.8 31.9 138.2 31.5C138.6 31.1 139.1 30.7 139.6 30.5C140.2 30.2 140.8 30.1 141.5 30.1C142.2 30.1 142.8 30.2 143.4 30.5C144 30.8 144.4 31.1 144.9 31.6C145.3 32 145.6 32.6 145.8 33.1C146 33.7 146.1 34.3 146.1 35C146.1 35.7 146 36.3 145.8 36.9C145.6 37.5 145.3 38 144.9 38.4C144.5 38.8 144 39.2 143.5 39.4C142.8 39.7 142.2 39.8 141.5 39.8ZM153.8 44H163.1C164.5 44 165.8 43.8 166.8 43.4C167.8 43 168.6 42.4 169.1 41.7C169.6 41 169.9 40.1 169.9 39.1C169.9 38.3 169.8 37.6 169.5 37C169.2 36.4 168.8 36 168.3 35.6C167.8 35.2 167.1 34.9 166.4 34.7C166.9 34.5 167.4 34.2 167.8 33.8C168.2 33.4 168.5 33 168.8 32.5C169 32 169.2 31.4 169.2 30.7C169.2 30.1 169.1 29.5 168.9 29C168.7 28.5 168.4 28.1 168.1 27.7C167.6 27.2 166.9 26.8 166.1 26.5C165.3 26.2 164.3 26.1 163.2 26.1H154V44H153.8ZM158.6 40V36.7H162.4C163.2 36.7 163.8 36.9 164.2 37.1C164.6 37.4 164.8 37.8 164.8 38.3C164.8 38.9 164.6 39.3 164.2 39.6C163.8 39.9 163.2 40 162.4 40H158.6ZM158.6 33.2V30H161.8C162.5 30 163.1 30.1 163.5 30.4C163.9 30.7 164.1 31 164.1 31.5C164.1 32.1 163.9 32.5 163.5 32.7C163.1 33 162.5 33.1 161.8 33.1H158.6V33.2ZM172.1 44H180C181.1 44 182.1 43.9 183 43.6C183.9 43.3 184.6 42.9 185.3 42.4C185.9 41.9 186.4 41.2 186.7 40.4C187 39.6 187.2 38.8 187.2 37.8C187.2 36.8 187 35.9 186.6 35.1C186.2 34.3 185.7 33.7 185 33.2C184.3 32.7 183.5 32.3 182.6 32.1C181.7 31.8 180.7 31.7 179.6 31.7H176.9V26H171.9V44H172.1ZM177.1 39.8V35.6H179.7C180.2 35.6 180.7 35.7 181.1 35.9C181.5 36.1 181.8 36.3 182 36.6C182.2 36.9 182.3 37.3 182.3 37.7C182.3 38.4 182.1 38.9 181.6 39.3C181.1 39.7 180.5 39.8 179.7 39.8H177.1ZM188.5 44H194.2L197.8 38.6H200V44H205V26H196.5C195.5 26 194.5 26.1 193.6 26.4C192.7 26.6 191.9 27 191.2 27.5C190.5 28 190 28.6 189.6 29.4C189.2 30.2 189 31.1 189 32.1C189 33 189.2 33.9 189.5 34.6C189.8 35.3 190.2 35.9 190.8 36.4C191.4 36.9 192 37.3 192.7 37.6L188.5 44ZM196.8 34.7C196.2 34.7 195.8 34.6 195.4 34.4C195 34.2 194.7 34 194.5 33.6C194.3 33.3 194.2 32.9 194.2 32.4C194.2 31.9 194.3 31.5 194.5 31.2C194.7 30.9 195 30.6 195.4 30.4C195.8 30.2 196.3 30.1 196.8 30.1H200.1V34.6H196.8V34.7Z" fill="#2AD1C5"/>
</svg>
