<svg width="112" height="112" viewBox="0 0 112 112" fill="none" xmlns="http://www.w3.org/2000/svg">
<path fill-rule="evenodd" clip-rule="evenodd" d="M16.8378 95.06C16.8378 96.0568 17.8178 96.614 19.0778 96.614C19.6423 96.6613 20.21 96.5774 20.7368 96.369C21.2635 96.1607 21.735 95.8334 22.1144 95.4128V94.0646C21.2746 93.593 20.3183 93.3692 19.3564 93.4192C18.0236 93.4136 16.8378 93.94 16.8378 95.06ZM90.1362 95.06C90.1362 96.0568 91.1162 96.614 92.3762 96.614C92.9407 96.6615 93.5085 96.5777 94.0353 96.3694C94.5621 96.161 95.0335 95.8336 95.4128 95.4128V94.0646C94.573 93.593 93.6167 93.3692 92.6548 93.4192C91.3234 93.4136 90.1362 93.94 90.1362 95.06ZM63.6328 88.5864C62.8583 88.528 62.0889 88.7529 61.4678 89.2193C60.8466 89.6856 60.416 90.3617 60.256 91.1218H66.64C66.6126 90.7563 66.5126 90.4 66.3459 90.0735C66.1793 89.7471 65.9492 89.4572 65.6693 89.2206C65.3894 88.9841 65.0651 88.8057 64.7154 88.6958C64.3658 88.586 63.9977 88.5469 63.6328 88.5808V88.5864ZM37.9666 71.8508C38.0177 71.3822 37.9671 70.9081 37.8184 70.4608C37.6696 70.0135 37.4261 69.6035 37.1046 69.2588C36.783 68.9141 36.3909 68.6429 35.955 68.4634C35.5191 68.284 35.0496 68.2007 34.5786 68.2192C34.0116 68.2321 33.4541 68.3669 32.9438 68.6145C32.4336 68.8621 31.9827 69.2167 31.6218 69.6542V74.9854C32.4232 75.5305 33.3811 75.798 34.349 75.747C34.851 75.7573 35.3495 75.6614 35.8118 75.4654C36.2741 75.2695 36.6897 74.9779 37.0314 74.61C37.373 74.242 37.6329 73.806 37.7941 73.3304C37.9553 72.8549 38.0141 72.3507 37.9666 71.8508ZM49.945 75.747C50.7027 75.8092 51.4616 75.6415 52.1225 75.2658C52.7834 74.89 53.3157 74.3237 53.6498 73.6408C53.9839 72.9579 54.1043 72.1901 53.9953 71.4377C53.8863 70.6853 53.5529 69.9832 53.0388 69.4232C52.5246 68.8632 51.8535 68.4712 51.1131 68.2985C50.3727 68.1258 49.5974 68.1804 48.8885 68.4551C48.1796 68.7298 47.57 69.2119 47.1394 69.8384C46.7087 70.4649 46.4769 71.2067 46.4744 71.967C46.4392 72.4464 46.5025 72.928 46.6605 73.382C46.8184 73.8361 47.0676 74.253 47.3927 74.6071C47.7178 74.9612 48.112 75.245 48.5509 75.4411C48.9899 75.6371 49.4643 75.7412 49.945 75.747ZM93.7006 42.427C89.1217 45.6086 83.9304 47.8018 78.4574 48.867C71.6468 50.2 64.6048 49.7064 58.0468 47.4362C56.0868 46.7068 54.5216 42.0154 54.1744 40.0162C54.0806 39.4828 54.2388 39.2154 54.684 39.2742C62.3137 40.4059 70.1024 39.7385 77.4284 37.3254C90.7046 32.872 94.3684 26.6336 96.5496 26.1464C98.175 25.7824 99.68 26.8464 100.124 29.029C101.006 33.355 99.2026 38.304 93.7006 42.4242V42.427ZM99.176 99.267H95.6858V97.7452C95.0744 98.338 94.345 98.7955 93.5452 99.0881C92.7454 99.3807 91.893 99.5017 91.0434 99.4434C88.1804 99.4434 86.121 97.9496 86.121 95.4016C86.121 92.5008 88.669 91.1232 91.8456 91.1232C93.085 91.1061 94.309 91.3982 95.4072 91.973C95.5122 89.7764 94.8136 88.5752 92.4742 88.5752C91.0537 88.5932 89.652 88.902 88.3554 89.4824L87.3432 87.0226C89.0813 86.2094 90.974 85.7797 92.8928 85.7626C97.5366 85.7626 99.176 87.7548 99.176 91.2408V99.267ZM80.8528 99.267L75.6378 92.6184L80.3838 86.0846H84.6328L79.5648 92.3538L85.2474 99.267H80.8528ZM75.5216 99.267H72.1518V86.0846H75.5216V99.267ZM60.9 50.9236C65.895 53.1839 71.3158 54.3491 76.7984 54.341C83.1079 54.3509 89.3261 52.833 94.9214 49.917C92.7117 52.3876 90.0047 54.3632 86.9779 55.7143C83.9512 57.0654 80.673 57.7615 77.3584 57.757C74.2997 57.7614 71.2704 57.1597 68.4456 55.9869C65.6207 54.814 63.0561 53.0931 60.9 50.9236ZM69.8208 93.7076H60.3008C60.4398 94.63 60.9277 95.4638 61.6636 96.0369C62.3996 96.61 63.3275 96.8787 64.2558 96.7876C65.5939 96.8062 66.9011 96.3841 67.9756 95.5864L68.943 97.9594C67.5025 99.0712 65.722 99.6509 63.903 99.6002C62.9885 99.6184 62.0795 99.455 61.2286 99.1194C60.3777 98.7839 59.6018 98.2828 58.9459 97.6453C58.29 97.0078 57.7671 96.2465 57.4075 95.4054C57.0479 94.5644 56.8587 93.6604 56.851 92.7458C56.8432 91.8311 57.017 90.924 57.3622 90.077C57.7075 89.23 58.2173 88.4599 58.8623 87.8113C59.5072 87.1627 60.2745 86.6486 61.1195 86.2986C61.9646 85.9486 62.8707 85.7697 63.7854 85.7724C64.7464 85.7857 65.6918 86.0176 66.5499 86.4506C67.408 86.8835 68.1562 87.5062 68.7378 88.2713C69.3195 89.0365 69.7193 89.924 69.9069 90.8666C70.0946 91.8093 70.0651 92.7822 69.8208 93.7118V93.7076ZM55.8124 89.2542H51.506V99.2726H48.1376V89.2542H43.7976V86.0902H55.8096V89.2542H55.8124ZM49.952 65.0482C51.3172 65.0595 52.6485 65.4747 53.7781 66.2415C54.9077 67.0083 55.785 68.0923 56.2994 69.3569C56.8139 70.6215 56.9425 72.0101 56.6691 73.3476C56.3956 74.6852 55.7323 75.9119 54.7627 76.8731C53.7932 77.8343 52.5608 78.4869 51.2209 78.7488C49.881 79.0106 48.4936 78.87 47.2335 78.3446C45.9734 77.8192 44.897 76.9325 44.1401 75.7963C43.3832 74.6601 42.9795 73.3252 42.98 71.96C42.9398 71.0371 43.0928 70.1159 43.4293 69.2556C43.7659 68.3952 44.2784 67.6147 44.9341 66.964C45.5899 66.3132 46.3743 65.8067 47.2372 65.4768C48.1001 65.1469 49.0224 65.0009 49.945 65.0482H49.952ZM41.5646 99.2726H38.1948V89.2542H31.696V99.2726H28.3262V86.0902H41.5646V99.2726ZM26.04 78.554H22.666V68.5356H17.0422V78.554H13.6724V65.3716H26.04V78.554ZM25.8818 99.274H22.3916V97.7522C21.7802 98.345 21.0508 98.8026 20.251 99.0951C19.4512 99.3877 18.5988 99.5087 17.7492 99.4504C14.8876 99.4504 12.8282 97.9566 12.8282 95.4086C12.8282 92.5078 15.3748 91.1302 18.5528 91.1302C19.7917 91.1133 21.0153 91.4054 22.113 91.98C22.218 89.7834 21.5194 88.5822 19.18 88.5822C17.7595 88.6002 16.3578 88.909 15.0612 89.4894L14.049 87.0296C15.7875 86.2161 17.6807 85.7864 19.6 85.7696C24.2424 85.7696 25.8818 87.7618 25.8818 91.2478V99.274ZM28.3234 65.373H31.1976L31.626 66.633C32.1541 66.1191 32.7787 65.7146 33.4636 65.4429C34.1486 65.1712 34.8806 65.0375 35.6174 65.0496C39.1762 65.0496 41.4736 67.8636 41.4736 71.7598C41.5288 72.6849 41.392 73.6114 41.0719 74.4811C40.7518 75.3508 40.2553 76.1449 39.6135 76.8135C38.9718 77.4821 38.1987 78.0107 37.3428 78.3661C36.4869 78.7215 35.5668 78.8961 34.6402 78.8788C33.5973 78.9197 32.5608 78.6977 31.626 78.2334V82.6672H28.3234V65.3716V65.373ZM54.019 31.3418C56.8824 28.3412 60.1256 25.7276 63.6664 23.5676C70.7597 19.2305 78.8668 16.8304 87.178 16.6068H87.346C87.6918 16.6068 88.046 16.5942 88.3876 16.5942C88.4811 16.5945 88.5746 16.5996 88.6676 16.6096C89.88 16.6222 90.6528 16.6096 91.7336 16.7006C92.7136 16.7846 93.7888 17.8472 92.106 20.6206C90.006 24.0702 77.3248 33.0708 54.6042 36.4826C53.8804 36.5918 53.4296 36.8046 53.354 35.9996C53.2574 34.9706 53.1426 32.459 54.0162 31.3516L54.019 31.3418ZM76.839 10.9424H77.287C78.885 10.9433 80.4792 11.0994 82.047 11.4086C72.035 12.9064 62.822 17.7409 55.9006 25.1286C57.6746 21.0125 60.5895 17.4901 64.3009 14.9773C68.0124 12.4646 72.3655 11.0664 76.846 10.948L76.839 10.9424ZM76.5282 2.76323e-08H0V112H112V35.4718C112 30.8135 111.083 26.2008 109.3 21.8971C107.518 17.5934 104.905 13.6829 101.611 10.389C98.3171 7.09514 94.4066 4.48232 90.1029 2.69976C85.7992 0.917196 81.1865 -0.000183836 76.5282 2.76323e-08V2.76323e-08Z" fill="#002882"/>
</svg>
