<svg width="203" height="58" viewBox="0 0 203 58" fill="none" xmlns="http://www.w3.org/2000/svg">
<path fill-rule="evenodd" clip-rule="evenodd" d="M0 0H203V58H0V0Z" fill="#008E62"/>
<path fill-rule="evenodd" clip-rule="evenodd" d="M193.01 8.26954C194.258 8.26954 195.271 9.317 195.271 10.6086C195.271 11.9002 194.258 12.9468 193.01 12.9468C191.76 12.9468 190.749 11.9002 190.749 10.6086C190.749 9.317 191.76 8.26954 193.01 8.26954ZM198.116 19.6358V6.78578H191.718C190.171 6.78578 188.455 6.83772 187.482 8.273C186.761 9.34644 186.708 11.0804 187.35 12.2066C187.642 12.7269 188.047 13.1459 188.563 13.4688C188.892 13.6722 189.343 13.8436 189.911 13.9778C188.928 14.3189 188.232 14.9447 187.766 15.9255L185.9 19.6375H190.24L192.29 15.7186C192.549 15.2114 192.78 14.8807 192.984 14.7275C193.26 14.5309 193.576 14.4331 193.926 14.4331H194.263V19.6375H198.116V19.6358ZM68.3483 14.524L71.7514 15.5862C71.5231 16.5722 71.1633 17.398 70.6701 18.0577C70.1984 18.7041 69.5679 19.2197 68.8388 19.5553C68.1104 19.8895 67.1843 20.06 66.0578 20.06C64.6899 20.06 63.5773 19.8548 62.7087 19.4454C61.8436 19.0342 61.0969 18.3113 60.467 17.2803C59.8397 16.2476 59.5243 14.9248 59.5243 13.3155C59.5243 11.1687 60.0767 9.51524 61.1814 8.3613C62.2888 7.20823 63.8535 6.62996 65.8774 6.62996C67.4596 6.62996 68.7037 6.95978 69.6107 7.62288C70.5142 8.28426 71.1894 9.30229 71.6276 10.6752L68.2071 11.4578C68.0878 11.0648 67.9623 10.7774 67.8308 10.5965C67.6243 10.3022 67.3509 10.0605 67.0327 9.89094C66.7069 9.72253 66.344 9.63744 65.9767 9.64336C65.0924 9.64336 64.4172 10.0095 63.9494 10.7384C63.5974 11.2795 63.4188 12.1322 63.4188 13.2913C63.4188 14.7309 63.6296 15.7143 64.053 16.2484C64.4765 16.7808 65.0698 17.0475 65.8365 17.0475C66.5788 17.0475 67.1399 16.8328 67.5197 16.4008C67.9005 15.9714 68.1749 15.3447 68.3474 14.5249L68.3483 14.524ZM101.668 22.6804H98.5639V19.8669H88.3808V6.94853H92.2326V16.6908H96.472V6.94939H100.326V16.889H101.668V22.6804ZM115.159 6.86715V19.7328H111.545V12.6689L106.923 19.7328H103.278V6.86715H106.908V13.9864L111.565 6.86715H115.159ZM124.526 14.7586L123.165 10.1273L121.801 14.7586H124.526ZM125.342 17.5487H120.981L120.353 19.6713H116.426L121.113 6.78491H125.328L129.995 19.6713H125.965L125.342 17.5487ZM142.932 19.77H139.058V9.97751H136.025V13.9709C136.025 15.6113 135.941 16.8172 135.774 17.5876C135.604 18.3581 135.21 18.9251 134.59 19.2843C133.971 19.6436 132.973 19.8254 131.59 19.8254C131.102 19.8187 130.615 19.7712 130.135 19.6834V17.0509H130.715C131.239 17.0509 131.61 16.9297 131.826 16.6908C132.043 16.4519 132.15 16.0138 132.15 15.375V6.78578H142.932V19.7709V19.77ZM158.957 6.62044H162.836V11.16H167.085V6.62044H170.982V19.622H167.085V14.3569H162.836V19.622H158.957V6.62044ZM180.296 14.7032L178.945 10.1039L177.589 14.7032H180.296ZM181.106 17.4734H176.775L176.153 19.5821H172.252L176.907 6.78491H181.091L185.728 19.5821H181.724L181.106 17.4742V17.4734ZM79.6762 10.3394C81.2296 10.3394 82.4903 11.6431 82.4903 13.2515C82.4903 14.8582 81.2296 16.161 79.6762 16.161C78.1219 16.161 76.8612 14.8582 76.8612 13.2515C76.8612 11.6431 78.1219 10.3394 79.6762 10.3394ZM79.6762 6.63082C75.7538 6.63082 73.2595 9.19321 73.2595 13.2515C73.2595 17.308 75.9394 19.8851 79.8609 19.8851C83.7824 19.8851 86.1147 17.1228 86.1147 13.0662C86.1147 9.00969 83.5985 6.63082 79.6753 6.63082H79.6762ZM151.008 13.274C152.29 13.274 153.329 14.3474 153.329 15.6736C153.329 16.9981 152.29 18.075 151.008 18.075C149.727 18.075 148.688 16.9998 148.688 15.6736C148.688 14.3474 149.727 13.274 151.008 13.274ZM149.303 19.725C152.132 19.725 157.2 20.1924 157.096 15.7489C156.991 11.3055 152.411 11.6569 149.303 11.6214V6.53906H145.368V19.725H149.303Z" fill="#FCCE00"/>
<path fill-rule="evenodd" clip-rule="evenodd" d="M190.776 42.0545L188.339 33.7995L185.892 42.0554H190.776V42.0545ZM192.237 47.0278H184.422L183.299 50.8134H176.258L184.66 27.8428H192.21L200.577 50.8134H193.354L192.237 47.0278ZM175.729 50.8134H167.96L165.247 44.8991C164.619 43.4932 164.13 42.6172 163.777 42.264C163.428 41.9108 162.939 41.7342 162.322 41.7342V50.8134H155.432V27.8428H162.322V36.6657C162.92 36.6328 163.387 36.4146 163.72 36.0078C164.058 35.6009 164.577 34.4305 165.289 32.5001C165.808 31.0735 166.328 30.0459 166.858 29.4261C167.384 28.8054 168.242 28.3613 169.426 28.0895C170.615 27.8159 172.475 27.6826 175.012 27.6826V32.5261H174.663C173.483 32.5261 172.61 32.7563 172.045 33.216C171.478 33.6765 171.01 34.4193 170.647 35.452C170.278 36.4839 169.887 37.2483 169.467 37.7556C169.046 38.2637 168.469 38.6706 167.742 38.9701C168.734 39.306 169.603 39.8843 170.341 40.7023C171.084 41.5256 171.868 42.8033 172.698 44.5364L175.729 50.8134ZM132.916 27.8428H151.374V32.7511H139.837V36.4095H150.532V41.0927H139.837V45.6159H151.717V50.8134H132.916V27.8428ZM108.842 27.8428H129.824V33.5216H122.778V50.8134H115.888V33.5216H108.842V27.8428ZM105.817 50.8134H98.9272V33.4895H91.3509V50.8134H84.4602V27.8428H105.817V50.8134ZM72.4518 42.0554L70.015 33.7986L67.5676 42.0554H72.4518ZM73.912 47.0278H66.097L64.9739 50.8134H57.9343L66.3357 27.8428H73.8859L82.2525 50.8134H75.0298L73.912 47.0278Z" fill="#CE0C36"/>
<path fill-rule="evenodd" clip-rule="evenodd" d="M1.36176 1.62549H54.2829V56.374H1.36176V1.62549Z" fill="#FEFEFE"/>
<path fill-rule="evenodd" clip-rule="evenodd" d="M49.7524 40.2425C47.6318 44.0342 44.8046 46.4373 41.7753 48.25C38.1074 50.4384 34.4412 47.6596 29.5526 47.6596C25.7226 47.6596 21.9641 49.5009 17.8196 48.1643C11.2608 46.0477 6.28167 37.9805 6.28167 30.6864C6.28167 23.3671 7.82029 17.5359 14.1316 13.7642C19.664 10.4556 27.2116 14.4507 27.2116 14.4507C27.2116 14.4507 21.8177 8.59529 14.4391 11.2339C6.07519 14.2239 2.85246 22.3967 2.85246 30.8534C2.85246 39.2444 8.82397 49.7424 17.1374 52.5896C23.1978 54.2335 23.1176 51.9732 29.4725 51.9732C35.8273 51.9732 37.3729 54.7365 41.6969 52.8008C47.3722 50.0004 50.5749 46.0572 52.7922 40.1836C52.2703 40.2165 50.5662 40.2425 49.7524 40.2425ZM31.1383 12.0649C31.2019 11.8121 31.5364 10.6651 31.0817 9.38478C30.6669 7.93219 29.2085 6.30905 27.7247 6.18959C27.7413 6.23634 28.3102 6.21989 29.3139 7.04314C30.2278 7.8309 31.5748 9.44625 31.1383 12.064V12.0649ZM30.6765 14.107C30.9179 13.4734 30.9937 12.7072 30.9545 12.4882C30.9545 12.4839 30.2078 12.0692 29.5517 11.3905C28.8548 10.6876 28.2466 9.72066 27.5444 8.0101C26.9302 6.63974 25.9892 6.0026 25.3175 5.71347C24.6222 5.4278 24.1936 5.4884 23.9862 5.54034C24.4593 5.35249 26.4867 4.69544 28.9366 5.58968C30.1067 6.02944 31.2803 6.86308 31.9032 8.10013C32.5192 9.31726 32.5793 10.9447 31.3709 12.5047C31.3796 12.5211 31.005 13.3703 30.7837 14.3408C30.74 14.2932 30.6928 14.2489 30.6425 14.2083C30.6547 14.178 30.6643 14.1425 30.6774 14.107H30.6765Z" fill="#008E62"/>
<path fill-rule="evenodd" clip-rule="evenodd" d="M38.3496 8.09597C35.5459 9.15469 33.6196 11.6141 33.7268 11.6037C37.8826 7.53761 41.4956 7.59561 43.4263 7.77654C45.4633 8.10463 45.8179 8.55131 45.9399 8.63788C44.6652 7.05543 41.0679 6.87624 38.3496 8.09597ZM43.7121 13.2813C37.7083 18.8476 33.3652 12.6442 33.2476 12.4849C32.8782 12.6148 31.7124 13.4978 31.0224 14.5409L30.585 14.4258C31.729 13.251 32.9087 11.3137 32.9287 11.3249C34.8088 6.23737 37.7606 4.89731 40.1879 4.56316C42.6797 4.30519 44.6469 5.05833 46.0653 5.90928C48.7113 7.60081 49.8971 9.94504 50.2752 11.0626C49.9877 10.5865 48.6895 9.1997 43.7121 13.2805V13.2813ZM31.9546 25.3471H38.2799V18.7654H43.7199V25.3479H50.0818V30.9731H43.7191V37.515H38.2799V30.9731H31.9538V25.3471H31.9546Z" fill="#008E62"/>
<path fill-rule="evenodd" clip-rule="evenodd" d="M32.0287 32.5277C32.0287 29.1784 31.4014 28.5837 29.8088 28.5837C29.1292 28.5837 28.6587 28.6634 28.1612 28.8252V35.3385C28.1891 35.9056 28.7885 36.3116 29.8619 36.3116C31.3491 36.3116 32.0287 35.4494 32.0287 32.5286V32.5277ZM24.1422 35.3126V28.8244C23.6708 28.6634 23.1768 28.5837 22.4981 28.5837C20.9038 28.5837 20.2765 29.1793 20.2765 32.5277C20.2765 35.4494 20.9822 36.3116 22.4459 36.3116C23.541 36.3116 24.1422 35.8744 24.1422 35.3126ZM24.1422 19.9937H28.1612V25.2916C28.6587 25.1513 29.1806 25.1271 29.8079 25.1271C34.2216 25.1262 35.8657 26.7736 35.8657 32.4247C35.8657 38.0117 33.8836 39.7137 30.7201 39.7137C29.5456 39.7137 28.7624 39.415 28.1612 39.0956V44.5242H24.1422V39.0947C23.5654 39.415 22.783 39.7128 21.5833 39.7128C18.4225 39.7128 16.4378 38.0126 16.4378 32.4238C16.4378 26.7736 18.0827 25.1262 22.4981 25.1262C23.1237 25.1262 23.6447 25.1522 24.1422 25.2916V19.9937Z" fill="#CE0C36"/>
</svg>
