<svg width="191" height="52" viewBox="0 0 191 52" fill="none" xmlns="http://www.w3.org/2000/svg">
<path fill-rule="evenodd" clip-rule="evenodd" d="M0.162659 26.0308C0.162659 11.6648 11.8487 0 26.3163 0C40.7851 0 52.6565 11.6032 52.6565 25.9692C52.6565 40.3352 40.9083 52 26.4407 52C19.5154 52 13.1474 49.2987 8.44762 44.8782L19.5154 35.0555C21.4323 36.5288 23.8432 37.3884 26.4407 37.3884C32.7465 37.3884 37.8792 32.2928 37.8792 26.0308C37.8792 19.7684 32.7465 14.673 26.4407 14.673C20.1336 14.673 15.0022 19.7684 15.0022 26.0308C15.0022 28.1794 15.5583 30.144 16.6095 31.863L5.47945 41.6861C2.14058 37.327 0.162659 31.9246 0.162659 26.0308ZM31.2039 32.5264C30.8891 32.168 30.9513 31.5704 31.3296 31.2718C33.0918 29.9575 34.0985 27.9265 34.0351 25.7759C34.0351 23.8644 33.2175 22.0124 31.7702 20.6985C31.3919 20.3398 31.3919 19.8021 31.7702 19.4438C32.1472 19.0856 32.7135 19.0856 33.0918 19.4438C34.9161 21.1164 35.9228 23.3864 35.9228 25.7759C35.9228 28.4641 34.7282 30.973 32.5255 32.6457C32.3999 32.7653 32.1472 32.825 31.9594 32.825C31.6445 32.825 31.3919 32.7653 31.2039 32.5264Z" fill="#2CB143"/>
<path fill-rule="evenodd" clip-rule="evenodd" d="M65.1627 39.814V12.0176H69.8527V24.3672H75.7053C76.1863 20.7139 77.7096 17.696 80.235 15.2738C82.7605 12.8912 85.6867 11.7 89.0539 11.7C92.5414 11.7 95.4677 13.0104 97.7526 15.5914C100.037 18.1725 101.2 21.4287 101.2 25.2804C101.2 29.4499 99.8772 32.9443 97.2716 35.8034C94.626 38.7021 91.4592 40.1316 87.7312 40.1316C84.3237 40.1316 81.4376 38.861 79.1527 36.3593C76.8678 33.8577 75.6652 30.7603 75.585 26.988H69.8527V39.814H65.1627ZM80.3958 24.8834C80.3958 28.2586 81.1975 31.1177 82.841 33.4605C84.4846 35.8034 86.4889 36.9946 88.894 36.9946C91.0987 36.9946 92.9026 36.0417 94.3057 34.1753C95.7086 32.309 96.3901 29.8867 96.3901 26.9482C96.3901 23.573 95.5483 20.6742 93.9047 18.3314C92.2613 15.9885 90.2169 14.837 87.8116 14.837C85.607 14.837 83.8431 15.79 82.4802 17.6563C81.0773 19.5226 80.3958 21.9449 80.3958 24.8834ZM122.847 20.7536H103.927V23.4935L111.142 23.295V39.814H115.632V23.295L122.847 23.4935V20.7536ZM129.782 31.0382C129.982 32.9443 130.704 34.3738 131.866 35.3268C133.029 36.3196 134.632 36.7961 136.596 36.7961C137.839 36.7961 139.001 36.6372 140.124 36.3196C141.206 36.0019 142.008 35.6842 142.529 35.3666L143.291 34.8504V37.3917C143.21 37.4712 143.09 37.5506 142.97 37.6697C142.81 37.7887 142.489 38.027 141.968 38.3448C141.447 38.6623 140.926 38.9404 140.364 39.1786C139.763 39.4169 139.042 39.6154 138.12 39.8537C137.198 40.0522 136.235 40.1316 135.273 40.1316C132.187 40.1316 129.702 39.258 127.857 37.4712C125.974 35.6842 125.052 33.4605 125.052 30.7205C125.052 27.8218 126.094 25.3598 128.138 23.3744C130.183 21.4286 132.668 20.4359 135.674 20.4359C138.4 20.4359 140.485 21.3095 141.928 23.0567C143.331 24.804 144.052 27.2261 144.052 30.3631L142.85 31.0382H129.782ZM135.072 23.3746C133.669 23.3746 132.467 23.8511 131.545 24.7644C130.623 25.6777 130.022 26.9484 129.821 28.5368H139.923C139.402 25.082 137.758 23.3746 135.072 23.3746ZM152.911 20.7536H148.863V39.814H153.352V31.5148L155.036 31.2369L161.73 39.814H166.781L158.484 29.0529L165.619 20.7536H161.971L155.237 28.6954L153.352 28.9734V21.7463L152.911 20.7536ZM185.42 26.6702V35.6445C185.42 36.5976 185.821 37.074 186.663 37.074C186.944 37.074 187.304 36.9946 187.665 36.8755C188.026 36.7564 188.347 36.677 188.547 36.5578L188.908 36.3593V38.7418C187.745 39.6552 186.262 40.1316 184.458 40.1316C182.494 40.1316 181.332 39.3374 181.011 37.7491C179.327 39.3374 177.243 40.1316 174.757 40.1316C172.914 40.1316 171.51 39.6552 170.588 38.7418C169.667 37.8285 169.186 36.7166 169.186 35.3666C169.186 34.5326 169.386 33.7781 169.747 33.1032C170.107 32.4281 170.589 31.8324 171.19 31.356C171.751 30.9192 172.433 30.4824 173.234 30.125C174.036 29.7676 174.798 29.4895 175.519 29.291C176.201 29.0925 176.962 28.9337 177.804 28.7748C178.646 28.6557 179.247 28.5365 179.688 28.4969C180.129 28.4572 180.53 28.4572 180.931 28.4174V27.5042C180.931 26.2732 180.53 25.3202 179.728 24.6054C178.886 23.9303 177.684 23.5729 176.08 23.5729C175.038 23.5729 174.036 23.7318 173.114 24.0097C172.152 24.3274 171.47 24.6451 171.029 24.9628L170.388 25.3996V22.9773C170.468 22.8979 170.588 22.8185 170.709 22.6993C170.829 22.5802 171.15 22.3817 171.671 22.1037C172.152 21.8257 172.673 21.5478 173.234 21.3095C173.795 21.111 174.517 20.9124 175.399 20.7139C176.281 20.5153 177.203 20.4359 178.165 20.4359C180.61 20.4359 182.414 20.9918 183.616 22.064C184.819 23.1361 185.42 24.6848 185.42 26.6702ZM173.715 34.5723C173.715 35.3267 173.996 35.9621 174.597 36.4386C175.198 36.9548 175.96 37.1931 176.962 37.1931C178.365 37.1931 179.688 36.6769 180.931 35.684V30.6411C180.369 30.6807 179.768 30.7205 179.167 30.8396C178.526 30.9587 177.764 31.1175 176.842 31.3558C175.92 31.6338 175.198 32.0309 174.597 32.5868C173.996 33.1427 173.715 33.8178 173.715 34.5723Z" fill="#212121"/>
</svg>
