<svg width="220" height="36" viewBox="0 0 220 36" fill="none" xmlns="http://www.w3.org/2000/svg">
<path d="M42.817 23.166C43.644 27.35 47.574 28.02 51.935 28.035C56.829 28.052 60.761 27.259 60.782 21.639C60.791 19.153 59.989 17.118 57.243 16.992V16.769C59.894 16.432 60.554 14.316 60.563 11.915C60.584 6.36899 55.503 6.06799 52.015 6.05099C47.244 6.03699 43.814 6.71099 43.084 10.821L51.436 10.859C54.371 10.865 54.769 11.27 54.766 12.956C54.757 14.423 54.228 14.888 51.423 14.875L49.428 14.868L49.414 18.862L51.409 18.868C54.429 18.879 55.021 19.444 55.018 20.907C55.008 23.183 53.76 23.209 51.393 23.2L42.817 23.166Z" fill="#5BD240"/>
<path d="M83.813 22.943L83.873 6.33004L67.231 6.26904L67.204 13.623C67.181 20.206 65.612 21.476 64.111 22.871L62.675 22.868L62.642 32.344L68.098 32.365L68.114 27.906L80.401 27.953L80.385 32.412L85.841 32.433L85.874 22.954L83.813 22.943ZM78.046 22.921L70.223 22.891C71.285 21.841 72.636 20.002 72.657 13.646L72.667 11.306L78.09 11.327L78.046 22.921Z" fill="#5BD240"/>
<path d="M97.252 6.21899C91.421 6.19899 87.271 7.43099 87.247 14.105L87.224 20.21C87.201 26.885 91.341 28.181 97.171 28.199C103.037 28.22 107.18 26.958 107.207 20.283L107.229 14.178C107.253 7.50399 103.115 6.24199 97.252 6.21899ZM101.282 19.645C101.272 22.855 100.215 23.19 97.185 23.179C94.196 23.169 93.142 22.821 93.152 19.611L93.165 14.752C93.182 11.536 94.239 11.231 97.235 11.241C100.258 11.252 101.312 11.569 101.305 14.779L101.282 19.645Z" fill="#5BD240"/>
<path d="M110.452 28.061L116.222 28.083L116.281 11.468L120.208 11.481C122.483 11.491 122.832 12.174 122.822 14.419C122.811 17.194 122.462 17.535 120.184 17.529L116.257 17.515L117.523 22.54L121.322 22.553C127.37 22.574 128.715 20.523 128.735 14.44C128.756 8.77003 126.748 6.48303 121.38 6.46703L110.53 6.42603L110.452 28.061Z" fill="#5BD240"/>
<path d="M140.929 6.3799C135.101 6.3589 130.951 7.5909 130.924 14.2659L130.904 20.3709C130.881 27.0439 135.021 28.3379 140.847 28.3599C146.704 28.3809 150.863 27.1159 150.887 20.4399L150.909 14.3359C150.935 7.6619 146.79 6.3989 140.929 6.3799ZM144.966 19.8019C144.956 23.0119 143.892 23.3499 140.868 23.3369C137.876 23.3289 136.811 22.9829 136.824 19.7749L136.842 14.9079C136.852 11.6939 137.919 11.3859 140.912 11.3999C143.935 11.4089 144.994 11.7239 144.981 14.9389L144.966 19.8019Z" fill="#5BD240"/>
<path d="M169.012 17.395V17.179C171.88 16.719 172.419 14.946 172.422 12.2C172.442 7.46101 169.922 6.64401 165.617 6.62301L154.239 6.58301L154.162 28.219L165.664 28.263C170.243 28.276 172.709 27.573 172.733 22.267C172.74 19.558 172.222 17.626 169.012 17.395ZM164.312 23.52L159.944 23.504L159.976 15.277L159.974 15.27H159.976L159.992 11.348L164.851 11.364C166.475 11.368 166.658 11.93 166.652 13.209C166.645 14.956 166.146 15.293 164.155 15.287L159.976 15.27V15.277L160.957 19.27L164.452 19.282C166.323 19.288 166.973 19.568 166.971 21.349C166.963 23.093 166.179 23.528 164.312 23.52Z" fill="#5BD240"/>
<path d="M185.998 34.8211L190.956 34.8371L191.02 17.5361L193.76 17.5501C195.852 17.5561 196.223 17.6171 196.208 20.7951C196.205 23.3531 196.049 24.0401 193.735 24.0341L190.991 24.0221L192.694 28.3601L195.406 28.3721C199.587 28.3841 201.146 26.5501 201.163 21.9411L201.176 18.8161C201.194 14.7971 199.112 13.2311 195.463 13.2201L186.078 13.1841L185.998 34.8211Z" fill="#5BD240"/>
<path d="M205.769 35.047C206.327 35.079 206.885 35.145 207.45 35.149C211.658 35.167 213.034 33.704 213.982 29.778L218.004 13.301L212.956 13.282L210.576 24.246C210.115 24.246 209.649 23.276 209.456 22.496L207.436 13.261L202.257 13.241L205.305 24.26C205.922 26.506 207.506 28.414 209.685 28.425C209.12 30.165 209.02 31.695 206.96 31.689C206.338 31.686 206.027 31.647 205.78 31.555L205.769 35.047Z" fill="#5BD240"/>
<path d="M176.036 29.238L182.004 29.2595L182.025 23.3045L176.057 23.283L176.036 29.238Z" fill="#ED1C24"/>
<path d="M26.71 2.47494C23.98 2.46394 21.496 3.49194 19.624 5.19194C17.762 3.48094 15.282 2.43094 12.557 2.42194C6.759 2.40194 2.04 7.08394 2.021 12.8839C1.995 19.7199 7.907 28.0439 19.51 34.2769C19.51 34.2769 19.519 34.2769 19.525 34.2769C31.171 28.1299 37.145 19.8449 37.171 13.0089C37.19 7.21194 32.504 2.49694 26.71 2.47494Z" fill="#ED1C24"/>
<path d="M18.988 29.686L8.812 19.435L11.741 16.819L17.707 21.073C22.147 15.695 27.224 11.585 32.821 8.15698C33.175 8.42698 33.877 9.53098 34.067 10.028C27.75 15.582 22.983 22.176 18.988 29.686Z" fill="white"/>
</svg>
