<svg width="262" height="38" fill="none" xmlns="http://www.w3.org/2000/svg"><g clip-path="url(#clip0_36_772)" fill="#fff"><path d="M22.592 34.545V38h-6.407v-3.455C5.732 33.855 0 29.018 0 20.727 0 12.437 5.732 7.6 16.185 6.91V3.8h6.407v3.11c10.453.69 16.017 5.527 16.017 13.818s-5.564 13.3-16.017 13.818zm-6.407-5.7V12.61c-6.238.69-9.273 3.282-9.273 8.118 0 4.837 3.204 7.427 9.273 8.118zm15.68-8.118c0-4.836-3.203-7.427-9.273-8.118v16.236c6.238-.69 9.273-3.281 9.273-8.118z"/><path d="M56.817 31.436H45.858l-2.023 5.182h-5.563l10.453-24.181h5.395l10.62 24.181h-5.73l-2.192-5.182zm-1.686-4.318l-3.709-9.327-3.709 9.327h7.418zm33.214-6.045c0 5.527-4.046 8.809-10.285 8.809h-4.72v6.736h-5.564V12.437H78.06c6.239 0 10.285 3.281 10.285 8.636zm-5.564 0c0-2.591-1.686-4.146-5.058-4.146H73.34v8.464h4.383c3.372 0 5.058-1.554 5.058-4.318zm9.104-8.636h5.396v15.718l11.296-15.719h5.226v24.182h-5.395V20.9L97.112 36.618h-5.227V12.437zm49.399 0v24.181h-5.563V26.6h-10.622v10.018h-5.564V12.437h5.564v9.5h10.622v-9.5h5.563zm22.424 4.49H152.58v19.691h-5.395V12.437h16.691l-.168 4.49zm14.836 14.509h-10.958l-2.024 5.182h-5.732l10.622-24.181h5.395L186.3 36.618h-5.732l-2.024-5.182zm-1.686-4.318l-3.709-9.327-3.877 9.327h7.586zm30.517 2.592c0 4.663-4.89 7.254-10.622 7.254a19.529 19.529 0 01-9.442-2.591l1.686-3.973a13.914 13.914 0 007.081 2.073c3.204 0 5.733-1.21 5.733-3.455s-1.686-2.764-4.047-2.764h-5.9V22.11h5.395c2.191 0 3.54-1.036 3.54-2.59 0-1.555-2.023-3.11-4.721-3.11a12.74 12.74 0 00-6.406 1.727l-1.686-4.318a17.351 17.351 0 018.092-1.9c5.564 0 10.285 2.418 10.285 6.91a5.972 5.972 0 01-.96 3.086 5.776 5.776 0 01-2.412 2.095 5.89 5.89 0 013.119 2.101 6.14 6.14 0 011.265 3.6zm2.528-5.183c0-7.255 5.564-12.609 12.982-12.609 7.419 0 12.982 5.355 12.982 12.609 0 7.255-5.563 12.436-12.982 12.436-7.418 0-12.982-5.354-12.982-12.436zm20.401 0a7.604 7.604 0 00-.466-2.99 7.465 7.465 0 00-1.592-2.55 7.237 7.237 0 00-2.454-1.688 7.095 7.095 0 00-2.907-.545 7.093 7.093 0 00-2.906.545 7.237 7.237 0 00-2.454 1.688 7.45 7.45 0 00-1.592 2.55 7.604 7.604 0 00-.466 2.99 7.584 7.584 0 00.518 2.936c.364.933.91 1.78 1.604 2.49a7.23 7.23 0 002.431 1.644 7.09 7.09 0 002.865.53 7.092 7.092 0 002.866-.53 7.228 7.228 0 002.431-1.643 7.444 7.444 0 001.604-2.49 7.584 7.584 0 00.518-2.937zm31.359-12.09v24.181h-5.395V26.6h-10.791v10.018h-5.395V12.437h5.395v9.5h10.791v-9.5h5.395z" stroke="#fff" stroke-width=".5" stroke-miterlimit="10"/><path d="M196.753 7.427h-5.058l-1.012 2.419h-1.348L193.55.173h1.348l4.215 9.673h-1.349l-1.011-2.419zm-.506-1.209l-2.023-4.663-2.023 4.663h4.046zm13.319 3.628V2.764l-3.372 5.873h-.674l-3.372-5.873v7.082h-1.349V.173h1.18l3.878 6.736 3.878-6.736h1.18v9.673h-1.349zm4.215-9.673h7.081v1.036h-5.732v2.764h2.866c2.361 0 3.541 1.036 3.541 2.936s-1.349 2.937-3.709 2.937h-4.047V.173zm4.047 8.464c1.517 0 2.36-.519 2.36-1.728s-.843-1.727-2.36-1.727h-2.698v3.455h2.698zm11.97-1.21h-5.058l-1.012 2.419h-1.348l4.215-9.673h1.348l4.215 9.673h-1.349l-1.011-2.419zm-.506-1.209l-2.023-4.663-2.023 4.663h4.046zm10.959.864c0 1.727-1.855 2.763-3.878 2.763a6.457 6.457 0 01-3.54-1.036l.505-1.036a4.312 4.312 0 002.867.863c1.517 0 2.697-.518 2.697-1.727 0-1.21-.843-1.555-2.192-1.555h-2.191V4.145h2.023c1.18 0 2.023-.518 2.023-1.382 0-.863-1.18-1.554-2.36-1.554a5.294 5.294 0 00-2.698.69L233.17.864A4.804 4.804 0 01236.205 0c2.023 0 3.709.863 3.709 2.59a2.28 2.28 0 01-.438 1.284 2.19 2.19 0 01-1.08.79c.535.12 1.013.426 1.351.868.339.44.517.989.504 1.55zm1.517-2.073a4.96 4.96 0 01.324-1.945 4.857 4.857 0 011.056-1.65 4.712 4.712 0 011.611-1.082A4.62 4.62 0 01246.658 0a4.617 4.617 0 011.951.277 4.7 4.7 0 011.67 1.07 4.844 4.844 0 011.1 1.674c.247.63.362 1.308.337 1.988a4.951 4.951 0 01-.389 1.934 4.833 4.833 0 01-1.111 1.614 4.706 4.706 0 01-1.648 1.024 4.616 4.616 0 01-1.91.264 4.624 4.624 0 01-1.859-.317 4.717 4.717 0 01-1.589-1.037 4.852 4.852 0 01-1.067-1.59 4.941 4.941 0 01-.375-1.892zm8.599 0a3.707 3.707 0 00-.233-1.483 3.645 3.645 0 00-.8-1.259 3.53 3.53 0 00-1.229-.82 3.463 3.463 0 00-1.447-.238c-.48 0-.954.099-1.395.292a3.539 3.539 0 00-1.17.83 3.632 3.632 0 00-.756 1.237 3.7 3.7 0 00-.22 1.441c0 .962.373 1.885 1.037 2.565a3.5 3.5 0 002.504 1.062 3.46 3.46 0 001.406-.225c.45-.171.86-.435 1.207-.774.347-.34.623-.747.811-1.199.189-.452.285-.938.285-1.429zM262 .173v9.673h-1.349V5.527h-5.395v4.319h-1.349V.173h1.349v4.145h5.395V.173H262z"/></g><defs><clipPath id="clip0_36_772"><path fill="#fff" d="M0 0h262v38H0z"/></clipPath></defs></svg>