<svg width="39" height="45" fill="none" xmlns="http://www.w3.org/2000/svg"><g clip-path="url(#clip0_164_654)" fill="#EB0038"><path d="M19.977 2.532c1.467 1.026 2.176 2.528 2.588 4.217.03.134.035.333-.04.417a18.345 18.345 0 00-2.459 3.523c-.76-.661-1.493-1.332-2.253-1.962-.645-.523-.652-.493-.399-1.299a16.5 16.5 0 012.367-4.77c.037-.055.087-.098.122-.144l.074.018zm16.635 10.522c-3.982 3.202-8.4 4.56-13.39 3.604.084-.047.17-.089.259-.126l2.314-.818c.396-.147.585-.503.48-.869-.105-.366-.442-.552-.83-.473l-.294.085-3.014 1.088a4.997 4.997 0 011.536-1.627c1.473-1.026 3.157-1.416 4.908-1.568 2.126-.186 4.235.019 6.334.387.556.09 1.107.203 1.697.317zm-6.578 1.36c.147-.563-.188-1.01-.653-.966a4.556 4.556 0 00-.927.174.67.67 0 00-.456.448.68.68 0 00.12.63c.378.464.851.194 1.295.138.444-.056.566-.2.621-.423zm-9.641.716c-.525-.596-1-1.147-1.484-1.686-.245-.273-.504-.527-.76-.787-.365-.36-.765-.387-1.065-.09-.3.297-.273.691.08 1.07l1.633 1.778c.06.07.115.145.165.223-1.377-.285-4.896-2.252-6.178-3.493-1.742-1.686-2.952-3.754-4.112-5.96.42.104.77.175 1.113.275a28.246 28.246 0 016.17 2.693c1.297.77 2.446 1.725 3.325 2.977.62.88 1.024 1.84 1.113 3zm-4.458-4.15c-.044-.105-.093-.354-.233-.515-.14-.161-.437-.384-.67-.545a.67.67 0 00-.92.113.689.689 0 00.069.956c.2.193.415.368.645.523.422.286.965.08 1.109-.532zm1.549 8.202a4.32 4.32 0 01.953-1.865c.151-.168.278-.208.513-.142 1.181.315 2.362.6 3.546.875.2.042.293.112.354.31.432 1.48-.144 3.305-1.356 4.253-1.442 1.121-3.197.625-3.867-1.097a3.829 3.829 0 01-.143-2.334zm6.808-.901c1.126.002 2.24-.008 3.356 0a.387.387 0 01.25.124c1.024.988 1.377 3.01.764 4.288-.75 1.552-2.446 1.892-3.873.766a4.945 4.945 0 01-.534-.527c-.404-.455-.624-.865-.276-1.545.438-.824.47-1.78.343-2.72-.02-.107-.031-.22-.043-.334a.133.133 0 01.013-.052zm-7.112-1.764c-.296.598-.635 1.178-.867 1.8-.173.478-.233 1.008-.297 1.522-.032.253-.11.415-.33.542-1.019.578-2.073.823-3.164.27-.958-.49-1.42-1.63-1.138-2.77.354-1.405 1.238-2.356 2.567-2.889a.407.407 0 01.342.006c.972.5 1.94 1.016 2.887 1.519zm4.443-2.726c-.206-.493-.435-1.024-.638-1.564a.48.48 0 01.05-.359c1.164-2.405 2.803-4.417 5.008-5.934.66-.454 1.493-.311 1.93.326a1.362 1.362 0 01.238 1.03 1.38 1.38 0 01-.565.896c-1.227.881-2.308 1.902-3.13 3.168-.305.474-.717.87-1.2 1.157-.604.356-1.13.842-1.693 1.28zm-4.548 9.516c1.182 1.264 2.568 1.606 4.204 1.03.248.614.24 1.245.142 1.868-.177 1.125-.73 2.039-1.689 2.687-.958.648-2.445.494-3.22-.55-1.04-1.395-.777-3.85.563-5.035zM14.05 35.498c1.18 1.27 2.58 1.616 4.223 1.043.227.632.222 1.255.13 1.88a4.006 4.006 0 01-.883 1.993c-.696.855-1.628 1.273-2.684 1.02-1.056-.253-1.709-1.062-1.912-2.139-.239-1.283.039-2.47.858-3.508.08-.099.171-.187.267-.29zm1.509-6.081c1.57 1.336 2.41 1.551 4.218 1.034.216.551.231 1.123.16 1.698-.16 1.217-.718 2.208-1.766 2.874-1.048.665-2.622.387-3.325-.821-.863-1.477-.547-3.61.713-4.785zM7.067 17.02a4.046 4.046 0 002.798 1.308c.1.546.21 1.054.283 1.578.019.084-.051.209-.117.287a6.583 6.583 0 00-1.158 2.123.624.624 0 01-.218.278c-.523.282-1.083.428-1.675.353-.888-.109-1.445-.641-1.703-1.495-.454-1.487.412-3.634 1.79-4.431zm22.889 6.293c1.615.462 1.76.474 3.152.13.5 1.08.614 2.198.269 3.345a4.144 4.144 0 01-.527 1.086c-.845 1.205-2.221 1.331-3.29.34-.415-.378-.626-.762-.527-1.385.1-.623-.02-1.277-.073-1.922-.016-.185-.016-.312.123-.467.304-.343.571-.728.873-1.127zm-7.159.041c1.21 1.626 2.709 2.525 4.863 2.006.018.4.057.78.033 1.162-.047.762-.225 1.484-.706 2.1-.934 1.183-2.31 1.278-3.368.21-.264-.262-.473-.59-.668-.907a1.67 1.67 0 01-.21-1.37 4.68 4.68 0 00-.146-2.698c-.083-.234-.06-.394.202-.503zm-6.484-1.586c-.055.16-.066.363-.178.47-.746.74-1.212 1.643-1.506 2.645-.054.192-.16.365-.304.502-.864.742-1.812 1.195-2.979.788a1.727 1.727 0 01-1.104-1.07c-.55-1.416-.113-2.65.723-3.85 1.641 1.464 3.405 1.354 5.348.515zm5.511 7.048c.673 1.043 1.508 1.81 2.713 2.092a.287.287 0 01.181.155c.382 1.24.063 3.262-1.394 4.031-.89.468-1.992.212-2.546-.62a.44.44 0 01-.018-.336c.646-1.381.783-2.793.314-4.251a.378.378 0 01.035-.3c.221-.261.46-.502.715-.771zm-7.31-1.789c.09.33.192.647.266.982a.38.38 0 01-.094.285c-1.101 1.07-1.644 2.382-1.722 3.902a.456.456 0 01-.254.333c-1.161.487-2.252-.004-2.717-1.193-.465-1.189-.028-2.834.886-3.651a.344.344 0 01.256-.087c1.185.3 2.268.031 3.304-.55.02-.02.042-.014.075-.021zm-1.843-12.998c-.046.028-.134.1-.226.157a5.417 5.417 0 00-2.083 2.448c-.107.242-.228.322-.486.29-1.913-.203-2.841-1.83-2.031-3.621.458-1 1.248-1.666 2.212-2.052l2.614 2.778zm16.812 4.104c.607-.174 1.216-.331 1.806-.533.59-.202 1.17-.462 1.758-.688 1.034 1.07 1.352 2.854.735 4.084-.616 1.23-1.981 1.627-3.301.985a.327.327 0 01-.155-.26 5.732 5.732 0 00-.835-3.523c-.011-.018-.004-.048-.008-.065zM8.612 24.226c.202 1.306.213 1.325 1.133 2.634a5.519 5.519 0 00-1.196 2.343c-.02.082-.137.171-.23.203-.937.306-1.908-.1-2.367-.995-.66-1.285-.157-3.008.797-3.957a.365.365 0 01.195-.094l1.668-.134zm17.532 6.636a3.99 3.99 0 002.19-1.773c.487.31.955.6 1.42.904a.41.41 0 01.144.209c.325 1.312.136 2.521-.81 3.535-.81.867-1.954.908-2.826.132a.552.552 0 01-.166-.373c.039-.44.147-.88.154-1.32.007-.44-.063-.853-.106-1.314zm-6.414 4.561c.869.918 1.805 1.37 2.95 1.297.474 1.342-.347 3.24-1.625 3.762a1.587 1.587 0 01-1.546-.137c-.17-.105-.214-.211-.128-.403.549-1.302.623-2.618.19-3.966-.04-.128.084-.31.16-.553zm-6.44-1.472c-.049.162-.054.374-.157.475a5.558 5.558 0 00-1.633 3.507c-.027.27-.117.35-.355.362-.604.04-1.078-.195-1.438-.67-.819-1.088-.632-2.827.219-3.896.044-.052.195-.094.243-.066.959.552 1.961.547 2.99.217l.13.071zm13.526 1.824c-.023 1.74-1.408 3.23-2.631 2.928a218.53 218.53 0 01-.11-2.278.355.355 0 01.099-.212c.422-.378.849-.746 1.285-1.12l1.357.682zM7.818 34.662c-1.244-.347-1.8-2.467-.949-3.82l1.502.03c.214.527.426 1.062.622 1.6a.301.301 0 01-.026.23c-.37.644-.747 1.285-1.149 1.96z"/></g><defs><clipPath id="clip0_164_654"><path fill="#fff" transform="rotate(13.872 4.67 41.55)" d="M0 0h29v39H0z"/></clipPath></defs></svg>