<svg width="43" height="38" fill="none" xmlns="http://www.w3.org/2000/svg"><g clip-path="url(#clip0_36_214)" fill="#fff"><path d="M22.593 22.727l-.91-.545a9.615 9.615 0 01-.183 2.363c0 1.091-.182 2.182-.182 3.091a20.86 20.86 0 00.182 3.455v.364h-.182c-.182-.728-.547-1.273-.729-2a19.969 19.969 0 01-.364-3.273c0-1.273.182-2.364.182-3.636V22h-.183l-1.457.727a2.555 2.555 0 01-2.55-.181 8.89 8.89 0 00-.183 2.181c-.039 1.429.21 2.85.729 4.182.48 1.534 1.153 3 2.004 4.364.696.876 1.49 1.669 2.369 2.363.728.364 1.093.364 1.457-.363l.911-2c.365-1.091.547-2.364.911-3.455.365-1.09.182-2.182.365-3.454.03-1.155-.031-2.31-.183-3.455h-2.004M15.123 20v-1.455l-2.915.728-2.916.545a17.532 17.532 0 01-4.373 0 .182.182 0 00-.182-.182l2.187-.363 3.826-.728 2.55-.909h1.458l-1.093-1.09a2.725 2.725 0 01-.729-1.637l-4.737.91-4.737 1.817-2.915 1.819c-.911.727-.911 1.09 0 1.636a10.21 10.21 0 003.097 1.636l4.009.91c1.39.182 2.8.182 4.19 0a14.418 14.418 0 004.009-.91 2.909 2.909 0 01-.911-2.545m26.419 1.454c0-.181-.364-.545-.546-.727a16.95 16.95 0 00-4.738-3.273l-3.462-1.454-4.19-1.455a2.907 2.907 0 01-.911 1.637l-1.094 1.09 5.102 2c1.033.525 2.138.892 3.28 1.091l2.186.546h-1.64a11.682 11.682 0 01-3.644-.546l-5.466-2.181v1.454a2.542 2.542 0 01-1.093 2.546h-.546c4.555 2.363 13.3 2 15.487.545 2.186-1.454.91-.545 1.093-1.09a.365.365 0 000-.546M22.047 3.09a1.634 1.634 0 01-1.64 1.637 1.642 1.642 0 01-1.64-1.636 1.635 1.635 0 011.64-1.636 1.641 1.641 0 011.64 1.636zm3.279 3.092a1.634 1.634 0 01-1.012 1.512A1.643 1.643 0 0122.078 6.5a1.634 1.634 0 011.608-1.956 1.641 1.641 0 011.64 1.637zM21.682 16a.908.908 0 01-.729.91.912.912 0 01-.91-.91.908.908 0 01.91-.727.73.73 0 01.73.727zm-2.004-9.455a1.634 1.634 0 01-1.012 1.512 1.643 1.643 0 01-2.236-1.192 1.632 1.632 0 01.697-1.68 1.642 1.642 0 012.551 1.36z"/><path d="M27.695 13.818a2.183 2.183 0 00-1.64-1.454h-1.64a1.278 1.278 0 01-1.093-.728l-.729-1.454a11.76 11.76 0 00-.729 2.364A3.645 3.645 0 0024.051 14l1.64.364c.182 0 .364 0 .364.181v.364L24.78 16a3.272 3.272 0 00-.911 2.91l.364 1.636a.182.182 0 01-.182.181c0 .182-.365.182-.547.182l-1.275-.727a2.372 2.372 0 00-1.458-.364 2.737 2.737 0 00-1.64.364l-1.275.727c-.182 0-.547 0-.547-.182a.182.182 0 01-.182-.181l.364-1.637a3.267 3.267 0 00-.91-2.909l-1.276-1.09v-.365c0-.181.182-.181.364-.181L17.31 14a3.649 3.649 0 002.369-1.636l.364-.728a21.287 21.287 0 00-.91-2l-.365.546-.729 1.454a1.273 1.273 0 01-1.093.728h-1.64a2.188 2.188 0 00-1.64 1.454A2.359 2.359 0 0014.212 16l1.093 1.09c.328.347.522.798.547 1.274L15.487 20c0 .545 0 1.273.547 1.636a2.005 2.005 0 002.55.546l1.458-.727a1.643 1.643 0 011.276 0l1.457.727 1.094.364a1.825 1.825 0 001.457-.91c.547-.363.547-1.09.547-1.636l-.364-1.636c.024-.476.218-.927.546-1.273L27.148 16a2.362 2.362 0 00.547-2.182z"/><path d="M18.585 8.364h-.547a1.825 1.825 0 01-1.74-1.249 1.813 1.813 0 01-.082-.751 1.815 1.815 0 011.275-1.819l-2.186-2.363a14.58 14.58 0 00-3.462-2.364.73.73 0 00-1.093.546 7.441 7.441 0 00-.729 3.454v2.364c.182.727.182 1.272.365 2 .22.994.524 1.967.91 2.909a10.722 10.722 0 001.823 3.09v-.726a3.092 3.092 0 012.186-1.819h1.64a13.635 13.635 0 01-2.369-3.272 9.983 9.983 0 01-1.093-4 33.27 33.27 0 004.373 6.363l.546-1.09.547-.728-.364-.545zM31.339 2a.726.726 0 00-.749-.645.73.73 0 00-.344.1 6.747 6.747 0 00-2.551 1.272l-2.915 2a1.637 1.637 0 01.729 1.455 1.815 1.815 0 01-1.08 1.846 1.825 1.825 0 01-.742.154h-.365l-.546 1.09.364.364.546 1.091 1.458-1.454a28.371 28.371 0 002.915-3.637.182.182 0 01.183-.182 12.723 12.723 0 01-3.827 6.182h1.64a2.737 2.737 0 012.187 1.819c0 .181.182.363.182.545.906-1.294 1.64-2.7 2.186-4.182a22.142 22.142 0 001.093-4.727 9.98 9.98 0 00-.364-3.273"/><path d="M20.771 16.182a.365.365 0 01-.364-.364 10.525 10.525 0 00-2.551-9.09c-.182 0-.182-.183-.182-.364a.365.365 0 01.546 0 10.905 10.905 0 012.916 9.454c-.183.182-.183.364-.365.364z"/><path d="M20.953 16.182a.545.545 0 01-.182-.364A15.792 15.792 0 0123.322 6h.547v.364a14.704 14.704 0 00-2.551 9.454.363.363 0 01-.365.364z"/><path d="M20.953 15.454a.365.365 0 01-.364-.363c.547-2.364-.364-11.091-.364-11.273 0-.182 0-.182.182-.182s.364 0 .364.182.911 8.91.365 11.455a.182.182 0 01-.183.181zm10.022-1.09L30.064 14a1.089 1.089 0 01.364-1.273l8.2-4.545a4.371 4.371 0 002.368-2.727 4.9 4.9 0 00-.365-3.637c-.364-.363-.182-.909.365-1.272a.913.913 0 011.093.363A6.355 6.355 0 0142.636 6a5.996 5.996 0 01-3.098 3.818l-8.199 4.546h-.364zM3.28 38c-.365 0-.547-.182-.73-.545a5.81 5.81 0 01-.546-4.91 6.548 6.548 0 013.098-3.818l8.199-4.545a.94.94 0 011.275.364.934.934 0 01-.364 1.272l-8.2 4.364a5.275 5.275 0 00-2.368 2.909 3.992 3.992 0 00.547 3.454 1.089 1.089 0 01-.365 1.273H3.28"/></g><defs><clipPath id="clip0_36_214"><path fill="#fff" d="M0 0h43v38H0z"/></clipPath></defs></svg>