<svg width="234" height="49" fill="none" xmlns="http://www.w3.org/2000/svg"><path d="M228.339 6.125H5.661A5.658 5.658 0 000 11.779v26.384a5.658 5.658 0 005.661 5.654H228.34a5.658 5.658 0 005.66-5.654V11.78a5.658 5.658 0 00-5.661-5.654z" fill="#EC1D24"/><path fill-rule="evenodd" clip-rule="evenodd" d="M21.24 14.606l6.017 16.261c.044.1.09.245.166.44.07.184.157.404.263.635.102.236.22.47.361.701.132.231.29.44.46.62.172.189.344.32.513.411.165.09.349.142.554.17.2.023.44.027.71.011v1.482h-7.71v-1.482h.978c.094.012.189 0 .283-.024.094-.023.156-.117.192-.27a.176.176 0 00.01-.102.693.693 0 01-.01-.106 5.793 5.793 0 00-.177-.56l-.185-.517c-2.488-3.957-7.207-3.65-8.039-3.548l-.219.45H15.4l-1.127 3.168c-.032.086-.07.2-.119.337a8.457 8.457 0 00-.128.415c-.04.138-.07.239-.08.313a.246.246 0 00-.018.107c0 .04.004.07.019.102.032.07.094.117.176.153.09.035.185.058.287.07.103.008.193.012.28.012h.737v1.482h-5.99v-1.482c.45-.02.813-.063 1.087-.125.278-.068.494-.15.66-.25.16-.111.302-.236.409-.381a7.364 7.364 0 00.627-1.054c.058-.127.098-.237.13-.327.031-.094.07-.195.113-.32l4.298-11.359 1.637-4.233c.318-.838.142-.34.44-1.2h2.402zm108.819 0l6.02 16.261c.038.1.088.245.164.44.066.184.156.404.259.635.106.236.223.47.361.701.134.231.294.44.459.62.173.189.346.32.514.411.17.09.353.142.553.17.206.023.441.027.716.011v1.482h-7.714v-1.482h.981c.095.012.189 0 .282-.024.091-.023.158-.117.193-.27a.216.216 0 00.008-.102c-.003-.044-.008-.075-.008-.106 0-.008-.011-.055-.035-.137a7.97 7.97 0 00-.145-.424l-.181-.516c-2.489-3.957-7.211-3.65-8.043-3.548l-.216.45h-.013l-1.125 3.168c-.029.086-.068.2-.118.337-.044.138-.087.273-.129.415-.04.138-.068.239-.08.313a.3.3 0 000 .21c.036.07.095.116.18.152.087.035.182.058.287.07.102.008.193.012.275.012h.742v1.482h-5.991v-1.482a6.38 6.38 0 001.088-.125c.279-.068.494-.15.66-.25.161-.111.298-.236.408-.381a6.8 6.8 0 00.628-1.054c.059-.127.098-.237.13-.327.027-.094.066-.195.113-.32l4.299-11.359 1.632-4.233c.324-.838.146-.34.444-1.2h2.403-.001zm-25.547.016v1.51h-.635c-.441 0-.782.05-1.017.152-.24.098-.404.228-.498.38-.099.16-.146.33-.161.51a3.93 3.93 0 00-.017.528v6.403h.334l5.591-6.068c.239-.264.42-.479.545-.65.122-.174.204-.319.244-.433a.816.816 0 00.058-.31c-.004-.16-.043-.273-.133-.344a.624.624 0 00-.334-.141 2.86 2.86 0 00-.44-.029h-.334v-1.508h6.385v1.51c-.532.043-1.01.14-1.435.308a4.743 4.743 0 00-1.189.663 8.037 8.037 0 00-1.067.992l-3.023 3.32 4.444 7.944.589 1.045c.227.389.467.782.729 1.177.264.4.542.773.829 1.11.283.337.574.607.872.815.298.212.588.318.883.322h.632v1.508h-9.163V33.83h.397a1.34 1.34 0 00.337-.033.567.567 0 00.311-.16c.086-.087.133-.228.137-.412-.004-.118-.051-.278-.133-.479a6.43 6.43 0 00-.271-.59c-.102-.194-.177-.338-.232-.44l-3.718-6.646-1.845 2.024v5.167c-.007.172.004.357.032.537.024.18.09.352.188.509.106.153.275.278.507.377.231.094.554.145.966.145h.635v1.508h-9.497V33.83h.605c.404 0 .727-.04.958-.123.24-.079.408-.192.519-.337.106-.141.175-.305.207-.498a3.06 3.06 0 00.04-.611V17.485a3.04 3.04 0 00-.04-.397 1.11 1.11 0 00-.207-.498c-.11-.146-.28-.254-.52-.337-.231-.078-.553-.123-.957-.123h-.605v-1.508h9.497zm-13.217 0l.031 5.037h-.969c-.058-.145-.118-1.572-.577-2.078-.55-.6-.833-.604-1.374-.82-.538-.21-1.178-.32-1.92-.328h-2.205c-.413-.004-.747.032-.999.113a.881.881 0 00-.552.463c-.118.223-.173.556-.173.996v5.316h2.057c.726 0 1.319-.024 1.778-.063.459-.04.817-.102 1.072-.175.255-.08.444-.177.56-.292a.899.899 0 00.248-.399 5.53 5.53 0 00.122-.49c.012-.103.028-.192.043-.279a4.6 4.6 0 00.047-.297h.966v5.767h-.966a4.403 4.403 0 00-.047-.295 4.646 4.646 0 01-.043-.279 2.01 2.01 0 00-.141-.473 1.193 1.193 0 00-.365-.447c-.177-.142-.428-.252-.762-.338-.338-.086-.78-.13-1.334-.13h-3.235v6.823c-.004.384.043.686.149.916.106.232.283.4.538.507.25.097.596.15 1.037.15h2.57c.33.01.719-.013 1.163-.06.451-.047.942-.141 1.432-.372 1.044-.494 1.767-2.592 1.908-2.862h1l-.062 5.104H75.39v-1.508h.636c.443-.005.78-.057 1.02-.151.235-.1.4-.226.5-.383a1.14 1.14 0 00.16-.514c.015-.18.019-.353.015-.521V17.672a3.569 3.569 0 00-.031-.557 1.146 1.146 0 00-.192-.494c-.106-.152-.271-.267-.502-.353-.233-.09-.557-.137-.97-.137h-.636v-1.51h15.907-.001zm-18.254 0l.196 4.47h-.966c-.585-1.346-.434-1.31-1.416-2.181-.236-.208-.764-.31-1.107-.38a4.181 4.181 0 00-.908-.098 6.4 6.4 0 00-.545.011 1.231 1.231 0 00-.463.115.706.706 0 00-.321.36c-.083.169-.123.412-.123.722V32.26c-.004.168 0 .341.016.52.015.19.063.353.16.514.095.158.265.283.5.385.236.094.581.145 1.017.149h.635v1.508H60.22V33.83h.605c.404 0 .726-.04.958-.123.24-.079.408-.192.521-.337.107-.141.178-.305.205-.498.031-.184.047-.392.04-.611V17.64c0-.311-.04-.553-.12-.722a.721.721 0 00-.316-.36 1.206 1.206 0 00-.456-.115c-.169-.011-.345-.015-.53-.011a4.726 4.726 0 00-1.016.098c-.338.07-.883.207-1.045.38-.943 1.028-.68.697-1.165 2.18h-.967l-.008-4.47H73.04l.001.002zm-18.818 0v1.51h-.578c-.4-.005-.73.043-.982.133a.972.972 0 00-.565.48c-.113.23-.176.55-.176.958V32.26c0 .407.063.73.176.952a.97.97 0 00.566.487c.251.09.58.132.981.129h.578v1.508h-9.465V33.83h.604c.432.002.77-.04 1.021-.13a.9.9 0 00.546-.487c.105-.223.16-.545.157-.952V18.005c0-.44-.056-.773-.173-.995a.88.88 0 00-.554-.463c-.252-.082-.585-.118-.997-.113h-3.934c-.411-.005-.745.03-.996.113a.882.882 0 00-.554.462c-.118.223-.172.556-.172.996V32.26c-.004.407.05.73.156.952a.92.92 0 00.545.487c.252.09.594.132 1.021.129h.606v1.508h-9.493V33.83h.636c.44-.005.781-.057 1.017-.151.236-.1.404-.226.498-.383.095-.16.15-.326.16-.514.018-.18.022-.353.018-.521v-14.3a.734.734 0 00-.016-.147c-.005-.012-.005-.035-.012-.075-.004-.039-.004-.125-.004-.247 0-.14-.015-.285-.04-.443a.987.987 0 00-.18-.443c-.103-.136-.267-.251-.498-.337-.229-.09-.557-.137-.974-.137h-.573v-1.51h21.65zm-35.088 5.407h-.357l-2.35 6.424c1.286-.027 3.524.145 5.613 1.42l-.53-1.349-2.376-6.495zm108.817 0h-.353l-2.356 6.424c1.292-.027 3.529.145 5.618 1.42l-.531-1.349-2.377-6.495h-.001zM189.927 4.42c2.859-1.902 6.221-2.993 9.63-3.353 6.746-.715 14.695 1.442 18.764 7.211 1.653 2.347 2.467 5.044 2.467 7.91 0 2.64-.495 5.192-1.514 7.628-2.165 5.167-6.39 9.172-10.785 12.487-5.055 3.819-10.68 7.053-16.062 10.396l-.02.017-.02.011c-3.873 2.285-7.099 2.421-10.978.094l-.017-.008-.016-.011c-5.411-3.364-11.065-6.615-16.156-10.445-4.416-3.328-8.677-7.35-10.851-12.542a19.576 19.576 0 01-1.514-7.626c0-2.866.814-5.563 2.468-7.91 4.068-5.77 12.017-7.927 18.764-7.212 3.593.38 7.117 1.573 10.06 3.646 2.517 1.672 2.759 1.734 5.78-.294z" fill="#fff"/><path fill-rule="evenodd" clip-rule="evenodd" d="M188.542 8.267c9.41-9.603 30.361-5.579 30.361 7.996 0 13.084-13.332 20.094-27.542 28.92-3.342 1.974-5.767 1.99-8.912.103-14.271-8.876-27.707-15.889-27.707-29.023 0-13.575 20.952-17.6 30.361-7.997 1.108 1.056 1.866 1.517 3.439 0v.001z" fill="#EC1D24"/><path fill-rule="evenodd" clip-rule="evenodd" d="M218.573 36.844c-.474 1.144-1.664 1.453-2.736.962-8.825-3.87-19.73-5.308-29.3-5.308-9.49 0-20.222 1.406-28.997 5.177l-.025.009-.025.01c-1.426.551-2.59.07-3.189-1.307l-5.89-13.374c-.719-1.416.055-3.05 1.462-3.68 11.325-5.156 24.267-7.416 36.664-7.416 12.69 0 26.004 2.374 37.525 7.814 1.047.493 1.349 1.584.901 2.603l-6.39 14.51z" fill="#EC1D24"/><path fill-rule="evenodd" clip-rule="evenodd" d="M186.537 13.289c13.93 0 26.75 2.87 36.941 7.684.375.18.363.498.229.807l-6.402 14.53c-.164.417-.53.42-.902.245-7.637-3.352-18.199-5.43-29.866-5.43-11.5 0-21.931 2.02-29.54 5.287-.86.334-1.19-.004-1.435-.574l-5.909-13.415c-.351-.65 0-1.487.787-1.841 10.052-4.577 22.55-7.293 36.097-7.293z" fill="#fff"/><path fill-rule="evenodd" clip-rule="evenodd" d="M165.528 28.06c-.004-.02-.045-.11-.11-.27-.07-.162-.164-.378-.277-.647a77.488 77.488 0 01-.4-.917c-.151-.342-.314-.7-.481-1.083l-.518-1.147-.505-1.11c-.167-.354-.323-.674-.463-.964a.873.873 0 00-.288-.35.811.811 0 00-.364-.138 1.532 1.532 0 00-.383.007 3.045 3.045 0 00-.342.082c-.064.016-.147.04-.24.074a1.507 1.507 0 00-.286.13 1.103 1.103 0 00-.273.203.687.687 0 00-.147.245 1.43 1.43 0 00-.077.273 4.18 4.18 0 00-.025.215c0 .126-.004.27-.004.42-.004.16-.004.317-.009.484v.485c.005.134.01.29.013.469.008.175.008.358.004.554-.004.19-.021.378-.049.562a1.868 1.868 0 01-.143.489.342.342 0 01-.041.068.387.387 0 01-.069.09.255.255 0 01-.106.061.312.312 0 01-.122.004.374.374 0 01-.113-.038c-.033-.015-.058-.023-.071-.036a1.854 1.854 0 01-.383-.337 5.811 5.811 0 01-.343-.452 12.915 12.915 0 01-.292-.473c-.094-.15-.172-.285-.245-.399-.078-.135-.164-.273-.25-.415l-.26-.404c-.086-.13-.163-.248-.236-.354a1.71 1.71 0 00-.131-.17 1.369 1.369 0 00-.205-.192.687.687 0 00-.252-.13 1.068 1.068 0 00-.338-.03 2.059 2.059 0 00-.554.107 2.456 2.456 0 00-.34.113 1.388 1.388 0 00-.33.201.769.769 0 00-.236.305c-.057.123-.074.273-.057.447.036.322.077.677.126 1.064.049.386.103.79.159 1.209.053.42.111.836.171 1.25.057.408.115.803.167 1.169.053.371.102.7.147.99a26.297 26.297 0 00.156.981c.047.175.113.319.195.428a.52.52 0 00.334.204c.143.028.33.012.563-.053.224-.066.396-.147.506-.245a.697.697 0 00.229-.374c.036-.147.044-.33.032-.542-.013-.212-.036-.46-.074-.75l-.069-.59c-.024-.18-.04-.358-.054-.53a5.16 5.16 0 010-.527.423.423 0 01.05-.17.593.593 0 01.098-.125.27.27 0 01.098-.07.427.427 0 01.334.058c.106.07.217.17.326.31.111.133.22.292.33.471.114.183.225.372.343.568.118.194.241.386.375.573.135.183.273.35.42.493.142.139.294.244.449.31a.707.707 0 00.465.036.678.678 0 00.371-.278c.094-.137.163-.301.207-.5.049-.195.078-.407.095-.634.012-.23.017-.462.012-.69-.004-.226-.009-.443-.009-.655a4.359 4.359 0 01.026-.578c.019-.175.056-.318.113-.436a.425.425 0 01.258-.224.247.247 0 01.122.004.677.677 0 01.142.057c.054.033.09.069.122.118.107.147.201.298.286.448.082.151.164.31.246.473.076.166.162.35.252.541.122.26.236.485.334.677.102.183.208.334.318.44a.707.707 0 00.386.194c.152.026.34.005.564-.06.228-.066.396-.147.502-.249a.567.567 0 00.179-.354 1.225 1.225 0 00-.061-.465zm8.303-2.02c-.111-.213-.232-.435-.36-.672a46.9 46.9 0 00-.391-.701 41.877 41.877 0 00-.359-.635c-.11-.196-.204-.355-.277-.485-.073-.126-.118-.203-.135-.236-.076-.146-.171-.318-.277-.518-.11-.194-.224-.399-.343-.615a62.96 62.96 0 00-.351-.639c-.118-.203-.219-.395-.312-.561-.095-.167-.167-.302-.225-.405a1.752 1.752 0 01-.086-.153.848.848 0 00-.342-.347 1.219 1.219 0 00-.445-.126 2.455 2.455 0 00-.465.01 8.834 8.834 0 00-.412.059c-.126.017-.264.041-.412.066-.147.024-.281.06-.407.105a.71.71 0 00-.286.18 1.778 1.778 0 00-.217.318 1.913 1.913 0 00-.145.354 4.303 4.303 0 00-.111.472c-.037.184-.073.403-.118.656-.045.256-.098.558-.163.908l-.323 1.812-.126.664c-.044.24-.085.477-.135.72-.041.24-.085.473-.125.697a18.54 18.54 0 00-.106.607c-.034.179-.058.326-.075.44a.826.826 0 00-.019.2c.024.15.077.264.158.338a.525.525 0 00.278.139c.11.018.216.023.331.014a4.58 4.58 0 00.302-.04c.235-.04.422-.09.561-.154a.966.966 0 00.314-.22.994.994 0 00.155-.265c.034-.094.061-.192.09-.29.033-.1.074-.199.131-.297a.96.96 0 01.256-.28c.115-.09.274-.171.482-.246a4.77 4.77 0 01.799-.19c.31-.05.571-.07.788-.057.207.004.383.036.521.085.134.05.249.11.338.188.086.072.163.154.233.235.061.085.127.168.196.245.069.078.15.146.249.204a.952.952 0 00.362.11c.151.02.339.011.567-.025.077-.008.167-.029.274-.05.901-.202.472-1.02.162-1.62h.001zm-3.287-1.817c.024.18.008.335-.053.452a.676.676 0 01-.264.277.944.944 0 01-.348.127c-.135.02-.265.02-.396 0a.662.662 0 01-.342-.167c-.102-.09-.167-.228-.2-.412v-.158c.008-.081.016-.189.029-.314a3.742 3.742 0 01.158-.777c.041-.127.095-.23.151-.311a.358.358 0 01.217-.146.327.327 0 01.245.073c.081.057.162.138.24.24.078.102.146.212.217.334.064.122.126.236.175.346l.122.29c.029.077.045.126.049.146zm11.606 2.313c-.07-.761-2.651-2.867-2.717-3.754-.093-1.288 3.621-4.509.322-4.037-1.296.188-1.443 2.012-2.283 2.794-.523.485-.791-.19-.836-.631-.094-.993-.171-2.06-1.521-1.71-.384.101-.717.367-.693.806l.812 6.688c.085 1.058 2.096.976 2.099-.21.005-.435-.294-1.847.38-1.888.676-.045 1.639 2.09 2.397 2.386.392.151 2.076.285 2.039-.444h.001zm5.936-.741a.955.955 0 00-.073-.366.681.681 0 00-.229-.298.617.617 0 00-.378-.122 1.308 1.308 0 00-.334.04c-.095.021-.184.05-.27.082a1.685 1.685 0 01-.615.123c-2.966.011-2.97-4.911-.115-4.92.123 0 .228.009.318.028.089.017.167.045.236.074.074.024.144.053.217.082.073.032.159.052.252.072.098.021.217.029.355.032a.555.555 0 00.343-.109.6.6 0 00.192-.285 1.31 1.31 0 00.057-.396c-.004-.236-.048-.443-.147-.606a1.163 1.163 0 00-.376-.41 1.794 1.794 0 00-.525-.249 2.849 2.849 0 00-.588-.122 3.699 3.699 0 00-.553-.033c-5.49.04-5.686 8.752.069 8.763.105 0 .232-.003.378-.016.143-.007.299-.028.462-.056a2.52 2.52 0 00.477-.135c.154-.06.297-.143.427-.244.127-.098.229-.228.302-.379a1.2 1.2 0 00.118-.55zm8.475.933a1.595 1.595 0 00-.049-.375 12.014 12.014 0 00-.147-.607 47.182 47.182 0 00-.448-1.499c-.079-.247-.151-.484-.221-.696-.069-.21-.127-.386-.172-.53-.041-.138-.069-.224-.077-.26-.049-.159-.101-.346-.167-.562-.065-.211-.134-.44-.208-.676-.07-.235-.139-.469-.208-.692-.074-.228-.134-.432-.192-.62-.057-.182-.102-.33-.134-.438-.033-.112-.049-.167-.054-.167a.825.825 0 00-.26-.412 1.166 1.166 0 00-.408-.217 2.703 2.703 0 00-.457-.09 10.122 10.122 0 00-.415-.023c-.132-.008-.27-.017-.417-.02-.151-.01-.289 0-.42.016a.647.647 0 00-.318.118 1.9 1.9 0 00-.277.26c-.078.095-.151.2-.216.323a4.526 4.526 0 00-.209.44c-.072.166-.154.374-.252.614-.095.24-.212.525-.347.856l-.693 1.702-.261.627a49.65 49.65 0 00-.281.677c-.094.222-.184.442-.269.654-.086.209-.167.399-.233.57-.069.168-.122.306-.163.412a.893.893 0 00-.061.195.55.55 0 00.085.363c.062.09.143.154.241.196.106.04.208.069.322.081.11.011.213.019.302.024.24.01.436 0 .583-.032a.927.927 0 00.351-.151.872.872 0 00.207-.228c.054-.085.103-.175.151-.264.05-.09.115-.18.188-.261.079-.086.179-.16.31-.224a1.66 1.66 0 01.522-.139c.217-.033.489-.04.823-.02.314.016.576.049.78.101.204.053.371.118.493.196.123.078.221.159.293.253.07.09.127.183.176.28.044.098.094.188.142.282.05.089.119.17.201.247a.955.955 0 00.334.184c.142.049.331.081.559.094.077.009.171.009.277.009.101-.005.208-.022.31-.05a.552.552 0 00.26-.17c.075-.079.115-.197.123-.351h.001zm-3.034-3.442c-.013.184-.062.33-.147.432a.644.644 0 01-.314.217.893.893 0 01-.368.053 1.302 1.302 0 01-.387-.082.663.663 0 01-.302-.236c-.077-.11-.109-.257-.105-.445a.94.94 0 01.033-.154 5.68 5.68 0 01.094-.302 3.423 3.423 0 01.313-.728c.069-.11.138-.2.217-.269.077-.07.154-.103.236-.098.085.004.158.044.228.123.069.073.131.165.184.28.056.118.101.244.141.374.042.13.076.257.099.375.028.123.044.224.061.306.012.086.017.134.017.154zm10.516 2.88c.033-.273.029-.51-.016-.717a2.016 2.016 0 00-.207-.537 3.758 3.758 0 00-.279-.416 3.513 3.513 0 01-.233-.355.59.59 0 01-.069-.346.585.585 0 01.103-.248c.052-.077.118-.158.191-.245a2.374 2.374 0 00.45-.67 2.31 2.31 0 00.141-.54 1.859 1.859 0 00-.039-.702 1.84 1.84 0 00-.283-.596 2.455 2.455 0 00-1.002-.79 2.274 2.274 0 00-.583-.163l-3.308-.464a.796.796 0 00-.741.284 1.06 1.06 0 00-.201.494l-.917 6.524a.82.82 0 00.016.26c.024.095.057.184.109.274.054.09.12.167.196.227a.636.636 0 00.282.119l3.751.528c.36.046.689.026.991-.06.307-.085.572-.224.804-.412a2.273 2.273 0 00.844-1.449zm-2.04-3.913a.804.804 0 01-.137.361.888.888 0 01-.257.232 1.318 1.318 0 01-.318.127c-.11.029-.212.04-.314.045a1.14 1.14 0 01-.249-.01 1.039 1.039 0 01-.489-.185.786.786 0 01-.285-.368.96.96 0 01-.049-.495 1.04 1.04 0 01.187-.478.783.783 0 01.371-.273c.154-.056.33-.073.526-.044.106.012.221.05.346.105.123.054.241.126.351.22.11.095.196.205.257.33.06.127.082.273.06.433zm-.17 3.38a.858.858 0 01-.44.66c-.111.06-.228.105-.355.13a1.929 1.929 0 01-.368.036 1.857 1.857 0 01-.321-.017c-.358-.052-.616-.175-.763-.365-.147-.196-.199-.449-.155-.758.038-.249.111-.436.229-.566a.79.79 0 01.424-.25c.171-.035.359-.04.563-.007.13.016.268.053.411.106.147.053.286.126.412.217.123.094.225.207.294.34a.782.782 0 01.069.474zm12.88-2.926l.108.005a.98.98 0 01.261.057l3.739 1.283c.179.062.322.146.437.254a.733.733 0 01.211.386.979.979 0 01-.052.51c-.066.182-.139.32-.225.41a.57.57 0 01-.276.174.798.798 0 01-.319.017 3.323 3.323 0 01-.342-.045 1.862 1.862 0 00-.363-.023.829.829 0 00-.356.084.933.933 0 00-.334.294 2.28 2.28 0 00-.289.59l-1.39 4.029a.857.857 0 01-.257.39.83.83 0 01-.359.163 1.208 1.208 0 01-.376.013 1.524 1.524 0 01-.306-.07 1.464 1.464 0 01-.276-.13 1.107 1.107 0 01-.27-.236.747.747 0 01-.162-.343.875.875 0 01.044-.464l1.391-4.027c.085-.257.13-.469.135-.644a.935.935 0 00-.083-.435.861.861 0 00-.228-.29 2.293 2.293 0 00-.302-.204 2.745 2.745 0 01-.297-.17.745.745 0 01-.237-.213.547.547 0 01-.113-.305 1.146 1.146 0 01.076-.46.885.885 0 01.253-.398.712.712 0 01.33-.172.939.939 0 01.335-.024l-.108-.006zm-7.811-2.088c.113 0 .203.008.269.025.187.05.346.122.478.22a.77.77 0 01.276.37.855.855 0 01.012.509l-.545 2.19a1.551 1.551 0 00-.042.262 1.446 1.446 0 000 .322.75.75 0 00.086.292c.046.086.114.14.208.163.098.02.212 0 .347-.064.134-.066.285-.155.44-.273a6.88 6.88 0 00.473-.391c.154-.139.302-.282.436-.412.135-.135.249-.248.339-.346.094-.093.151-.154.175-.183.077-.078.175-.167.283-.27.108-.1.222-.21.353-.325a8.088 8.088 0 01.8-.656.962.962 0 01.378-.158c.135-.024.265-.024.405-.009.134.017.277.045.419.086a1.47 1.47 0 01.686.363.93.93 0 01.24.365c.049.144.053.31.009.506l-1.534 6.144a1.115 1.115 0 01-.208.45.738.738 0 01-.306.232.901.901 0 01-.363.06c-.123 0-.248-.02-.371-.052-.33-.087-.558-.228-.685-.435-.127-.209-.155-.453-.082-.746l.576-2.313c.021-.069.036-.15.053-.241a.789.789 0 00.008-.261.436.436 0 00-.085-.231.415.415 0 00-.234-.143.511.511 0 00-.277.017 1.079 1.079 0 00-.281.134c-.095.06-.183.127-.265.2-.082.072-.154.142-.22.203-.065.066-.114.114-.148.15-.276.265-.546.535-.815.802-.27.269-.546.534-.836.79-.293.261-.607.51-.955.745a.72.72 0 01-.337.108c-.127.006-.257 0-.387-.026a4.684 4.684 0 01-.384-.085 1.666 1.666 0 01-.359-.13 1.227 1.227 0 01-.321-.22.813.813 0 01-.205-.338.87.87 0 010-.46l1.571-6.285a.802.802 0 01.22-.39.899.899 0 01.343-.2c.13-.04.248-.062.363-.065h-.001z" fill="#EC1D24"/></svg>