<svg width="199" height="41" fill="none" xmlns="http://www.w3.org/2000/svg"><g clip-path="url(#clip0_219_104)"><path d="M69.338 11.698c.177-.1.377-.2.61-.288a4.85 4.85 0 01.744-.211c.255-.056.521-.078.799-.078.366 0 .655.044.855.133.2.078.332.2.41.355a.963.963 0 01.111.511 9.43 9.43 0 00-1.842.178c-.555.122-1.044.3-1.443.543a2.596 2.596 0 00-.944.922c-.222.377-.333.821-.333 1.332 0 .321.056.632.178.91.11.3.288.555.51.766.222.233.489.4.8.532.322.122.677.189 1.065.189.455 0 .866-.067 1.243-.222.378-.144.7-.377.966-.688h.044l.156.755h2.308a3.294 3.294 0 01-.077-.51c-.023-.2-.034-.423-.045-.656 0-.233-.01-.466-.01-.721v-2.686a4.157 4.157 0 00-.167-1.31c-.111-.41-.3-.766-.566-1.077-.256-.31-.61-.555-1.066-.732-.444-.178-.999-.267-1.665-.267-.488 0-.943.045-1.354.123a6.77 6.77 0 00-1.043.266c-.3.11-.533.21-.71.31l.466 1.621zm3.618 2.82c0 .221-.044.41-.111.554a.883.883 0 01-.266.356 1.324 1.324 0 01-.333.2 1.404 1.404 0 01-.311.077c-.089.022-.156.022-.2.022-.178 0-.333-.033-.466-.089a.772.772 0 01-.333-.288c-.089-.133-.122-.3-.133-.5.01-.288.1-.51.288-.688.178-.166.433-.288.755-.366.322-.078.7-.111 1.11-.111v.832zm12.653 2.819v-5.883h2.486v5.883h2.487V9.545h-7.46v7.792h2.487zm14.718-5.872v5.872h2.486v-5.872h2.664v-1.92h-7.858v1.92h2.708zm18.946 3.852a6.346 6.346 0 01-1.032.244 9.076 9.076 0 01-1.121.066c-.277 0-.544-.022-.788-.077a2.263 2.263 0 01-.666-.267 1.362 1.362 0 01-.477-.421 1.187 1.187 0 01-.222-.578h4.984c.022-.1.033-.233.055-.4.011-.166.022-.366.022-.599 0-.41-.033-.81-.122-1.198a4.234 4.234 0 00-.388-1.066 3.246 3.246 0 00-.689-.866 2.981 2.981 0 00-.987-.566c-.389-.144-.833-.21-1.332-.21-.544 0-1.033.077-1.465.244a3.62 3.62 0 00-1.121.655 3.77 3.77 0 00-.788.943c-.2.355-.356.732-.456 1.132-.111.389-.155.8-.155 1.199 0 .81.167 1.52.5 2.109.333.588.81 1.032 1.431 1.354.633.322 1.399.477 2.298.477.51 0 1.01-.033 1.487-.122a5.82 5.82 0 001.365-.389l-.333-1.664zm-4.306-2.753c.022-.155.055-.322.111-.488.066-.178.155-.333.266-.489a1.31 1.31 0 01.433-.377 1.32 1.32 0 01.622-.145c.255 0 .466.056.632.156.167.089.3.222.4.377.089.156.155.322.189.489.033.177.055.333.055.477h-2.708zm14.862 4.773V14.25c.1 0 .222 0 .366.022.133.011.289.067.455.133.167.078.333.211.5.378.166.177.333.422.488.732.167.422.333.788.488 1.088.145.3.3.544.456.733h2.608a5.203 5.203 0 01-.311-.555c-.1-.2-.189-.4-.277-.61-.1-.212-.178-.423-.267-.611-.077-.2-.144-.378-.211-.533a5.546 5.546 0 00-.477-.966 3.021 3.021 0 00-.644-.754 2.08 2.08 0 00-.877-.422l3.02-3.341h-2.986l-2.054 3.074h-.277V9.545h-2.464v7.792h2.464zm15.006 0c.067-.122.145-.289.267-.533.111-.233.233-.522.377-.844.155-.322.311-.666.466-1.032.167-.355.322-.721.477-1.088.156-.366.3-.699.433-1.02.122-.323.233-.6.322-.833h.067c-.022.344-.034.666-.045.943-.011.278-.033.533-.033.788a17.8 17.8 0 00-.022.777c-.011.278-.011.566-.011.9v1.942h2.32V9.545h-2.92l-1.409 3.085a18.959 18.959 0 00-.877 2.198h-.089c.045-.455.078-.954.1-1.52.022-.555.033-1.166.033-1.82V9.544h-2.308v7.792h2.852z" fill="#188B30"/><path d="M61.846 20.7h-4.729v-3.108c-.01-.111.011-.289.045-.555.044-.267.133-.555.288-.866.144-.3.389-.555.722-.777.333-.21.788-.333 1.376-.344.255 0 .533.022.843.066.311.045.933.278 1.244.378v-5.428c-.211-.077-.877-.333-1.343-.433a16.095 16.095 0 00-1.754-.3 22.566 22.566 0 00-2.475-.144c-1.232.012-2.276.156-3.141.422-.877.278-1.599.644-2.176 1.1-.566.465-1.021.965-1.365 1.53a6.286 6.286 0 00-.755 1.71 9.801 9.801 0 00-.333 1.643c-.044.521-.066.965-.066 1.332V20.7h-3.885v6.581h3.885v13.197h8.89V27.281h4.729V20.7zm19.168 1.964a7.921 7.921 0 00-2.353-1.399 12.68 12.68 0 00-2.82-.754 18.16 18.16 0 00-3.018-.222c-.9 0-1.854.044-2.864.133-1.01.089-2.031.233-3.063.41-1.032.178-2.031.4-2.986.666v5.162a17.895 17.895 0 012.43-.866 19.62 19.62 0 012.076-.466c.61-.09 1.1-.156 1.477-.189.366-.022.577-.033.621-.033.466 0 .955.033 1.465.088.51.056.988.178 1.432.345.444.166.8.41 1.077.732.277.322.421.733.433 1.254v.6h-1.266c-.799-.011-1.654.01-2.542.033-.899.033-1.809.122-2.708.244-.899.133-1.754.333-2.564.622a7.483 7.483 0 00-2.175 1.187 5.37 5.37 0 00-1.51 1.943c-.366.788-.555 1.742-.555 2.863 0 .822.122 1.599.389 2.31.266.71.677 1.342 1.22 1.875.545.544 1.222.966 2.054 1.265.833.311 1.81.455 2.941.466.511.011 1.055-.022 1.62-.088a8.386 8.386 0 001.743-.4 6.145 6.145 0 001.699-.866c.555-.377 1.043-.877 1.51-1.51h.144v2.41h8.302V27.902c-.011-1.188-.211-2.198-.6-3.075a6.146 6.146 0 00-1.609-2.164zm-6.093 10.322c-.012.744-.134 1.354-.378 1.82-.244.467-.555.81-.932 1.022a2.394 2.394 0 01-1.221.322c-.644-.011-1.154-.19-1.543-.533-.377-.344-.577-.788-.588-1.354.01-.5.11-.9.31-1.221a2 2 0 01.789-.7 3.792 3.792 0 011.054-.344 7.625 7.625 0 011.099-.1c.355-.01.677-.01.932-.01h.478v1.098zm25.772-12.697a5.01 5.01 0 00-2.064.421 5.768 5.768 0 00-1.654 1.11 6.753 6.753 0 00-1.21 1.587 8.48 8.48 0 00-.777 1.82h-.144v-4.483H86.33v19.734h9.09V33.32c.011-1.143.233-2.098.666-2.875.433-.776 1.01-1.365 1.742-1.764.733-.389 1.554-.589 2.465-.589.333 0 .654.023.965.09.322.055.622.121.91.21v-7.914a12.25 12.25 0 00-.732-.144c-.267-.022-.511-.044-.744-.044zm36.961 4.007a5.643 5.643 0 00-1.054-2.01c-.478-.599-1.144-1.076-1.998-1.442-.844-.367-1.932-.555-3.252-.555-1.122 0-2.065.155-2.831.444-.766.277-1.409.643-1.909 1.098a6.08 6.08 0 00-1.221 1.477c-.366-.666-.788-1.21-1.276-1.61a5.44 5.44 0 00-1.532-.91 7.988 7.988 0 00-1.609-.41 10.5 10.5 0 00-1.499-.09 9.133 9.133 0 00-1.476.1 6.814 6.814 0 00-1.743.5 5.522 5.522 0 00-1.709 1.165c-.544.522-1.01 1.232-1.398 2.12h-.145v-3.43h-8.591v19.735h9.102V29.102c-.011-.267 0-.555.011-.866.022-.3.078-.588.178-.866a1.4 1.4 0 01.477-.677c.233-.166.544-.255.954-.266.411.01.722.1.933.266.222.166.377.388.466.666.1.266.155.555.178.866.011.31.022.6.011.877v11.376h9.101V29.102a7.97 7.97 0 01.022-.877c.011-.311.067-.6.167-.866.089-.278.244-.5.466-.666.222-.166.533-.255.932-.266.411.01.733.1.955.266.222.178.388.4.488.677.089.278.144.566.167.866.011.31.022.6.011.866v11.376h9.101V28.646a23.711 23.711 0 00-.066-2.12 10.164 10.164 0 00-.411-2.23zm22.254-1.632a8.205 8.205 0 00-2.353-1.399 12.94 12.94 0 00-2.83-.754 18.162 18.162 0 00-3.019-.222c-.899 0-1.854.044-2.864.133-1.01.089-2.031.233-3.063.41-1.033.178-2.031.4-2.986.666v5.162a17.917 17.917 0 012.431-.866 19.646 19.646 0 012.075-.466c.611-.09 1.11-.156 1.477-.189.366-.022.577-.033.621-.033.466 0 .955.033 1.465.088.511.056.988.178 1.432.345.444.166.799.41 1.077.732.277.322.421.733.433 1.254v.6h-1.266a65.83 65.83 0 00-2.542.033 28.13 28.13 0 00-2.708.244c-.888.133-1.753.333-2.564.622a7.621 7.621 0 00-2.175 1.187 5.35 5.35 0 00-1.499 1.943c-.377.788-.566 1.742-.566 2.863 0 .822.134 1.599.389 2.31.266.71.677 1.342 1.221 1.875.544.544 1.221.966 2.053 1.265.833.311 1.809.455 2.941.466.511.011 1.055-.022 1.621-.088a8.404 8.404 0 001.743-.4 6.15 6.15 0 001.698-.866c.555-.377 1.054-.877 1.509-1.51h.145v2.41h8.302V27.902c-.011-1.188-.2-2.198-.6-3.075a6.247 6.247 0 00-1.598-2.164zm-6.104 10.322c-.012.744-.134 1.354-.378 1.82-.233.467-.555.81-.932 1.022a2.395 2.395 0 01-1.221.322c-.644-.011-1.154-.19-1.543-.533-.377-.344-.577-.788-.588-1.354.011-.5.111-.9.311-1.221.199-.3.466-.544.788-.7a3.793 3.793 0 011.054-.344 7.635 7.635 0 011.11-.1c.344-.01.666-.01.932-.01h.467v1.098zm32.698-8.557a6.47 6.47 0 00-.61-1.454 5.077 5.077 0 00-1.132-1.332c-.489-.41-1.099-.733-1.843-.977s-1.643-.377-2.708-.377a7.837 7.837 0 00-1.543.133c-.566.1-1.132.277-1.709.555a5.418 5.418 0 00-1.599 1.165c-.499.522-.921 1.188-1.243 2.032h-.155v-3.43h-8.591v19.734h9.101V29.102c0-.267 0-.555.023-.866.011-.3.077-.588.177-.866.089-.277.244-.5.466-.677.234-.166.555-.255.955-.266.411.01.721.1.943.266.211.167.378.389.467.666.088.266.144.555.166.866.022.31.022.6.022.877v11.376h9.091V26.771a8.666 8.666 0 00-.045-1 8.53 8.53 0 00-.233-1.342zm3.397-14.973v7.892H199V9.456h-9.101zm0 31.022H199V20.744h-9.101v19.734z" fill="#E41B41"/><path d="M0 .066h40.257V40.39H23.375v-8.513h8.37v-11.11h-8.37v-3.564c-.01-.177.011-.466.078-.888.067-.421.222-.877.466-1.365.244-.466.644-.888 1.199-1.232.544-.344 1.298-.522 2.275-.533.41 0 .877.022 1.388.1.51.067 2.441.489 2.94.644v-8.58c-.343-.122-2.33-.577-3.096-.743-.777-.178-1.742-.333-2.919-.478-1.165-.133-2.53-.2-4.084-.21-2.02.01-3.741.232-5.184.665-1.432.433-2.62 1.01-3.574 1.732-.943.732-1.698 1.532-2.264 2.42-.555.887-.977 1.775-1.254 2.708-.267.91-.455 1.776-.533 2.597-.089.821-.122 1.52-.111 2.109v4.617H0V.066zM8.702 40.39v-8.513H0v8.513h8.702z" fill="#188B30"/></g><defs><clipPath id="clip0_219_104"><path fill="#fff" d="M0 0h199v41H0z"/></clipPath></defs></svg>