<svg width="224" height="29" fill="none" xmlns="http://www.w3.org/2000/svg"><path fill-rule="evenodd" clip-rule="evenodd" d="M129.22 17.07c-.49 0-.952.22-1.261.598-1.076 1.228-2.406 1.836-3.988 1.836-.997 0-1.887-.22-2.67-.653a4.694 4.694 0 01-1.831-1.83c-.439-.784-.653-1.674-.653-2.67 0-.998.219-1.888.653-2.67a4.696 4.696 0 011.831-1.831c.783-.44 1.673-.653 2.67-.653 1.29 0 2.416.405 3.374 1.216.383.333.659.524 1.199.524a1.646 1.646 0 002.649-.61 1.645 1.645 0 00-1.539-2.24l-.006-.006-.022-.022a7.613 7.613 0 00-2.056-1.301c-1.127-.49-2.388-.738-3.785-.738-1.656 0-3.149.355-4.473 1.07-1.323.715-2.371 1.701-3.126 2.968-.76 1.268-1.137 2.698-1.137 4.292 0 1.595.377 3.025 1.137 4.292a8.01 8.01 0 003.126 2.969c1.324.715 2.811 1.07 4.45 1.07 1.397 0 2.659-.248 3.797-.738a7.474 7.474 0 002.805-2.078c.298-.293.49-.71.49-1.16 0-.902-.733-1.634-1.634-1.634zM110.047 6.03c.89 0 1.611.728 1.611 1.612V21.07c0 .884-.727 1.61-1.611 1.61a1.618 1.618 0 01-1.611-1.61v-.135a8.327 8.327 0 01-13.428-6.58 8.326 8.326 0 0113.428-6.578v-.135c0-.884.727-1.61 1.611-1.61V6.03zm-1.611 8.636v-.614a5.112 5.112 0 00-8.763-3.246 5.11 5.11 0 00-1.449 3.55 5.109 5.109 0 005.109 5.109 5.103 5.103 0 005.103-4.8zm64.899-8.36c.845 0 1.537.66 1.599 1.488a8.326 8.326 0 0113.44 6.568 8.33 8.33 0 01-9.18 8.28 8.327 8.327 0 01-4.254-1.707v5.114c0 .885-.721 1.606-1.605 1.606a1.609 1.609 0 01-1.606-1.606V14.677c-.005-.101-.005-.208-.005-.315 0-.107 0-.21.005-.316v-6.14c0-.878.721-1.599 1.606-1.599zm6.714 2.94a5.112 5.112 0 00-5.109 5.11 5.11 5.11 0 105.109-5.11zm42.132 4.445a4.515 4.515 0 00-1.071-6.682 4.52 4.52 0 00-2.416-.702h-6.934c-.952 0-1.723.76-1.74 1.712v12.96c0 .79.642 1.43 1.431 1.43h7.643a4.91 4.91 0 004.625-3.268 4.912 4.912 0 00-1.538-5.45zm-8.432 5.954V15.54h4.782a2.058 2.058 0 010 4.112h-4.782v-.007zm.681-10.302h3.791a1.579 1.579 0 110 3.16h-4.478v-3.16h.687zm-9.215 6.196h-10.679c.557 1.977 2.377 3.436 4.528 3.436 1.566 0 3.042-.53 4.045-1.453a1.724 1.724 0 011.9-.31 1.728 1.728 0 01.895.979 1.713 1.713 0 01-.475 1.865c-1.633 1.498-3.954 2.355-6.37 2.355-4.489 0-8.139-3.65-8.139-8.14s3.65-8.14 8.139-8.14c4.095 0 7.536 3.229 7.976 7.29.011.085.016.175.016.265a1.85 1.85 0 01-1.836 1.853zm-1.594-3.042a4.858 4.858 0 00-4.489-2.99 4.86 4.86 0 00-4.489 2.99h8.978zM201.7 5.17a1.876 1.876 0 11.001-3.753 1.876 1.876 0 01-.001 3.753zm-5.795 0a1.876 1.876 0 11-.001-3.751 1.876 1.876 0 01.001 3.751zm-129.494.862a8.327 8.327 0 018.325 8.325 8.327 8.327 0 01-8.325 8.325 8.327 8.327 0 01-8.325-8.325c-.005-4.596 3.723-8.325 8.325-8.325zm0 3.216a5.109 5.109 0 100 10.217 5.109 5.109 0 000-10.217zm-25.042-2.4c.022.023.039.046.062.063l5.215 5.447 5.306-5.515a1.868 1.868 0 013.183 1.33V20.53c0 1.026-.84 1.87-1.87 1.87a1.872 1.872 0 01-1.87-1.87v-8.24l-3.532 3.672-.04.04-.01.01c-.3.288-.671.44-1.054.469h-.237a1.641 1.641 0 01-1.053-.468l-.011-.011-.04-.04-3.503-3.638v8.206c0 1.026-.84 1.87-1.87 1.87a1.876 1.876 0 01-1.87-1.87V8.17a1.872 1.872 0 013.194-1.322zm108.686-.54c1.02 0 1.853.834 1.853 1.853v3.436h4.095c1.96 0 3.47.44 4.523 1.313 1.048.873 1.577 2.168 1.577 3.886 0 1.825-.58 3.216-1.734 4.174-1.161.957-2.789 1.436-4.89 1.436h-5.418a1.858 1.858 0 01-1.853-1.853V8.155a1.846 1.846 0 011.847-1.848zm1.848 8.05v5.288h3.357c.963 0 1.723-.236 2.264-.715.546-.473.817-1.166.817-2.067 0-1.673-1.025-2.507-3.081-2.507h-3.357zm14.583-8.05c1.019 0 1.853.834 1.853 1.853v12.398c0 1.02-.834 1.853-1.853 1.853a1.858 1.858 0 01-1.854-1.853v-12.4a1.865 1.865 0 011.854-1.852zm-27.583 0h5.475c.833 0 1.52.682 1.52 1.52a1.52 1.52 0 01-1.52 1.516h-3.633V20.57a1.843 1.843 0 01-3.684 0V9.343h-3.611a1.521 1.521 0 01-1.515-1.515c0-.834.682-1.52 1.515-1.52h5.453zm-59.34 0a1.87 1.87 0 011.865 1.864v4.484h7.316V8.17a1.87 1.87 0 011.865-1.864 1.87 1.87 0 011.864 1.864v12.375a1.87 1.87 0 01-1.864 1.865 1.87 1.87 0 01-1.865-1.865V15.81h-7.316v4.737a1.87 1.87 0 01-1.865 1.865 1.87 1.87 0 01-1.864-1.865V8.17c0-1.03.84-1.864 1.864-1.864z" fill="#00893D"/><path fill-rule="evenodd" clip-rule="evenodd" d="M16.868 28.488a14.325 14.325 0 01-11.919-3.29 22.58 22.58 0 0011.192.987l.305-.051c.23-.04.456-.09.681-.14 5.785-1.375 9.671-6.805 9.142-12.697a22.565 22.565 0 01-1.481 10.927 14.318 14.318 0 01-7.92 4.264z" fill="url(#paint0_linear_219_117)"/><path fill-rule="evenodd" clip-rule="evenodd" d="M16.74 18.265c-.063-.101-.13-.197-.192-.298.005 0 .005-.006.01-.006.085.14.147.248.181.304h.001z" fill="#FFF8B4"/><path fill-rule="evenodd" clip-rule="evenodd" d="M14.034 6.825a33.513 33.513 0 008.054 13.614h-3.222a35.924 35.924 0 01-7.31-13.614h2.478z" fill="#FC0"/><path fill-rule="evenodd" clip-rule="evenodd" d="M17.161 6.825A35.921 35.921 0 019.873 20.44H6.657a33.542 33.542 0 008.02-13.614h2.484z" fill="#E5310E"/><path fill-rule="evenodd" clip-rule="evenodd" d="M22.36 17.448a17.079 17.079 0 01-8.004 1.983 17.03 17.03 0 01-8.004-1.983V14.71a14.96 14.96 0 008.004 2.304c2.94 0 5.684-.845 8.004-2.304v2.737z" fill="#5CB136"/><path fill-rule="evenodd" clip-rule="evenodd" d="M4.065 4.347c.04-.04.08-.085.119-.124-.04.045-.08.085-.119.124zM4.95 25.2a14.28 14.28 0 01-4.726-8.33A14.324 14.324 0 013.936 4.487l-.012.011A22.533 22.533 0 002.443 15.42c.034.343.073.687.135 1.03 1.138 6.405 7.17 10.702 13.564 9.734l.304-.05c-3.876.833-7.706.444-11.496-.936v.001z" fill="url(#paint1_linear_219_117)"/><path fill-rule="evenodd" clip-rule="evenodd" d="M11.85.224a14.326 14.326 0 0111.918 3.29 22.58 22.58 0 00-11.192-.986l-.304.05C6.116 3.67 1.897 9.298 2.45 15.415c-.418-3.707.09-7.46 1.48-10.922a14.252 14.252 0 017.92-4.27z" fill="url(#paint2_linear_219_117)"/><path fill-rule="evenodd" clip-rule="evenodd" d="M24.646 24.365c-.04.04-.079.085-.118.124.04-.045.079-.084.118-.124zm-.884-20.852a14.282 14.282 0 014.726 8.33 14.325 14.325 0 01-3.712 12.381l.011-.01a22.532 22.532 0 001.482-10.922 10.77 10.77 0 00-.136-1.03c-1.137-6.406-7.17-10.703-13.563-9.734l-.304.05c3.88-.839 7.71-.445 11.496.935z" fill="url(#paint3_linear_219_117)"/><defs><linearGradient id="paint0_linear_219_117" x1="27.378" y1="19.921" x2="4.701" y2="23.711" gradientUnits="userSpaceOnUse"><stop stop-color="#FFE500"/><stop offset="1" stop-color="#F18500"/></linearGradient><linearGradient id="paint1_linear_219_117" x1=".407" y1="6.091" x2="11.508" y2="28.57" gradientUnits="userSpaceOnUse"><stop stop-color="#FDC300"/><stop offset="1" stop-color="#D7030D"/></linearGradient><linearGradient id="paint2_linear_219_117" x1="1.28" y1="8.861" x2="23.996" y2="4.826" gradientUnits="userSpaceOnUse"><stop stop-color="#FFED00"/><stop offset="1" stop-color="#9FC515"/></linearGradient><linearGradient id="paint3_linear_219_117" x1="19.34" y1="1.319" x2="23.453" y2="24.675" gradientUnits="userSpaceOnUse"><stop stop-color="#32A934"/><stop offset="1" stop-color="#C7D300"/></linearGradient></defs></svg>