<svg width="112" height="112" fill="none" xmlns="http://www.w3.org/2000/svg"><path fill-rule="evenodd" clip-rule="evenodd" d="M16.838 95.06c0 .997.98 1.554 2.24 1.554a3.675 3.675 0 003.036-1.201v-1.348a5.093 5.093 0 00-2.758-.646c-1.332-.005-2.518.521-2.518 1.641zm73.298 0c0 .997.98 1.554 2.24 1.554a3.674 3.674 0 003.037-1.201v-1.348a5.093 5.093 0 00-2.758-.646c-1.332-.005-2.519.521-2.519 1.641zm-26.503-6.474a3.204 3.204 0 00-3.377 2.536h6.384a2.759 2.759 0 00-3.007-2.541v.005zM37.967 71.851a3.28 3.28 0 00-3.388-3.632 3.95 3.95 0 00-2.957 1.435v5.331c.801.546 1.76.813 2.727.762a3.56 3.56 0 003.618-3.896zm11.978 3.896a3.78 3.78 0 10-3.47-3.78 3.52 3.52 0 003.47 3.78zm43.756-33.32a40.16 40.16 0 01-15.244 6.44 39.311 39.311 0 01-20.41-1.43c-1.96-.73-3.525-5.422-3.873-7.42-.093-.534.065-.802.51-.743a49.49 49.49 0 0022.744-1.949c13.277-4.453 16.94-10.691 19.122-11.179 1.625-.364 3.13.7 3.574 2.883.882 4.326-.921 9.275-6.423 13.395v.003zm5.475 56.84h-3.49v-1.522a6.072 6.072 0 01-4.643 1.698c-2.863 0-4.922-1.493-4.922-4.041 0-2.901 2.548-4.279 5.725-4.279a7.458 7.458 0 013.561.85c.105-2.197-.593-3.398-2.933-3.398-1.42.018-2.822.327-4.119.907l-1.012-2.46a13.377 13.377 0 015.55-1.26c4.644 0 6.283 1.993 6.283 5.479v8.026zm-18.323 0l-5.215-6.649 4.746-6.533h4.249l-5.068 6.269 5.682 6.913h-4.394zm-5.331 0h-3.37V86.085h3.37v13.182zM60.9 50.924a38.425 38.425 0 0015.898 3.417 39.081 39.081 0 0018.123-4.424 23.519 23.519 0 01-17.563 7.84A23.157 23.157 0 0160.9 50.924zm8.92 42.784H60.3a3.64 3.64 0 003.956 3.08 6.098 6.098 0 003.72-1.202l.967 2.373a7.889 7.889 0 01-5.04 1.641 6.914 6.914 0 11-.118-13.828 6.331 6.331 0 016.036 7.94v-.004zm-14.008-4.454h-4.306v10.019h-3.368V89.254h-4.34V86.09H55.81v3.164h.002zm-5.86-24.206a6.914 6.914 0 11-6.972 6.912 6.632 6.632 0 016.965-6.912h.007zm-8.387 34.225h-3.37V89.254h-6.499v10.019h-3.37V86.09h13.239v13.183zM26.04 78.554h-3.374V68.536h-5.624v10.018h-3.37V65.372H26.04v13.182zm-.158 20.72h-3.49v-1.522a6.07 6.07 0 01-4.643 1.698c-2.861 0-4.92-1.493-4.92-4.041 0-2.901 2.546-4.279 5.724-4.279a7.458 7.458 0 013.56.85c.105-2.197-.594-3.398-2.933-3.398-1.42.018-2.822.327-4.119.907l-1.012-2.46a13.373 13.373 0 015.551-1.26c4.642 0 6.282 1.993 6.282 5.479v8.026zm2.441-33.901h2.875l.428 1.26a5.592 5.592 0 013.991-1.583c3.56 0 5.857 2.814 5.857 6.71a6.72 6.72 0 01-6.834 7.119 6.228 6.228 0 01-3.014-.646v4.434h-3.303V65.372v.001zM54.02 31.342a47.6 47.6 0 019.647-7.774 47.521 47.521 0 0123.512-6.961h.168c.346 0 .7-.013 1.042-.013a2.7 2.7 0 01.28.016c1.212.012 1.985 0 3.066.09.98.085 2.055 1.147.372 3.92-2.1 3.45-14.781 12.45-37.502 15.863-.724.109-1.174.322-1.25-.483-.097-1.03-.211-3.541.662-4.648l.003-.01zm22.82-20.4h.448a24.62 24.62 0 014.76.467 44.94 44.94 0 00-26.146 13.72 23.484 23.484 0 0120.945-14.181l-.007-.006zM76.529 0H0v112h112V35.472a35.466 35.466 0 00-10.389-25.083A35.471 35.471 0 0076.528 0z" fill="#002882"/></svg>