<svg width="220" height="36" fill="none" xmlns="http://www.w3.org/2000/svg"><path d="M42.817 23.166c.827 4.184 4.757 4.854 9.118 4.869 4.894.017 8.826-.776 8.847-6.396.009-2.486-.793-4.521-3.539-4.647v-.223c2.651-.337 3.311-2.453 3.32-4.854.021-5.546-5.06-5.847-8.548-5.864-4.771-.014-8.201.66-8.931 4.77l8.352.038c2.935.006 3.333.411 3.33 2.097-.009 1.467-.538 1.932-3.343 1.919l-1.995-.007-.014 3.994 1.995.006c3.02.011 3.612.576 3.609 2.039-.01 2.276-1.258 2.302-3.625 2.293l-8.576-.034zm40.996-.223l.06-16.613-16.642-.061-.027 7.354c-.023 6.583-1.592 7.853-3.093 9.248l-1.436-.003-.033 9.476 5.456.021.016-4.459 12.287.047-.016 4.459 5.456.021.033-9.479-2.061-.011zm-5.767-.022l-7.823-.03c1.062-1.05 2.413-2.889 2.434-9.245l.01-2.34 5.423.021-.044 11.594zM97.252 6.219c-5.831-.02-9.981 1.212-10.005 7.886l-.023 6.105c-.023 6.675 4.117 7.971 9.947 7.989 5.866.021 10.009-1.241 10.036-7.916l.022-6.105c.024-6.674-4.114-7.936-9.977-7.959zm4.03 13.426c-.01 3.21-1.067 3.545-4.097 3.534-2.989-.01-4.043-.358-4.033-3.568l.013-4.859c.017-3.216 1.074-3.521 4.07-3.511 3.023.011 4.077.328 4.07 3.538l-.023 4.866zm9.17 8.416l5.77.022.059-16.615 3.927.013c2.275.01 2.624.693 2.614 2.938-.011 2.775-.36 3.116-2.638 3.11l-3.927-.014 1.266 5.025 3.799.013c6.048.021 7.393-2.03 7.413-8.113.021-5.67-1.987-7.957-7.355-7.973l-10.85-.041-.078 21.635zM140.929 6.38c-5.828-.021-9.978 1.21-10.005 7.886l-.02 6.105c-.023 6.673 4.117 7.967 9.943 7.989 5.857.02 10.016-1.244 10.04-7.92l.022-6.104c.026-6.674-4.119-7.937-9.98-7.956zm4.037 13.422c-.01 3.21-1.074 3.548-4.098 3.535-2.992-.008-4.057-.354-4.044-3.562l.018-4.867c.01-3.214 1.077-3.522 4.07-3.508 3.023.009 4.082.324 4.069 3.539l-.015 4.863zm24.046-2.407v-.216c2.868-.46 3.407-2.233 3.41-4.979.02-4.739-2.5-5.556-6.805-5.577l-11.378-.04-.077 21.636 11.502.044c4.579.013 7.045-.69 7.069-5.996.007-2.709-.511-4.641-3.721-4.872zm-4.7 6.125l-4.368-.016.032-8.227-.002-.007h.002l.016-3.922 4.859.016c1.624.004 1.807.566 1.801 1.845-.007 1.747-.506 2.084-2.497 2.078l-4.179-.017v.007l.981 3.993 3.495.012c1.871.006 2.521.286 2.519 2.067-.008 1.744-.792 2.179-2.659 2.171zm21.686 11.301l4.958.016.064-17.3 2.74.013c2.092.006 2.463.067 2.448 3.245-.003 2.558-.159 3.245-2.473 3.24l-2.744-.013 1.703 4.338 2.712.012c4.181.012 5.74-1.822 5.757-6.43l.013-3.126c.018-4.019-2.064-5.585-5.713-5.596l-9.385-.036-.08 21.637zm19.771.226c.558.032 1.116.098 1.681.102 4.208.018 5.584-1.445 6.532-5.371l4.022-16.477-5.048-.019-2.38 10.964c-.461 0-.927-.97-1.12-1.75l-2.02-9.235-5.179-.02 3.048 11.019c.617 2.246 2.201 4.154 4.38 4.165-.565 1.74-.665 3.27-2.725 3.264-.622-.003-.933-.042-1.18-.134l-.011 3.492z" fill="#5BD240"/><path d="M176.036 29.238l5.968.021.021-5.954-5.968-.022-.021 5.955zM26.71 2.475a10.433 10.433 0 00-7.086 2.717 10.463 10.463 0 00-7.067-2.77C6.759 2.402 2.04 7.084 2.021 12.884c-.026 6.836 5.886 15.16 17.489 21.393h.015c11.646-6.147 17.62-14.432 17.646-21.268.019-5.797-4.667-10.512-10.461-10.534z" fill="#ED1C24"/><path d="M18.988 29.686L8.812 19.435l2.929-2.616 5.966 4.254c4.44-5.378 9.517-9.488 15.114-12.916.354.27 1.056 1.374 1.246 1.871-6.317 5.554-11.084 12.148-15.079 19.658z" fill="#fff"/></svg>