<svg width="25" height="25" viewBox="0 0 25 25" fill="none" xmlns="http://www.w3.org/2000/svg">
<path d="M1.05305 1.05314C1.4867 0.61961 2.07479 0.376068 2.68798 0.376068C3.30117 0.376068 3.88926 0.61961 4.32292 1.05314L12.4999 9.23014L20.6769 1.05314C21.1131 0.631896 21.6972 0.398809 22.3035 0.404078C22.9099 0.409347 23.4899 0.65255 23.9186 1.08131C24.3474 1.51006 24.5906 2.09007 24.5959 2.6964C24.6011 3.30273 24.368 3.88687 23.9468 4.32301L15.7698 12.5L23.9468 20.677C24.368 21.1132 24.6011 21.6973 24.5959 22.3036C24.5906 22.91 24.3474 23.49 23.9186 23.9187C23.4899 24.3475 22.9099 24.5907 22.3035 24.5959C21.6972 24.6012 21.1131 24.3681 20.6769 23.9469L12.4999 15.7699L4.32292 23.9469C3.88678 24.3681 3.30264 24.6012 2.69631 24.5959C2.08997 24.5907 1.50997 24.3475 1.08121 23.9187C0.652459 23.49 0.409255 22.91 0.403986 22.3036C0.398718 21.6973 0.631804 21.1132 1.05305 20.677L9.23005 12.5L1.05305 4.32301C0.619518 3.88935 0.375977 3.30127 0.375977 2.68807C0.375977 2.07488 0.619518 1.48679 1.05305 1.05314Z" fill="#BABABA"/>
</svg>
