<svg width="171" height="40" fill="none" xmlns="http://www.w3.org/2000/svg"><g clip-path="url(#clip0_206_76)" fill="#fff"><path d="M150.516.199H28.671c-.16.597-.302 1.236-.418 1.906a55.609 55.609 0 00-.224 5.14v5.14l4.157-3.939c1.349-.327 2.474-.437 3.484-.437 2.473 0 4.272.548 5.62 1.861 1.237 1.312 1.912 3.173 1.912 5.686v8.967a43 43 0 00.013 1.079c.913.928 1.833 1.6 2.845 2.093 1.013.435 2.136.764 3.148.764 1.125 0 2.023-.329 2.698-.875.674-.436 1.012-1.093 1.012-1.966 0-.548-.225-1.204-.787-1.858-.563-.548-1.685-1.313-3.261-2.3-1.909-1.311-3.371-2.514-4.158-3.608-.787-.985-1.236-2.078-1.236-3.39 0-1.86.898-3.39 2.697-4.703 1.798-1.202 3.933-1.75 6.631-1.75 1.011 0 1.91 0 2.586.11.674.219 1.574.438 2.471.767v4.374a15.242 15.242 0 00-2.36-1.642c-.787-.326-1.685-.436-2.697-.436-1.01 0-1.91.218-2.698.655-.674.439-1.01 1.095-1.01 1.749 0 .768.225 1.315.674 1.861.45.655 1.342 1.32 2.696 2.189 2.241 1.433 3.823 2.623 4.72 3.715.79 1.097 1.238 2.296 1.238 3.5 0 1.97-.787 3.608-2.36 4.92-1.685 1.205-3.709 1.86-6.18 1.86-1.35 0-2.474 0-3.485-.219a18.728 18.728 0 01-2.307-.43c.041.07.075.145.12.212h-7.64c.447-.765.784-1.53.898-2.515.224-.984.335-2.406.335-4.156v-8.42c0-1.313-.449-2.298-1.123-2.953-.785-.657-1.91-.874-3.37-.874-1.013 0-2.361.217-4.048.874l-1.235.547v10.826c0 1.75.111 3.172.224 4.047.225.983.563 1.859.899 2.624h-7.753l.006-.015c-1.014.298-2.133.451-3.357.451-2.812 0-5.282-.764-7.306-2.296v2.408c0 1.202 0 2.296.224 3.28.081.706.28 1.47.55 2.326a19.494 19.494 0 008.764 2.073h130.236c10.813 0 19.611-8.796 19.611-19.61 0-10.815-8.798-19.612-19.611-19.612zM10.742 12.386l3.708-3.61.674-.33c.787-.327 1.799-.437 3.034-.437 1.69 0 3.185.376 4.475 1.107V6.587c0-1.53-.111-2.732-.338-3.716-.102-.891-.391-1.782-.779-2.672H20.28c-6.58 0-12.409 3.26-15.969 8.247h6.43v3.94zm139.774 25.111H74.143v-.024c-8.77-1.111-15.551-8.591-15.551-17.662 0-9.072 6.782-16.553 15.551-17.665v-.02h76.373c9.752 0 17.684 7.933 17.684 17.685 0 9.752-7.932 17.686-17.684 17.686zM15.799 12.276c-1.01 0-2.135.11-3.484.546-.448.22-1.011.438-1.573.764v12.467c1.236 1.312 2.698 1.968 4.494 1.968 2.248 0 4.042-.658 5.171-1.968 1.232-1.425 1.91-3.28 1.91-5.794 0-2.516-.674-4.485-1.798-5.905-1.123-1.422-2.81-2.078-4.72-2.078zM4.175 8.64A19.497 19.497 0 00.669 19.811a19.51 19.51 0 004.564 12.558l.002-.627V15.118c0-1.203 0-2.296-.226-3.28-.106-.935-.42-1.974-.834-3.198z"/><path d="M62.792 22.677V17.08c0-.83-.033-1.53-.1-2.095a11.174 11.174 0 00-.362-1.758h3.133c1.586 0 2.772.327 3.565.981.788.654 1.183 1.637 1.183 2.947 0 1.41-.463 2.444-1.39 3.094-.867.606-2.206.93-4.017.971v1.465c0 .836.033 1.538.1 2.102.068.567.187 1.147.36 1.747H62.33c.172-.589.291-1.168.36-1.732.069-.567.102-1.275.102-2.124zm2.012-2.475c1.097-.01 1.908-.24 2.429-.683.521-.447.783-1.158.783-2.138 0-.958-.24-1.674-.723-2.148-.48-.478-1.203-.716-2.165-.716h-.324v5.685zm6.391 3.631v-7.3c0-.599-.03-1.096-.086-1.493a5.974 5.974 0 00-.303-1.205l1.32-.264 1.32-.27c-.15.418-.255.884-.315 1.398-.061.516-.092 1.219-.092 2.107v2.104l1.4-1.613c.476-.13.872-.195 1.188-.195.837 0 1.472.26 1.908.785.435.524.654 1.287.654 2.287v3.66c0 .767.023 1.349.072 1.743.048.393.134.712.26.957h-2.565c.145-.284.246-.624.304-1.02.054-.396.083-.957.083-1.678v-3.404c0-.537-.125-.937-.373-1.2-.249-.264-.63-.395-1.143-.395-.349 0-.807.13-1.373.39l-.415.186v4.423c0 .717.03 1.273.092 1.665.06.394.165.738.315 1.033h-2.64c.147-.284.248-.624.303-1.02.056-.396.086-.957.086-1.68zM82 26.736c-.9 0-1.591-.193-2.078-.575-.485-.385-.729-.934-.729-1.645 0-.475.171-.92.513-1.338.342-.419.804-.75 1.387-.991l2.713-1.123v-.839c0-.503-.155-.903-.465-1.201-.31-.297-.73-.445-1.254-.445a2.86 2.86 0 00-.98.172c-.316.114-.66.305-1.041.569l.509-1.774a5.782 5.782 0 011.05-.338 5.161 5.161 0 011.032-.106c.996 0 1.743.261 2.244.783.501.518.75 1.295.75 2.332v3.617c0 .768.027 1.35.073 1.744.049.392.135.712.26.955h-2.177v-.885l-1.435 1.07-.371.018zm1.806-1.602v-2.532H81.44c-.055 0-.127.17-.215.51a3.52 3.52 0 00-.129.86c0 .435.14.762.42.98.282.218.707.326 1.268.326.35 0 .685-.048 1.004-.144h.02zm3.648-1.301v-3.83c0-.496-.03-.944-.083-1.34a10.242 10.242 0 00-.304-1.359H89.3v1.638l1.428-1.612c.424-.153.83-.228 1.218-.228.321 0 .597.062.824.187l-.375 1.99-.084-.061c-.344-.254-.753-.381-1.227-.381-.35 0-.806.128-1.371.388l-.413.185v4.423c0 .717.03 1.276.09 1.668.06.394.165.738.316 1.033h-2.64c.147-.284.248-.624.305-1.02.054-.397.084-.957.084-1.68zm6.066 0v-3.83c0-.496-.027-.944-.083-1.34a10.084 10.084 0 00-.303-1.359h2.232v1.776l1.156-1.426.414-.247c.396-.204.848-.305 1.358-.305.728 0 1.287.228 1.672.686.288.341.465.8.527 1.377l1.368-1.528.376-.212c.397-.217.82-.323 1.268-.323.717 0 1.261.223 1.635.671.375.446.562 1.101.562 1.959v4.101c0 .781.023 1.37.067 1.766.045.397.127.707.245.935h-2.545c.145-.284.247-.624.304-1.02.054-.396.082-.957.082-1.678v-3.523c0-.498-.115-.868-.35-1.112-.231-.243-.585-.364-1.062-.364-.445 0-.931.149-1.466.449l-.443.272v4.278c0 .717.03 1.273.091 1.665.061.394.166.738.316 1.033H98.3a3.23 3.23 0 00.304-1.02c.056-.396.085-.957.085-1.678V20.32c0-.502-.117-.875-.347-1.12-.233-.242-.588-.363-1.07-.363-.405 0-.906.156-1.499.467l-.406.21v4.322c0 .717.03 1.273.09 1.665.061.394.165.738.316 1.033h-2.639c.145-.284.248-.624.303-1.02.056-.397.084-.957.084-1.68zm18.625-4.553c-.261-.308-.529-.532-.801-.673a1.976 1.976 0 00-.915-.214c-.37 0-.677.097-.923.29-.244.191-.366.432-.366.72 0 .282.083.537.247.763.159.227.464.513.911.857.758.582 1.29 1.095 1.595 1.537.3.435.45.909.45 1.417 0 .792-.276 1.451-.829 1.973-.552.523-1.249.786-2.087.786-.459 0-.853-.027-1.179-.08a8.333 8.333 0 01-1.202-.308V24.15c.356.431.713.752 1.07.96.358.21.723.314 1.098.314.362 0 .662-.105.901-.319.238-.213.357-.48.357-.803 0-.262-.096-.514-.288-.758-.186-.237-.548-.563-1.089-.977-.681-.526-1.158-1-1.438-1.426a2.528 2.528 0 01-.409-1.4c0-.759.304-1.388.908-1.89.604-.5 1.363-.75 2.278-.75.335 0 .623.029.867.083.245.057.527.159.844.305v1.79zm3.954 7.456c-.725 0-1.253-.214-1.585-.645-.331-.43-.497-1.118-.497-2.063v-5.45h-1.312v-.009l3.14-3.295h.016v2.031h2.14v1.274h-2.14v4.676c0 .62.108 1.086.32 1.396.211.306.53.46.955.46.261 0 .5-.031.72-.092a4.5 4.5 0 00.783-.331l-.73 1.772c-.322.11-.605.182-.845.218-.241.04-.563.058-.965.058zm5.434 0c-.898 0-1.59-.193-2.077-.575-.485-.385-.729-.934-.729-1.645 0-.475.171-.92.512-1.338.342-.419.805-.75 1.388-.991l2.715-1.123v-.839c0-.503-.155-.903-.468-1.201-.311-.297-.727-.445-1.252-.445-.339 0-.665.058-.98.172a4.615 4.615 0 00-1.041.569l.51-1.774a5.772 5.772 0 011.049-.338 5.133 5.133 0 011.029-.106c.998 0 1.746.261 2.246.783.499.518.751 1.295.751 2.332v3.617c0 .768.024 1.35.073 1.744.048.392.133.712.26.955h-2.177v-.885l-1.433 1.07-.376.018zm1.809-1.602v-2.532h-2.367c-.056 0-.13.17-.217.51a3.62 3.62 0 00-.13.86c0 .435.141.762.421.98.282.218.705.326 1.27.326.348 0 .682-.048 1.004-.144h.019zm3.906-1.301v-3.83c0-.502-.03-.952-.085-1.35a10.296 10.296 0 00-.304-1.349h2.233v1.606l1.4-1.613c.475-.13.871-.195 1.186-.195.838 0 1.475.26 1.911.785.433.524.653 1.287.653 2.287v3.66c0 .767.023 1.349.072 1.743.046.393.135.712.258.957h-2.565a3.18 3.18 0 00.306-1.02c.054-.396.083-.957.083-1.678v-3.404c0-.537-.124-.937-.372-1.2-.252-.264-.631-.395-1.145-.395-.35 0-.808.13-1.373.39l-.414.186v4.423c0 .717.031 1.273.09 1.665.061.394.167.738.316 1.033h-2.639c.146-.284.246-.624.304-1.02.055-.397.085-.957.085-1.68zm11.657 2.903c-1.136 0-2.039-.355-2.705-1.07-.664-.711-.999-1.677-.999-2.894 0-1.624.461-2.975 1.381-4.052.921-1.08 2.076-1.618 3.462-1.618.374 0 .724.05 1.045.151v-.72c0-.598-.027-1.097-.085-1.492a5.77 5.77 0 00-.303-1.206l1.289-.264 1.295-.27a5.665 5.665 0 00-.276 1.332c-.049.515-.075 1.239-.075 2.174v7.027c0 .717.031 1.275.091 1.668.061.394.164.737.316 1.032h-2.252v-1.258l-1.096 1.24c-.425.151-.787.227-1.088.22zm.515-8.323c-.821 0-1.412.279-1.774.835-.362.557-.542 1.466-.542 2.728 0 1.006.218 1.805.656 2.397.439.591 1.029.887 1.778.887.361 0 .698-.07 1.008-.204l.543-.29v-5.822c-.429-.354-.987-.531-1.669-.531zm21.029 8.323c-1.139 0-2.042-.355-2.706-1.07-.666-.711-.999-1.677-.999-2.894 0-1.624.46-2.975 1.38-4.052.921-1.08 2.075-1.618 3.461-1.618.374 0 .724.05 1.045.151v-.72a10.8 10.8 0 00-.084-1.492 6.029 6.029 0 00-.303-1.206l1.288-.264 1.297-.27a5.377 5.377 0 00-.276 1.332c-.051.515-.074 1.239-.074 2.174v7.027c0 .717.028 1.275.09 1.668.06.394.165.737.315 1.032h-2.253v-1.258l-1.095 1.24c-.426.151-.787.227-1.086.22zm.511-8.323c-.82 0-1.411.279-1.774.835-.361.557-.542 1.466-.542 2.728 0 1.006.22 1.805.658 2.397.438.591 1.03.887 1.778.887.361 0 .697-.07 1.007-.204l.543-.29v-5.822c-.429-.354-.987-.531-1.67-.531zm-14.212 8.323c-.898 0-1.591-.193-2.077-.575-.487-.385-.729-.934-.729-1.645 0-.475.169-.92.512-1.338.342-.419.806-.75 1.387-.991l2.713-1.123v-.839c0-.503-.155-.903-.465-1.201-.309-.297-.727-.445-1.252-.445a2.87 2.87 0 00-.98.172 4.636 4.636 0 00-1.041.569l.51-1.774c.36-.154.71-.266 1.047-.338a5.158 5.158 0 011.03-.106c.997 0 1.748.261 2.247.783.501.518.75 1.295.75 2.332v3.617c0 .768.026 1.35.072 1.744.05.392.135.712.261.955h-2.179v-.885l-1.432 1.07-.374.018zm1.806-1.602v-2.532h-2.366c-.056 0-.127.17-.215.51a3.599 3.599 0 00-.132.86c0 .435.142.762.424.98.281.218.703.326 1.266.326.353 0 .685-.048 1.007-.144h.016zm3.354-1.301v-3.83a9.81 9.81 0 00-.084-1.34 10.523 10.523 0 00-.303-1.359h2.232v1.638l1.43-1.612a3.573 3.573 0 011.217-.228c.322 0 .595.062.823.187l-.373 1.99-.084-.061c-.345-.254-.754-.381-1.228-.381-.35 0-.805.128-1.372.388l-.413.185v4.423c0 .717.031 1.276.09 1.668.062.394.165.738.317 1.033h-2.639c.145-.284.246-.624.303-1.02.055-.397.084-.957.084-1.68z"/></g><defs><clipPath id="clip0_206_76"><path fill="#fff" d="M0 0h170.428v40H0z"/></clipPath></defs></svg>