<svg width="39" height="45" viewBox="0 0 39 45" fill="none" xmlns="http://www.w3.org/2000/svg">
<g clip-path="url(#clip0_164_654)">
<path d="M19.9767 2.53192C21.4441 3.55778 22.1526 5.05968 22.5646 6.749C22.5941 6.88268 22.5998 7.08154 22.5243 7.16557C21.5704 8.23888 20.7453 9.42174 20.0662 10.6894C19.3066 10.028 18.5728 9.35703 17.8132 8.72713C17.1679 8.20445 17.1606 8.23423 17.4144 7.42808C17.9403 5.7193 18.7399 4.10774 19.7814 2.65746C19.8183 2.60337 19.868 2.56036 19.903 2.51371L19.9767 2.53192Z" fill="#EB0038"/>
<path d="M36.612 13.0536C32.6298 16.2564 28.2116 17.6138 23.2227 16.6582C23.306 16.611 23.3922 16.569 23.4806 16.5324L25.7946 15.7137C26.1907 15.5667 26.3803 15.2107 26.2751 14.845C26.1698 14.4794 25.8325 14.2934 25.4456 14.3716L25.1508 14.4568L22.1366 15.5449C22.52 14.8925 23.0452 14.3361 23.6726 13.918C25.1462 12.8918 26.8302 12.502 28.5808 12.3498C30.7072 12.1641 32.8155 12.3688 34.9146 12.7371C35.4712 12.8272 36.0222 12.9396 36.612 13.0536ZM30.0341 14.4148C30.1812 13.8508 29.8455 13.4046 29.3812 13.4479C29.0673 13.4737 28.7567 13.5319 28.4544 13.6219C28.3475 13.6526 28.2497 13.7098 28.17 13.7881C28.0902 13.8664 28.031 13.9634 27.9976 14.0704C27.9641 14.1773 27.9576 14.2909 27.9786 14.4008C27.9996 14.5107 28.0474 14.6135 28.1178 14.6998C28.4958 15.1644 28.9692 14.8943 29.4133 14.8381C29.8574 14.7819 29.9789 14.6381 30.0341 14.4148Z" fill="#EB0038"/>
<path d="M20.3931 15.1301C19.8676 14.5343 19.3937 13.9829 18.9087 13.4445C18.6635 13.1707 18.4053 12.9174 18.149 12.6566C17.784 12.2979 17.3841 12.2702 17.0839 12.5673C16.7837 12.8644 16.8115 13.2583 17.1637 13.6376L18.7974 15.4153C18.8572 15.4855 18.9121 15.5597 18.9616 15.6375C17.5849 15.3529 14.0659 13.3859 12.7844 12.1454C11.042 10.4592 9.83197 8.39113 8.67158 6.18524C9.0918 6.28901 9.44196 6.35969 9.78477 6.46014C11.9412 7.10826 14.0127 8.01221 15.9559 9.1531C17.2519 9.92335 18.4005 10.8784 19.2802 12.1303C19.8999 13.01 20.304 13.9707 20.3931 15.1301ZM15.9349 10.9804C15.8906 10.8746 15.8425 10.6258 15.7024 10.4648C15.5623 10.3038 15.2654 10.0805 15.0313 9.91997C14.8931 9.81735 14.7211 9.77186 14.5503 9.79277C14.3795 9.81368 14.2227 9.89942 14.1118 10.0325C13.996 10.1696 13.9382 10.347 13.9511 10.5261C13.9639 10.7053 14.0464 10.8718 14.1806 10.9894C14.3803 11.1821 14.5962 11.357 14.8259 11.5121C15.248 11.798 15.7915 11.5926 15.9349 10.9804Z" fill="#EB0038"/>
<path d="M17.4839 19.1824C17.6441 18.4912 17.9717 17.8502 18.4374 17.3168C18.5884 17.1488 18.7155 17.1091 18.9496 17.1748C20.131 17.4902 21.3124 17.7741 22.4956 18.0505C22.6965 18.0922 22.7886 18.1623 22.8496 18.3591C23.2816 19.8401 22.7059 21.6646 21.4939 22.6133C20.0517 23.7341 18.2971 23.2376 17.6271 21.5162C17.3373 20.7739 17.2872 19.9573 17.4839 19.1824Z" fill="#EB0038"/>
<path d="M24.2924 18.281C25.4183 18.2826 26.5314 18.2731 27.6481 18.2803C27.7441 18.2896 27.8333 18.3341 27.8988 18.4054C28.9221 19.3927 29.2752 21.415 28.6623 22.6933C27.9114 24.2455 26.2163 24.5851 24.7893 23.4587C24.5981 23.2969 24.4193 23.1208 24.2546 22.9317C23.8508 22.4765 23.6312 22.0669 23.9791 21.3867C24.4172 20.5628 24.4498 19.6073 24.3221 18.6674C24.3018 18.5597 24.2907 18.4464 24.2795 18.3331C24.28 18.315 24.2844 18.2972 24.2924 18.281Z" fill="#EB0038"/>
<path d="M17.1801 16.5167C16.8838 17.1148 16.5451 17.6947 16.3132 18.3167C16.1403 18.7953 16.0798 19.3253 16.0156 19.8387C15.9844 20.0916 15.9053 20.2537 15.6861 20.3813C14.6673 20.959 13.6134 21.2043 12.5222 20.6504C11.5636 20.161 11.1023 19.0202 11.3836 17.8812C11.7384 16.4761 12.6224 15.5254 13.9507 14.9925C14.005 14.9684 14.0637 14.9565 14.1229 14.9575C14.182 14.9584 14.2402 14.9723 14.2935 14.9981C15.2649 15.4987 16.2327 16.0141 17.1801 16.5167Z" fill="#EB0038"/>
<path d="M21.6233 13.7911C21.4166 13.2977 21.1878 12.7673 20.9848 12.2274C20.9537 12.1061 20.9715 11.977 21.0344 11.8684C22.1994 9.46279 23.8383 7.45059 26.0432 5.9336C26.7027 5.48037 27.5357 5.6229 27.9728 6.26004C28.0787 6.40677 28.1543 6.57352 28.1952 6.75046C28.2361 6.92741 28.2415 7.11098 28.2111 7.29038C28.1806 7.46979 28.1149 7.6414 28.0179 7.79512C27.9208 7.94885 27.7943 8.08158 27.6459 8.18552C26.4191 9.06734 25.338 10.0878 24.5169 11.3541C24.2105 11.828 23.7994 12.2241 23.3161 12.5109C22.7119 12.8672 22.1851 13.3532 21.6233 13.7911Z" fill="#EB0038"/>
<path d="M17.0754 23.3072C18.2573 24.5706 19.6433 24.9128 21.2793 24.3374C21.5266 24.9514 21.5196 25.5816 21.4205 26.2047C21.2442 27.3302 20.6901 28.2438 19.7322 28.8919C18.7744 29.54 17.2871 29.386 16.5126 28.3417C15.4724 26.9474 15.7345 24.4925 17.0754 23.3072Z" fill="#EB0038"/>
<path d="M14.0493 35.4976C15.2294 36.7684 16.6301 37.1143 18.2735 36.5407C18.5005 37.1734 18.4954 37.7961 18.4036 38.4211C18.2989 39.1549 17.9929 39.8454 17.5202 40.4145C16.8241 41.2694 15.8919 41.6869 14.8359 41.434C13.7798 41.1811 13.127 40.3722 12.9237 39.2952C12.6852 38.0121 12.9628 36.8247 13.7822 35.787C13.8614 35.6881 13.9535 35.6003 14.0493 35.4976Z" fill="#EB0038"/>
<path d="M15.5586 29.4173C17.1295 30.753 17.9681 30.968 19.7774 30.4512C19.9933 31.0021 20.0084 31.5745 19.9368 32.1492C19.7772 33.3657 19.2194 34.3574 18.1713 35.0227C17.1231 35.688 15.5492 35.4099 14.8464 34.2016C13.9832 32.7247 14.2989 30.5911 15.5586 29.4173Z" fill="#EB0038"/>
<path d="M7.06732 17.0207C7.79248 17.8102 8.79726 18.2796 9.8654 18.3278C9.96523 18.8737 10.0743 19.3824 10.1483 19.9062C10.1667 19.9898 10.0968 20.1147 10.0305 20.1931C9.51717 20.8225 9.12448 21.5425 8.87263 22.3162C8.82834 22.428 8.75285 22.5246 8.65535 22.5942C8.13216 22.8758 7.57205 23.0218 6.98048 22.9468C6.0922 22.838 5.53537 22.3056 5.27689 21.4519C4.8227 19.9654 5.68939 17.8178 7.06732 17.0207Z" fill="#EB0038"/>
<path d="M29.9563 23.313C31.5709 23.7749 31.7165 23.7871 33.1075 23.4435C33.6076 24.5227 33.7225 25.6411 33.3767 26.7878C33.2551 27.1739 33.0777 27.54 32.8503 27.8742C32.0052 29.0793 30.6287 29.2054 29.5593 28.2147C29.1445 27.8358 28.9342 27.4521 29.0333 26.8289C29.1325 26.2057 29.0123 25.5521 28.9603 24.9074C28.9436 24.7216 28.9436 24.5952 29.0835 24.4402C29.3874 24.0966 29.6544 23.7123 29.9563 23.313Z" fill="#EB0038"/>
<path d="M22.7972 23.3538C24.007 24.9795 25.5057 25.8788 27.6596 25.3602C27.6783 25.7597 27.7172 26.1406 27.6934 26.5217C27.646 27.284 27.4676 28.0062 26.987 28.622C26.0534 29.8053 24.6769 29.8998 23.6186 28.8328C23.3549 28.5702 23.1465 28.2423 22.951 27.9255C22.8207 27.7259 22.7346 27.5002 22.6986 27.2637C22.6625 27.0272 22.6773 26.7855 22.7419 26.5548C22.9592 25.6594 22.908 24.7202 22.5948 23.8567C22.5117 23.6229 22.5356 23.4629 22.7972 23.3538Z" fill="#EB0038"/>
<path d="M16.3134 21.7684C16.2582 21.9285 16.2473 22.1312 16.1349 22.2377C15.389 22.9776 14.9233 23.8815 14.6291 24.883C14.5748 25.0747 14.4697 25.2481 14.3253 25.3846C13.4615 26.127 12.5127 26.5799 11.346 26.1733C11.0926 26.0923 10.8613 25.9537 10.6698 25.7681C10.4784 25.5825 10.3319 25.3549 10.2416 25.1028C9.69161 23.6874 10.1295 22.4528 10.9654 21.2533C12.6063 22.7169 14.3698 22.6074 16.3134 21.7684Z" fill="#EB0038"/>
<path d="M21.8237 28.816C22.4969 29.859 23.3322 30.6261 24.5375 30.9079C24.5769 30.9193 24.6134 30.9391 24.6445 30.9658C24.6757 30.9926 24.7008 31.0258 24.7182 31.0631C25.1004 32.3028 24.7809 34.3249 23.3237 35.0945C22.4339 35.562 21.3318 35.3056 20.7785 34.4739C20.7535 34.4219 20.7389 34.3655 20.7357 34.3077C20.7325 34.25 20.7407 34.1922 20.7599 34.1375C21.4059 32.7569 21.5433 31.3454 21.0743 29.8868C21.0593 29.8373 21.0547 29.7851 21.0607 29.7336C21.0667 29.682 21.0832 29.6323 21.1092 29.5874C21.3302 29.326 21.5696 29.085 21.8237 28.816Z" fill="#EB0038"/>
<path d="M14.5142 27.0267C14.6047 27.3571 14.7063 27.6744 14.7802 28.0086C14.7847 28.06 14.7788 28.1118 14.7626 28.1608C14.7465 28.2098 14.7205 28.255 14.6864 28.2935C13.585 29.3643 13.0422 30.6756 12.9638 32.1965C12.951 32.2683 12.9213 32.336 12.877 32.3938C12.8328 32.4517 12.7754 32.4979 12.7097 32.5287C11.549 33.0161 10.4578 32.5254 9.99276 31.3364C9.52769 30.1474 9.96531 28.502 10.8788 27.685C10.9135 27.6538 10.9541 27.63 10.9982 27.615C11.0422 27.6001 11.0887 27.5944 11.1349 27.5981C12.32 27.8987 13.4034 27.6291 14.4387 27.0476C14.459 27.0289 14.4811 27.0344 14.5142 27.0267Z" fill="#EB0038"/>
<path d="M12.6713 14.0288C12.6252 14.057 12.5368 14.1299 12.4447 14.1862C11.5207 14.7704 10.7941 15.6243 10.362 16.6337C10.2552 16.8759 10.1336 16.9565 9.87563 16.9244C7.96272 16.7205 7.03485 15.0933 7.84463 13.3029C8.3029 12.3024 9.09306 11.6366 10.0566 11.2506L12.6713 14.0288Z" fill="#EB0038"/>
<path d="M29.4834 18.1333C30.0896 17.9591 30.6995 17.8017 31.289 17.5998C31.8786 17.3978 32.4589 17.1383 33.0466 16.9122C34.081 17.9812 34.399 19.7658 33.7824 20.9958C33.1658 22.2257 31.8006 22.6231 30.4808 21.9813C30.4362 21.9538 30.3988 21.9159 30.3718 21.8708C30.3449 21.8256 30.3291 21.7745 30.3258 21.7218C30.4349 20.4853 30.1418 19.2483 29.4908 18.1983C29.4798 18.1797 29.4871 18.15 29.4834 18.1333Z" fill="#EB0038"/>
<path d="M8.61207 24.2264C8.81369 25.5321 8.82476 25.5506 9.74506 26.86C9.16379 27.532 8.75311 28.3361 8.54862 29.2026C8.5284 29.2845 8.41236 29.3743 8.3184 29.4064C7.38245 29.7124 6.41107 29.3066 5.9517 28.4112C5.29124 27.1265 5.79516 25.4027 6.74916 24.4536C6.80344 24.4031 6.87152 24.3704 6.94444 24.3596L8.61207 24.2264Z" fill="#EB0038"/>
<path d="M26.1444 30.8624C27.0631 30.5594 27.8419 29.9288 28.3344 29.089C28.821 29.3988 29.2893 29.6882 29.7538 29.9925C29.8225 30.0451 29.8729 30.1183 29.8977 30.2018C30.2228 31.5142 30.0337 32.7234 29.0871 33.7375C28.2786 34.6042 27.1343 34.6454 26.2622 33.8693C26.1614 33.7713 26.102 33.6379 26.0961 33.4965C26.1346 33.0558 26.243 32.6166 26.2502 32.176C26.2573 31.7355 26.187 31.3232 26.1444 30.8624Z" fill="#EB0038"/>
<path d="M19.7305 35.4235C20.599 36.341 21.5353 36.7934 22.6797 36.7205C23.154 38.0619 22.3333 39.9602 21.0547 40.4817C20.8061 40.5936 20.5336 40.6398 20.2631 40.6158C19.9925 40.5919 19.7328 40.4986 19.5085 40.3448C19.3389 40.2397 19.2946 40.134 19.3811 39.9421C19.9295 38.64 20.0043 37.3236 19.5705 35.9764C19.5317 35.8484 19.6551 35.6656 19.7305 35.4235Z" fill="#EB0038"/>
<path d="M13.2892 33.9513C13.2413 34.1133 13.2359 34.3252 13.1328 34.4261C12.1874 35.3596 11.6075 36.6052 11.5003 37.9327C11.4728 38.2023 11.3826 38.2827 11.1449 38.2951C10.5405 38.3354 10.0667 38.1 9.70711 37.6241C8.88829 36.5373 9.07524 34.7984 9.92597 33.7289C9.97017 33.6767 10.1212 33.635 10.1692 33.6626C11.1277 34.2153 12.1302 34.2101 13.1583 33.8795L13.2892 33.9513Z" fill="#EB0038"/>
<path d="M26.8162 35.7753C26.7932 37.5152 25.4083 39.0057 24.1845 38.7035C24.1417 37.9267 24.1081 37.176 24.0745 36.4252C24.0827 36.3452 24.1177 36.2702 24.1739 36.2128C24.5957 35.8352 25.023 35.4668 25.4595 35.0928L26.8162 35.7753Z" fill="#EB0038"/>
<path d="M7.81837 34.6618C6.5743 34.3151 6.01839 32.1953 6.86896 30.8414L8.37083 30.8727C8.5849 31.3994 8.79713 31.9337 8.99278 32.4717C9.00394 32.5098 9.00742 32.5499 9.00302 32.5895C8.99861 32.6291 8.98641 32.6675 8.96712 32.7023C8.59709 33.3455 8.2197 33.9868 7.81837 34.6618Z" fill="#EB0038"/>
</g>
<defs>
<clipPath id="clip0_164_654">
<rect width="29" height="39" fill="white" transform="translate(10.098 0.0923462) rotate(13.8718)"/>
</clipPath>
</defs>
</svg>
