<svg width="43" height="38" viewBox="0 0 43 38" fill="none" xmlns="http://www.w3.org/2000/svg">
<g clip-path="url(#clip0_36_214)">
<path d="M22.5932 22.7272L21.6822 22.1818C21.7192 22.9742 21.658 23.768 21.5 24.5454C21.5 25.6363 21.3178 26.7273 21.3178 27.6363C21.2828 28.7909 21.3437 29.9464 21.5 31.0909V31.4546H21.3178C21.1356 30.7273 20.7712 30.1818 20.589 29.4545C20.3776 28.3755 20.2557 27.2809 20.2245 26.1818C20.2245 24.9091 20.4068 23.8182 20.4068 22.5455V22H20.2245L18.7669 22.7272C18.3633 22.9237 17.9149 23.0103 17.467 22.9784C17.0191 22.9464 16.5876 22.7971 16.2161 22.5455C16.0657 23.2625 16.0045 23.9953 16.0339 24.7273C15.9953 26.1558 16.2431 27.5775 16.7627 28.9091C17.2423 30.4427 17.9158 31.9091 18.7669 33.2728C19.4628 34.1489 20.2576 34.942 21.1356 35.6364C21.8644 36 22.2288 36 22.5932 35.2727L23.5042 33.2728C23.8686 32.1819 24.0508 30.9091 24.4152 29.8182C24.7796 28.7273 24.5974 27.6363 24.7796 26.3636C24.8099 25.2091 24.749 24.0541 24.5974 22.9091H22.5932" fill="white"/>
<path d="M15.1229 20V18.5454L12.2076 19.2727L9.29237 19.8182C7.84048 20.0007 6.37138 20.0007 4.91949 19.8182C4.91949 19.77 4.90029 19.7237 4.86612 19.6896C4.83195 19.6555 4.78561 19.6364 4.73729 19.6364L6.92372 19.2727L10.75 18.5454L13.3008 17.6363H14.7585L13.6653 16.5455C13.2447 16.0974 12.9879 15.5208 12.9364 14.9091L8.19915 15.8182L3.46186 17.6363L0.546605 19.4545C-0.364412 20.1818 -0.364412 20.5455 0.546605 21.0909C1.47678 21.8106 2.52473 22.3641 3.64407 22.7272L7.65254 23.6363C9.04342 23.8193 10.4523 23.8193 11.8432 23.6363C13.2161 23.5262 14.566 23.2201 15.8517 22.7272C15.5048 22.4082 15.2406 22.0099 15.0819 21.5666C14.9233 21.1232 14.8748 20.648 14.9407 20.1818" fill="white"/>
<path d="M41.3602 21.6364C41.3602 21.4545 40.9958 21.0909 40.8136 20.909C39.4333 19.5563 37.831 18.4494 36.0763 17.6363L32.6144 16.1818L28.4237 14.7273C28.309 15.358 27.9888 15.9332 27.5127 16.3636L26.4195 17.4546L31.5212 19.4545C32.554 19.9787 33.6594 20.3465 34.8008 20.5455L36.9873 21.0909H35.3475C34.1115 21.103 32.8814 20.9189 31.7034 20.5455L26.2373 18.3637V19.8182C26.3207 20.3025 26.2619 20.8006 26.068 21.2523C25.874 21.704 25.5531 22.09 25.1441 22.3637H24.5975C29.1526 24.7273 37.8983 24.3637 40.0848 22.9091C42.2712 21.4546 40.9958 22.3636 41.178 21.8181C41.2167 21.784 41.2478 21.7421 41.2691 21.6951C41.2903 21.648 41.3014 21.5971 41.3014 21.5455C41.3014 21.4939 41.2903 21.4429 41.2691 21.3959C41.2478 21.3489 41.2167 21.3068 41.178 21.2727" fill="white"/>
<path d="M22.0466 3.09089C22.0466 3.52488 21.8739 3.94112 21.5663 4.248C21.2588 4.55488 20.8417 4.72729 20.4068 4.72729C19.9719 4.72729 19.5548 4.55488 19.2472 4.248C18.9397 3.94112 18.767 3.52488 18.767 3.09089C18.767 2.6569 18.9397 2.24065 19.2472 1.93377C19.5548 1.62689 19.9719 1.45459 20.4068 1.45459C20.8417 1.45459 21.2588 1.62689 21.5663 1.93377C21.8739 2.24065 22.0466 2.6569 22.0466 3.09089Z" fill="white"/>
<path d="M25.3263 6.18182C25.3263 6.50546 25.2301 6.82181 25.0499 7.09091C24.8697 7.36001 24.6136 7.56975 24.314 7.6936C24.0143 7.81746 23.6846 7.84985 23.3665 7.78671C23.0484 7.72357 22.7563 7.56778 22.5269 7.33893C22.2976 7.11008 22.1414 6.81851 22.0781 6.50109C22.0149 6.18366 22.0473 5.8546 22.1714 5.5556C22.2956 5.25659 22.5057 5.00098 22.7754 4.82118C23.0451 4.64137 23.3621 4.54541 23.6865 4.54541C24.1214 4.54541 24.5385 4.71782 24.846 5.0247C25.1535 5.33158 25.3263 5.74783 25.3263 6.18182Z" fill="white"/>
<path d="M21.6822 16C21.6865 16.2127 21.6159 16.4201 21.4827 16.5862C21.3496 16.7523 21.1622 16.8666 20.9534 16.9091C20.7118 16.9091 20.48 16.8133 20.3092 16.6428C20.1383 16.4723 20.0424 16.2411 20.0424 16C20.0849 15.7916 20.1994 15.6046 20.3659 15.4717C20.5324 15.3388 20.7402 15.2684 20.9534 15.2727C21.0491 15.2727 21.1439 15.2915 21.2323 15.3281C21.3207 15.3646 21.401 15.4182 21.4687 15.4858C21.5364 15.5533 21.5901 15.6335 21.6267 15.7217C21.6633 15.8099 21.6822 15.9045 21.6822 16Z" fill="white"/>
<path d="M19.678 6.54548C19.678 6.86912 19.5818 7.18547 19.4016 7.45457C19.2214 7.72367 18.9653 7.93341 18.6657 8.05726C18.366 8.18112 18.0363 8.21351 17.7182 8.15037C17.4001 8.08723 17.1079 7.93144 16.8786 7.70259C16.6493 7.47374 16.4931 7.18217 16.4298 6.86475C16.3665 6.54732 16.399 6.21826 16.5232 5.91926C16.6473 5.62025 16.8574 5.36464 17.1271 5.18484C17.3968 5.00503 17.7138 4.90907 18.0381 4.90907C18.4731 4.90907 18.8902 5.08148 19.1977 5.38836C19.5052 5.69524 19.678 6.11149 19.678 6.54548Z" fill="white"/>
<path d="M27.6949 13.8182C27.5742 13.4531 27.359 13.1263 27.0711 12.8708C26.7831 12.6154 26.4326 12.4405 26.0551 12.3637H24.4152C24.184 12.3528 23.9601 12.2794 23.7676 12.1513C23.575 12.0232 23.421 11.8452 23.322 11.6364L22.5932 10.1818C22.2681 10.9421 22.0238 11.7343 21.8644 12.5455C22.3866 13.2848 23.1661 13.8033 24.0508 14L25.6907 14.3636C25.8729 14.3636 26.0551 14.3636 26.0551 14.5454V14.9091L24.7796 16C24.4027 16.3748 24.1228 16.8354 23.9641 17.3423C23.8054 17.8491 23.7726 18.3868 23.8686 18.9091L24.2331 20.5455C24.2331 20.5937 24.2138 20.6399 24.1797 20.674C24.1455 20.7081 24.0992 20.7273 24.0508 20.7273C24.0508 20.9091 23.6864 20.909 23.5042 20.909L22.2288 20.1818C21.7954 19.906 21.2837 19.7783 20.7712 19.8182C20.1999 19.7646 19.6262 19.8918 19.1314 20.1818L17.8559 20.909C17.6737 20.909 17.3093 20.9091 17.3093 20.7273C17.261 20.7273 17.2147 20.7081 17.1805 20.674C17.1463 20.6399 17.1271 20.5937 17.1271 20.5455L17.4915 18.9091C17.5875 18.3868 17.5548 17.8491 17.3961 17.3423C17.2374 16.8354 16.9574 16.3748 16.5805 16L15.3051 14.9091V14.5454C15.3051 14.3636 15.4873 14.3636 15.6695 14.3636L17.3093 14C17.7949 13.9022 18.2553 13.7067 18.6626 13.4254C19.0698 13.144 19.4153 12.7828 19.678 12.3637L20.0424 11.6364C19.7734 10.9545 19.4693 10.287 19.1314 9.63641L18.767 10.1818L18.0381 11.6364C17.9392 11.8452 17.7852 12.0232 17.5926 12.1513C17.4 12.2794 17.1761 12.3528 16.9449 12.3637H15.3051C14.9275 12.4405 14.5771 12.6154 14.2891 12.8708C14.0011 13.1263 13.7859 13.4531 13.6653 13.8182C13.5676 14.1986 13.5664 14.5972 13.6618 14.9781C13.7573 15.359 13.9463 15.7103 14.2119 16L15.3051 17.0909C15.6333 17.4367 15.8272 17.888 15.8517 18.3637L15.4873 20C15.4873 20.5454 15.4873 21.2727 16.0339 21.6364C16.3239 22.0161 16.7404 22.2798 17.2082 22.3799C17.676 22.4799 18.1643 22.4097 18.5847 22.1818L20.0424 21.4546C20.2442 21.3696 20.461 21.3257 20.6801 21.3257C20.8991 21.3257 21.116 21.3696 21.3178 21.4546L22.7754 22.1818L23.8686 22.5455C24.1678 22.5253 24.4574 22.4318 24.7116 22.2732C24.9659 22.1147 25.177 21.8959 25.3263 21.6364C25.8729 21.2727 25.8729 20.5454 25.8729 20L25.5085 18.3637C25.533 17.888 25.7268 17.4367 26.0551 17.0909L27.1483 16C27.4138 15.7103 27.6029 15.359 27.6983 14.9781C27.7937 14.5972 27.7926 14.1986 27.6949 13.8182Z" fill="white"/>
<path d="M18.5847 8.36362H18.0381C17.7827 8.3649 17.5299 8.31256 17.2961 8.21004C17.0622 8.10751 16.8526 7.95707 16.6808 7.76848C16.509 7.57989 16.3788 7.35732 16.2988 7.11529C16.2187 6.87326 16.1905 6.61715 16.2161 6.36356C16.1977 5.9625 16.3128 5.56675 16.5435 5.23785C16.7743 4.90895 17.1076 4.6654 17.4915 4.54538L15.3051 2.18176C14.2713 1.23145 13.1053 0.435353 11.8432 -0.181852C11.7385 -0.243209 11.6201 -0.27743 11.4987 -0.281506C11.3773 -0.285581 11.2569 -0.259349 11.1482 -0.205156C11.0396 -0.150963 10.9463 -0.070559 10.8768 0.0287747C10.8072 0.128108 10.7636 0.243168 10.75 0.36358C10.2334 1.44026 9.98343 2.62503 10.0212 3.81817V6.18178C10.2034 6.90906 10.2034 7.45447 10.3856 8.18174C10.6054 9.17562 10.9102 10.1489 11.2966 11.0909C11.7258 12.2159 12.3418 13.2608 13.1186 14.1818V13.4545C13.3109 12.9991 13.6098 12.5963 13.9902 12.28C14.3706 11.9636 14.8215 11.7429 15.3051 11.6363H16.9449C15.997 10.6687 15.1987 9.56576 14.5763 8.36362C13.9358 7.12114 13.5634 5.75851 13.483 4.3636C14.6884 6.64686 16.1559 8.78243 17.8559 10.7272L18.4025 9.63637L18.9491 8.90906L18.5847 8.36362Z" fill="white"/>
<path d="M31.339 1.99999C31.3254 1.87958 31.2818 1.76441 31.2122 1.66507C31.1427 1.56574 31.0494 1.48534 30.9407 1.43114C30.8321 1.37695 30.7117 1.35072 30.5903 1.35479C30.4689 1.35887 30.3505 1.3932 30.2458 1.45456C29.3143 1.69242 28.4445 2.12628 27.6949 2.7272L24.7797 4.72726C25.0177 4.88529 25.2102 5.10267 25.338 5.35781C25.4658 5.61296 25.5246 5.89698 25.5085 6.18179C25.534 6.43538 25.5059 6.69149 25.4258 6.93352C25.3458 7.17554 25.2156 7.39812 25.0438 7.5867C24.872 7.77529 24.6624 7.92574 24.4285 8.02827C24.1947 8.13079 23.9419 8.18302 23.6865 8.18174H23.3221L22.7755 9.27272L23.1399 9.63638L23.6865 10.7272L25.1441 9.27272C26.2141 8.14238 27.1891 6.92616 28.0593 5.63635C28.0593 5.58813 28.0785 5.54183 28.1127 5.50774C28.1469 5.47364 28.1932 5.45447 28.2416 5.45447C27.5952 7.84231 26.2656 9.99052 24.4153 11.6363H26.0551C26.5518 11.7098 27.0185 11.9183 27.4042 12.239C27.7899 12.5598 28.0796 12.9803 28.2416 13.4545C28.2416 13.6363 28.4237 13.8181 28.4237 13.9999C29.3297 12.7056 30.0646 11.3001 30.6102 9.81815C31.1467 8.28702 31.5133 6.70183 31.7034 5.09092C31.764 3.98741 31.6409 2.88143 31.339 1.81811" fill="white"/>
<path d="M20.7712 16.1818C20.6745 16.1818 20.5818 16.1435 20.5135 16.0753C20.4451 16.0071 20.4068 15.9146 20.4068 15.8182C20.7186 14.2093 20.6505 12.55 20.2077 10.972C19.7649 9.39394 18.9597 7.94059 17.8559 6.72725C17.6737 6.72725 17.6737 6.54541 17.6737 6.36359C17.7079 6.3249 17.75 6.29393 17.7971 6.27271C17.8442 6.25148 17.8953 6.24052 17.947 6.24052C17.9987 6.24052 18.0498 6.25148 18.0969 6.27271C18.1441 6.29393 18.1861 6.3249 18.2203 6.36359C19.4184 7.59885 20.3069 9.09922 20.8136 10.7423C21.3202 12.3853 21.4305 14.1245 21.1356 15.8182C20.9534 16 20.9534 16.1818 20.7712 16.1818Z" fill="white"/>
<path d="M20.9534 16.1818C20.848 16.0886 20.7827 15.9583 20.7712 15.8182C20.5184 12.3548 21.4148 8.90465 23.3221 6.00005H23.8686V6.36359C21.9627 9.13257 21.0626 12.4686 21.3178 15.8182C21.3178 15.9146 21.2794 16.0071 21.2111 16.0753C21.1427 16.1435 21.05 16.1818 20.9534 16.1818Z" fill="white"/>
<path d="M20.9534 15.4545C20.8567 15.4545 20.764 15.4163 20.6957 15.3481C20.6274 15.2799 20.589 15.1874 20.589 15.091C21.1356 12.7273 20.2245 4.00002 20.2245 3.8182C20.2245 3.63638 20.2246 3.63632 20.4068 3.63632C20.589 3.63632 20.7712 3.63638 20.7712 3.8182C20.7712 4.00002 21.6822 12.7273 21.1356 15.2727C21.1356 15.3209 21.1164 15.3672 21.0822 15.4013C21.048 15.4354 21.0017 15.4545 20.9534 15.4545Z" fill="white"/>
<path d="M30.9746 14.3636L30.0636 14C29.9761 13.7773 29.9644 13.5322 30.0302 13.3022C30.0961 13.0722 30.2358 12.8702 30.428 12.7272L38.6271 8.18179C39.194 7.92208 39.6987 7.54445 40.1072 7.07405C40.5157 6.60366 40.8187 6.05139 40.9958 5.45451C41.3478 4.24076 41.2173 2.9383 40.6314 1.81815C40.267 1.45451 40.4492 0.909146 40.9958 0.54551C41.1921 0.471112 41.4081 0.466596 41.6073 0.532859C41.8065 0.599122 41.9767 0.732006 42.089 0.909058C42.5284 1.67359 42.8039 2.52094 42.898 3.39729C42.9921 4.27364 42.9027 5.15997 42.6356 6.00006C42.4185 6.81854 42.0302 7.58187 41.4964 8.23994C40.9625 8.89801 40.2952 9.43587 39.5381 9.81819L31.339 14.3636H30.9746Z" fill="white"/>
<path d="M3.27964 38.0001C2.91524 38.0001 2.73303 37.8183 2.55083 37.4546C2.10442 36.7265 1.82403 35.9092 1.72957 35.0608C1.6351 34.2124 1.72888 33.3537 2.00423 32.5455C2.50079 30.9198 3.61159 29.5505 5.10168 28.7274L13.3008 24.1819C13.5183 24.0614 13.7748 24.0319 14.014 24.1001C14.2532 24.1683 14.4555 24.3285 14.5763 24.5455C14.6971 24.7625 14.7265 25.0185 14.6582 25.2571C14.5899 25.4958 14.4293 25.6977 14.2119 25.8182L6.01269 30.1819C4.89274 30.8294 4.0499 31.8645 3.64406 33.0909C3.46705 33.6705 3.42427 34.2826 3.51896 34.881C3.61365 35.4795 3.84333 36.0486 4.19066 36.5455C4.27813 36.7682 4.28984 37.0134 4.22399 37.2433C4.15815 37.4733 4.01841 37.6753 3.82626 37.8183H3.27964" fill="white"/>
</g>
<defs>
<clipPath id="clip0_36_214">
<rect width="43" height="38" fill="white"/>
</clipPath>
</defs>
</svg>
