<svg width="221" height="25" fill="none" xmlns="http://www.w3.org/2000/svg"><g clip-path="url(#clip0_206_20)" fill-rule="evenodd" clip-rule="evenodd"><path d="M3.797 1.423h213.405a3.81 3.81 0 013.798 3.8V19.91a3.81 3.81 0 01-3.798 3.799H3.797A3.809 3.809 0 010 19.91V5.223a3.809 3.809 0 013.797-3.799z" fill="#DA251D"/><path d="M14.148 18.808c.056-.016.2-.06.216-.098v-.142a.368.368 0 00-.012-.082.122.122 0 01-.03-.082.333.333 0 00-.013-.103l-.04-.119-.887-2.485H8.463l-.765 2.176a3.8 3.8 0 00-.079.277.128.128 0 01-.023.048.37.37 0 00-.076.143c-.004.046-.023.109-.034.147a.845.845 0 00-.026.222c0 .069.097.074.148.078.008 0 .014.002.021.004.067.016.167.016.234.016h.51c.07 0 .127.057.127.127v1.08c0 .07-.057.127-.127.127h-4.24a.124.124 0 01-.091-.037.123.123 0 01-.036-.092l.02-1.081a.127.127 0 01.124-.124c.408-.008 1.079-.062 1.363-.403.29-.347.506-.869.662-1.29l3.243-8.75c.086-.22.256-.656.256-.892 0-.176-.08-.266-.25-.306a.995.995 0 00-.378-.058h-.244a.127.127 0 01-.127-.126v-.734c0-.07.057-.127.127-.127 1.07 0 1.97-.496 2.725-1.228a.122.122 0 01.088-.036h.897c.055 0 .101.032.12.083l4.282 11.79c.145.415.301.866.494 1.261.125.257.315.462.55.625.276.19.619.223.945.192a.123.123 0 01.098.033.125.125 0 01.041.095l-.021 1.081a.126.126 0 01-.126.124H13.47a.127.127 0 01-.127-.126v-1.081c0-.07.057-.127.127-.127h.677zM20.73 5.184h15.231c.07 0 .127.057.127.127v1.08a.126.126 0 01-.13.127c-.303-.007-.808-.014-1.097.085-.155.054-.28.143-.328.304-.073.246-.076.616-.076.871v9.77c0 .252.004.608.076.851.05.17.2.26.358.314.301.103.75.104 1.067.095.035 0 .066.011.091.036a.122.122 0 01.039.09v1.082c0 .07-.057.127-.127.127h-6.606a.127.127 0 01-.127-.127v-1.081c0-.036.013-.067.039-.092a.126.126 0 01.093-.035c.286.011.991.028 1.236-.15.218-.157.243-.584.243-.825V7.697c0-.218-.02-.692-.241-.818-.264-.148-.947-.156-1.243-.156h-2.019c-.331 0-.727-.01-1.055.03-.153.018-.253.141-.322.27-.131.247-.147.685-.147.96v9.565c0 .252.004.608.076.851.05.17.2.26.357.314.305.104.77.104 1.088.095.035 0 .066.011.091.036a.125.125 0 01.038.09v1.082c0 .07-.056.127-.126.127H20.73a.127.127 0 01-.127-.127v-1.081c0-.036.012-.066.038-.09a.123.123 0 01.091-.037c.262.005 1.074.009 1.27-.204.195-.21.212-.789.212-1.056v-9.77c0-.274-.017-.882-.228-1.093-.213-.213-.977-.182-1.25-.167a.122.122 0 01-.093-.034.122.122 0 01-.04-.092V5.31c0-.07.057-.127.127-.127h0zm28.973.09l.938 3.162a.122.122 0 01-.02.112.123.123 0 01-.102.051h-.856a.123.123 0 01-.1-.049c-.753-.96-1.72-1.703-2.98-1.81-.182-.03-.45-.055-.616.046-.162.099-.189.487-.194.646v.49c0 .098 0 .2-.011.297-.007.077-.01.156-.01.233v9.096c0 .26.015.56.087.811.054.184.181.292.36.354.29.103.73.104 1.034.095a.127.127 0 01.13.127v1.08c0 .07-.056.127-.126.127H40.67a.127.127 0 01-.127-.126v-1.081a.12.12 0 01.038-.09.122.122 0 01.092-.037c.263.005 1.094.01 1.29-.204.195-.21.212-.789.212-1.056V8.452c0-.092-.003-.184-.01-.275a3.197 3.197 0 01-.01-.255c0-.09.007-.178.022-.266a.376.376 0 00-.016-.184.117.117 0 01-.007-.04c0-.222-.03-.538-.238-.663-.125-.063-.447-.039-.581-.027a4.412 4.412 0 00-.575.079c-.987.23-1.784.955-2.397 1.73a.123.123 0 01-.098.048h-.857a.123.123 0 01-.101-.051.122.122 0 01-.02-.112l.938-3.161a.125.125 0 01.12-.091h11.236c.057 0 .105.036.121.09h0zm7.346 6.07h1.28c.546 0 1.491-.011 2.002-.216.414-.166.48-.675.48-1.065 0-.07.058-.127.128-.127h.754c.07 0 .127.057.127.127v4.12a.125.125 0 01-.13.126l-.755-.02a.127.127 0 01-.123-.126c0-.691-.302-1.108-.995-1.222a4.291 4.291 0 00-.672-.04h-2.096v4.443c0 .232.011.822.173 1.008.157.18.652.235.87.253.55.03 1.169-.005 1.725-.021.34 0 .684-.04 1.015-.1 1.2-.248 2.006-1.08 2.564-2.137a.126.126 0 01.112-.068h.918c.039 0 .073.016.098.047.025.03.034.067.026.106l-.755 3.61a.125.125 0 01-.124.1H51.968a.127.127 0 01-.127-.126v-1.081c0-.036.013-.067.038-.092a.124.124 0 01.093-.035c.287.011.992.028 1.236-.15.218-.157.244-.584.244-.825V7.493c0-.256-.03-.67-.263-.835-.258-.183-.895-.16-1.193-.14a.123.123 0 01-.096-.035.122.122 0 01-.039-.093l.02-1.081a.127.127 0 01.127-.125h10.97c.062 0 .113.043.125.104l.652 3.548a.124.124 0 01-.027.105.123.123 0 01-.098.045h-.917a.126.126 0 01-.12-.083 3.543 3.543 0 00-1.014-1.478 2.585 2.585 0 00-1.558-.664c-.119-.02-.266-.018-.392-.018-.492-.02-.99-.02-1.484-.02-.211 0-.48.011-.68.084a.522.522 0 00-.303.316c-.1.24-.113.603-.113.86v3.36zm14.395.57h.082l3.853-4.298.243-.304a1.1 1.1 0 01.16-.18c.03-.055.085-.152.1-.203a.14.14 0 01.005-.027c.016-.046.05-.137.055-.175-.028-.279-.534-.259-.723-.25a.125.125 0 01-.094-.034.122.122 0 01-.04-.092v-1.04c0-.07.058-.127.127-.127h4.547c.068 0 .124.054.127.122l.04 1.04a.122.122 0 01-.036.093.12.12 0 01-.092.039c-1.067-.015-1.942.583-2.635 1.343l-2.022 2.32 3.036 5.55c.365.65.746 1.333 1.167 1.949.23.337.514.66.86.882.303.194.64.278.998.266a.12.12 0 01.093.035.12.12 0 01.038.091v1.102c0 .07-.056.127-.126.127h-6.362a.127.127 0 01-.127-.125l-.02-1.102a.12.12 0 01.036-.09.122.122 0 01.09-.038h.306c.055 0 .272-.007.31-.055a.125.125 0 01.016-.017.284.284 0 00.098-.23c0-.153-.378-.876-.453-1.02l-2.484-4.536-1.173 1.281v3.622c0 .203.017.473.11.658.075.152.235.223.393.26.31.07.703.066 1.019.057.035 0 .066.01.092.036a.122.122 0 01.038.09v1.082c0 .07-.057.127-.127.127h-6.606a.127.127 0 01-.127-.127v-1.081c0-.035.013-.066.038-.09a.123.123 0 01.091-.037c.296.006.977.008 1.232-.162.225-.15.25-.574.25-.813V7.473c0-.11 0-.238-.02-.352-.03-.247-.125-.455-.373-.537-.318-.107-.75-.093-1.08-.066a.126.126 0 01-.097-.033.124.124 0 01-.041-.093V5.31c0-.07.057-.127.127-.127h6.606c.07 0 .127.057.127.127v1.08a.125.125 0 01-.04.093.122.122 0 01-.094.034c-.298-.016-.731-.035-1.022.038a.516.516 0 00-.373.332c-.105.26-.123.614-.123.89v4.137h0zm21.185 6.894c.057-.016.2-.06.216-.098v-.142a.368.368 0 00-.011-.082.122.122 0 01-.03-.082.331.331 0 00-.014-.103l-.04-.119-.887-2.485h-4.918l-.765 2.176c-.03.091-.056.184-.08.277a.12.12 0 01-.023.048.37.37 0 00-.075.143.993.993 0 01-.034.147.844.844 0 00-.027.222c0 .069.097.074.149.078.007 0 .013.002.02.004.067.016.167.016.235.016h.51c.07 0 .126.057.126.127v1.08c0 .07-.056.127-.126.127h-4.241a.125.125 0 01-.091-.037.123.123 0 01-.036-.092l.02-1.081a.127.127 0 01.125-.124c.408-.008 1.079-.062 1.363-.403.289-.347.506-.869.661-1.29l3.243-8.75c.087-.22.257-.656.257-.892 0-.176-.08-.266-.25-.306a.998.998 0 00-.378-.058h-.245a.127.127 0 01-.127-.126v-.734c0-.07.057-.127.127-.127 1.07 0 1.97-.496 2.726-1.228a.123.123 0 01.088-.036h.897c.055 0 .1.032.12.083l4.282 11.79c.144.415.301.866.493 1.261.125.257.316.462.55.625.276.19.62.223.946.192a.123.123 0 01.098.033.123.123 0 01.04.095l-.02 1.081a.127.127 0 01-.127.124h-5.424a.127.127 0 01-.126-.126v-1.081c0-.07.057-.127.126-.127h.677v0zm-81.761-9.74l-1.845 5.07h3.737l-1.826-5.07h-.066 0zm78.481 0l-1.845 5.07h3.738l-1.826-5.07h-.067 0zm45.863 1.843h5.666V7.312c-.018-.269-.08-.64-.316-.811-.259-.189-.848-.17-1.151-.15a.122.122 0 01-.095-.033.121.121 0 01-.04-.093v-1.08c0-.07.057-.127.126-.127h6.876c.07 0 .127.057.127.126v1.102a.123.123 0 01-.046.097.124.124 0 01-.103.028c-.282-.05-.982-.153-1.19.124-.211.282-.268.78-.286 1.119 0 .116.003.23.011.345.008.109.011.217.011.326v8.444c0 .098-.004.197-.011.295-.01.118-.011.237-.011.352.014.27.058.85.247 1.063.186.212.995.207 1.249.202a.127.127 0 01.129.127v1.08c0 .07-.057.128-.127.128h-6.876a.127.127 0 01-.126-.127v-1.081c0-.035.012-.066.038-.09a.121.121 0 01.091-.037c.307.007.897.002 1.16-.181.235-.163.296-.537.313-.796V12.47h-5.666v4.911c0 .28.021.827.232 1.044.216.223.981.221 1.263.216a.127.127 0 01.13.127v1.08c0 .07-.057.128-.127.128h-6.92a.124.124 0 01-.126-.132l.044-1.081a.12.12 0 01.041-.088.121.121 0 01.091-.033c.298.012.934.023 1.189-.16.227-.165.259-.562.259-.816V7.306c0-.23-.027-.606-.236-.753-.24-.169-.933-.166-1.215-.16a.127.127 0 01-.129-.122l-.044-1.122a.12.12 0 01.035-.093.122.122 0 01.091-.038h6.92c.07 0 .127.057.127.126v1.081a.122.122 0 01-.04.092.121.121 0 01-.094.035c-.284-.016-1.042-.044-1.256.193-.211.233-.235.772-.235 1.067v3.3zm19.463.266h1.408c.603 0 1.624-.008 2.193-.217.442-.162.529-.644.529-1.064 0-.07.057-.127.127-.127h.823c.07 0 .127.057.127.127v4.12a.122.122 0 01-.039.09.124.124 0 01-.092.037l-.823-.02a.127.127 0 01-.123-.127c0-.735-.378-1.113-1.094-1.221a5.043 5.043 0 00-.737-.04h-2.299v4.442c0 .236.012.82.187 1.004.175.185.727.239.961.256.606.031 1.274-.004 1.885-.02.371 0 .747-.04 1.11-.1 1.276-.242 2.172-1.038 2.807-2.141a.124.124 0 01.11-.064h1.001a.126.126 0 01.124.155l-.824 3.61a.125.125 0 01-.123.099h-12.771a.127.127 0 01-.127-.127v-1.081c0-.035.013-.067.038-.091a.122.122 0 01.093-.035c.314.011 1.088.028 1.36-.153.236-.157.266-.57.266-.823V7.326c0-.269-.036-.669-.287-.831-.287-.188-.987-.162-1.314-.143a.12.12 0 01-.095-.036.119.119 0 01-.039-.093l.022-1.081a.127.127 0 01.127-.124h11.97c.061 0 .113.042.125.101l.712 3.55a.125.125 0 01-.027.104.12.12 0 01-.097.047h-1.002a.126.126 0 01-.118-.08 3.539 3.539 0 00-1.107-1.478 2.965 2.965 0 00-1.708-.667c-.133-.02-.293-.019-.431-.019-.538-.02-1.081-.02-1.62-.02-.233 0-.526.011-.75.085a.556.556 0 00-.336.32c-.107.236-.122.6-.122.855v3.36h0zm21.045.66c1.019.142 1.969.492 2.805 1.108.927.685 1.309 1.668 1.286 2.807-.031 1.551-.576 2.89-2.095 3.47a11.185 11.185 0 01-4.017.754h-8.322a.127.127 0 01-.127-.127v-1.081c0-.035.013-.067.039-.091a.122.122 0 01.093-.035c.313.011 1.067.027 1.338-.153.236-.157.266-.57.266-.823a.12.12 0 01.016-.06.678.678 0 00.029-.225v-.326a.99.99 0 00-.04-.293.096.096 0 01-.005-.033V8.285c0-.012.001-.022.005-.033a.99.99 0 00.04-.293v-.347a.81.81 0 00-.037-.263.107.107 0 01-.008-.043c0-.268-.039-.65-.287-.811-.287-.188-.987-.162-1.314-.143a.121.121 0 01-.094-.035.12.12 0 01-.041-.092v-1.08c0-.07.057-.127.127-.127h6.92c1.584 0 3.361.122 4.87.638 1.366.468 1.928 1.528 1.91 2.937-.013.924-.482 1.642-1.195 2.198-.643.503-1.364.882-2.162 1.047h0zm12.027 2.378h.039l5.805-6.57v-.033c0-.283-.019-.866-.231-1.085-.218-.224-1.133-.189-1.417-.175a.119.119 0 01-.093-.035.122.122 0 01-.039-.092v-1.08c0-.07.056-.127.126-.127h7.232c.07 0 .126.057.126.126v1.081a.121.121 0 01-.037.09.122.122 0 01-.092.037c-.338-.008-.881-.016-1.205.086-.16.05-.308.137-.363.306-.077.241-.082.615-.082.868v9.769c0 .25.005.61.082.848.057.175.232.265.396.316.335.105.823.105 1.172.096a.125.125 0 01.129.127v1.08c0 .07-.056.128-.126.128h-7.232a.126.126 0 01-.126-.127v-1.081c0-.035.013-.067.038-.091a.122.122 0 01.093-.035c.323.011 1.091.027 1.374-.154.242-.156.275-.564.275-.822V10.31h-.083l-5.761 6.57v.787c0 .203.017.473.11.658.077.155.254.225.414.26.335.072.762.066 1.104.057.036 0 .067.012.092.036a.125.125 0 01.038.09v1.082c0 .07-.057.127-.126.127h-7.209a.127.127 0 01-.127-.127v-1.081c0-.035.013-.067.038-.091a.122.122 0 01.093-.035c.304.01 1.087.03 1.35-.143.232-.152.284-.59.299-.834V7.312c-.016-.264-.074-.67-.32-.827-.28-.18-1.008-.152-1.326-.134a.12.12 0 01-.094-.034.119.119 0 01-.04-.092v-1.08c0-.07.057-.127.127-.127h7.209c.069 0 .126.057.126.126v1.081a.122.122 0 01-.039.092.121.121 0 01-.094.034c-.282-.014-1.176-.048-1.393.176-.212.22-.232.802-.232 1.085v6.603h0zm27.547-5.09h-.957a.126.126 0 01-.116-.075c-.699-1.59-1.806-2.77-3.628-2.8a3.522 3.522 0 00-1.665.335c-.584.271-1.062.702-1.455 1.207-.482.618-.8 1.358-1.013 2.108-.272.96-.36 1.977-.341 2.971.03 1.498.321 3.095 1.233 4.322.786 1.057 1.847 1.537 3.157 1.53a4.293 4.293 0 002.758-.991c.768-.623 1.327-1.397 1.57-2.36a.125.125 0 01.123-.096h.979c.036 0 .068.014.093.04a.119.119 0 01.033.096l-.222 3.222a.123.123 0 01-.064.101c-1.764 1.017-3.701 1.501-5.733 1.546-1.423.033-2.836-.21-4.138-.796a6.486 6.486 0 01-2.938-2.588c-.788-1.291-1.064-2.792-1.064-4.288 0-1.474.297-2.903 1.029-4.193a6.862 6.862 0 012.889-2.772c1.327-.683 2.779-.965 4.264-.953a11.23 11.23 0 015.063 1.258c.04.02.066.059.069.104l.2 2.937a.12.12 0 01-.034.095.12.12 0 01-.092.04h0zm-44.361 2.098c.918.042 1.964-.018 2.802-.402.754-.346 1.095-.984 1.173-1.798A2.67 2.67 0 00174.833 8c-.106-.412-.44-.739-.774-.98-.534-.385-1.324-.465-1.962-.465-.259 0-.796.021-.964.262-.175.248-.2.705-.2.998v3.407zm0 1.627v4.327c0 .276.021.809.222 1.025.196.212.677.235.942.235h.156c.691 0 1.451-.11 2.03-.517.435-.306.812-.694 1.024-1.19.159-.373.29-.795.29-1.201-.091-2.55-2.651-2.8-4.664-2.679h0z" fill="#FEFEFE" stroke="#fff" stroke-width=".076"/><path d="M3.424 1.292h214.152A3.435 3.435 0 01221 4.718v15.567a3.435 3.435 0 01-3.424 3.425H3.424A3.434 3.434 0 010 20.285V4.718a3.434 3.434 0 013.424-3.426zm0 1.015h214.152a2.417 2.417 0 012.41 2.41v15.568a2.417 2.417 0 01-2.41 2.41H3.424a2.417 2.417 0 01-2.41-2.41V4.718a2.417 2.417 0 012.41-2.411z" fill="#FEFEFE"/><path d="M98.367 12.609L113.163 25l14.55-12.4L113.122 0 98.367 12.609z" fill="#FEFEFE"/><path d="M107.366 6.806c1.142.95 2.29 1.899 3.433 2.849.594-1.498 1.755-2.427 3.333-2.51 1.229-.068 1.857-1.097 2.477-2.078-1.154-.981-2.308-1.967-3.465-2.953-.078.15-.155.298-.24.444-.171.306-.363.6-.59.86a3.014 3.014 0 01-2.187 1.092c-1.307.082-2.178 1.127-2.761 2.296z" fill="#00A0E3"/><path d="M117.505 5.92c-.078.147-.158.293-.24.438-.174.307-.365.6-.591.864-.593.686-1.318 1.036-2.186 1.088-1.312.084-2.18 1.127-2.762 2.298 1.145.949 2.288 1.9 3.433 2.85.594-1.499 1.755-2.428 3.332-2.513 1.227-.065 1.858-1.094 2.479-2.076l-3.465-2.949zm-7.452 4.882l-3.465-2.951c-.08.144-.158.293-.24.438a5.286 5.286 0 01-.591.866c-.595.684-1.317 1.034-2.186 1.087-1.31.082-2.182 1.126-2.762 2.297l3.433 2.851c.595-1.5 1.755-2.429 3.332-2.514 1.229-.066 1.857-1.094 2.479-2.074zm8.754 7.518l-3.468-2.953c-.075.15-.155.297-.237.442a5.346 5.346 0 01-.591.863c-.592.686-1.318 1.035-2.188 1.09-1.309.082-2.178 1.124-2.761 2.296 1.143.953 2.29 1.901 3.434 2.85.592-1.496 1.754-2.428 3.33-2.513 1.234-.066 1.857-1.095 2.481-2.075z" fill="#393185"/><path d="M125.519 12.648l-3.465-2.953c-.079.146-.157.298-.239.438a5.678 5.678 0 01-.595.866c-.592.684-1.314 1.036-2.184 1.089-1.311.078-2.179 1.128-2.763 2.298 1.145.948 2.29 1.898 3.432 2.846.598-1.495 1.756-2.43 3.333-2.512 1.232-.067 1.857-1.093 2.481-2.072zm-14.581-.949c-.076.148-.154.296-.237.44-.174.308-.365.6-.592.865-.593.684-1.317 1.035-2.187 1.088-1.308.082-2.179 1.127-2.761 2.298l3.433 2.848c.596-1.497 1.753-2.43 3.332-2.513 1.232-.065 1.857-1.094 2.479-2.073-1.153-.984-2.31-1.97-3.467-2.953z" fill="#00A0E3"/></g><defs><clipPath id="clip0_206_20"><path fill="#fff" d="M0 0h221v25H0z"/></clipPath></defs></svg>