<svg width="197" height="54" fill="none" xmlns="http://www.w3.org/2000/svg"><g clip-path="url(#clip0_206_2)" fill="#A80B3E"><path fill-rule="evenodd" clip-rule="evenodd" d="M71.865 14.174l-.028.038-.03.041-.029.04-.027.04-.026.037c-.246.292-.293.559-.284.609.076 1.044.293 2.108-.048 3.128l-.053.137-.058.137-.065.14-.047.095-.004.01-.014.043-.014.043-.014.044-.012.045-.012.045-.011.045-.012.045-.01.047-.01.046a2.67 2.67 0 01-.01.047l-.01.048-.009.048-.008.049-.009.049-.008.05-.009.05-.008.05-.008.052-.008.052-.008.052a8.474 8.474 0 01-.008.053c.09 1.566-1.569.885-1.234-.222l.008-.053.008-.054.009-.054a10.4 10.4 0 01.009-.054l.009-.056.01-.057.01-.056.01-.057.01-.058.012-.057.012-.06.013-.058.013-.06.015-.06.015-.06.017-.061.017-.062.018-.061.02-.062.021-.063.034-.095c.107-.214.157-.425.227-.652l.025-.094.022-.093.018-.092.015-.093.012-.091.01-.091.007-.092.005-.091.002-.092v-.093l-.002-.092-.003-.093-.005-.094-.007-.095-.008-.094-.009-.096-.01-.098-.01-.098-.011-.099-.012-.1-.011-.1-.011-.103-.011-.103-.01-.105-.01-.106-.007-.112-.003-.068v-.072l.003-.072.007-.07.01-.07.011-.07.015-.066.017-.066.02-.065.02-.063.024-.062.025-.061.026-.06.028-.058.03-.057.03-.057.03-.055.033-.054.033-.054.034-.053.035-.052.035-.053.036-.05.037-.052.037-.05.037-.05.038-.05.039-.05.038-.05.04-.05.038-.05c.23-.29.567-.259.814-.088v-.13l.001-.091.002-.093.002-.092.002-.092.002-.056-.003-.039-.006-.064-.008-.06-.008-.057-.01-.054-.01-.05-.011-.047-.012-.043-.012-.04-.013-.035-.012-.033-.013-.028-.013-.026a1.242 1.242 0 01-.012-.023l-.011-.018a.33.33 0 00-.022-.029l-.009-.01-.008-.01-.008-.007-.006-.005a.106.106 0 00-.007-.005l-.006-.003-.006-.003a.028.028 0 00-.007-.004l-.009-.003-.01-.003-.011-.004-.014-.002-.017-.002-.02-.003c-.544-.165-.925-.391-.877-.974l.013-.073.018-.068.022-.063.025-.059.027-.056.03-.051.03-.048.033-.046.034-.044.035-.042.036-.04.037-.04.038-.037.011-.011.082-.127.092-.163.07-.146.052-.13.033-.111.018-.093.007-.074-.001-.058-.006-.041-.009-.03-.009-.02-.009-.013-.01-.013-.013-.011-.018-.013-.024-.012-.03-.012-.035-.01-.04-.007-.044-.003h-.047l-.047.006-.046.009-.043.013-.04.016-.034.018-.03.02-.024.02a3.493 3.493 0 01-.019.02l-.015.02-.012.023c-.829 1.031-1.774-.629-.264-1.322l.162-.048.164-.033.166-.018.167-.003.168.013.166.028.166.046.162.064.157.083.15.103.138.124.122.145.103.163.08.178.056.192.03.199.005.205-.019.21-.042.212-.065.216-.086.22-.109.226-.13.231-.028.042.078.042.074.047.071.05.068.055.064.058.06.062.055.065.052.068.048.069.044.072.04.073.038.075.034.077.03.078.028.08.025.08.023.083.02.084.017.085.016.088.013.088.011.09.01.091.009.123-.004.12-.003.085-.002.085-.001.083-.001.085v.255l.001.085.002.085.002.085.002.086.003.085.003.086.003.086.004.086.005.085.004.087.005.086.005.086.005.086.006.088.006.086.006.086.006.088.007.087.007.086.007.087.007.088.007.088.007.087c.037 1.073-1.25 1.045-1.287.104l-.008-.09-.007-.089-.007-.089-.007-.09-.007-.09-.007-.089-.007-.09-.006-.09-.006-.09-.006-.09-.006-.09-.005-.09-.004-.061z"/><path fill-rule="evenodd" clip-rule="evenodd" d="M63.084 5.992a.463.463 0 00-.023.019l-.024.02c-.007.009-.015.016-.023.024l-.024.025-.023.027-.024.03-.024.031-.023.035-.024.036-.023.04-.023.04-.022.044-.022.046-.021.049-.021.05-.02.053-.02.056-.018.058-.018.06-.017.064-.016.065-.014.068-.014.069-.012.072-.012.074-.01.077-.009.078-.007.081-.006.083-.005.086-.003.089-.003.118-.004.124-.005.125-.005.124-.006.123-.006.125-.007.124-.008.124-.008.123-.008.124-.01.124-.01.124-.01.123-.01.124-.012.124-.012.124-.012.124-.013.123-.014.123-.014.124-.014.124-.015.123-.015.124-.017.123-.016.123-.017.123-.017.124-.018.123-.018.124-.019.123-.019.123c-.216 1.088-1.465.723-1.277-.19-.012-.36-.01-.758-.04-.988l.008-.004-.003-.003c-.211-.48-.51-1.076-.675-1.764-.15.266-.279.535-.33.692.044.427.008.638-.183.835-.273.106-.3.211-.084.316.51 1.153.493 2.305.283 3.459l-.89 4.732c.329.189.354.623.265.808-.452.941-2.06.647-1.763-.308.445-1.52.782-3.04.964-4.56.285-1.006.356-2.012.115-3.019-.842.054-1.683.002-2.525-.285l.116 1.52c.104 1.75.198 3.507.482 5.17.052.735.132 1.47.272 2.204.588.055.544.867.382 1.053-.667.762-1.527.202-1.733-1.083l-.555-4.305a43.514 43.514 0 01-.273-4.774c-.028-.467-.073-.948.147-1.173a7.976 7.976 0 00.325-1.927c.224-.793 1.354-.557 1.32.091l-.147.847c.16.123.278.259.356.408.581.14 1.167.27 1.885.143-.023-.347.042-.731.42-1.255.15-.466.425-.733.908-.569l-.013-.068-.02-.11-.019-.112-.016-.111-.014-.112-.011-.112-.01-.113-.007-.128.002-.12V6.46l-.003-.09-.004-.087-.005-.085-.007-.081-.01-.08-.01-.074-.012-.072-.013-.07-.015-.065-.017-.062-.018-.06-.02-.054-.02-.051-.021-.049-.022-.044-.024-.041-.024-.038-.024-.034-.026-.033-.026-.03-.027-.027-.029-.025-.03-.024-.032-.023-.035-.021-.037-.02-.04-.02-.045-.017-.049-.016-.092-.026-.086-.032-.07-.027-.067-.028-.067-.03-.066-.032-.065-.034-.063-.035-.063-.037-.06-.04-.06-.042-.059-.045-.057-.048-.055-.05-.053-.052-.05-.056-.048-.058-.046-.063-.042-.065a1.42 1.42 0 01-.168-.98l.044-.21.145-.179.042-.054.04-.054.036-.052.034-.052.03-.051.03-.05.025-.05.023-.047.02-.047.018-.046.015-.044.013-.044.01-.042.009-.043.006-.04.004-.041.002-.041v-.04l-.003-.04-.005-.041-.007-.042-.01-.044-.012-.045-.015-.046-.018-.047-.022-.05-.026-.052-.029-.054-.034-.055-.038-.058-.018-.015-.037-.026-.036-.026-.036-.023-.034-.021-.034-.02-.032-.017-.032-.015-.031-.013-.03-.012-.03-.01-.029-.008-.028-.007-.028-.006-.027-.004-.028-.003-.027-.001h-.058l-.03.003-.03.004-.033.006-.035.007-.036.01-.038.012-.04.014-.042.018-.045.02-.046.024-.046.025-.03.031-.03.033-.025.033-.02.03-.019.03-.015.028-.012.027-.01.028-.009.027-.006.027-.005.03-.003.03-.002.031v.033l.003.036.005.038.008.042.01.043.013.046.016.05.02.05c.345 1.042.779.81.586 2.173l-.05.083-.055.077-.06.073-.064.067-.069.063-.07.058-.075.053-.076.049-.079.045-.08.041-.084.04-.085.034-.087.034-.09.03-.105.032-.131.03-.096.025-.086.022-.076.023-.067.021-.057.02-.047.018-.037.017-.028.015-.02.012-.013.008-.006.006-.004.003h-.001l-.002.003-.002.004-.004.008-.007.014-.008.022-.009.029-.01.037-.01.047-.011.054-.01.063-.011.07-.01.078-.012.086-.011.094-.013.1-.013.108-.015.115-.025.189-.044.118-.022.057-.022.056-.023.056-.024.055-.024.055-.024.055-.025.053-.026.053-.026.052-.026.053-.027.051-.027.052-.027.05-.028.05-.028.05-.028.05-.029.048-.029.05-.029.047-.03.048-.029.047-.03.047-.03.047-.029.046-.03.046-.03.046-.03.045-.03.045-.031.045-.03.044-.001.001-.016.033-.017.04-.017.038-.017.04-.016.04-.017.04-.016.04-.016.04-.015.04-.016.042-.015.042-.015.041-.015.042-.014.043-.015.042-.014.043-.014.043-.014.043-.014.044-.014.043-.013.044-.014.045-.013.044-.013.045-.013.045-.013.046-.013.044-.013.046-.013.046-.013.045-.026.095-.054.116-.033.072-.034.071-.033.073-.035.071-.034.072-.034.071-.035.071-.035.072-.036.071-.035.072-.036.07-.036.072-.036.07-.036.072-.037.07-.037.071-.037.072a4.176 4.176 0 00-.038.07l-.037.07-.038.071-.038.071-.039.07-.038.07a4.987 4.987 0 01-.04.071l-.038.07-.04.07a4.14 4.14 0 01-.04.071c-.139.482-.85.57-1.151.246l.002.067.001.07.001.071v.209l-.002.069-.003.068-.002.067-.004.068-.004.067-.005.066-.005.066-.006.065-.007.066-.007.063-.008.064-.008.064-.01.064-.01.062-.01.062-.011.062c-.005.02-.008.041-.012.062l-.013.06-.013.061c-.02.083-.013.12-.003.21l.017.11.021.106.024.107.028.104.032.103.034.102.038.1.04.1.044.1.047.1.05.098.051.1.054.098.057.098.058.099.06.099c.02.032.042.065.062.099l.064.098.064.101.066.1.067.101.067.102.068.102.068.104.068.106.068.106.067.108.066.11c.198.338.225.595.042.944a2.917 2.917 0 01-.086.102l-.046.049-.047.047-.048.046-.05.045-.052.043a2.173 2.173 0 01-.107.082l-.055.038-.056.038-.058.035-.059.034-.06.033-.06.031a2.149 2.149 0 01-.125.058l-.064.027-.065.025-.066.024-.066.023-.067.021-.069.02a71.892 71.892 0 01-.139.036l-.07.016-.072.015-.072.013-.073.012-.065.01-.013.005-.09.034-.091.032-.09.03-.092.029-.09.026-.09.025-.09.024-.091.021-.09.02-.09.017-.09.016-.09.014-.09.011-.076.009.016.059.021.078.022.075.023.075.023.074.023.072.023.071.024.07.024.069a6.447 6.447 0 01.05.134l.025.066a5.67 5.67 0 00.052.13l.026.063.027.063.026.061.028.062.027.06.028.061.028.059.028.06.029.058.029.059c.439 1.02-.784 1.416-1.163.548l-.032-.065-.032-.066a4.143 4.143 0 01-.032-.066l-.032-.068-.031-.068-.031-.07a14.74 14.74 0 00-.032-.07l-.03-.07a4.51 4.51 0 00-.03-.072l-.031-.073-.03-.075-.03-.075-.03-.076-.028-.078-.029-.079-.028-.08-.027-.08-.028-.082-.026-.084a27.454 27.454 0 00-.027-.085l-.026-.086-.025-.087-.024-.09-.025-.09-.023-.092-.023-.093a136.622 136.622 0 01-.034-.143c-.07-.012-.118 0-.197-.02-.37-.086-.932-.178-1.113-.403-.415-.088-.731-.784-.314-1.44-.395.24-1.022-.111-.927-.718l-.001-.05v-.224l.003-.061.002-.065.004-.066.004-.07.006-.07.006-.075.007-.075.008-.078.01-.08.01-.082.012-.084.013-.087.014-.088.016-.09.017-.09.019-.095.02-.094.022-.098.024-.098.025-.1.027-.1.029-.104.03-.104.033-.106.034-.105.017-.05.016-.05.016-.047.016-.048.016-.047.015-.048.016-.047.015-.047.015-.048.015-.046.014-.047.014-.045.014-.047.014-.046.014-.046.013-.046.012-.045.013-.046.012-.045.011-.046.011-.044.01-.045.01-.046.01-.045.01-.045.009-.045.008-.045.008-.044.007-.045.007-.045-.056-.095.002-.013V12l.002-.062.003-.062.005-.064.006-.063c.041-.351-.024-1.259 0-1.354a.866.866 0 01.238-.395l.015-.015.015-.015.014-.015a.27.27 0 01.014-.016l.013-.015a.087.087 0 00.013-.015l.013-.015.013-.015.012-.015a.183.183 0 00.011-.014l.011-.015.011-.015.01-.014a.065.065 0 00.01-.015l.01-.014a1.24 1.24 0 01.01-.015l.01-.014.008-.015.009-.014.008-.014.008-.014.008-.014.007-.014.007-.015.007-.015.006-.013a.322.322 0 01.006-.014l.006-.014.002-.004.005-.03.016-.082.017-.083.017-.082.018-.081.018-.08.018-.081.02-.08.019-.08c.156-.612.402-1.165.695-1.729.988-1.003 2.326-1.468 3.151-.027.007.082.077.128.083.21l.01.1.011.098.014.096.015.094.018.091.019.09.02.088.023.086c.033.484.158.921.596 1.193l.039.045.04.044.039.042a149.424 149.424 0 00.113.114l.033-.068.034-.069.032-.068.033-.068.032-.068.033-.068.032-.068.031-.068.011-.024.014-.049.013-.047.014-.048.014-.05.014-.047.014-.048.014-.05.015-.048.015-.049.015-.048.015-.049.015-.049.016-.049.016-.048.017-.05.016-.049.017-.049.017-.049.018-.049.018-.049.018-.05.02-.048.018-.05.02-.048.02-.05.02-.048.021-.05.022-.048.022-.05.022-.047.043-.093.058-.084.029-.041.027-.04.028-.041.027-.042.027-.04.027-.041.026-.041.026-.04.026-.04.025-.041.025-.041.024-.04.024-.042.024-.04.024-.04.023-.042.022-.041.022-.04.022-.042.021-.041.021-.042.02-.04.02-.042.02-.041.019-.042.018-.042.018-.042.018-.042.017-.043.01-.025.006-.048.014-.109.013-.105.012-.1.012-.098.012-.094.012-.091.014-.09.015-.088.017-.087.02-.087.023-.088.028-.09.033-.088.041-.09.048-.09.057-.088.064-.084.072-.08.079-.072.083-.067.088-.06.09-.053.092-.047.095-.043.096-.038.1-.036.103-.032.107-.03.111-.03.117-.03.096-.022.042-.013.05-.017.046-.017.04-.017.036-.017.03-.015.026-.015.021-.014.016-.011.012-.01.002-.002v-.007l-.004-.016-.006-.021-.009-.024-.011-.028-.015-.033-.018-.035-.022-.04-.013-.021-.046-.06-.068-.092-.065-.093-.062-.093-.059-.094-.055-.094-.052-.095-.048-.095-.045-.097-.041-.097-.037-.098-.033-.099-.028-.1-.023-.102-.019-.102-.013-.103-.007-.104-.002-.105.005-.105.01-.105.019-.105.024-.104.032-.103.038-.1.044-.1.05-.096.057-.093.063-.09.067-.087.073-.084.078-.08.123-.117.142-.083.088-.048.089-.045.09-.04.09-.038.09-.032.09-.03.092-.024.092-.02.092-.017.092-.011.092-.008.091-.003h.09l.09.007.09.009.087.013.087.018.084.02.083.025.081.028.08.03.077.034.075.035.074.04.071.04.07.042.068.045.066.046.065.048.063.05.12.099.112.155.066.1.06.099.055.1.05.102.045.102.04.104.034.104.029.104.023.105.017.105.012.105.007.105v.104l-.004.103-.01.103-.015.1-.019.1-.024.098-.028.095-.032.095-.036.093-.04.09-.043.09-.045.087-.05.085-.05.084-.055.083-.056.081c-.33.447.586.446.785.596a2.7 2.7 0 01.865.849l.044.098.04.1.035.1.031.103.028.104.024.105.021.106.018.107.015.108.012.11.01.11.007.11.005.114.003.113v.203l.004.072.007.086.009.086c.032-.133.087.292.2.014.04-.098.009-.21.02-.315l.023-.092.024-.09.026-.09.028-.088.03-.086.032-.084.034-.082.035-.082.038-.079.04-.077.042-.076.044-.074.046-.072.048-.07.051-.068.053-.065.055-.064.057-.061.06-.059.055-.05c-.131-.173-.207-.442-.17-.794.013-.47.127-1.291.323-1.657l.127-.219.148-.2.169-.178.19-.154.211-.128.228-.094.24-.06.247-.023.249.014.244.049.236.081.228.11.216.14.206.163.195.189.185.212.175.235c.347.614.631 1.119.82 1.786l.152.652c.121.101.228.223.31.367.364.441.46 1.217.508 1.733l.01.126.01.124.01.122.013.118.014.117.015.113.016.113.017.108.018.107.02.104c.151.756.326 1.382.776 2.012l.117-.011c.177-.06.371-.163.575-.164l.054.001h.054c.898-.039 1.199 1.23.01 1.26l-.04-.001-.04-.001-.04-.001h-.01l.007.02.02.061.017.06.017.06c.313.84-.957 1.229-1.25.32l-.01-.04-.012-.04-.013-.039-.013-.04-.014-.039-.015-.04-.015-.039-.016-.04-.018-.039-.017-.04-.019-.039-.02-.04-.02-.038-.02-.04-.022-.04-.022-.04-.023-.04-.024-.038-.024-.04-.026-.04-.026-.039-.026-.04-.028-.039-.028-.04-.029-.039-.03-.04-.03-.039-.03-.04-.032-.039-.033-.04-.063-.073-.075-.121-.056-.091-.053-.093-.051-.094-.05-.097-.047-.097-.046-.1-.044-.1-.043-.101.007.055.015.156.013.155.01.157.009.157.005.159.003.158v.16l-.002.161-.005.162-.007.162-.01.164-.013.164-.015.165-.018.166-.02.166-.024.168-.025.168-.029.169-.031.17-.034.171-.036.172-.04.172-.041.174-.045.175-.048.175-.05.175-.053.177-.047.151-.02.087-.02.102-.017.103-.014.105-.011.107-.009.108-.005.108-.003.111v.112l.002.113.006.115.008.115.01.118.014.12.016.119.019.121.021.122.024.124.026.125.029.126.03.127.034.128.035.129.038.13.04.131.042.132.044.133.046.134.048.136.05.135.052.136c.448 1.206-.835 1.447-1.21.442l-.056-.148-.054-.147-.053-.148-.05-.147-.049-.146-.046-.147-.045-.146-.042-.146-.04-.147-.038-.145-.036-.146-.033-.145-.03-.145-.028-.145-.025-.144-.022-.145-.02-.144-.016-.143-.013-.144-.01-.143-.007-.143-.003-.143v-.142l.004-.142.007-.141.011-.141.015-.14.019-.14.023-.14.027-.139.035-.152.06-.19.048-.162.045-.16.043-.16.041-.158.038-.156.035-.157.034-.154.03-.154.028-.153.025-.152.023-.15.021-.15.018-.148.016-.148.014-.146.01-.145.01-.144.006-.144.005-.142.002-.14v-.141l-.003-.14-.005-.139-.007-.137-.009-.137-.011-.135-.014-.135-.015-.134-.018-.133-.02-.132c.02-.696.694-.843 1.077-.57l-.023-.093-.027-.117-.026-.118-.024-.12-.023-.122-.02-.124-.02-.125-.019-.127-.017-.13-.015-.131-.014-.134-.012-.135-.012-.138-.01-.138-.008-.142-.007-.126-.01-.109-.015-.11-.016-.105-.02-.099-.02-.092-.023-.087-.025-.08-.027-.075-.027-.068-.03-.062-.029-.057-.03-.05-.03-.046-.032-.04L65.959 6l-.031-.032-.032-.028-.032-.025-.034-.023-.035-.02-.037-.018-.04-.016a.895.895 0 00-.042-.014l-.047-.013a1.076 1.076 0 00-.05-.01l-.056-.009-.06-.005-.065-.003h-.07c-1.51-.031-.93-1.339-.022-1.137l.042.008-.034-.12-.1-.295-.106-.267-.111-.239-.116-.212-.117-.184-.118-.159-.116-.133-.112-.108-.106-.084-.097-.063-.088-.042-.076-.027c-.637-.127-.683 1.07-.693 1.46-.051.557.1 1.522-.274 1.809zm-11.036 5.137c.013-.053.032-.11.056-.17l.038-.067.038-.066.038-.068.038-.066.037-.067.009-.016a1.015 1.015 0 01-.493-.31l-.063-.067-.062-.068-.06-.072a5.862 5.862 0 01-.175-.226l-.056-.08-.054-.083-.053-.084-.052-.088-.05-.09a9.181 9.181 0 01-.048-.09c-.015-.031-.03-.063-.047-.095l-.045-.095-.043-.098-.041-.1-.04-.103-.038-.105-.035-.107-.034-.109-.031-.11-.03-.113a16.213 16.213 0 01-.051-.232l-.023-.12-.02-.12-.017-.123-.015-.125-.01-.1a3.548 3.548 0 00-.018-.026l-.023-.03c-.373-.138-.75.324-.86.43l-.02.02-.011.026a.504.504 0 00-.026.052l-.026.054-.025.055-.024.055-.024.057-.024.057-.023.058-.023.06-.023.06-.022.06-.022.063-.021.062-.021.064-.02.064-.02.065-.02.066-.02.066-.019.067a5.247 5.247 0 01-.036.137l-.018.07-.017.07-.017.071a18.806 18.806 0 01-.033.145l-.016.073-.015.074-.015.075-.015.075-.024.126-.027.075-.012.033-.014.033-.013.033-.014.032-.015.032a4.7 4.7 0 00-.015.032l-.016.03a1.53 1.53 0 01-.016.032l-.016.032-.018.03a.781.781 0 01-.017.031l-.013.021c.18.08.283.217.319.38.1.455-.152.291.065.713.082.159.208.315.203.546l.005.197.004.195.003.194v.384l-.002.19c0 .063-.002.126-.004.19l-.005.186-.008.186-.01.184-.01.183-.015.18-.016.179-.018.177-.02.176-.023.172-.026.172-.029.17-.03.167-.035.165-.037.163-.04.161-.043.159a34.31 34.31 0 00-.047.156l-.05.154-.054.151-.058.149-.061.146-.066.144-.035.07a4.591 4.591 0 01.662.15l.054.014.055.012.055.012.056.01.055.01.056.007.057.007.057.005.057.004.058.003h.177l.06-.004c.02 0 .04-.002.06-.004l.062-.005.062-.007.062-.009.063-.009.064-.011.064-.013.065-.014.066-.015.066-.017.067-.019.068-.02.069-.021a2.076 2.076 0 00.139-.047 4.622 4.622 0 01.22-.085l.137-.02a7.11 7.11 0 00.052-.007l.05-.008a.926.926 0 01.049-.01l.047-.01.046-.01c.015-.003.03-.008.044-.01.014-.005.029-.008.043-.012l.042-.012c.013-.004.026-.01.04-.013l.038-.013.038-.014.035-.014a.625.625 0 00.035-.014l.033-.015c.105-.087.05-.092 0-.217l-.065-.1-.066-.1-.067-.102a8.764 8.764 0 01-.068-.103l-.069-.104-.069-.106-.069-.108-.068-.11-.068-.112-.068-.113-.066-.116-.066-.119-.063-.121-.062-.123-.059-.127-.057-.129-.053-.133-.051-.135-.047-.138-.043-.142a24.923 24.923 0 01-.04-.146l-.033-.147-.03-.152-.024-.155-.018-.158a1.068 1.068 0 01.019-.399l.01-.044.011-.044.01-.046.01-.047.009-.046.009-.048.008-.048.008-.049.007-.049.007-.05.006-.05.006-.052.005-.052.005-.053.004-.053.004-.054.003-.054.003-.056.003-.056.001-.057.002-.057v-.236l-.002-.06-.001-.062-.003-.061-.003-.062a6.686 6.686 0 01-.003-.064c-.042-.64.876-.883 1.189-.4zm-3.895 2.645l-.01.03-.015.046-.03.093-.028.09-.026.088-.025.088-.023.086-.021.085-.02.083-.018.081-.018.08-.015.08-.015.077-.013.075-.012.074-.011.072-.01.07-.009.069-.008.066-.006.064-.006.063-.005.061-.005.058a10.403 10.403 0 01-.006.11l-.002.052-.002.05v.046l-.001.044v.083a2.063 2.063 0 00.002.071l.002.066.017-.053.038-.127a22.358 22.358 0 00.07-.267l.031-.138.03-.141.026-.145.025-.148.023-.152.02-.153.019-.157.016-.16.015-.163.012-.165.01-.168.004-.063zm39.935-2.022h-4.055l-.456.921-.058.123-.049.115-.04.109-.034.101-.024.094-.017.086-.01.08-.004.07.006.087.014.077.024.067.03.06.04.054.05.049.062.046.074.043.047.02.072.023.102.023.13.023.154.022.178.02.203.018.442.033v.698h-4.57v-.68l.345-.057.138-.032.131-.04.122-.049.116-.056.108-.065.102-.073.098-.084.046-.044.05-.051.051-.059.056-.066.057-.074.058-.081.062-.087.063-.095.064-.102.067-.108.068-.116.07-.122.072-.128.073-.135.075-.142.076-.15 4.477-8.706h.472l4.51 8.945.078.151.076.145.075.136.07.13.071.12.068.114.067.107.063.098.062.091.06.084.057.076.054.067.052.059.049.052.045.043.04.034.065.046.071.041.079.037.087.032.097.028.105.023.114.017.339.033v.693h-6.436V14.1h.476l.166-.003.15-.008.135-.013.119-.017.103-.022.086-.024.07-.026.052-.028.024-.016.02-.019.016-.018.013-.02.01-.023.009-.026.006-.031.001-.04v-.024l-.002-.026-.003-.027-.005-.027-.006-.03-.007-.028-.01-.03-.012-.035-.007-.022-.012-.03-.021-.05-.03-.064-.036-.08-.045-.094-.053-.109-.06-.123-.593-1.215zm-.52-1.01L86.09 7.758l-1.527 2.984h3.006zm15.103 4.073v-.73h.419l.201-.005.174-.014.15-.024.125-.031.099-.038.073-.04.051-.04.038-.047.035-.065.035-.09.032-.113.028-.134.022-.153.016-.174.009-.193.003-.213V4.556h-3.843v8.155l.004.247.013.218.021.192.029.163.036.133.039.103.04.071.041.046.048.038.067.038.086.035.105.03.124.026.142.019.161.011.181.004h.391v.73h-6.63v-.73h.616l.183-.004.16-.012.141-.02.121-.026.1-.031.081-.036.061-.037.042-.037.035-.047.038-.075.038-.106.032-.135.027-.162.019-.19.012-.214.004-.242V5.507l-.004-.228-.011-.204-.018-.182-.025-.158-.03-.133-.035-.108-.037-.082-.035-.053-.04-.04-.057-.038-.077-.037-.1-.034-.123-.027-.145-.021-.167-.012-.191-.005h-.614v-.733H109.3v.733h-.554l-.196.005-.173.013-.152.021-.13.029-.108.035-.086.04-.064.042-.047.043-.04.057-.041.081-.039.107-.034.131-.027.156-.02.178-.013.201-.004.224v7.203l.004.246.014.218.023.191.03.162.037.133.043.101.043.071.042.046.054.04.073.039.092.036.112.031.132.026.152.019.169.011.19.004h.518v.73h-6.63zm20.233-11.403v3.403h-.756l-.124-.404-.075-.224-.077-.206-.079-.186-.079-.166-.08-.146-.08-.126-.08-.108-.085-.098-.092-.093-.101-.088-.109-.083-.117-.079-.125-.073-.135-.069-.14-.062-.077-.027-.094-.025-.114-.023-.135-.019-.153-.015-.172-.01-.189-.006-.209-.003h-.701v8.245l.001.197.005.177.008.156.011.134.014.112.015.09.017.063.014.036.017.03.024.032.03.034.036.034.042.034.05.034.056.035.061.033.066.03.072.026.078.023.088.019.096.015.104.01.113.008.123.002h.658v.73h-7.103v-.73h.657l.126-.003.115-.007.108-.012.099-.016.093-.021.083-.024.077-.029.073-.034.044-.022.038-.024.035-.028.034-.032.035-.037.032-.043.031-.047.027-.052.016-.036.015-.057.015-.084.015-.107.011-.13.007-.152.005-.173.002-.194V4.476h-.677l-.151.002-.145.006-.139.008-.133.011-.127.016-.121.02-.115.021-.108.025-.103.028-.097.032-.091.034-.085.036-.079.04-.073.043-.068.044-.064.049-.09.076-.086.08-.082.086-.078.09-.074.092-.069.097-.066.103-.062.105-.056.111-.054.115-.049.12-.045.124-.041.129-.037.134-.031.138-.064.324h-.794V3.412h11.844-.001zm7.098 5.098l.14-.003.13-.007.125-.011.119-.017.113-.02.108-.026.103-.03.096-.034.092-.037.086-.042.081-.046.077-.05.073-.055.067-.059.063-.063.061-.069.057-.075.057-.08.053-.086.051-.09.05-.097.046-.101.044-.106.042-.112.039-.117.036-.122.033-.127.031-.133.028-.137.025-.143.023-.147.044-.346h.794v6.176h-.791l-.058-.414-.038-.211-.044-.2-.052-.187-.059-.177-.064-.166-.072-.153-.078-.144-.084-.133-.087-.12-.088-.108-.09-.095-.091-.082-.092-.07-.093-.058-.095-.048-.104-.04-.119-.036-.135-.032-.151-.026-.165-.022-.18-.015-.166-.008v2.87l.001.213.004.19.007.167.009.144.012.12.013.093.014.066.013.039.014.03.018.029.022.028.025.028.029.027.034.027.039.026.043.025.044.022.051.018.064.018.076.014.088.013.099.008.11.006.123.002h.74l.211-.003.203-.008.197-.013.192-.02.185-.023.18-.03.175-.034.168-.04.163-.045.158-.05.151-.054.146-.06.141-.065.135-.07.131-.075.125-.08.12-.085.117-.091.111-.096.108-.103.104-.107.099-.114.095-.118.091-.125.088-.131.083-.137.078-.142.075-.15.07-.154.067-.162.062-.167.11-.329h.786l-.628 3.92h-11.215v-.73h.648l.123-.003.114-.007.106-.012.099-.016.091-.021.083-.024.074-.029.072-.034.044-.022.035-.023.034-.027.033-.032.031-.036.03-.042.029-.047.027-.054.016-.039.015-.056.016-.084.012-.107.011-.13.008-.152.005-.173.001-.194V5.33l-.002-.157-.004-.138-.005-.12-.006-.1-.008-.08-.007-.057-.007-.032-.017-.046-.023-.048-.025-.044-.029-.041-.033-.037-.035-.035-.039-.032-.043-.03-.075-.043-.08-.037-.088-.032-.097-.027-.107-.021-.116-.015-.126-.01-.138-.003h-.647v-.733h10.906v3.676h-.776l-.074-.314-.034-.137-.037-.131-.038-.126-.039-.12-.041-.115-.042-.11-.044-.103-.044-.098-.046-.092-.047-.086-.049-.082-.049-.075-.05-.07-.052-.064-.051-.057-.114-.114-.125-.105-.137-.097-.15-.09-.162-.084-.175-.075-.189-.068-.204-.062-.059-.016-.066-.015-.075-.014-.082-.013-.09-.012-.098-.012-.105-.01-.114-.01-.12-.008-.128-.007-.136-.006-.143-.005-.15-.004-.157-.002-.166-.002h-1.222v4.032h.009zm14.431-4.145l-.097.039-.074.042-.057.046-.048.055-.045.07-.042.09-.036.111-.03.13-.021.149-.014.167-.004.188v3.024h.069l.274-.003.246-.006.218-.008.187-.01.158-.013.126-.015.094-.015.076-.019.07-.024.072-.032.072-.04.072-.05.073-.058.072-.066.071-.076.071-.087.071-.107.073-.132.075-.154.075-.178.074-.2.075-.222.074-.247.046-.15.044-.146.045-.14.043-.139.045-.132.044-.128.044-.123.044-.119.044-.114.044-.11.044-.104.043-.1.044-.097.043-.09.044-.087.044-.084.093-.159.103-.152.112-.143.121-.135.13-.127.138-.118.148-.11.156-.102.167-.092.178-.08.187-.068.197-.056.204-.042.213-.03.222-.018.232-.007.229.008.221.023.21.038.202.053.192.069.18.085.168.1.156.116.14.128.123.135.104.144.086.152.067.16.048.165.028.173.01.176-.006.14-.02.135-.033.13-.047.122-.061.116-.076.11-.089.1-.1.09-.108.082-.117.07-.122.06-.129.048-.134.038-.139.026-.143.016-.152.005-.277-.019-.259-.059-.231-.103-.198-.147-.157-.186-.114-.219-.076-.246-.038-.266-.014-.115-.019-.081-.024-.06-.024-.038-.021-.02-.019-.012-.027-.008-.044-.004-.063.004-.064.012-.061.021-.062.03-.061.042-.064.053-.062.067-.063.08-.066.1-.069.121-.072.145-.075.165-.077.188-.079.208-.079.23-.083.25-.04.128-.042.124-.039.12-.039.115-.038.112-.038.108-.037.104-.036.1-.035.096-.034.092-.035.088-.033.085-.034.08-.032.077-.031.073-.033.07-.066.135-.075.131-.081.128-.089.12-.095.116-.044.049.04.011.126.044.119.048.111.051.104.055.097.059.087.061.083.064.081.068.079.072.076.075.075.08.072.084.069.087.038.049.04.056.046.063.048.07.054.08.058.086.062.094.066.102.071.11.076.118.079.125.085.133.089.142.093.15.098.157.101.164 1.257 1.963.068.1.07.088.073.082.075.075.079.068.079.062.083.055.086.049.089.042.094.037.099.032.104.026.11.02.117.015.122.01.361.007v.716h-4.506l-2.61-4.266-.103-.164-.096-.146-.088-.13-.079-.109-.072-.09-.061-.071-.049-.05-.035-.028-.03-.02-.044-.02-.063-.02-.08-.02-.096-.017-.112-.013-.029-.002v3.437l.005.179.016.155.025.133.034.112.039.09.045.068.046.05.052.037.073.037.099.036.123.032.145.028.167.022.187.016.21.01.463.006v.718h-6.899v-.713l.477-.015.222-.015.197-.022.171-.028.145-.034.117-.039.09-.04.062-.04.047-.046.047-.064.044-.085.039-.108.031-.132.024-.152.015-.172.005-.197v-7.25l-.004-.223-.012-.2-.02-.179-.027-.157-.033-.134-.039-.111-.042-.088-.041-.062-.047-.046-.065-.044-.088-.042-.114-.038-.139-.03-.164-.024-.188-.014-.214-.005h-.496v-.724h6.899v.724h-.44l-.208.004-.186.013-.166.02-.141.029-.12.034zm16.712 7.387h-4.054l-.456.921-.058.123-.048.115-.041.109-.033.101-.024.094-.018.086-.01.08-.003.07.005.088.015.076.023.068.031.059.04.054.05.049.061.046.075.043.047.02.072.023.102.023.128.023.155.022.179.02.202.019.442.032v.698h-4.569v-.68l.345-.057.138-.032.13-.04.122-.049.116-.056.108-.065.101-.073.098-.083.047-.044.049-.051.052-.06.055-.066.057-.074.059-.081.061-.087.063-.095.066-.101.066-.11.068-.115.07-.122.072-.128.073-.135.075-.142.077-.15 4.475-8.706h.473l4.509 8.945.078.152.077.143.074.138.072.128.07.122.069.114.066.106.063.099.062.09.06.084.057.076.055.067.052.06.048.051.045.043.04.034.065.046.071.042.079.036.087.033.096.027.106.023.114.017.339.033v.693h-6.436V14.1h.476l.167-.003.149-.008.134-.013.12-.017.103-.02.087-.026.069-.026.052-.028.024-.016.02-.019.016-.018.013-.02.01-.023.008-.026.006-.031.002-.04v-.024l-.003-.026-.002-.027-.005-.028-.006-.028-.007-.03-.01-.028-.012-.036-.007-.02-.013-.032-.02-.05-.03-.064-.037-.08-.044-.094-.053-.109-.06-.123-.594-1.215zm-.519-1.01l-1.479-2.984-1.525 2.984h3.004zm-119.65 6.726H36.92l-.199.357-.027.05-.028.05-.028.049-.028.05-.027.05-.083.149-.028.049-.083.15-.028.05-.027.05-.084.148-.027.05-.083.148-.028.05-.022.041-.76-.297-1.084-.394-1.078-.364-1.07-.332-1.063-.303-1.056-.271-1.048-.242-1.04-.212-1.033-.184-1.024-.153-1.015-.125-1.008-.096-.998-.07-.99-.04-.98-.012-.97.014-.962.04-.952.069-.942.093-.932.12-.921.145-.911.172-.9.196-.89.22-.878.246-.868.269-.855.293-.844.317-.833.338-.82.364-.808.384-.808.413-.612.392-.565.39-.53.394-.494.398-.46.4-.427.405-.394.407-.36.41-.328.414-.296.414-.264.417-.233.418-.202.42-.172.42-.141.419-.112.419-.082.418-.053.415L0 27.34l.003.41.031.405.058.402.084.397.109.391.133.384.158.378.18.37.203.363.225.355.245.347.266.337.296.342.523.462.545.42.575.388.604.355.634.324.662.292.689.26.716.23.743.202.769.171.794.143.819.114.843.087.868.06.891.033.914.006.938-.02.959-.044.981-.07 1.003-.095 1.024-.118 1.044-.142 1.064-.165 1.084-.189 1.104-.21 1.122-.233 1.14-.255 1.159-.276 1.176-.298 1.192-.317L29.78 33l1.631-.476-.155-.449-.016-.046-.016-.045-.015-.046-.016-.046-.016-.045-.016-.046-.016-.046-.016-.045-.015-.046-.016-.046-.016-.045-.016-.047-.016-.046-.015-.045-.016-.046-.016-.046-.016-.045-.016-.046-.016-.046-.015-.046-.016-.045-.016-.046-.016-.046-.016-.045-.016-.046-.015-.046-.016-.045-.016-.046-.016-.047-.016-.045-.138-.399-1.34.35-.962.24-.948.227-.934.211-.919.199-.904.184-.89.168-.876.155-.86.14-.846.125-.83.11-.816.096-.8.08-.784.065-.77.05-.753.036-.737.02-.722.004-.706-.01-.69-.027-.674-.043-.658-.057-.64-.073-.625-.09-.609-.103-.591-.12-.575-.137-.558-.152-.541-.168-.525-.183-.507-.2-.453-.198-.385-.298-.382-.321-.344-.32-.309-.32-.272-.317-.237-.316-.2-.312-.167-.31-.132-.307-.099-.305-.066-.303-.035-.302-.003-.303.027-.304.06-.308.092-.31.126-.316.159-.32.194-.325.23-.33.266-.333.302-.336.338-.34.374-.344.41-.347.448-.348.484-.35.52-.353.557-.354.592-.357.63-.358.652-.352.78-.335.787-.314.785-.286.782-.26.78-.233.777-.207.774-.183.773-.157.77-.132.767-.108.765-.085.764-.06.76-.04.76-.015.757.008.756.028.753.05.752.072.75.093.75.112.746.133.746.153.744.172.743.191.741.21.74.228.739.246.737.263.736.28.735.298.734.314.403.181-.003.011-.02.06-.02.06-.04.119-.02.06-.019.06-.02.06-.04.118-.02.06-.019.06-.02.06-.02.058-.02.06-.019.06-.02.06-.02.06-.02.059-.039.12-.02.059-.02.06-.02.059-.019.06-.02.06-.188.568.623.028.089.004.089.003.089.005.089.004.089.004.089.004.089.003.089.005.172.008.095.004.089.003.172.009.095.004.093.004.174.007.09.005.088.004.09.003.088.004.09.004.088.005.178.007.09.004.088.004.09.004.088.005.329.014.225-.372.1-.168.102-.166.1-.167.101-.167.101-.168.101-.167.1-.167.102-.167.1-.167.102-.167.1-.167.101-.167.101-.167.101-.167.101-.167.1-.167.102-.167.1-.167.102-.167.1-.167.101-.167.101-.167.101-.167.1-.168.102-.167.1-.167.102-.167.1-.167.101-.167.101-.167.473-.782zm11.302 15.611l.035-.068.03-.07.024-.072.018-.074.01-.078.003-.08-.007-.08-.017-.081-.027-.078-.037-.075-.045-.07-.053-.06-.059-.055-.063-.046-.066-.038-.068-.032-.07-.025-.071-.019-.072-.012-.073-.009-.074-.003h-.074l-.076.007-.076.009-.078.014-.078.017-.08.022-.08.026-.075.027-.31.113-.304.106-.302.1-.3.092-.297.087-.294.08-.293.073-.29.068-.288.06-.285.055-.283.048-.28.042-.279.036-.276.029-.273.022-.271.017-.27.01-.266.004-.264-.002-.262-.009-.26-.014-.257-.022-.255-.027-.253-.033-.251-.04-.249-.046-.246-.052-.244-.058-.242-.065-.24-.07-.238-.077-.235-.083-.094-.038-.089-.039-.083-.04-.077-.044-.071-.044-.066-.045-.06-.048-.056-.049-.05-.05-.047-.051-.042-.053-.037-.055-.034-.057-.03-.06-.028-.06-.023-.066-.02-.068-.016-.071-.013-.075-.008-.079-.005-.082v-.087l.003-.092.008-.095.012-.1.018-.103.022-.107.027-.111.032-.117.034-.11h5.802l.147-.014.128-.014.127-.013.127-.014.125-.014.125-.014.123-.016.123-.015.122-.017.121-.016.12-.017.12-.018.119-.017.118-.018.117-.02.116-.018.115-.02.115-.02.114-.02.112-.021.112-.022.111-.021.11-.023.11-.022.109-.023.108-.024.107-.024.106-.025.105-.025.104-.025.104-.026.1-.026.32-.08.311-.093.295-.102.278-.111.261-.12.245-.128.228-.137.213-.143.195-.153.18-.157.163-.165.146-.17.129-.176.112-.181.095-.186.077-.189.059-.192.04-.194.023-.195.004-.195-.015-.194-.034-.19-.05-.187-.07-.183-.086-.176-.102-.17-.119-.162-.133-.154-.149-.145-.163-.136-.176-.127-.174-.107-.343-.223-.44-.204-.497-.17-.548-.137-.595-.106-.638-.075-.675-.047-.707-.016-.732.013-.753.043-.767.074-.776.105-.778.135-.774.167-.765.2-.749.23-.728.266-.7.3-.667.333-.627.37-.581.408-.53.447-.469.488-.402.529-.327.572-.241.615-.148.655-.047.69.061.724.172.755.288.783.435.87.429.36.39.289.404.26.416.234.428.209.437.182.446.158.454.134.46.111.466.088.47.068.474.045.476.027.478.006.478-.012.477-.03.476-.047.474-.064.47-.08.465-.095.46-.11.454-.124.447-.137.438-.15.43-.161.418-.173.408-.184.396-.194.383-.205.368-.212.355-.222.382-.26.08-.101.045-.064.04-.065zm-8.866-5.454l.19-.155.198-.148.204-.144.211-.139.219-.132.226-.126.232-.12.24-.112.247-.106.254-.098.261-.091.269-.082.275-.075.283-.066.29-.056.297-.048.304-.038.312-.028.319-.017.326-.008.333.004.341.014.316.024.135.037.135.05.116.057.098.06.08.066.066.067.052.07.04.071.03.076.022.08.01.084v.09l-.01.097-.022.102-.034.107-.048.11-.06.112-.075.114-.089.116-.102.114-.117.112-.13.11-.145.106-.157.1-.172.096-.185.088-.199.081-.211.072-.225.063-.238.053-.251.04-.255.029h-.166l-.186.003-.186.002-.186.002-.186.001-.559.005-.186.002-.559.006-.186.001-.558.005-.186.002-.186.002-.187.001-.186.003-.186.002-.558.004-.187.002-.494.005.079-.096.154-.174.162-.171.168-.168.176-.163.183-.16zm60.384 5.454l.035-.068.03-.07.024-.072.018-.074.01-.078.002-.08-.006-.08-.017-.081-.027-.078-.037-.075-.045-.07-.053-.06-.059-.055-.063-.046-.066-.038-.068-.032-.071-.025-.07-.019-.072-.012-.073-.009-.074-.003h-.075l-.075.007-.076.009-.077.014-.079.017-.08.022-.08.026-.075.027-.31.113-.304.106-.302.1-.3.092-.297.087-.294.08-.293.073-.29.068-.287.06-.286.055-.283.048-.28.042-.279.036-.276.029-.273.022-.272.017-.268.01-.267.004-.264-.002-.262-.009-.26-.014-.257-.022-.256-.027-.252-.033-.25-.04-.25-.046-.246-.052-.244-.058-.243-.065-.24-.07-.237-.077-.234-.083-.096-.038-.088-.039-.083-.04-.077-.044-.071-.044-.067-.045-.06-.048-.055-.049-.051-.05-.046-.051-.042-.053-.038-.055-.033-.057-.03-.06-.028-.06-.023-.066-.02-.068-.016-.071-.013-.075-.009-.079-.004-.082v-.087l.002-.092.009-.095.012-.1.017-.103.023-.107.027-.111.032-.117.034-.11h5.802l.147-.014.128-.014.127-.013.127-.014.125-.014.124-.014.124-.016.123-.015.122-.017.121-.016.121-.017.119-.018.119-.017.117-.018.118-.02.115-.018.116-.02.115-.02.113-.02.113-.021.112-.022.111-.021.11-.023.11-.022.109-.023.107-.024.107-.024.106-.025.106-.025.104-.025.103-.026.101-.026.319-.08.311-.093.296-.102.277-.111.262-.12.244-.128.229-.137.212-.143.196-.153.179-.157.164-.165.145-.17.129-.176.113-.181.095-.186.077-.189.058-.192.041-.194.022-.195.004-.195-.015-.194-.033-.19-.051-.187-.069-.183-.086-.176-.103-.17-.118-.162-.134-.154-.148-.145-.163-.136-.177-.127-.173-.107-.344-.223-.44-.204-.497-.17-.547-.137-.595-.106-.638-.075-.675-.047-.707-.016-.732.013-.753.043-.768.074-.775.105-.778.135-.774.167-.765.2-.749.23-.729.266-.7.3-.666.333-.627.37-.582.408-.529.447-.47.488-.401.529-.328.572-.24.615-.148.655-.047.69.06.724.174.755.287.783.435.87.428.36.391.289.403.26.417.234.427.209.437.182.447.158.454.134.46.111.466.088.47.068.474.045.476.027.478.006.478-.012.477-.03.476-.047.473-.064.47-.08.466-.095.46-.11.454-.124.447-.137.438-.15.429-.161.418-.173.409-.184.395-.194.384-.205.368-.212.354-.222.382-.26.082-.101.044-.064.04-.065zm-8.866-5.454l.19-.155.197-.148.205-.144.21-.139.22-.132.225-.126.233-.12.24-.112.247-.106.254-.098.26-.091.27-.082.275-.075.282-.066.29-.056.298-.048.304-.038.311-.028.32-.017.326-.008.333.004.341.014.316.024.135.037.135.05.116.057.098.06.08.066.065.067.052.07.042.071.03.076.021.08.01.084.001.09-.01.097-.023.102-.034.107-.048.11-.061.112-.074.114-.089.116-.102.114-.117.112-.131.11-.144.106-.157.1-.172.096-.186.088-.197.081-.213.072-.224.063-.238.053-.252.04-.254.029h-.166l-.186.003-.186.002-.186.002-.186.001-.56.005-.185.002-.559.006-.186.001-.558.005-.186.002-.187.002-.186.001-.186.003-.186.002-.559.004-.186.002-.494.005.078-.096.155-.174.161-.171.169-.168.176-.163.183-.16zm-12.008 5.678l.116-.114.113-.117.11-.12.107-.122.104-.125.101-.127.098-.13.124-.176.039-.111.02-.076.012-.078.004-.081-.006-.085-.017-.086-.03-.085-.046-.082-.058-.074-.07-.064-.076-.051-.08-.037-.083-.025-.081-.014-.08-.005-.08.004-.078.01-.076.017-.075.023-.075.027-.075.033-.076.038-.076.043-.076.049-.077.053-.078.059-.078.064-.08.07-.08.075-.081.082-.082.087-.07.08-.032.03-.039.04-.038.037-.037.036-.037.036-.036.034-.034.034-.035.033-.034.031-.034.032-.034.03-.033.03-.034.03-.033.028-.034.028-.034.028-.034.028-.036.027-.035.027-.036.027-.038.027-.037.028-.04.026-.04.028-.042.028-.043.028-.044.028-.046.028-.049.03-.05.03-.051.029-.067.038-.103.07-.078.047-.07.04-.061.031-.023.01.001-.018.006-.062.01-.07.014-.077.019-.085.022-.09.027-.098.031-.103.035-.11.04-.114.043-.12.05-.128.093-.245.094-.246.094-.245.093-.245.094-.245.093-.245.187-.491.093-.245.656-1.718.093-.245.28-.736.282-.735.094-.246.093-.245.187-.49.093-.246.094-.245.094-.245.093-.245.303-.793h-3.79l-.392.36-.28.253-.279.255-.278.254-.28.254-.278.254-.279.253-.279.255-.279.254-.279.254-.279.254-.278.255-.28.254-.278.254-.28.254-.278.255-.28.254-.557.508-.279.254-.837.763-.279.253-.836.763-.28.254-.278.254-.167.152v-7.634h-8.205v1.535h2.822l-.008.017-.025.048-.029.051-.032.056-.036.06-.04.064-.045.07-.12.192-.236.38-.118.191-.118.19-.237.38-.118.19-.118.19-.237.38-.118.191-.118.19-.237.38-.118.191-.119.19-.236.38-.118.19-.119.19-.236.381-.119.19-.118.19-.236.381-.119.19-.118.19-.118.19-.118.19-.103.165-.045.054-.061.066-.061.062-.061.057-.061.052-.062.05-.061.044-.062.042-.062.037-.062.034-.063.03-.063.03-.064.024-.064.022-.065.02-.066.016-.067.014-.068.012-.069.009-.07.007-.071.004-.072.002h-.074l-.074-.004-.075-.005-.077-.007-.078-.009-.079-.011-.08-.014-.08-.014-.082-.018-.041-.01-.173-.084-.215-.09-.209-.071-.202-.054-.196-.037-.189-.02-.182-.003-.176.014-.167.031-.16.047-.148.062-.139.077-.126.09-.114.101-.1.112-.087.12-.073.126-.06.132-.046.136-.034.139-.021.14-.01.142.003.142.015.141.026.14.039.139.05.135.064.131.075.127.088.12.1.112.103.094.104.089.123.086.131.077.138.065.143.056.149.047.154.039.158.03.162.022.166.014.17.007.173-.001.175-.008.178-.014.18-.023.181-.029.183-.037.183-.044.184-.05.184-.058.183-.064.182-.073.18-.079.18-.086.176-.094.173-.1.17-.11.166-.115.162-.123.157-.13.151-.14.168-.168.182-.281.477-.735.159-.245.317-.491.16-.245.158-.246.318-.49.159-.246.159-.245.317-.49.16-.246.158-.245.477-.736.159-.245.317-.491.16-.245.158-.245.318-.491.082-.126.002.118.005.286.006.287.005.286.005.286.005.286.006.287.005.285.005.286.006.287.005.286.005.286.005.286.006.287.005.285.005.287.006.286.005.286.005.286.006.286.005.287.005.285.005.287.006.286.005.286.005.286.006.286.012.682H69.8l.415-.356 1.81-1.557.303-.26.905-.779.302-.259.906-.778.302-.26.302-.26 1.81-1.556.302-.26.906-.778.302-.26.016-.013-.048.126-.067.178-.067.177-.067.178-.067.178-.067.178-.067.178-.067.177-.067.178-.067.178-.068.178-.067.178-.067.177-.067.177-.067.178-.067.178-.067.178-.067.177-.067.178-.067.178-.067.178-.134.355-.07.185-.093.273-.08.26-.07.251-.06.24-.048.231-.037.22-.026.212-.014.203-.003.194.008.186.022.178.034.171.05.163.064.154.08.144.096.133.112.119.126.103.137.086.147.069.155.052.16.036.166.021.172.008.175-.005.182-.018.187-.028.193-.04.199-.049.205-.06.211-.071.22-.082.17-.07.164-.07.162-.071.16-.073.158-.075.157-.075.156-.076.153-.08.153-.08.15-.082.148-.084.147-.086.144-.088.143-.089.14-.092.138-.093.136-.096.134-.097.131-.101.13-.102.126-.105.123-.107.122-.11.119-.111zm46.521-13.821h-2.302l-.367.311-.246.195-.24.179-.236.163-.229.147-.226.131-.219.116-.215.102-.21.089-.205.073-.2.062-.195.048-.191.036-.186.024-.183.012-.179.002-.175-.009-.174-.02-.17-.029-.168-.04-.167-.05-.164-.06-.163-.069-.162-.078-.161-.09-.159-.097-.159-.107-.157-.117-.156-.124-.156-.134-.154-.143-.135-.132-.165-.224-.204-.23-.214-.2-.222-.17-.229-.138-.234-.11-.236-.079-.238-.05-.235-.022-.232.005-.225.03-.216.053-.207.076-.197.097-.182.116-.169.134-.152.15-.135.166-.117.18-.095.194-.073.205-.047.216-.021.222.009.228.038.23.07.23.101.228.132.221.164.215.196.207.227.197.28.202.427.19.39.157.387.14.381.122.378.103.374.087.371.069.365.052.362.035.358.018.354.003.349-.015.346-.03.341-.047.337-.061.333-.077.328-.093.323-.106.32-.121.314-.135.31-.148.306-.162.301-.174.298-.187.292-.2.289-.211.285-.223.281-.234.277-.246.274-.256.27-.267.916-.953zm-11.94 8.765l.071-.134.072-.134.071-.133.072-.134.071-.134.073-.134.071-.133.079-.15.088-.21.073-.19.065-.184.056-.179.047-.171.038-.168.03-.16.021-.157.012-.151.004-.146-.006-.142-.015-.138-.024-.132-.034-.13-.044-.121-.053-.117-.064-.112-.074-.104-.082-.095-.09-.087-.097-.08-.104-.07-.109-.061-.113-.053-.117-.046-.122-.038-.124-.031-.127-.024-.13-.018-.133-.012-.135-.007-.147-.001-.233.016-.218.022-.215.028-.211.035-.208.04-.205.045-.201.05-.199.057-.195.06-.193.066-.19.07-.187.075-.183.08-.181.082-.179.088-.176.09-.173.094-.172.097-.169.1-.167.103-.165.106-.162.108-.161.11-.16.114-.158.114-.156.118-.155.118-.153.12-.152.12-.152.122-.15.124-.432.358.238.314.035.046.017.023.018.023.018.023.017.024.017.022.018.023.017.023.018.023.017.023.017.023.018.023.017.023.018.023.017.023.017.023.018.023.021.028.031.041.017.023.018.023.018.023.017.023.017.023.018.023.017.023.018.023.017.023.254.337.394-.275.068-.048.069-.048.068-.047.068-.048.204-.143.068-.047.069-.047.068-.048.068-.048.069-.047.135-.095.068-.048.069-.047.068-.048.068-.047.069-.047.068-.049.067-.047.068-.047.069-.048.068-.048.068-.047.068-.048.069-.047.067-.047.137-.096.062-.043.045-.03.039-.022.015-.008-.003.035-.01.051-.011.059-.017.064-.021.07-.025.075-.03.08-.036.087-.041.096-.073.166-.073.165-.073.166-.073.166-.073.165-.073.166-.073.165-.073.166-.073.166-.073.165-.073.166-.073.166-.073.165-.073.166-.072.165-.073.166-.072.166-.073.165-.073.165-.073.167-.073.165-.146.331-.073.166-.073.165-.146.332-.073.165-.073.166-.146.33-.078.18-.088.25-.069.241-.049.234-.031.229-.011.22.006.215.024.207.042.199.057.19.074.18.089.17.103.16.116.148.126.137.138.125.147.114.154.102.162.092.167.08.173.068.178.058.182.046.184.037.186.025.189.016.189.004.191-.006.189-.017.189-.027.187-.038.186-.048.182-.06.389-.156.368-.152.359-.153.35-.152.34-.154.332-.155.323-.154.314-.155.306-.157.298-.156.29-.157.281-.158.275-.158.265-.158.259-.16.253-.16.244-.16.238-.16.23-.162.225-.161.218-.162.211-.163.206-.163.025-.02-.06.123-.099.208-.091.21-.08.209-.069.203-.056.2-.045.196-.033.192-.021.189-.009.184.004.179.017.174.03.17.045.164.058.157.074.15.089.141.104.131.118.12.132.109.143.094.155.08.165.065.174.052.183.037.19.023.197.01.205-.003.213-.017.22-.029.228-.042.235-.056.254-.071.199-.077.182-.072.179-.074.177-.075.174-.078.171-.08.168-.08.167-.083.163-.086.161-.086.157-.089.155-.091.152-.093.149-.095.146-.097.144-.1.139-.101.137-.104.134-.106.13-.109.127-.11.124-.113.12-.115.117-.118.113-.12.11-.123.107-.125.102-.128.099-.13.095-.131.09-.136.461-.727h-1.792l-.189.257-.074.088-.09.095-.102.099-.115.102-.124.102-.132.102-.138.102-.143.097-.145.094-.148.088-.147.082-.145.074-.141.066-.134.056-.125.046-.115.034-.1.021-.081.011h-.05l.001-.054.016-.103.037-.138.061-.17.088-.203.121-.24.117-.237.235-.472.117-.237.117-.236.234-.472.118-.237.117-.236.352-.708.117-.236.234-.472.118-.237.117-.236.118-.236.117-.236.117-.236.117-.236.117-.236.118-.236.117-.237.117-.236.118-.236.117-.237.117-.236.118-.236.116-.235.118-.236.39-.786-.736-.011-.105-.002-.104-.001-.104-.002-.105-.002-.105-.001-.105-.002-.104-.002-.104-.001-.21-.003-.104-.002-.105-.001-.209-.003-.104-.002-.105-.001-.314-.005-.104-.002-.314-.004-.105-.002-.313-.005-.105-.001-.638-.01-.164.667-.108.35-.129.349-.147.347-.168.345-.185.344-.202.34-.219.337-.234.334-.248.33-.262.326-.274.32-.286.316-.296.311-.305.304-.315.298-.322.291-.327.284-.333.277-.338.268-.341.261-.344.252-.344.242-.346.234-.344.224-.342.215-.34.203-.335.193-.331.182-.326.17-.317.159-.316.15-.103.05-.088.036-.084.03-.079.023-.074.015-.067.009-.061.003-.055-.001-.047-.007-.042-.01-.034-.012-.03-.015-.027-.018-.025-.021-.024-.026-.023-.034-.022-.04-.021-.05-.017-.061-.015-.073-.008-.084-.002-.095.004-.107.012-.118.021-.13.031-.14.04-.15.052-.161.062-.172.073-.182.086-.192.096-.2.067-.126.072-.133.072-.134.071-.134.071-.134.072-.133.072-.134.072-.134.072-.134.071-.134.077-.143.139-.26.072-.133.073-.134.072-.134.072-.134.072-.135.071-.134.072-.133.072-.135.072-.133.072-.134.073-.135zm31.814 5.851l.298-.227.284-.231.268-.238.248-.241.226-.244.756-.913h-2.126l-.17.23-.056.067-.069.077-.083.082-.092.086-.1.09-.109.089-.113.09-.117.088-.12.084-.121.08-.12.075-.117.067-.113.06-.106.05-.097.038-.085.027-.042.01.006-.051.026-.126.047-.16.07-.193.095-.224.122-.262 4.02-8.51h-4.132l-2.102 4.674h-5.808l2.06-4.716h-7.409l.002 1.601h2.736l.039.004.043.005.038.007.031.007.025.006.013.006.001.019-.001.027-.004.033-.005.04-.008.045-.011.051-.013.056-.016.06-.02.066-.021.071-.025.075-.027.08-.029.084-.026.073-4.212 9.18h4.007l2.101-5.105h5.686l-.007.014-.065.134-.033.068-.033.068-.033.067-.033.068-.033.067-.098.203-.033.068-.033.067-.033.069-.032.067-.033.067-.033.068-.033.068-.033.067-.033.068-.032.067-.109.225-.192.545-.137.49-.091.447-.046.412.001.376.048.345.098.312.149.276.197.23.236.18.262.127.28.08.294.039.302.003.313-.027.32-.055.328-.078.334-.102.337-.122.34-.141.34-.158.339-.173.335-.188.33-.198.321-.21.311-.219zm16.044-10.188l-.329.055-.331.07-.333.083-.337.097-.34.11-.343.124-.344.136-.347.15-.349.162-.352.177-.353.187-.355.202-.357.214-.363.23-.946.67-.838.661-.733.653-.633.64-.536.627-.442.614-.352.6-.263.584-.176.567-.091.547-.007.525.075.499.156.465.232.426.3.382.363.334.418.284.468.232.512.181.553.13.588.075.621.021.65-.034.676-.09.699-.148.716-.209.732-.27.744-.334.752-.4.756-.465.372-.263-.058.379-.004.36.054.334.112.304.169.266.216.222.253.175.28.133.299.092.317.06.33.03.343.003.353-.02.361-.04.366-.062.37-.08.37-.096.368-.11.364-.125.356-.138.347-.148.332-.158.318-.168.299-.174.279-.183.255-.189.229-.196.201-.204.166-.21.055-.087.043-.084.035-.088.026-.088.017-.09.007-.09-.002-.09-.013-.088-.022-.085-.032-.081-.039-.077-.047-.07-.054-.066-.061-.058-.065-.052-.07-.044-.074-.038-.077-.03-.08-.024-.082-.015-.084-.008h-.086l-.085.008-.086.015-.084.025-.084.032-.081.04-.078.047-.076.055-.071.062-.067.07-.056.066-.081.101-.081.088-.092.088-.103.088-.112.086-.119.083-.124.08-.129.074-.132.07-.133.064-.133.057-.131.05-.128.043-.122.034-.115.025-.105.016-.093.008h-.078l-.059-.007-.039-.01-.011-.004-.002-.034.007-.064.021-.094.043-.12.066-.146.091-.168.129-.212.399-.771.131-.253.393-.758.131-.253.131-.253.13-.253.131-.252.131-.254.131-.252.13-.253.131-.252.132-.254.131-.252.13-.253.131-.253.131-.253.131-.252.261-.506.131-.253.132-.252.784-1.517.429-.829h-4.242l-.169.334-.02.038-.019.038-.039.076-.02.038-.019.039-.039.076-.019.038-.019.039-.039.076-.02.037-.019.039-.056.11-.057-.046-.245-.18-.252-.163-.259-.15-.266-.134-.273-.119-.279-.103-.285-.09-.29-.072-.296-.06-.3-.044-.305-.03-.309-.014h-.314l-.318.014-.321.028-.324.042zm1.474 1.74l.183.016.177.023.168.03.158.036.149.041.137.048.128.052.115.057.105.062.095.065.083.07.074.072.063.077.055.08.045.086.038.091.028.1.02.107.011.115v.125l-.011.136-.023.146-.037.156-.05.166-.065.177-.08.186-.096.196-.112.206-.129.214-.146.224-.164.233-.182.242-.192.244-.197.238-.199.231-.201.224-.203.216-.206.21-.207.201-.208.194-.21.187-.21.18-.212.172-.212.163-.213.157-.213.15-.214.14-.212.133-.213.126-.211.117-.212.11-.209.1-.209.094-.207.086-.205.077-.203.069-.201.06-.198.053-.196.045-.192.036-.19.028-.186.021-.183.012-.177.004-.168-.005-.154-.012-.142-.022-.128-.03-.117-.034-.103-.042-.092-.046-.081-.052-.073-.055-.062-.062-.057-.065-.048-.073-.042-.079-.036-.087-.029-.095-.022-.105-.014-.114-.006-.123.003-.132.013-.141.021-.15.032-.158.042-.165.053-.173.063-.18.073-.186.084-.193.095-.198.106-.205.117-.21.127-.214.138-.22.148-.22.152-.218.159-.214.166-.21.17-.208.175-.202.18-.199.185-.193.189-.189.193-.183.195-.177.2-.17.201-.166.204-.158.207-.151.207-.144.209-.136.21-.128.21-.12.211-.112.21-.103.21-.094.208-.085.208-.074.206-.065.203-.056.201-.045.197-.034.194-.025.191-.014.186-.003.186.008zm15.551 3.04l.207.263.239.245.269.227.298.206.327.183.354.16.38.131.386.1-.092.077-.192.157-.195.154-.197.153-.2.151-.202.149-.204.147-.207.146-.209.144-.211.142-.214.141-.215.139-.218.138-.219.136-.222.135-.223.133-.224.133-.227.13-.228.13-.231.128-.231.127-.233.127-.235.124-.236.124-.238.123-.239.122-.239.121-.242.12-.157.079h-1.952v1.519h5.503l.775-.564.223-.162.223-.162.223-.162.223-.162.222-.162.223-.162.223-.162.223-.162.223-.162.223-.162.445-.324.223-.162.223-.162.669-.486.222-.162.669-.487.223-.162.668-.486.223-.162.446-.324.117-.085h.813l-.007.016-.036.082-.037.082-.072.165-.037.082-.036.082-.073.165-.036.082-.036.082-.109.247-.036.082-.073.165-.036.082-.037.082-.072.165-.037.082-.109.247-.041.093-.172.468-.12.431-.068.4-.015.368.038.341.096.312.152.275.202.231.241.183.27.134.289.093.305.057.319.025.329-.002.34-.026.347-.048.354-.067.357-.086.359-.101.358-.115.354-.128.348-.14.34-.148.328-.157.315-.163.298-.168.279-.172.258-.174.234-.177.21-.18.182-.182.144-.18.044-.063.036-.061.033-.06.029-.063.024-.063.02-.064.016-.064.012-.066.007-.066.002-.065-.003-.066-.009-.066-.014-.066-.02-.065-.027-.064-.034-.061-.041-.058-.047-.055-.053-.05-.059-.044-.064-.037-.067-.03-.07-.023-.071-.015-.072-.007-.073-.002-.071.006-.07.012-.069.016-.068.022-.067.027-.069.034-.096.054-.095.057-.105.062-.117.07-.124.072-.133.078-.139.08-.145.08-.149.083-.151.08-.152.079-.153.075-.151.07-.147.066-.144.058-.135.05-.127.04-.115.031-.1.02-.082.008h-.06l-.001-.054.012-.101.032-.137.054-.171.081-.206.109-.252 1.69-3.889.113-.259 1.933-4.446h-9.429l-.651.004-.617.036-.576.068-.534.097-.494.125-.453.15-.415.175-.375.198-.336.22-.297.241-.257.258-.218.275-.177.29-.136.301-.094.308-.053.314-.013.315.027.313.066.309.103.3.14.29.174.278zm9.713-2.478l-.054.126-.054.125-.053.127-.054.125-.054.126-.054.126-.054.126-.054.125-.053.127-.055.125-.053.127-.054.125-.054.126-.053.126-.055.126-.053.125-.054.127-.054.125-.058.134h-3.679l-.166-.016-.147-.031-.132-.044-.117-.056-.104-.067-.093-.077-.081-.085-.07-.097-.061-.105-.05-.115-.039-.124-.027-.131-.014-.137-.003-.143.011-.146.024-.15.038-.15.051-.15.066-.148.078-.146.093-.143.108-.136.121-.13.137-.123.15-.114.166-.106.182-.093.197-.083.214-.069.232-.054.248-.038.267-.02h3.781l-.031.072-.054.127-.053.125-.055.127-.053.125-.054.126-.054.126z"/><path d="M92.894 52.62c-1.27 0-2.327-1.557-2.327-3.351 0-1.483.528-3.253 2.327-3.253 1.357 0 2.326 1.583 2.326 3.327 0 2.642-1.396 3.278-2.326 3.278zm.175-7.302c-1.886 0-3.457 1.882-3.457 4.125 0 2.193 1.244 3.913 3.105 3.913 1.773 0 3.458-1.832 3.458-4.125 0-1.807-.955-3.913-3.105-3.913zm6.22 7.216v-5.409l4.3 5.92c.088.112.277.249.73.311v-7.215c0-.075.188-.274.892-.374v-.262h-2.514v.262c.716.087.892.3.892.374v5.346l-4.036-5.508c-.314-.449-.352-.474-.591-.474h-1.308v.262c.566.087.83.349.893.411v6.356c0 .074-.15.299-.893.373v.262h2.528v-.262c-.704-.087-.893-.299-.893-.373zm12.643-.848l-.264-.112c-.314.91-.553 1.047-1.333 1.047h-.88c-.918 0-1.144-.175-1.144-.449v-6.031c0-.15.515-.3.892-.374v-.262h-2.766v.262c.704.137.893.3.893.374v6.393c0 .074-.151.224-.893.373v.262h5.244c.088-.286.188-.885.251-1.483zm3.113.848V46.14c0-.15.516-.3.893-.374v-.262h-2.766v.262c.704.137.893.3.893.374v6.393c0 .15-.516.299-.893.373v.262h2.766v-.262c-.704-.137-.893-.299-.893-.373zm3.998 0v-5.409l4.3 5.92c.088.112.277.249.729.311v-7.215c0-.075.189-.274.893-.374v-.262h-2.515v.262c.717.087.893.3.893.374v5.346l-4.036-5.508c-.315-.449-.353-.474-.591-.474h-1.308v.262c.566.087.83.349.893.411v6.356c0 .074-.151.299-.893.373v.262h2.527v-.262c-.704-.087-.892-.299-.892-.373zm12.705-.848l-.264-.112c-.315.897-.591 1.047-1.371 1.047h-.792c-.792 0-1.258-.063-1.258-.387v-3.053h.868c.428 0 .905.025 1.22.337.038-.038.088-.075.138-.125l.151-.162c.101-.112.201-.236.277-.361l-.164-.175h-2.49v-2.641h2.251c.302 0 .466.199.503.972h.277c.025-.075.05-.175.075-.287l.076-.361c.05-.225.088-.486.1-.723l-.201-.15h-4.954v.262c.704.137.893.3.893.374v6.393c0 .074-.151.224-.893.373v.262h5.306c.088-.286.189-.885.252-1.483z"/></g><defs><clipPath id="clip0_206_2"><path fill="#fff" d="M0 0h197v54H0z"/></clipPath></defs></svg>