<svg width="200" height="31" fill="none" xmlns="http://www.w3.org/2000/svg"><g clip-path="url(#clip0_219_13)" fill-rule="evenodd" clip-rule="evenodd"><path d="M38.101 14.36l-2.228 5.35h4.51L38.1 14.36zm2.697-7.58l7.622 17.11h-6.204l-1.077-2.57H35.18l-1.012 2.57h-1.962L39.37 6.78h1.428zm27.045 0v17.11h-5.5V8.752h-4.819V23.89h-5.5V6.78h15.82zm17.622 0v1.972H81.36V23.89h-5.512V8.752h-4.093V6.78h13.709zm15.564 15.138v1.972H89.281V6.78h11.758l-.01 1.972h-6.247v4.381h6.257v2.015h-6.257v6.77h6.247zM117.797 6.78v17.11h-5.5v-4.66c-6.13 0-8.187-2.782-8.187-6.865V6.78h5.49v7.675c0 1.376 1.705 2.687 2.697 2.687V6.78h5.5zm18.72 8.453c0-4.114 2.835-8.442 8.155-8.442 1.929 0 5.394.65 5.394 3.41 0 .448-.064 1.515-1.62 1.515-.736 0-1.557-.278-2.239-1.162.512-.267.661-.555.661-.97 0-.363-.245-.875-1.546-.875-.49 0-3.113.086-3.113 4.606l-.021 3.795c0 2.846 1.428 4.882 3.976 4.882 1.333-.01 1.908-.927 1.727-2.11 1.311-.15 2.239 1.566 2.239 2.11-.864 1.034-2.015 1.887-5.256 1.887-5.17 0-8.357-2.953-8.357-8.646zm29.166-8.453v1.972h-4.104V23.89h-5.501V8.752h-4.104V6.78h13.709zm8.486 15.138h.362c.864 0 1.855-.715 1.855-3.56 0-2.144-.885-3.21-1.727-3.21h-.49v6.77zm0-8.763h.383c.693 0 1.408-.554 1.408-2.239 0-1.78-.864-2.164-1.28-2.164h-.511v4.403zm-5.512-6.375h7.015c3.806 0 5.554 1.098 5.554 3.657 0 1.876-.757 3.283-2.697 3.613 2.132.288 4.211 1.738 4.211 4.659 0 3.273-1.216 5.18-6.119 5.18h-7.964V6.78zm22.462 13.432c0 1.833.756 1.993 1.46 1.993.672 0 1.428-.16 1.428-1.993v-9.52c0-1.833-.756-1.993-1.428-1.993-.704 0-1.46.16-1.46 1.993v9.52zm8.741-4.893c0 6.001-3.518 8.581-7.281 8.581-3.71 0-7.356-2.58-7.356-8.602 0-5.98 3.625-8.529 7.335-8.529 3.827 0 7.302 2.548 7.302 8.55zm-65.763 6.599v1.972h-11.748V6.78h11.758l-.01 1.972h-6.236v4.381h6.246v2.015h-6.246v6.77h6.236z" fill="#DE002B"/><path d="M15.64 0C7.08 0 .14 6.94.14 15.5c0 8.56 6.94 15.5 15.5 15.5 8.56 0 15.5-6.94 15.5-15.5C31.14 6.94 24.2 0 15.64 0z" fill="#FEFEFE"/><path d="M15.65 31c8.561 0 15.49-6.94 15.49-15.5C31.14 6.94 24.211.01 15.65 0 7.09 0 .15 6.94.15 15.5c0 8.56 6.94 15.5 15.5 15.5zm0-29.667v28.335c-7.824 0-14.167-6.343-14.167-14.168 0-7.825 6.343-14.167 14.168-14.167z" fill="#DE002B"/><path d="M18.636 5.874H15.63v19.252h3.006V18.71h6.417v-6.42h-6.417V5.874z" fill="#FEFEFE"/><path d="M12.666 5.874h3.006v19.252h-3.006V18.71H6.248v-6.42h6.418V5.874z" fill="#DE002B"/></g><defs><clipPath id="clip0_219_13"><path fill="#fff" d="M0 0h200v31H0z"/></clipPath></defs></svg>