<svg width="176" height="33" fill="none" xmlns="http://www.w3.org/2000/svg"><path d="M28.454 10.364h.611a3.746 3.746 0 013.745 3.743v4.596a3.746 3.746 0 01-3.745 3.742h-4.909c-1.164 0-1.717.592-1.717 1.716v4.906a3.746 3.746 0 01-3.745 3.743h-4.598a3.746 3.746 0 01-3.745-3.743v-4.906c0-1.221-.601-1.716-1.727-1.716h-4.88A3.76 3.76 0 010 18.693v-4.596a3.746 3.746 0 013.745-3.742h4.899c1.086 0 1.727-.611 1.727-1.745V3.743A3.746 3.746 0 0114.115 0h4.599a3.746 3.746 0 013.745 3.743v4.876c0 1.193.436 1.745 1.688 1.745h.863l-2.522 3.442c-1.931-.155-3.473-1.774-3.473-3.742V5.177c0-1.192-.456-1.735-1.737-1.735h-1.746c-1.087 0-1.717.582-1.717 1.735v4.887a3.746 3.746 0 01-3.745 3.742H5.18c-1.26 0-1.736.825-1.736 1.746v1.726c0 1.037.63 1.725 1.717 1.725h4.909a3.746 3.746 0 013.745 3.743v4.896c0 1.105.553 1.726 1.697 1.726h1.756c1.087 0 1.737-.66 1.737-1.745v-4.877a3.746 3.746 0 013.745-3.743h4.908c1.184 0 1.717-.6 1.717-1.745v-1.726c0-1.183-.62-1.726-1.755-1.726h-1.69l2.523-3.441z" fill="url(#paint0_linear_206_175)"/><path d="M71.447 6.907l7.815 18.995h-3.61l-1.817-4.505h-8.71l-1.792 4.505H59.89l7.702-18.995h3.855zM66.345 18.28h6.243l-3.118-7.79-3.125 7.79zm29.111-8.248H85.34v15.87h-3.39V6.907h16.904v18.995h-3.39v-15.87h-.007zm22.326 0h-6.402v15.87h-3.39v-15.87h-6.296V6.914h16.088v3.118zm14.98 7.65h-8.737v5.102h10.037v3.118h-13.427V6.907h13.129v3.118h-9.739v4.532h8.737v3.125zm-75.737 0h-8.737v5.102h10.037v3.118H44.897V6.907h13.13v3.118h-9.74v4.532h8.738v3.125zm84.466 8.22h-3.39V6.907h3.39v7.975h2.847l6.103-7.975h4.127l-7.245 9.037 8.412 9.958h-4.339l-6.893-8.22h-3.012v8.22zm26.138-18.995l7.815 18.995h-3.609l-1.818-4.505h-8.71l-1.792 4.505h-3.443l7.703-18.995h3.854zm-5.102 11.372h6.243l-3.118-7.79-3.125 7.79z" fill="#8168F0"/><defs><linearGradient id="paint0_linear_206_175" x1="9.217" y1="28.843" x2="24.029" y2="3.172" gradientUnits="userSpaceOnUse"><stop stop-color="#8168F0"/><stop offset=".137" stop-color="#7F6DF0"/><stop offset=".292" stop-color="#787AF0"/><stop offset=".457" stop-color="#6C91F1"/><stop offset=".627" stop-color="#5DB1F1"/><stop offset=".801" stop-color="#48D9F2"/><stop offset=".82" stop-color="#46DEF2"/><stop offset="1" stop-color="#50E3C2"/></linearGradient></defs></svg>