<svg width="176" height="56" fill="none" xmlns="http://www.w3.org/2000/svg"><path fill-rule="evenodd" clip-rule="evenodd" d="M22.58 0C10.108 0 0 10.123 0 22.61v33.108h153.271c12.47 0 22.579-10.124 22.579-22.611V0H22.58zm-4.26 25.255v12.448h4.144V25.255h3.072v-3.033h-3.072v-1.245c0-1.46.777-2.19 2.33-2.19.495 0 .914.044 1.257.13l.043-3.205c-.83-.191-1.53-.287-2.1-.287-1.792 0-3.187.482-4.187 1.445-.991.954-1.486 2.3-1.486 4.035v1.317h-2.3v3.033h2.3zm17.44 12.448c-.19-.372-.328-.834-.414-1.388-1 1.117-2.3 1.675-3.9 1.675-1.515 0-2.773-.44-3.773-1.317-.99-.877-1.486-1.984-1.486-3.32 0-1.64.605-2.9 1.815-3.777 1.22-.877 2.977-1.32 5.272-1.33h1.9v-.887c0-.716-.185-1.288-.556-1.718-.363-.429-.939-.643-1.73-.643-.695 0-1.242.167-1.643.5-.39.334-.585.792-.585 1.374h-4.13c0-.897.276-1.727.829-2.49.552-.763 1.334-1.359 2.343-1.788 1.01-.439 2.143-.658 3.4-.658 1.906 0 3.416.481 4.53 1.445 1.124.954 1.686 2.299 1.686 4.035v6.71c.01 1.47.215 2.58.615 3.334v.243H35.76zm-1.728-3.276c-.515.267-1.077.4-1.686.4-.63 0-1.124-.166-1.486-.5-.362-.334-.543-.759-.543-1.274l.014-.243c.133-1.43 1.233-2.146 3.3-2.146h1.544v2.661c-.248.458-.629.825-1.143 1.102zm14.782-8.442c.429 0 .924.038 1.486.114l.057-3.977a4.32 4.32 0 00-1.286-.186c-1.467 0-2.615.71-3.443 2.132l-.115-1.846h-3.9v15.481h4.129v-10.13c.486-1.059 1.51-1.588 3.072-1.588zm6.48-3.763l.13 1.731c1.095-1.345 2.576-2.017 4.443-2.017 1.99 0 3.358.787 4.1 2.36 1.086-1.573 2.634-2.36 4.644-2.36 1.677 0 2.925.49 3.744 1.473.82.973 1.229 2.442 1.229 4.407v9.887H69.44v-9.872c0-.878-.171-1.517-.514-1.918-.343-.41-.948-.615-1.815-.615-1.238 0-2.096.592-2.572 1.774l.014 10.631h-4.13v-9.858c0-.897-.175-1.545-.528-1.946-.352-.4-.952-.6-1.8-.6-1.172 0-2.02.486-2.543 1.459v10.945h-4.13V22.222h3.873zm20.812 15.481h4.144V15.726h-4.144v21.977zm13.797.287c-2.267 0-4.115-.697-5.544-2.09-1.42-1.392-2.13-3.247-2.13-5.565v-.401c0-1.555.3-2.943.901-4.164.6-1.23 1.448-2.175 2.543-2.833 1.105-.667 2.363-1.001 3.772-1.001 2.115 0 3.777.667 4.987 2.003 1.22 1.335 1.829 3.229 1.829 5.68v1.689h-9.845c.134 1.01.534 1.822 1.2 2.432.677.61 1.53.916 2.558.916 1.591 0 2.834-.577 3.73-1.731l2.028 2.275c-.619.877-1.457 1.564-2.514 2.06-1.058.486-2.23.73-3.515.73zM87.43 26.114c.514-.553 1.181-.83 2-.83.877 0 1.553.253 2.03.758.475.496.723 1.202.742 2.118v.329H86.46c.143-1.03.467-1.822.972-2.375zm14.239-2.104l-.129-1.788h-3.886v15.481h4.129V26.786c.581-.992 1.453-1.488 2.615-1.488.886 0 1.519.2 1.901.601.381.391.571 1.025.571 1.903v9.901H111v-10c-.019-1.917-.428-3.358-1.228-4.321-.801-.964-2.02-1.445-3.658-1.445-1.858 0-3.339.691-4.444 2.074zm10.953 5.838c0-2.413.538-4.335 1.615-5.766 1.086-1.43 2.567-2.146 4.443-2.146 1.505 0 2.748.563 3.73 1.688v-7.898h4.143v21.977h-3.729l-.2-1.645c-1.029 1.288-2.353 1.932-3.972 1.932-1.82 0-3.282-.716-4.387-2.147-1.095-1.44-1.643-3.438-1.643-5.995zm4.887 3.635c-.505-.773-.757-1.884-.757-3.334 0-3.234.995-4.85 2.986-4.85 1.267 0 2.157.538 2.672 1.616v6.11c-.524 1.078-1.425 1.616-2.701 1.616-.962 0-1.696-.386-2.2-1.158zm33.844 4.507c1.801 0 3.21-.62 4.23-1.86l.114 1.573h3.886V22.222h-4.143v10.96c-.524.973-1.486 1.46-2.886 1.46-1.467 0-2.201-.807-2.201-2.419V22.222h-4.129v10.145c.019 1.84.462 3.238 1.329 4.192.876.954 2.143 1.43 3.8 1.43zm-6.152-11.89a11.201 11.201 0 00-1.486-.115c-1.562 0-2.586.53-3.072 1.588v10.13h-4.129V22.222h3.901l.114 1.846c.829-1.422 1.976-2.132 3.443-2.132.458 0 .886.062 1.286.186l-.057 3.977zm-15.454 7.97c-.438.41-.657.943-.657 1.602 0 .648.219 1.178.657 1.588.439.4.996.6 1.672.6.686 0 1.248-.2 1.686-.6.439-.41.657-.94.657-1.588 0-.659-.223-1.193-.671-1.603-.438-.41-.996-.615-1.672-.615-.666 0-1.224.205-1.672.615z" fill="#00A052"/></svg>