<svg width="206" height="49" fill="none" xmlns="http://www.w3.org/2000/svg"><path fill-rule="evenodd" clip-rule="evenodd" d="M24 .1C10.8.1 0 10.9 0 24.1s10.8 24 24 24 24-10.8 24-24c.1-13.2-10.7-24-24-24zm0 5c-10.5 0-19 8.5-19 19s8.5 19 19 19 19-8.5 19-19c.1-10.4-8.5-19-19-19z" fill="#2AD1C5"/><path fill-rule="evenodd" clip-rule="evenodd" d="M24.9 10.7l5 5c-1.5 1-3.2 1.6-5 1.8v-6.8zm.2 21V39h-2v-7.3c-1.3 1-2.8 1.6-4.6 1.6-.9 0-1.7-.1-2.5-.4 1.6-2.3 4.2-3.9 7.2-4.2v2.9l-.1.1h1.7v-3c3 .3 5.6 1.8 7.2 4.2-.8.3-1.6.4-2.5.4-1.6-.1-3.2-.6-4.4-1.6zm6-14.7l3.9 3.9c.4.5.8 1 1.1 1.6H24.9v-3.2c2.3-.2 4.5-1.1 6.2-2.3zm5.7 7.1c.1.6.2 1.1.2 1.7 0 2.6-1.3 4.9-3.3 6.2-1.9-2.9-5.1-4.8-8.7-5.1v-2.8h11.8zm-22.3 8c-2-1.3-3.4-3.6-3.4-6.2 0-.6.1-1.2.2-1.7h11.9V27c-3.6.2-6.8 2.2-8.7 5.1zm-2.6-9.7c.5-.9 1.1-1.7 1.9-2.3l3.2-3.2c1.8 1.3 3.9 2.1 6.2 2.3v3.2H11.9zm6.3-6.7l5-5v6.8c-1.8-.1-3.6-.8-5-1.8zm39.5 5.9h5V8h6.1v13.6h5V3.7H57.7v17.9zm20.3.3c.6 0 1.1-.1 1.6-.2s1-.4 1.4-.8c.4-.4.8-.9 1.2-1.5.3-.6.6-1.4.9-2.4.2-1 .4-2.1.6-3.5.1-1.4.2-3 .2-4.8V8h4.2v13.6h5V3.7H79.3v2.5c0 1.5 0 2.9-.1 4.1-.1 1.2-.1 2.2-.2 3-.1.8-.2 1.5-.3 2.1-.1.6-.3 1-.4 1.3-.2.3-.3.6-.5.7-.2.2-.4.3-.6.3-.2.1-.4.1-.6.1h-.9c-.1 0-.3 0-.4-.1l-.3 3.8c.1 0 .4.1.7.2.3.1.6.1 1.1.2H78zm16.8-.3h5.2l1.3-3.2h6.9l1.3 3.2h5.3l-7.6-18.1h-4.8l-7.6 18.1zm8-7l2-5.1 2 5.1h-4zm13.8 7h5v-6.8h6.4v6.8h5V3.7h-5v6.7h-6.4V3.7h-5v17.9zm19.5 0h14.6v-4.2h-9.6v-2.8h8.6v-3.9h-8.6V7.9h9.5V3.7h-14.4v17.9h-.1zm21.5 0h5V8h5.4V3.7h-15.7V8h5.4v13.6h-.1zm9.3 0h5.2l1.3-3.2h6.9l1.3 3.2h5.3l-7.6-18.1h-4.8l-7.6 18.1zm8-7l2-5.1 2 5.1h-4zM64.7 44.3c1.1 0 2.1-.1 3-.4.9-.3 1.6-.7 2.2-1.2.6-.5 1.1-1.1 1.4-1.8.3-.7.5-1.4.5-2.2 0-.8-.1-1.4-.4-1.9-.3-.5-.6-1-1.1-1.4-.5-.4-1-.6-1.6-.9.5-.2 1-.6 1.4-.9.4-.4.7-.8.9-1.3.2-.5.3-1.1.3-1.8s-.2-1.3-.5-1.9c-.3-.6-.8-1.1-1.4-1.5-.6-.4-1.3-.8-2.1-1-.8-.2-1.7-.4-2.7-.4-1.1 0-2.2.1-3.1.4-.9.3-1.7.6-2.5 1.1-.7.5-1.4 1-2 1.6l2.5 2.9c.3-.3.6-.5 1-.7l1.2-.6c.4-.2.8-.3 1.3-.4.4-.1.8-.1 1.2-.1.5 0 .9.1 1.2.2.3.1.6.3.8.5.2.2.3.5.3.8 0 .3-.1.6-.3.8-.2.2-.4.4-.8.6-.4.1-.9.2-1.5.2h-1.8v3.7H64c1 0 1.7.1 2.2.4.5.3.7.7.7 1.2 0 .3-.1.6-.3.9-.2.3-.5.5-.9.6-.4.1-.9.2-1.5.2-.7 0-1.4-.1-2-.3-.6-.2-1.2-.4-1.7-.7-.5-.3-1-.7-1.4-1.1l-2.6 3.3c.5.4 1 .9 1.6 1.2.5.4 1.1.7 1.8.9.6.3 1.4.5 2.2.6.6.3 1.5.4 2.6.4zm8.1 3.3h4.5l.3-3.6h9.5v3.6h4.2l.6-7.9h-2V26H76.2v.5c0 1.3 0 2.6-.1 3.6-.1 1.1-.1 2.1-.2 3-.1.9-.2 1.7-.4 2.4-.1.7-.3 1.5-.5 2.1-.2.7-.4 1.3-.7 2h-1.6v8h.1zm6.8-8c.2-.6.4-1.2.6-1.9.2-.6.3-1.3.4-2.1.1-.7.2-1.5.3-2.4.1-.8.1-1.8.1-2.7v-.2h3.9v9.2h-5.3v.1zm23.3 4.7c1.1 0 2.2-.2 3.1-.5 1-.3 1.9-.8 2.7-1.3.8-.6 1.5-1.2 2.1-2 .6-.8 1-1.6 1.3-2.6.3-.9.5-1.9.5-2.9s-.2-2-.5-3c-.3-.9-.8-1.8-1.3-2.6-.6-.8-1.3-1.4-2.1-2-.8-.6-1.7-1-2.7-1.3-1-.3-2-.5-3.1-.5s-2.2.2-3.1.5c-1 .3-1.9.8-2.7 1.3-.8.6-1.5 1.2-2.1 2-.6.8-1 1.6-1.3 2.6-.3 1-.4 2-.4 3s.2 2 .5 3c.3.9.8 1.8 1.3 2.6.6.8 1.3 1.4 2.1 2 .8.6 1.7 1 2.7 1.3.9.3 1.9.4 3 .4zm.1-4.5c-.7 0-1.3-.1-1.9-.4-.6-.3-1-.6-1.4-1.1-.4-.4-.7-1-.9-1.5-.2-.6-.3-1.2-.3-1.9s.1-1.3.3-1.9c.2-.6.5-1.1.9-1.5.4-.4.9-.8 1.4-1 .6-.3 1.2-.4 1.9-.4s1.3.1 1.9.4c.6.3 1 .6 1.5 1.1.4.4.7 1 .9 1.5.2.6.3 1.2.3 1.9s-.1 1.3-.3 1.9c-.2.6-.5 1.1-.9 1.5-.4.4-.9.8-1.4 1-.7.3-1.3.4-2 .4zm12.2 4.2h5v-5.1h2.5c1.1 0 2.1-.1 3.1-.4.9-.3 1.8-.7 2.4-1.2.7-.5 1.2-1.2 1.6-2 .4-.8.6-1.7.6-2.8 0-1-.2-1.9-.5-2.7-.4-.8-.9-1.5-1.5-2s-1.4-1-2.4-1.2c-.9-.3-1.9-.4-3.1-.4h-7.7V44zm5-9.1v-4.7h2.3c.6 0 1.1.1 1.5.3.4.2.8.4 1 .8.2.4.3.8.3 1.3s-.1.9-.3 1.3c-.2.4-.6.6-1 .8-.4.2-.9.3-1.5.3h-2.3v-.1zm21.3 9.4c1.1 0 2.2-.2 3.1-.5 1-.3 1.9-.8 2.7-1.3.8-.6 1.5-1.2 2.1-2 .6-.8 1-1.6 1.3-2.6.3-.9.5-1.9.5-2.9s-.2-2-.5-3c-.3-.9-.8-1.8-1.3-2.6-.6-.8-1.3-1.4-2.1-2-.8-.6-1.7-1-2.7-1.3-1-.3-2-.5-3.1-.5s-2.2.2-3.1.5c-1 .3-1.9.8-2.7 1.3-.8.6-1.5 1.2-2.1 2-.6.8-1 1.6-1.3 2.6-.3.9-.5 1.9-.5 2.9s.2 2 .5 3c.3.9.8 1.8 1.3 2.6.6.8 1.3 1.4 2.1 2 .8.6 1.7 1 2.7 1.3.9.4 2 .5 3.1.5zm0-4.5c-.7 0-1.3-.1-1.9-.4-.6-.3-1-.6-1.4-1.1-.4-.4-.7-1-.9-1.5-.2-.6-.3-1.2-.3-1.9s.1-1.3.3-1.9c.2-.6.5-1.1.9-1.5.4-.4.9-.8 1.4-1 .6-.3 1.2-.4 1.9-.4s1.3.1 1.9.4c.6.3 1 .6 1.5 1.1.4.4.7 1 .9 1.5.2.6.3 1.2.3 1.9s-.1 1.3-.3 1.9c-.2.6-.5 1.1-.9 1.5-.4.4-.9.8-1.4 1-.7.3-1.3.4-2 .4zm12.3 4.2h9.3c1.4 0 2.7-.2 3.7-.6 1-.4 1.8-1 2.3-1.7.5-.7.8-1.6.8-2.6 0-.8-.1-1.5-.4-2.1-.3-.6-.7-1-1.2-1.4-.5-.4-1.2-.7-1.9-.9.5-.2 1-.5 1.4-.9.4-.4.7-.8 1-1.3.2-.5.4-1.1.4-1.8 0-.6-.1-1.2-.3-1.7-.2-.5-.5-.9-.8-1.3-.5-.5-1.2-.9-2-1.2-.8-.3-1.8-.4-2.9-.4H154V44h-.2zm4.8-4v-3.3h3.8c.8 0 1.4.2 1.8.4.4.3.6.7.6 1.2 0 .6-.2 1-.6 1.3-.4.3-1 .4-1.8.4h-3.8zm0-6.8V30h3.2c.7 0 1.3.1 1.7.4.4.3.6.6.6 1.1 0 .6-.2 1-.6 1.2-.4.3-1 .4-1.7.4h-3.2v.1zM172.1 44h7.9c1.1 0 2.1-.1 3-.4.9-.3 1.6-.7 2.3-1.2.6-.5 1.1-1.2 1.4-2 .3-.8.5-1.6.5-2.6s-.2-1.9-.6-2.7c-.4-.8-.9-1.4-1.6-1.9-.7-.5-1.5-.9-2.4-1.1-.9-.3-1.9-.4-3-.4h-2.7V26h-5v18h.2zm5-4.2v-4.2h2.6c.5 0 1 .1 1.4.3.4.2.7.4.9.7.2.3.3.7.3 1.1 0 .7-.2 1.2-.7 1.6-.5.4-1.1.5-1.9.5h-2.6zm11.4 4.2h5.7l3.6-5.4h2.2V44h5V26h-8.5c-1 0-2 .1-2.9.4-.9.2-1.7.6-2.4 1.1-.7.5-1.2 1.1-1.6 1.9-.4.8-.6 1.7-.6 2.7 0 .9.2 1.8.5 2.5s.7 1.3 1.3 1.8c.6.5 1.2.9 1.9 1.2l-4.2 6.4zm8.3-9.3c-.6 0-1-.1-1.4-.3-.4-.2-.7-.4-.9-.8-.2-.3-.3-.7-.3-1.2s.1-.9.3-1.2c.2-.3.5-.6.9-.8.4-.2.9-.3 1.4-.3h3.3v4.5h-3.3v.1z" fill="#2AD1C5"/></svg>