<svg width="203" height="58" fill="none" xmlns="http://www.w3.org/2000/svg"><path fill-rule="evenodd" clip-rule="evenodd" d="M0 0h203v58H0V0z" fill="#008E62"/><path fill-rule="evenodd" clip-rule="evenodd" d="M193.01 8.27c1.248 0 2.261 1.047 2.261 2.339 0 1.291-1.013 2.338-2.261 2.338-1.25 0-2.261-1.047-2.261-2.338 0-1.292 1.011-2.34 2.261-2.34zm5.106 11.366V6.786h-6.398c-1.547 0-3.263.052-4.236 1.487-.721 1.073-.774 2.807-.132 3.934.292.52.697.939 1.213 1.262.329.203.78.375 1.348.509-.983.34-1.679.967-2.145 1.947l-1.866 3.712h4.34l2.05-3.918c.259-.508.49-.838.694-.992.276-.196.592-.294.942-.294h.337v5.204h3.853v-.001zM68.348 14.524l3.403 1.062c-.228.986-.588 1.812-1.08 2.472a4.698 4.698 0 01-1.832 1.497c-.729.335-1.655.505-2.781.505-1.368 0-2.48-.205-3.35-.615-.864-.41-1.611-1.134-2.241-2.165-.627-1.032-.943-2.355-.943-3.965 0-2.146.553-3.8 1.657-4.954 1.108-1.153 2.672-1.731 4.696-1.731 1.583 0 2.827.33 3.734.993.903.661 1.578 1.68 2.017 3.052l-3.42.783c-.12-.393-.246-.68-.377-.861a2.29 2.29 0 00-.798-.706 2.222 2.222 0 00-1.056-.248c-.885 0-1.56.366-2.028 1.095-.352.542-.53 1.394-.53 2.553 0 1.44.21 2.423.634 2.957.424.533 1.017.8 1.784.8.742 0 1.303-.215 1.683-.647.38-.43.655-1.056.827-1.876l.001-.001zm33.32 8.156h-3.104v-2.813H88.38V6.949h3.852v9.742h4.239V6.949h3.854v9.94h1.342v5.791zm13.491-15.813v12.866h-3.614v-7.064l-4.622 7.064h-3.645V6.867h3.63v7.12l4.657-7.12h3.594zm9.367 7.892l-1.361-4.632-1.364 4.632h2.725zm.816 2.79h-4.361l-.628 2.122h-3.927l4.687-12.886h4.215l4.667 12.886h-4.03l-.623-2.122zm17.59 2.221h-3.874V9.978h-3.033v3.993c0 1.64-.084 2.846-.251 3.617-.17.77-.564 1.337-1.184 1.696-.619.36-1.617.541-3 .541a8.757 8.757 0 01-1.455-.142v-2.632h.58c.524 0 .895-.121 1.111-.36.217-.24.324-.677.324-1.316v-8.59h10.782v12.986-.001zm16.025-13.15h3.879v4.54h4.249V6.62h3.897v13.002h-3.897v-5.265h-4.249v5.265h-3.879V6.62zm21.339 8.083l-1.351-4.6-1.356 4.6h2.707zm.81 2.77h-4.331l-.622 2.11h-3.901l4.655-12.798h4.184l4.637 12.797h-4.004l-.618-2.108zM79.676 10.34c1.554 0 2.814 1.304 2.814 2.912 0 1.607-1.26 2.91-2.814 2.91s-2.815-1.303-2.815-2.91c0-1.608 1.26-2.912 2.815-2.912zm0-3.708c-3.922 0-6.416 2.562-6.416 6.62 0 4.057 2.68 6.634 6.6 6.634 3.922 0 6.255-2.762 6.255-6.819 0-4.056-2.516-6.435-6.44-6.435h.001zm71.332 6.643c1.282 0 2.321 1.073 2.321 2.4 0 1.324-1.039 2.401-2.321 2.401-1.281 0-2.32-1.075-2.32-2.401 0-1.327 1.039-2.4 2.32-2.4zm-1.705 6.451c2.829 0 7.897.467 7.793-3.976-.105-4.444-4.685-4.092-7.793-4.128V6.54h-3.935v13.186h3.935z" fill="#FCCE00"/><path fill-rule="evenodd" clip-rule="evenodd" d="M190.776 42.054l-2.437-8.255-2.447 8.256h4.884zm1.461 4.974h-7.815l-1.123 3.785h-7.041l8.402-22.97h7.55l8.367 22.97h-7.223l-1.117-3.785zm-16.508 3.785h-7.769l-2.713-5.914c-.628-1.406-1.117-2.282-1.47-2.635-.349-.353-.838-.53-1.455-.53v9.08h-6.89V27.842h6.89v8.823c.598-.033 1.065-.251 1.398-.658.338-.407.857-1.578 1.569-3.508.519-1.427 1.039-2.454 1.569-3.074.526-.62 1.384-1.065 2.568-1.336 1.189-.274 3.049-.407 5.586-.407v4.843h-.349c-1.18 0-2.053.23-2.618.69-.567.46-1.035 1.203-1.398 2.236-.369 1.032-.76 1.796-1.18 2.304-.421.508-.998.915-1.725 1.214a6.1 6.1 0 012.599 1.732c.743.824 1.527 2.101 2.357 3.834l3.031 6.277zm-42.813-22.97h18.458v4.908h-11.537v3.659h10.695v4.683h-10.695v4.523h11.88v5.197h-18.801v-22.97zm-24.074 0h20.982v5.679h-7.046v17.291h-6.89V33.522h-7.046v-5.68zm-3.025 22.97h-6.89V33.49h-7.576v17.324h-6.89v-22.97h21.356v22.97zm-33.365-8.758L70.015 33.8l-2.447 8.256h4.884zm1.46 4.973h-7.815l-1.123 3.785h-7.04l8.402-22.97h7.55l8.367 22.97H75.03l-1.118-3.785z" fill="#CE0C36"/><path fill-rule="evenodd" clip-rule="evenodd" d="M1.362 1.625h52.92v54.749H1.363V1.625z" fill="#FEFEFE"/><path fill-rule="evenodd" clip-rule="evenodd" d="M49.752 40.242c-2.12 3.792-4.947 6.195-7.977 8.008-3.668 2.188-7.334-.59-12.222-.59-3.83 0-7.589 1.84-11.733.504C11.26 46.048 6.282 37.98 6.282 30.686c0-7.319 1.538-13.15 7.85-16.922 5.532-3.308 13.08.687 13.08.687s-5.394-5.856-12.773-3.217c-8.364 2.99-11.587 11.163-11.587 19.62 0 8.39 5.972 18.888 14.285 21.736 6.06 1.643 5.98-.617 12.335-.617s7.9 2.764 12.225.828c5.675-2.8 8.878-6.744 11.095-12.617-.522.033-2.226.059-3.04.059zM31.138 12.066c.064-.253.398-1.4-.056-2.68-.415-1.453-1.873-3.076-3.357-3.195.016.046.585.03 1.589.853.914.788 2.26 2.403 1.824 5.021zm-.462 2.042c.242-.634.318-1.4.279-1.619 0-.004-.747-.419-1.403-1.098-.697-.702-1.305-1.67-2.008-3.38-.614-1.37-1.555-2.007-2.227-2.297-.695-.285-1.123-.225-1.33-.173.472-.188 2.5-.845 4.95.05 1.17.44 2.343 1.273 2.966 2.51.616 1.217.676 2.845-.532 4.405.009.016-.366.865-.587 1.836a1.3 1.3 0 00-.142-.133c.013-.03.022-.066.035-.101z" fill="#008E62"/><path fill-rule="evenodd" clip-rule="evenodd" d="M38.35 8.096c-2.804 1.059-4.73 3.518-4.623 3.508 4.156-4.066 7.769-4.008 9.7-3.827 2.036.328 2.39.774 2.513.86-1.275-1.582-4.872-1.76-7.59-.541zm5.362 5.185c-6.004 5.567-10.347-.637-10.464-.796-.37.13-1.536 1.013-2.226 2.056l-.437-.115c1.144-1.175 2.324-3.112 2.344-3.101 1.88-5.088 4.832-6.428 7.259-6.762 2.492-.258 4.459.495 5.877 1.346 2.646 1.692 3.832 4.036 4.21 5.154-.287-.477-1.585-1.863-6.563 2.217v.001zM31.955 25.347h6.325v-6.582h5.44v6.583h6.362v5.625h-6.363v6.542h-5.44v-6.542h-6.325v-5.626z" fill="#008E62"/><path fill-rule="evenodd" clip-rule="evenodd" d="M32.029 32.528c0-3.35-.628-3.944-2.22-3.944-.68 0-1.15.08-1.648.241v6.514c.028.567.627.973 1.7.973 1.488 0 2.168-.863 2.168-3.783v-.001zm-7.887 2.785v-6.489c-.471-.16-.965-.24-1.644-.24-1.594 0-2.222.595-2.222 3.944 0 2.921.706 3.784 2.17 3.784 1.095 0 1.696-.438 1.696-1zm0-15.32h4.02v5.299c.497-.14 1.019-.165 1.646-.165 4.414 0 6.058 1.647 6.058 7.298 0 5.587-1.982 7.289-5.146 7.289-1.174 0-1.958-.299-2.559-.618v5.428h-4.019v-5.43c-.577.321-1.359.619-2.559.619-3.16 0-5.145-1.7-5.145-7.29 0-5.65 1.645-7.297 6.06-7.297.626 0 1.147.026 1.644.166v-5.298z" fill="#CE0C36"/></svg>