<svg width="191" height="52" fill="none" xmlns="http://www.w3.org/2000/svg"><path fill-rule="evenodd" clip-rule="evenodd" d="M.163 26.03C.163 11.666 11.849 0 26.316 0c14.47 0 26.34 11.603 26.34 25.97C52.657 40.334 40.909 52 26.442 52a26.24 26.24 0 01-17.993-7.122l11.067-9.822a11.332 11.332 0 006.926 2.332c6.305 0 11.438-5.095 11.438-11.357 0-6.263-5.133-11.358-11.438-11.358-6.307 0-11.439 5.095-11.439 11.358 0 2.148.556 4.113 1.607 5.832L5.48 41.686C2.141 37.327.163 31.925.163 26.031zm31.04 6.496c-.314-.358-.252-.956.127-1.254 1.762-1.314 2.769-3.345 2.705-5.496a6.876 6.876 0 00-2.265-5.078c-.378-.358-.378-.896 0-1.254a.947.947 0 011.322 0c1.824 1.672 2.83 3.942 2.83 6.332 0 2.688-1.194 5.197-3.396 6.87-.126.12-.379.179-.567.179-.314 0-.567-.06-.755-.299z" fill="#2CB143"/><path fill-rule="evenodd" clip-rule="evenodd" d="M65.163 39.814V12.018h4.69v12.35h5.852c.481-3.654 2.005-6.672 4.53-9.094 2.525-2.383 5.452-3.574 8.819-3.574 3.487 0 6.414 1.31 8.699 3.891 2.284 2.582 3.447 5.838 3.447 9.69 0 4.169-1.323 7.663-3.928 10.522-2.646 2.9-5.813 4.329-9.54 4.329-3.408 0-6.294-1.271-8.58-3.773-2.284-2.501-3.487-5.599-3.567-9.371h-5.732v12.826h-4.69zm15.233-14.93c0 3.375.802 6.234 2.445 8.577 1.644 2.342 3.648 3.534 6.053 3.534 2.205 0 4.009-.953 5.412-2.82 1.403-1.866 2.084-4.288 2.084-7.227 0-3.375-.842-6.274-2.485-8.617-1.644-2.342-3.688-3.494-6.093-3.494-2.205 0-3.969.953-5.332 2.82-1.403 1.866-2.084 4.288-2.084 7.226zm42.451-4.13h-18.92v2.74l7.215-.199v16.519h4.49V23.295l7.215.198v-2.74zm6.935 10.284c.2 1.906.922 3.336 2.084 4.289 1.163.993 2.766 1.47 4.73 1.47a12.83 12.83 0 003.528-.477c1.082-.318 1.884-.636 2.405-.953l.762-.517v2.542c-.081.08-.201.159-.321.278-.16.119-.481.357-1.002.675a12.22 12.22 0 01-1.604.834c-.601.238-1.322.436-2.244.675a13.61 13.61 0 01-2.847.278c-3.086 0-5.571-.874-7.416-2.66-1.883-1.788-2.805-4.011-2.805-6.752 0-2.898 1.042-5.36 3.086-7.346 2.045-1.945 4.53-2.938 7.536-2.938 2.726 0 4.811.873 6.254 2.62 1.403 1.748 2.124 4.17 2.124 7.307l-1.202.675h-13.068zm5.29-7.663c-1.403 0-2.605.476-3.527 1.39-.922.913-1.523 2.183-1.724 3.772h10.102c-.521-3.455-2.165-5.162-4.851-5.162zm17.839-2.621h-4.048v19.06h4.489v-8.3l1.684-.277 6.694 8.577h5.051l-8.297-10.761 7.135-8.3h-3.648l-6.734 7.942-1.885.278v-7.227l-.441-.992zm32.509 5.916v8.974c0 .954.401 1.43 1.243 1.43.281 0 .641-.08 1.002-.198.361-.12.682-.199.882-.318l.361-.199v2.383c-1.163.913-2.646 1.39-4.45 1.39-1.964 0-3.126-.795-3.447-2.383-1.684 1.588-3.768 2.383-6.254 2.383-1.843 0-3.247-.477-4.169-1.39-.921-.913-1.402-2.025-1.402-3.375 0-.834.2-1.589.561-2.264.36-.675.842-1.27 1.443-1.747a9.902 9.902 0 012.044-1.231 16.23 16.23 0 012.285-.834c.682-.198 1.443-.357 2.285-.516.842-.12 1.443-.238 1.884-.278.441-.04.842-.04 1.243-.08v-.913c0-1.23-.401-2.184-1.203-2.899-.842-.675-2.044-1.032-3.648-1.032-1.042 0-2.044.159-2.966.437-.962.317-1.644.635-2.085.953l-.641.437v-2.423c.08-.08.2-.159.321-.278.12-.119.441-.317.962-.595a14.31 14.31 0 011.563-.794c.561-.199 1.283-.398 2.165-.596.882-.199 1.804-.278 2.766-.278 2.445 0 4.249.556 5.451 1.628 1.203 1.072 1.804 2.62 1.804 4.606zm-11.705 7.902c0 .755.281 1.39.882 1.867.601.516 1.363.754 2.365.754 1.403 0 2.726-.516 3.969-1.509v-5.043c-.562.04-1.163.08-1.764.199-.641.119-1.403.277-2.325.516-.922.278-1.644.675-2.245 1.23-.601.557-.882 1.232-.882 1.986z" fill="#212121"/></svg>