<svg width="130" height="130" fill="none" xmlns="http://www.w3.org/2000/svg"><circle cx="65" cy="65" r="65" fill="#9AB6DF"/><g clip-path="url(#clip0_36_328)" fill="#162F64"><path d="M63.97 67.382c-.207.33-.433.645-.68.946L46.944 84.725c-.658.658-1.378 1.172-2.324 1.234a3.247 3.247 0 01-3.29-1.81 3.355 3.355 0 01.514-3.662l.494-.494 18.938-18.947c1.81-1.831 3.599-1.831 5.408-.021l19.104 19.112c1.048 1.028 1.48 2.201 1.028 3.62a3.27 3.27 0 01-5.1 1.564 8.776 8.776 0 01-.781-.74L64.73 68.349c-.206-.227-.37-.473-.76-.967z"/><path d="M63.825 47.797c-.15.28-.322.549-.514.802l-16.41 16.458c-.945.926-2.056 1.255-3.31.905a3.064 3.064 0 01-2.303-2.448c-.267-1.234.123-2.263 1.008-3.147L53.688 48.99c2.55-2.55 5.1-5.122 7.67-7.673 1.748-1.749 3.557-1.77 5.305-.041l19.144 19.173c1.48 1.481 1.563 3.518.227 4.855-1.337 1.337-3.352 1.296-4.792-.144-2.57-2.55-5.12-5.122-7.67-7.673l-9.027-9.052-.72-.638z"/></g><defs><clipPath id="clip0_36_328"><path fill="#fff" transform="translate(41 40)" d="M0 0h46v46H0z"/></clipPath></defs></svg>