<svg width="130" height="130" fill="none" xmlns="http://www.w3.org/2000/svg"><circle cx="65" cy="65" r="65" fill="#fff" fill-opacity=".5"/><g clip-path="url(#clip0_36_322)" fill="#EF4932"><path d="M103.865 51.07c-.363.401-.688.802-1.069 1.184L94.28 60.77a5.517 5.517 0 01-.477.478c-.573.477-1.26.496-1.737.057-.478-.44-.516-1.165 0-1.776.139-.183.299-.35.477-.496l7.694-7.713c.196-.164.399-.317.611-.459L90.729 40.742a2.64 2.64 0 01-.4.687L58.004 73.77c-1.145 1.165-2.444 1.757-4.047 1.203A4.104 4.104 0 0152.449 74c-2.214-2.138-4.372-4.315-6.53-6.51-.706-.688-.782-1.375-.247-1.928.534-.554 1.298-.497 2.004.229l5.938 5.918c1.355 1.356 1.604 1.375 2.94.02l32.934-32.935c1.337-1.336 1.661-1.336 3.036.038l10.329 10.348c.363.363.668.745 1.012 1.127v.764z"/><path d="M38.76 60.388l-9.851 9.851c.122.157.256.303.4.44l20.525 20.523c2.138 2.158 4.639 2.883 7.58 1.948 1.221-.382 2.176-1.165 3.054-2.062l27.55-27.531c.218-.247.461-.471.726-.668a1.107 1.107 0 011.527.171c.44.44.477.993.134 1.528-.165.221-.35.426-.554.61a28604.4 28604.4 0 01-27.76 27.76c-4.162 4.163-9.852 4.144-14.014-.018L26.617 71.5c-1.088-1.089-1.088-1.566.02-2.655l10.787-10.787c1.03-1.03 1.508-1.03 2.539 0 1.03 1.031 2.52 2.463 3.704 3.742.35.38.54.878.534 1.394-.095.955-1.298 1.222-2.08.496-.783-.725-1.948-1.928-2.922-2.882a4.23 4.23 0 00-.439-.42z"/></g><defs><clipPath id="clip0_36_322"><path fill="#fff" transform="translate(25.816 37.801)" d="M0 0h78.049v58.27H0z"/></clipPath></defs></svg>