<svg width="130" height="130" fill="none" xmlns="http://www.w3.org/2000/svg"><circle cx="65" cy="65" r="65" fill="#fff" fill-opacity=".5"/><g clip-path="url(#clip0_36_349)" fill="#CB6D3F"><path d="M76.686 23.05l.215.107c2.728.77 4.103 2.569 4.103 5.395v24.983c.515-.15.923-.193 1.31-.343l9.473-3.768a3.57 3.57 0 01.838-.278c.623-.129 1.095.15 1.332.75.236.599 0 1.048-.494 1.39a3.52 3.52 0 01-.645.3c-2.943 1.178-5.864 2.355-8.807 3.49-.666.257-.924.556-.924 1.306.043 6.508.022 13.037.022 19.545.025.271.018.544-.022.814-.15.642-.558 1.027-1.246.985-.687-.043-1.03-.429-1.117-1.07a3.88 3.88 0 01-.021-.707v-17.94c-.258.278-.43.428-.559.6-1.117 1.305-2.19 2.654-3.35 3.895-.344.364-.924.707-1.419.707a1690.7 1690.7 0 01-20.836 0 2.216 2.216 0 01-1.418-.685c-1.31-1.434-2.535-2.933-3.888-4.539v44.657h31.47V82.649a5.14 5.14 0 01.021-.813 1.198 1.198 0 011.155-1.007 1.205 1.205 0 011.208.943c.04.262.047.528.022.792v20.765c0 1.456-.323 1.777-1.783 1.777H48.588c-1.503 0-1.804-.321-1.804-1.841V56.318c0-.664-.172-.985-.816-1.22-2.986-1.157-5.972-2.355-8.937-3.533-.236-.107-.558-.15-.644-.321-.086-.171-.473-.9-.408-1.327.064-.428.601-.857 1.203-.793.32.058.63.159.924.3l9.602 3.81c.343.13.709.172 1.181.3V42.746c.004-.317.04-.632.108-.942a1.091 1.091 0 011.224-.813 1.097 1.097 0 011.053 1.027c.064.557.021 1.113.042 1.67v9.698h27.239c0-.3.021-.578.021-.878.014-7.935.014-15.892 0-23.87 0-2.162-1.031-3.19-3.2-3.19H54.473c-2.126 0-3.157 1.05-3.157 3.169-.022 2.59 0 5.18-.022 7.77 0 .986-.451 1.564-1.203 1.542-.752-.021-1.181-.578-1.203-1.52v-7.942c.022-2.74 1.418-4.539 4.103-5.31l.215-.106h23.479zm2.577 32.882H50.63c1.396 1.627 2.664 3.147 3.996 4.646.15.192.515.257.773.257h19.118c.258.02.516-.048.73-.193 1.332-1.52 2.621-3.083 4.017-4.71z"/><path d="M61.069 74.942h-5.714v21.623h5.714v-7.836c.021-.899.43-1.413 1.16-1.434.73-.022 1.246.492 1.267 1.434v8.799c-.021 1.027-.45 1.477-1.46 1.477a455.47 455.47 0 01-7.648 0c-1.095 0-1.482-.428-1.482-1.605-.014-6.908-.021-13.823-.021-20.745 0-.899 0-1.82.021-2.719.022-.899.43-1.434 1.418-1.434a463.17 463.17 0 017.712 0c1.03 0 1.439.45 1.46 1.477v8.735c-.021.942-.472 1.498-1.203 1.52-.73.021-1.203-.557-1.224-1.542v-7.75zm9.989-46.605a4.82 4.82 0 013.395 1.397 4.787 4.787 0 01-1.534 7.821 4.825 4.825 0 01-1.84.373 4.863 4.863 0 01-3.396-1.402 4.83 4.83 0 01-1.437-3.372 4.83 4.83 0 011.414-3.392 4.863 4.863 0 013.398-1.425zm.043 7.194a2.453 2.453 0 001.676-.745 2.44 2.44 0 00.687-1.696 2.416 2.416 0 00-.756-1.67 2.433 2.433 0 00-1.715-.664 2.43 2.43 0 00-1.64.738 2.415 2.415 0 00-.68 1.66 2.44 2.44 0 00.732 1.677c.453.443 1.06.694 1.696.7zm-12.288-7.194c1.277.006 2.5.512 3.404 1.41a4.83 4.83 0 011.43 3.386 4.83 4.83 0 01-1.422 3.378 4.863 4.863 0 01-3.39 1.417 4.842 4.842 0 01-3.389-1.403 4.809 4.809 0 01-1.423-3.37c0-1.27.503-2.49 1.4-3.392a4.841 4.841 0 013.39-1.426zm.022 7.194a2.453 2.453 0 001.683-.73 2.436 2.436 0 00.701-1.69 2.415 2.415 0 00-.74-1.676 2.432 2.432 0 00-1.709-.678 2.41 2.41 0 00-1.652.716 2.394 2.394 0 00-.689 1.66c.011.632.268 1.236.717 1.683a2.453 2.453 0 001.689.715zM71.08 40.99a4.783 4.783 0 013.4 1.399 4.753 4.753 0 011.39 3.396 4.76 4.76 0 01-1.426 3.377 4.792 4.792 0 01-3.408 1.376 4.842 4.842 0 01-3.382-1.419 4.808 4.808 0 01-1.408-3.377 4.76 4.76 0 011.426-3.377 4.792 4.792 0 013.407-1.376zm-.022 2.397a2.393 2.393 0 00-1.694.704 2.374 2.374 0 00-.69 1.694c.016.62.27 1.209.71 1.647.44.438 1.03.691 1.652.708.637 0 1.248-.25 1.702-.694a2.415 2.415 0 00.726-1.682 2.394 2.394 0 00-.713-1.682 2.41 2.41 0 00-1.693-.695zM58.835 40.99a4.806 4.806 0 013.401 1.39 4.772 4.772 0 011.41 3.383 4.782 4.782 0 01-1.424 3.385 4.814 4.814 0 01-3.409 1.39 4.82 4.82 0 01-3.388-1.413 4.787 4.787 0 01-1.402-3.383 4.758 4.758 0 011.418-3.37 4.79 4.79 0 013.394-1.383zm0 2.397a2.41 2.41 0 00-1.694.695 2.394 2.394 0 00-.712 1.681 2.44 2.44 0 00.732 1.677c.453.444 1.06.694 1.695.7a2.41 2.41 0 001.659-.702c.44-.44.693-1.032.704-1.653 0-.632-.25-1.239-.697-1.688a2.41 2.41 0 00-1.687-.71z"/></g><defs><clipPath id="clip0_36_349"><path fill="#fff" transform="translate(35.958 23.05)" d="M0 0h58.085v82.057H0z"/></clipPath></defs></svg>