<svg width="281" height="521" fill="none" xmlns="http://www.w3.org/2000/svg"><path d="M112.686 130.12a18.777 18.777 0 01-15.33 17.172 18.778 18.778 0 01-20.354-26.562 18.782 18.782 0 0122.537-15.025 19.407 19.407 0 0113.147 24.415z" fill="#83592F"/><path d="M95.783 170.812a2.506 2.506 0 01-.626 1.878h-1.878a55.089 55.089 0 01-24.415-2.504l-2.505-1.252c-1.252-.626-.625-2.504-.625-3.756l1.878-13.147c.056-2.346.478-4.67 1.252-6.886a16.9 16.9 0 015.008-4.382c6.26-3.13 16.902-20.033 24.415-20.659 7.512-.626.626 26.293 0 30.675-.626 4.383-1.252 13.147-2.504 19.407" fill="#FABA8E"/><path d="M83.263 172.064c.626-1.878.625-3.756 1.877-5.008l3.13-4.382a30.68 30.68 0 002.505-13.147 23.162 23.162 0 012.504-9.39l1.252-3.13a58.214 58.214 0 00-20.659 4.382 16.9 16.9 0 00-5.008 4.382 22.538 22.538 0 00-1.252 6.886l-1.879 13.147c0 1.252-.626 3.13.626 3.756l2.505 1.252a54.444 54.444 0 0013.772 3.13c0-.626.627-1.252.627-1.878z" fill="#CB6D3F"/><path d="M103.295 120.73c0 20.033-15.65 35.684-29.423 35.684-13.773 0-20.033-15.651-20.033-35.684 0-20.033 11.268-35.058 25.04-35.058 13.773 0 24.416 15.651 24.416 35.058z" fill="#FABA8E"/><path d="M109.555 129.494a8.764 8.764 0 01-10.016 6.261c-4.382-1.252-5.634-6.887-3.756-11.895 1.878-5.008 6.26-8.139 10.016-6.261 3.757 1.879 5.635 6.261 3.756 11.895z" fill="#FABA8E"/><path d="M104.547 120.73c3.13.626 3.756 4.382 2.504 7.512-1.252 3.13-4.382 5.635-6.886 4.382" fill="#F59770"/><path d="M87.644 115.721a6.266 6.266 0 00-5.634-1.252h-1.252c-.626 0-.626 0-.626.626h5.008l3.756 1.879c.626.626.627 0 .627-.626s-1.253-1.879-1.879-1.879m-26.919 0a8.767 8.767 0 015.634-.626h1.253c0 .626.626.626 0 .626h-5.009l-3.13 1.879c-1.252.626-1.252-.001-.626-1.253s1.252-1.252 1.878-1.252" fill="#83592F"/><path d="M95.783 126.364a27.546 27.546 0 00-12.52 1.252c-1.253.626-2.505.626-3.13 1.878-.627 1.252-.627 1.252-.627 1.878 0 .626.626 1.878 1.878 2.504a19.4 19.4 0 008.139 1.879 10.02 10.02 0 006.26-1.252 10.02 10.02 0 003.756-5.009v-1.252l-1.878-1.252h-1.878m-39.44-.626a10.638 10.638 0 017.512 1.252l1.878 1.252c0 .626.626 1.878.626 2.504 0 .626-.625 1.878-1.251 2.504a8.137 8.137 0 01-5.009 1.879 4.386 4.386 0 01-3.756-1.253 6.881 6.881 0 01-1.878-5.008v-1.252a1.88 1.88 0 01.626-1.252h1.252" fill="#F59770"/><path d="M83.888 121.356c0 1.252-.626 2.504-1.252 2.504s-1.878-.626-2.504-1.878a1.877 1.877 0 011.878-1.878l1.878 1.252zm-16.903-.626c.626 1.252 0 1.878-1.252 2.504a1.88 1.88 0 01-1.878-1.878c-.626-.626.626-1.878 1.252-1.878s1.878.626 1.878 1.252z" fill="#402740"/><path d="M48.204 464.421c-.52-10.867-.1-21.759 1.253-32.554a97.037 97.037 0 014.382-19.407c1.878-9.39 3.13-18.781 4.382-28.171 1.253-9.391 2.504-30.049 4.382-45.074a33.183 33.183 0 001.879-13.773 18.155 18.155 0 00-10.017-11.268l-3.756-1.879a31.924 31.924 0 0118.78 1.879 18.156 18.156 0 0110.017 11.268 33.182 33.182 0 01-1.878 13.773c-1.878 15.025-2.504 30.049-4.382 45.074-1.878 15.025-2.504 18.781-4.382 28.171a175.947 175.947 0 00-5.009 19.407 282.35 282.35 0 00-.626 32.554c-.626 6.886-1.878 15.025-6.886 18.781a20.037 20.037 0 01-8.765 1.252H37.563l3.756-1.252c5.008-3.756 6.26-11.895 6.886-18.781z" fill="#39364A"/><path d="M27.546 482.576c-1.252-.626-1.253-1.878-1.879-3.13a68.87 68.87 0 01-4.382-22.538l-7.513-92.652a58.849 58.849 0 010-18.155 40.692 40.692 0 0113.774-22.537 53.842 53.842 0 0123.788-10.643h1.253l3.756 1.878a18.775 18.775 0 0110.642 11.269 91.409 91.409 0 01-1.878 13.773c-1.878 15.024-3.13 30.049-5.008 45.074-1.878 15.025-2.504 18.781-4.382 28.171a175.924 175.924 0 00-5.009 19.407 189.074 189.074 0 00-1.251 32.554c0 6.886-1.252 15.025-6.886 18.781l-4.383 1.252h-6.886l-3.756-1.252" fill="#423F55"/><path d="M130.215 399.939a23.166 23.166 0 00.626 11.269 24.392 24.392 0 005.008 6.26 217.297 217.297 0 0115.651 18.155 35.065 35.065 0 018.138 15.025 29.422 29.422 0 01-3.13 16.277 16.904 16.904 0 01-5.634 7.512 12.524 12.524 0 01-10.643 1.878c-13.772-1.878-25.041-15.025-33.805-26.919a455.112 455.112 0 01-46.327-79.506 48.83 48.83 0 01-5.634-21.285c.626-11.895 11.269-20.033 21.911-23.789a54.461 54.461 0 0128.171-4.382 44.446 44.446 0 0119.408 8.138c6.886 5.008 6.886 8.764 6.886 17.529a512.674 512.674 0 01-.626 53.838z" fill="#49455C"/><path d="M10.017 289.758a10.64 10.64 0 01-.626 4.382l-1.879 3.757a87.66 87.66 0 00-5.633 10.642A25.672 25.672 0 000 317.304c0 1.878.626 2.504 1.252 2.504h1.253a2.503 2.503 0 001.251 2.504h1.879l1.251 1.252h2.505l2.504 1.252c3.13-.626 5.008-5.634 3.756-6.886a.624.624 0 00-.626-.626 8.768 8.768 0 001.252-3.757v5.635c0 1.252.626 5.008 2.504 4.382 1.878-.626 1.252-3.13 1.252-3.756.118-2.136.54-4.244 1.252-6.261v-7.512c0-1.252-.626-2.504 0-3.756.626-1.252 1.879-3.13 2.505-5.008a87.712 87.712 0 006.26-10.017" fill="#FABA8E"/><path d="M107.677 200.236c-3.756 1.252-10.642.626-14.398 1.878-3.756 1.252-8.139-1.252-11.269 1.252a56.331 56.331 0 00-11.895 12.52 164.152 164.152 0 00-13.772 15.651 145.909 145.909 0 00-6.886 17.529c-3.13 6.26-6.887 13.147-9.39 19.407-2.505 6.26-3.131 13.147-5.01 18.155a108.943 108.943 0 01-6.26 14.399c-2.504 3.756-1.877 3.13-4.381 5.008a27.545 27.545 0 01-10.017 1.252 25.048 25.048 0 01-8.139-2.504c-2.504-1.252-.626 0-2.504-3.13a30.676 30.676 0 01-3.13-14.399C0 282.246 3.13 274.733 3.13 268.473c0-6.26.627-13.773 1.879-21.285 1.252-7.512 8.138-20.033 10.016-26.293 1.878-6.261 3.756-16.277 6.26-23.163a94.524 94.524 0 0120.033-33.18c28.171-1.878 51.335 16.903 74.498 31.927a19.413 19.413 0 01-8.139 3.757z" fill="#30A15E"/><path d="M71.994 141.389h9.39c.626 0 .626 1.252.626 1.878l-1.252 1.878a11.274 11.274 0 01-13.773.626c-1.252-.626-3.755-3.756-2.503-5.008 1.252-1.252 6.26.626 7.512.626z" fill="#fff"/><path d="M33.18 203.366l13.147-27.545a45.701 45.701 0 0142.57-11.895c27.545 5.008 43.196 47.578 39.439 85.14-3.756 37.562 28.798 96.409 2.505 105.8-26.294 9.39-118.32-.001-123.955-13.773C1.252 327.32 23.164 224.651 33.18 203.366z" fill="#1C8849"/><path d="M75.75 135.129a5.01 5.01 0 01-5.924.773 5.002 5.002 0 01-1.588-1.4" stroke="#F59770" stroke-width=".22" stroke-miterlimit="10" stroke-linecap="round"/><path d="M122.076 60.63a3.134 3.134 0 01-3.077 2.204 3.13 3.13 0 01-1.305-.325 3.757 3.757 0 00-5.008 5.008 3.13 3.13 0 01-1.879 4.382 3.752 3.752 0 00-2.254 3.444 3.753 3.753 0 002.254 3.443 3.75 3.75 0 011.987 2.111c.175.466.255.962.236 1.46a3.745 3.745 0 01-.344 1.437 3.748 3.748 0 001.178 3.706 3.755 3.755 0 003.83.676 3.127 3.127 0 013.885 1.137c.271.41.441.88.497 1.367a3.755 3.755 0 006.886 0 3.758 3.758 0 015.009-2.504 3.13 3.13 0 004.382-4.382 4.38 4.38 0 012.504-5.008 3.76 3.76 0 002.255-3.444 3.76 3.76 0 00-2.255-3.443 3.757 3.757 0 01-2.504-4.382 3.763 3.763 0 00-.676-3.83 3.75 3.75 0 00-3.706-1.178 3.758 3.758 0 01-5.009-1.878 3.757 3.757 0 00-3.442-2.255 3.753 3.753 0 00-3.444 2.255zM48.83 56.249c-1.251 1.878-3.13 3.13-5.008 1.878a3.755 3.755 0 00-5.008 5.008c1.252 1.878 0 3.756-1.878 5.008a3.131 3.131 0 000 6.26 3.755 3.755 0 011.878 5.009 3.756 3.756 0 005.008 5.008c1.878-1.252 3.757 0 5.009 1.878a3.13 3.13 0 106.26 0A3.756 3.756 0 0160.1 84.42a3.758 3.758 0 005.009-5.008 3.758 3.758 0 01.672-4.152c.341-.363.75-.654 1.205-.857a3.131 3.131 0 000-6.26c-1.878-1.252-3.13-3.13-1.877-5.008a3.756 3.756 0 00-5.01-5.008 3.755 3.755 0 01-5.007-1.878 3.13 3.13 0 00-6.26 0z" fill="#1C8849"/><path d="M111.434 131.998c-3.756 5.635-8.765-11.894-18.781-19.407-10.017-7.512-20.033-12.52-15.651-17.528 4.382-5.009 15.025-3.757 25.041 3.756 10.017 7.512 13.773 28.171 9.391 33.179zM51.96 120.73c2.505 3.13 5.634-7.513 11.895-12.521 6.26-5.008 11.894-7.512 9.39-10.642-2.504-3.13-9.39-1.878-15.024 2.504-5.634 4.382-8.764 17.529-6.26 20.659z" fill="#83592F"/><path d="M112.06 135.755a42.568 42.568 0 00-29.424-34.432c-25.667-7.512-31.301 11.268-31.301 11.268s-5.634-31.927.626-36.31c6.26-4.382 6.886 5.009 41.318 5.009 16.903 0 26.92-8.765 30.676-5.008 3.756 3.756 4.382 33.805-11.895 59.473z" fill="#C0B2BB"/><path d="M55.717 353.613c0-21.285.626-44.448 2.504-68.237 2.504-36.31 6.26-70.115 11.268-101.417h-2.504c-5.008 30.675-8.764 64.481-11.268 100.791-1.878 23.789-2.504 46.952-2.504 68.237h2.504" fill="#fff"/><path d="M78.88 271.603l-4.382-2.504h-3.756l-11.895-1.878a20.031 20.031 0 01-8.139-4.382c-1.252-1.252-1.251-1.878-1.251-2.504 0-.626 0-.626.626-1.252s-1.252-1.252-1.252-2.504a2.503 2.503 0 01.626-1.878v-1.879a3.124 3.124 0 011.251-2.504 6.26 6.26 0 01.626-2.504 5.634 5.634 0 017.513 1.252l3.756 1.878-4.382-3.756c-1.252-.626-3.756-3.756-1.878-4.382 1.878-.626 3.13.626 3.756 1.252l5.008 2.504a24.41 24.41 0 016.26 5.008l3.13 2.505h5.635l11.268 1.878" fill="#F8A87C"/><path opacity=".38" d="M160.89 152.031a45.705 45.705 0 016.26-17.529c11.268-20.033 36.31-27.545 58.221-25.667a23.789 23.789 0 0116.277 8.139 43.202 43.202 0 01-28.172 23.789 44.451 44.451 0 01-18.155 1.252 51.937 51.937 0 00-13.772.626 12.53 12.53 0 00-8.765 5.008 15.026 15.026 0 001.253 12.521c5.634 10.016 18.154 9.39 26.919 13.146a33.15 33.15 0 0010.643 2.504c3.557.415 7.158.203 10.642-.626l-5.635 2.505a55.72 55.72 0 01-37.561 1.878 26.922 26.922 0 01-18.155-27.546z" fill="#EF4932"/><path d="M224.745 48.11c20.659 8.765 23.163 35.058 14.398 52.587-8.764 17.529-40.691 41.318-69.489 30.049a26.288 26.288 0 01-13.772-23.789 47.551 47.551 0 01.626-9.39 63.228 63.228 0 0125.667-37.562c12.52-8.765 26.919-18.155 42.57-11.895z" fill="#1C8849"/><path d="M156.508 97.567a63.227 63.227 0 0125.667-37.562c11.269-8.139 24.415-16.277 38.188-13.147a46.33 46.33 0 01-5.008 18.781A34.433 34.433 0 01197.2 83.794a128.358 128.358 0 00-19.407 8.138 32.55 32.55 0 00-12.52 11.895 8.754 8.754 0 00-1.879 6.886 17.53 17.53 0 005.009 7.513 22.538 22.538 0 007.512 5.008c3.13 1.878 7.513.626 11.269.626a15.026 15.026 0 017.512 0l5.634 1.252c3.699.928 7.57.928 11.269 0a57.596 57.596 0 0017.528-15.025l6.261-6.886a14.398 14.398 0 004.382-4.382 2.502 2.502 0 01-.626 1.878c-12.521 26.293-40.692 41.318-69.489 30.049a26.294 26.294 0 01-13.773-23.789 47.629 47.629 0 01.626-9.39z" fill="#197E43"/><path d="M210.346 16.809a44.447 44.447 0 011.879 23.789 62.601 62.601 0 01-23.164 36.936 50.075 50.075 0 01-41.943 8.138 31.926 31.926 0 01-12.521-7.512 26.298 26.298 0 01-5.635-10.017 49.46 49.46 0 019.391-46.326c15.651-19.407 58.847-35.058 71.993-5.008z" fill="#3056A5"/><path d="M133.971 67.517a23.16 23.16 0 0011.268.626h8.764l6.261 1.252c8.138 1.252 13.773-5.634 20.033-10.016 6.26-4.382 15.024-3.13 21.285-7.513a114.644 114.644 0 008.138-10.016 31.282 31.282 0 003.13-8.139c0 2.505-.625 5.009-.625 7.513a62.605 62.605 0 01-23.164 36.936 50.086 50.086 0 01-41.944 8.138 31.922 31.922 0 01-12.52-7.512 26.298 26.298 0 01-5.635-10.017 27.094 27.094 0 01-.626-3.13 11.898 11.898 0 005.635 2.504" fill="#141718" opacity=".3"/><path d="M105.799 307.913c.626 3.13 1.253 5.634 2.505 5.634s1.251-2.504 1.251-5.634c0-3.13-1.252-6.26-1.878-6.26-.626 0-1.878 2.504-1.878 6.26zm18.781-9.39c.626 3.13 1.253 5.634 2.505 5.634s1.251-2.504 1.251-6.26c0-3.757-1.252-5.635-1.878-5.635-.626 0-1.878 2.504-1.878 6.261zm-60.098 19.406c0 3.757 1.251 6.261 1.877 6.261.626 0 1.879-3.13 1.879-6.261 0-3.13-1.253-6.26-2.505-6.26s-1.251 3.13-1.251 6.26zm10.016-13.146c.626 3.13 1.252 5.634 2.504 5.634s1.252-2.504 1.252-6.26-1.252-5.634-1.878-5.634c-.627 0-1.878 2.504-1.878 6.26zm-11.895-18.155c0 3.756 1.252 6.26 2.505 6.26 1.252 0 1.251-3.13 1.251-6.26s-1.251-5.634-1.877-5.634c-.626 0-1.879 2.504-1.879 5.634zm31.302-24.415c0 3.13 1.252 5.634 1.878 5.634.626 0 1.878-2.504 1.878-6.26s-1.252-5.635-2.505-5.635c-1.252 0-1.251 2.505-1.251 6.261zm-20.033-15.025c0 3.13 1.252 5.634 1.878 5.634.626 0 1.878-2.504 1.878-6.26s-1.252-5.634-2.504-5.634-1.252 2.504-1.252 6.26zm51.334 24.415c.626 3.13 1.252 5.634 2.504 5.634 1.253 0 1.252-2.504 1.252-6.26s-1.251-5.634-1.877-5.634c-.626 0-1.879 2.504-1.879 6.26zm-10.642-21.285c0 3.13.625 5.634 1.877 5.634s1.879-2.504 1.253-6.26c-.626-3.756-.626-5.634-1.878-5.634-1.253 0-1.878 2.504-1.252 6.26zm-21.285 44.448c0 3.131 1.252 5.635 1.877 5.635.626 0 1.879-2.504 1.879-5.635 0-3.13-1.252-6.26-2.504-6.26-1.253 0-1.252 2.504-1.252 6.26zm-18.155-17.529c0 3.131 1.252 5.635 2.504 5.635s1.252-2.504 1.252-6.26c0-3.757-1.252-5.635-1.878-5.635-.626 0-1.878 2.504-1.878 6.26zm36.31 4.383c0 3.13 1.252 6.26 1.878 6.26.626 0 1.878-3.13 1.878-6.26s-1.252-6.261-2.504-6.261-1.252 3.131-1.252 6.261zm-36.31 56.969c.626 3.13 1.252 5.634 2.504 5.634s1.252-2.504 1.252-6.26c0-3.757-1.252-5.635-1.878-5.635-.626 0-1.878 2.504-1.878 6.261zm25.041 1.878c.626 3.13 1.878 5.634 3.13 5.634a8.132 8.132 0 00.626-6.26c-.626-3.757-1.878-6.261-3.13-5.635-1.252.626-1.252 2.504-.626 6.261zm33.18-5.635c.626 3.131 2.504 5.635 3.13 5.009.626-.626 1.252-3.131 0-6.261-1.252-3.13-1.878-5.634-3.13-5.008-1.252.626-1.252 3.13 0 6.26zm-12.521-10.642c1.253 3.13 2.504 5.634 3.756 5.634 1.253 0 .626-3.13 0-6.886-.626-3.756-2.503-5.008-3.756-5.008-1.252 0-.626 3.13 0 6.26zm-33.18-1.252c0 3.13 1.253 6.26 1.879 6.26.626 0 1.877-3.13 1.877-6.26s-1.252-6.261-2.504-6.261-1.252 3.131-1.252 6.261zM14.4 311.043c0 3.13-.001 6.261 1.25 6.261 1.253 0 1.88-2.505 2.505-5.635.626-3.13.626-6.26-.626-6.26s-2.504 1.878-3.13 5.634zm13.772-11.268c-.626 3.756-.627 6.26.626 6.26 1.252 0 2.504-1.878 2.504-5.634 0-3.757.626-5.635-.626-6.261-1.252-.626-1.878 2.504-2.504 5.635zm-8.139-19.407c-.626 3.13-.626 5.634.627 6.26 1.252.626 2.503-2.504 2.503-5.634 0-3.131.626-6.261-.626-6.887-1.252-.626-1.878 2.504-2.504 6.261zm19.407-36.936c-.626 3.13 0 6.26 1.252 6.26s1.878-2.504 2.504-5.634c.626-3.13 0-6.26-.626-6.26s-2.504 2.504-3.13 5.634z" fill="#9AB6DF"/><path d="M247.282 147.649a56.97 56.97 0 01-68.237 31.928 26.922 26.922 0 01-18.155-27.546 45.705 45.705 0 016.26-17.529c11.269-20.033 36.31-27.545 58.221-25.667 21.911 1.878 28.172 21.911 21.911 38.814z" fill="#F27A67"/><path d="M43.822 291.01c-.626 3.13 0 6.261.626 6.261s2.504-2.505 3.13-5.635c.626-3.13 0-6.26-1.252-6.26s-1.878 2.504-2.504 5.634zm-9.39-17.529a8.142 8.142 0 00.626 6.261c1.252 0 2.504-2.504 3.13-6.261a8.136 8.136 0 00-.626-6.26c-1.252 0-2.504 2.504-3.13 6.26zm-12.521-18.78c0 3.13 0 6.26 1.252 6.26s1.878-2.504 2.504-5.635c.626-3.13.626-6.26-.626-6.26s-2.504 2.504-3.13 5.635zm-.626 78.253c-.626 3.131 0 6.261.626 6.261s2.504-2.505 3.13-5.635c.626-3.13 0-6.26-.626-6.26s-2.504 2.504-3.13 5.634zm25.042 7.513c-.626 3.13.625 6.26 1.251 6.26.626 0 1.879-2.504 1.879-6.26 0-3.757-.627-5.635-1.253-5.635-.626 0-1.877 2.504-1.877 5.635zm-8.139-21.285c-.626 3.13-.626 6.26.626 6.26s2.504-2.504 2.504-5.634c0-3.131.626-6.261-.626-6.261s-1.878 1.878-2.504 5.635z" fill="#9AB6DF"/><path d="M93.28 170.812a.624.624 0 01.625-.626c27.545-1.878 41.944 15.651 53.839 43.196 11.894 27.546 20.659 41.318 17.529 52.587-10.643 36.936-53.213 26.293-65.733 21.911-12.521-4.382-12.521-1.252-18.156-5.634a35.058 35.058 0 01-9.39-10.017c-.626-1.878-1.252-2.504-.626-3.756l1.878-13.773c.626-1.252 0-1.878 2.504-3.13a21.283 21.283 0 0110.016-6.26 90.772 90.772 0 0129.424-1.878c1.252 0 1.252-1.252 1.252-1.878 0-.626-11.895-38.188-15.025-45.074a108.283 108.283 0 00-10.016-18.781l1.878-6.261" fill="#30A15E"/><path d="M50.708 150.779c5.635-3.13 13.773.626 20.66 1.878h9.39c2.494.315 5.018.315 7.512 0 8.138 0 20.659-11.268 26.294 5.635a18.781 18.781 0 011.252 14.398c-3.757 7.513-15.025 11.895-26.294 13.147a85.126 85.126 0 01-28.17-.626 50.703 50.703 0 01-16.904-6.886c-5.634-4.383-4.382-6.887-3.13-12.521a19.405 19.405 0 019.39-15.651" fill="#EF4932"/><path d="M118.32 327.32l3.756-10.016h-.626l-19.407-5.635-18.155-6.886h-1.252l-3.13 9.39h.626l20.033 8.139 17.529 4.382.626.626zm1.252-8.138l-2.504 5.634-16.277-4.382-18.781-7.513 1.878-6.26 17.529 6.886 18.155 5.635z" fill="#fff"/><path d="M61.352 250.318a231.007 231.007 0 01102.668-85.14v-1.252a239.777 239.777 0 00-103.921 85.766l1.253.626zm-3.131-1.252a1841.96 1841.96 0 0178.254-172.159h-1.252c-29.424 56.969-55.091 113.938-78.254 172.159h1.252zM69.49 287.88h.625a25.046 25.046 0 01-11.268-20.659h-1.252a28.174 28.174 0 0011.894 21.911" fill="#141718"/><path d="M159.012 172.064c-1.252-.626-.627-1.878-1.253-3.13l-1.877-4.382c-.626 0-.626-.626 0-1.252l6.886-1.252h1.878c3.13 2.504-3.13 8.138-5.634 10.016z" fill="#F27A67"/><path d="M59.473 249.692a454.622 454.622 0 0123.79-41.944 390.015 390.015 0 0178.253-85.766h-1.252a374.968 374.968 0 00-77.628 85.766 344.915 344.915 0 00-23.789 41.944h.626zm3.757 44.448h.625a53.21 53.21 0 01-6.886-26.293v-1.252h-1.252a25.041 25.041 0 00-1.878 13.147 30.05 30.05 0 001.878 11.268h.626a32.552 32.552 0 01-1.252-8.764 31.304 31.304 0 01.626-11.269 40.068 40.068 0 003.13 15.025 32.568 32.568 0 004.382 9.391" fill="#141718"/><path d="M267.607 199.475a56.97 56.97 0 01-74.235 12.84 26.91 26.91 0 01-10.264-31.352 45.683 45.683 0 0110.653-15.263c16.144-16.361 42.28-17.017 62.924-9.438 20.644 7.58 21.411 28.554 10.922 43.213z" fill="#F9AA44"/><path d="M61.208 249.583a230.999 230.999 0 01121.459-55.113l.329-1.208A239.77 239.77 0 0060.165 248.65l1.043.933z" fill="#141718"/><path d="M176.023 199.795c-1.043-.934-.11-1.977-.385-3.35l-.658-4.721c-.603-.165-.439-.769.33-1.208l6.973.604 1.812.495c2.361 3.239-5.162 7.027-8.072 8.18z" fill="#F9AA44"/><path d="M159.012 126.364c0 .626-.626 1.252-1.252 2.504h-1.252c-.626-1.878-4.382-5.634-3.756-6.886.626-1.252 1.252-1.252 2.504-1.252l4.382-2.504c1.252-.626 1.878 0 3.13 1.252l-3.756 6.26" fill="#1C8849"/><path d="M135.222 86.924a1.876 1.876 0 01-.625 1.252.628.628 0 01-.626-.626 11.264 11.264 0 01-4.383-3.13c-.626-.626-1.878-1.252-1.252-1.878V81.29l5.635-5.634h1.251c2.505-.626 1.252 3.13.626 4.382-.626 1.252-.625 5.008-1.251 7.512" fill="#2464AF"/><path d="M55.717 481.95h.626c3.756.626 5.008 1.878 5.008 5.634a115.187 115.187 0 01-1.878 20.659 18.783 18.783 0 01-1.252 6.261l-48.83 4.382c-1.878-4.383-1.878-8.765 3.13-10.643l6.886-1.878h1.878c1.252-.626 1.252-2.504.626-3.756a65.743 65.743 0 010-15.651c0-3.756 1.252-5.634 5.635-5.634l28.171 1.252M159.012 451.9h.626c2.504-2.504 4.382-3.13 7.512 0l14.399 14.399a16.28 16.28 0 013.13 5.634l-27.545 40.066c-4.383-1.878-8.139-5.008-6.261-10.016l3.13-6.261a2.5 2.5 0 00.626-1.878 4.387 4.387 0 00-2.503-3.13 56.347 56.347 0 01-11.895-9.39c-3.13-2.504-3.13-5.009-.626-8.139l19.407-20.659" fill="#EF4932"/><path d="M57.595 515.755v-1.878l-49.456 4.382c0 .627.626 1.253.626 1.879l48.204-4.383m128.962-43.822l-1.252-1.252c-9.39 13.147-18.781 26.92-28.797 40.066l1.878 1.252 28.171-40.066z" fill="#141718"/></svg>