<svg width="686" height="634" fill="none" xmlns="http://www.w3.org/2000/svg"><g clip-path="url(#clip0_543_2)"><rect x="265" y="213" width="411" height="411" rx="205.5" fill="#9AB6DF"/><path d="M421.143 327.152a27.664 27.664 0 0011.634 17.498 27.52 27.52 0 0020.543 4.234 27.598 27.598 0 0016.208-13.334 27.729 27.729 0 002.178-20.91 26.395 26.395 0 00-3.524-10.55 26.304 26.304 0 00-7.552-8.149 26.212 26.212 0 00-31.29.914 26.336 26.336 0 00-7.066 8.577 26.396 26.396 0 00-1.131 21.72" fill="#83592F"/><path d="M542.627 574.761a50.791 50.791 0 017.223 19.756 88.468 88.468 0 01-6.566 32.268c-5.254 12.512-8.537 19.097 0 29.634 8.536 10.536 11.82 14.488 21.67 14.488a22.944 22.944 0 0013.133-4.61 112.555 112.555 0 0030.207-38.195c8.537-13.829 16.416-25.683 17.73-41.488a28.393 28.393 0 00-1.97-11.195c-13.79-42.804-34.147-74.414-61.727-111.95-3.283-3.952-13.134-16.464-21.014-25.025-7.88-8.561-28.236-32.268-44.653-38.195-6.566 3.951-5.91 10.537-15.103 12.512H469.08a103.123 103.123 0 013.94 9.878 173.485 173.485 0 008.537 21.074c12.476 29.634 23.64 55.316 37.43 82.975l23.64 47.414" fill="#FCB737"/><path d="M442.813 387.078c0 1.317 0 1.976.657 2.634h2.626a79.238 79.238 0 0034.804-2.634l3.283-1.975a8.58 8.58 0 001.313-5.927 178.41 178.41 0 01-2.626-18.439 21.773 21.773 0 00-2.627-9.219 11.819 11.819 0 00-7.223-6.586c-8.537-4.609-23.641-28.317-33.491-28.975-9.85-.659-1.313 36.878-.656 42.805l3.94 27.658" fill="#FABA8E"/><path d="M460.543 389.054a23.756 23.756 0 00-2.626-7.244c-1.314-2.634-3.283-3.951-4.597-6.585-1.313-2.634-2.626-11.854-3.283-17.78a48.156 48.156 0 00-3.941-13.83 5.93 5.93 0 00-1.969-3.951 77.951 77.951 0 0128.893 5.927 11.797 11.797 0 014.321 2.51 11.857 11.857 0 012.903 4.075 21.78 21.78 0 012.626 9.22 178.41 178.41 0 002.626 18.439 8.578 8.578 0 01-1.313 5.926l-3.283 1.976a68.762 68.762 0 01-19.7 3.293c0-.659-.657-1.317-.657-1.976" fill="#CB6D3F"/><path d="M457.917 371.932a115.909 115.909 0 0024.296 3.951c1.97.659 5.254-.658 7.224 1.976a13.862 13.862 0 011.97 7.902c.656 5.927 1.313 13.171 1.97 19.756a239.94 239.94 0 0125.61 50.049c11.82 27 18.386 70.463 19.043 94.829a838.709 838.709 0 01-7.88 104.048 58.745 58.745 0 01-6.567 27c-7.223 13.829-19.7 15.805-32.833 17.781-45.967 5.926-91.277 7.243-137.244 9.219-2.626 0-5.253.659-7.223-1.317a14.489 14.489 0 01-5.254-9.878c-7.223-34.902 18.387-67.829 25.611-102.731 7.223-34.903-5.254-63.22 9.85-100.098 9.193-21.073 29.55-55.975 42.027-80.999a209.518 209.518 0 0110.506-21.073 23.778 23.778 0 011.314-11.854c4.597-18.439 16.416-11.195 27.58-8.561" fill="#C0B2BB"/><path d="M503.227 431.2a18.386 18.386 0 009.288-6.372 18.48 18.48 0 00.808-21.474 18.402 18.402 0 00-8.783-7.056l-12.477-3.293v3.293s11.164 26.341 8.537 35.561l2.627-.659z" fill="#F9AA44"/><path d="M505.854 429.225a20.321 20.321 0 01-8.537-1.976h-.657a19.644 19.644 0 00-10.506-1.975l-2.627 1.317-3.284 1.317a16.378 16.378 0 01-11.163-1.317 17.678 17.678 0 00-8.537-1.317h-2.626l-4.597 1.317-5.91-1.317-3.94-1.317a15.735 15.735 0 00-9.85 3.951l-1.97-3.293a20.314 20.314 0 0112.477-3.951l4.596 1.317 4.597 1.317 3.284-1.317 3.283-1.317a18.994 18.994 0 0110.506 1.975 20.971 20.971 0 008.537 1.318l3.283-1.318 3.283-1.317a20.31 20.31 0 0112.477 1.976h.657a13.115 13.115 0 0011.164.659l1.313 3.292a7.86 7.86 0 01-5.253 1.317m-31.521 15.147h-3.283c-1.313 0-2.627-1.317-3.94-1.976l-5.254-1.317-4.596 1.317-5.254 1.317a15.067 15.067 0 01-7.223-1.975 9.17 9.17 0 00-5.91-.659 11.801 11.801 0 00-5.91 2.634l-1.313-3.293a20.344 20.344 0 016.566-3.292 16.366 16.366 0 017.88 1.317l5.91 1.317 3.94-1.317 6.567-1.317a20.967 20.967 0 015.91 1.975l3.283 1.976c2.913.489 5.906.027 8.537-1.317l1.97-1.317a19.003 19.003 0 016.567-1.976 10.484 10.484 0 016.566 1.317l2.627 1.317a14.407 14.407 0 0010.507-.658l1.313 3.293a16.378 16.378 0 01-12.476 1.317l-3.284-1.317a8.517 8.517 0 00-5.253-1.976c-1.97 0-3.283 1.317-5.253 1.976l-1.971 1.317-7.223 1.975m-42.027 16.464l-1.969-2.635a17.042 17.042 0 0111.819-3.951h5.254l5.253-1.317 5.91-1.317a11.792 11.792 0 017.881 1.976c2.626.658 5.253 1.975 7.223 1.317l4.596-1.317 5.91-1.976a11.137 11.137 0 016.567 1.976l3.283 1.317c4.044.37 8.115-.31 11.821-1.976v3.293a22.27 22.27 0 01-13.134 1.975l-3.94-1.317a8.524 8.524 0 00-5.253-1.975 7.21 7.21 0 00-4.597 1.975l-5.253 1.976a22.923 22.923 0 01-9.194-1.976l-6.566-1.975-4.597 1.317a13.111 13.111 0 01-7.224 1.975l-3.283-1.317h-1.97c-3.283-.658-5.91 1.317-9.193 3.293m-1.313 18.439h-2.627l1.313-3.293c1.313.659 3.283 0 5.91-1.317h.657a11.801 11.801 0 016.566-2.634l5.91 1.317h1.971a11.125 11.125 0 009.193 0h1.313l3.284-1.317a22.274 22.274 0 019.193 1.317l5.91 1.317 5.253-1.317 6.567-1.317c2.29.255 4.515.924 6.567 1.976l3.283 1.317h8.537l1.313 3.292a16.369 16.369 0 01-11.163 0l-3.283-1.317-5.254-1.317-5.91 1.317-5.91 1.317-7.224-1.317a9.825 9.825 0 00-7.223-1.317h-3.94a18.341 18.341 0 01-11.82.659l-1.97-1.317h-4.597a7.21 7.21 0 00-4.596 1.975h-1.314a10.477 10.477 0 01-5.909 1.976m13.79 17.78l-6.567-1.317h-3.94a10.483 10.483 0 00-5.91 1.976l-1.314-3.293a13.772 13.772 0 017.881-2.634l3.283 1.317h1.313a16.372 16.372 0 0011.164 0l1.969-1.317c1.97-.659 3.284-1.976 5.254-1.976a14.415 14.415 0 019.194 1.318 16.377 16.377 0 007.879.658l3.94-1.317 5.254-1.976a18.35 18.35 0 017.88 2.635l5.91 1.975 4.596-1.317h1.314l8.536-1.317v3.951a16.37 16.37 0 00-7.88.659h-1.313l-5.253 1.317a13.1 13.1 0 01-7.223-1.976 12.46 12.46 0 00-6.567-1.976l-3.94 1.318-4.597 1.975a14.408 14.408 0 01-9.194-1.317 16.376 16.376 0 00-7.879-1.317l-3.94 1.976-2.627 1.317-7.223 1.317m-1.314 18.439l-6.567-1.317h-1.969a7.2 7.2 0 00-7.223.658l-1.971-2.634a8.532 8.532 0 014.605-2.594 8.507 8.507 0 015.245.619h2.627l5.91 1.317 5.253-1.317 5.91-1.976 6.567 1.317c2.082.84 4.36 1.069 6.567.659l4.596-1.976a19.003 19.003 0 016.567-1.976 11.143 11.143 0 016.566 1.976l5.254 1.317 3.94-1.317 5.254-1.317 5.91 1.317c2.082.84 4.36 1.069 6.566.658l1.313 3.293a9.816 9.816 0 01-8.537-.658h-5.252l-3.94 1.317-5.254 1.317a11.146 11.146 0 01-6.567-1.976l-5.253-1.317a8.517 8.517 0 00-5.253 1.976l-5.91 1.975c-2.627.659-4.597-.658-7.224-1.317a9.17 9.17 0 00-5.91-.658l-4.596 1.317-6.567 1.975h-.657m63.041 19.098a21.625 21.625 0 01-8.537-2.634h-.657a15.066 15.066 0 00-10.506-1.976h-2.627l-3.284 1.976a32.769 32.769 0 01-11.163-1.317 18.342 18.342 0 00-8.537-1.976l-2.626 1.317-4.597 1.317a10.49 10.49 0 01-5.91-1.975h-3.94a12.443 12.443 0 00-9.85 3.951l-1.97-3.293a17.038 17.038 0 0112.477-4.61l4.596 1.317 4.597 1.317 3.284-1.317h3.283a18.992 18.992 0 0110.506 1.317 13.753 13.753 0 008.537 1.318l3.283-1.318 3.283-1.317c4.342-.77 8.814.174 12.477 2.635h.657a16.38 16.38 0 0011.164 1.317l1.313 3.292-5.253 1.317m-31.521 13.171h-3.283l-3.94-1.976c-1.97-.658-3.284-1.975-5.254-1.975l-4.596 1.317-5.254 1.317-7.223-1.317-5.91-1.317a11.801 11.801 0 00-5.91 2.634l-1.313-3.293a20.344 20.344 0 016.566-3.292l7.88 1.317 5.91 1.317h3.94a11.146 11.146 0 016.567-1.976l5.91 2.634 3.283 1.317c2.913.489 5.906.028 8.537-1.317h1.97a11.802 11.802 0 016.567-2.634 11.143 11.143 0 016.566 1.976h2.627a11.785 11.785 0 0010.507-.659l1.313 3.293a16.374 16.374 0 01-12.476 1.317l-3.284-1.317-5.253-1.317a8.521 8.521 0 00-5.253 1.975h-1.971l-7.223 1.976m-42.027 17.78l-1.969-3.292a17.033 17.033 0 0111.819-3.951h2.627l2.627 1.317 5.253-1.317a20.937 20.937 0 015.91-1.976c2.744.038 5.442.714 7.881 1.976a9.83 9.83 0 007.223 1.317l4.596-1.317 5.91-1.976a11.137 11.137 0 016.567 1.976l3.283 1.317c4.05.683 8.211-.012 11.821-1.976v3.951a22.279 22.279 0 01-13.134 1.976l-3.94-1.976-5.253-1.317-4.597 1.317c-1.97.659-3.283 1.976-5.253 1.976a15.726 15.726 0 01-9.194-1.976l-6.566-1.317-4.597 1.317a13.096 13.096 0 01-7.224 1.317h-5.253c-3.283-.658-5.91 1.317-9.193 3.293m-1.313 16.463h-2.627l1.313-3.293c1.313.659 3.283 0 5.91-1.317a.657.657 0 00.657-.658l6.566-2.634c2.124.044 4.185.733 5.91 1.975h1.971c3.058.747 6.271.516 9.193-.658h1.313l3.284-1.317a22.257 22.257 0 019.193 1.317 10.49 10.49 0 005.91 1.975l5.253-1.317c1.97-.658 4.597-1.975 6.567-1.317l6.567 1.317 3.283 1.317a9.817 9.817 0 008.537 0l1.313 3.293a21.61 21.61 0 01-11.163.658l-3.283-1.316c-1.97-.659-3.284-1.976-5.254-1.976l-5.91 1.317-5.91 1.317-7.224-1.317a9.825 9.825 0 00-7.223-1.317l-2.627 1.317c-.656 0-1.313 0-1.313.659a18.346 18.346 0 01-11.82 0h-1.97l-4.597-1.318-4.596 1.976h-1.314a10.485 10.485 0 01-5.909 1.976m13.79 17.78a12.45 12.45 0 01-6.567-1.975h-1.314l-2.626-1.317a10.49 10.49 0 00-5.91 1.975l-1.314-3.293a10.498 10.498 0 017.881-1.975h4.596a16.372 16.372 0 0011.164 0l1.969-1.317 5.254-1.976a20.966 20.966 0 019.194 1.317 16.364 16.364 0 007.879 1.317l3.94-1.317a7.22 7.22 0 015.254-1.975 11.794 11.794 0 017.88 1.975l5.91 1.976 4.596-1.317h1.314l8.536-1.317v3.951l-7.88 1.317h-1.313l-5.253 1.317a13.764 13.764 0 01-7.223-2.634l-6.567-1.976-3.94 1.976-4.597 1.317a14.408 14.408 0 01-9.194-1.317 16.377 16.377 0 00-7.879-.659l-3.94 1.317-2.627 1.318a15.067 15.067 0 01-7.223 1.975m-1.314 19.756l-6.567-1.317h-1.969a9.163 9.163 0 00-7.223.658l-1.971-2.634a11.807 11.807 0 019.85-1.975l2.627 1.317a9.17 9.17 0 005.91.658l5.253-1.317 5.91-1.976 6.567 1.318 6.567 1.317 4.596-1.976 6.567-2.634c2.29.255 4.515.924 6.566 1.975 1.97.659 3.284 1.976 5.254 1.976l3.94-1.317 5.254-1.976 5.91 1.317a11.782 11.782 0 006.566.659l1.313 3.951a18.344 18.344 0 01-8.537-.658l-5.252-1.317-3.94 1.317-5.254 1.317-6.567-1.317a8.517 8.517 0 00-5.253-1.976c-1.97 0-3.283 1.317-5.253 1.976l-5.91 1.975a13.753 13.753 0 01-7.224-.658l-5.91-1.317-4.596 1.317a19.002 19.002 0 01-6.567 1.975h-.657" fill="#EF4932"/><path d="M432.306 316.615c0 27.659 21.671 50.049 40.714 50.049 19.044 0 28.893-22.39 28.893-50.049 0-27.658-15.759-50.048-34.803-50.048-19.043 0-34.804 22.39-34.804 50.048" fill="#FABA8E"/><path d="M421.8 317.933c0 7.243 4.596 13.829 10.506 13.829s10.507-6.586 10.507-13.829c0-7.244-4.597-13.83-10.507-13.83-5.91 0-10.506 5.927-10.506 13.83z" fill="#FABA8E"/><path d="M432.306 308.713c-3.94 0-6.566 3.951-6.566 9.22 0 5.268 2.626 9.219 6.566 9.219" fill="#F59770"/><path d="M486.81 342.298c5.91-1.317.656 10.537-9.194 10.537-9.85 0-17.73-10.537-11.82-10.537 6.97.991 14.044.991 21.014 0" fill="#fff"/><path d="M495.346 305.42l2.627 1.976a4.62 4.62 0 01.656 3.951l-2.626-1.317a7.203 7.203 0 00-5.253-1.317l-5.254 1.317h-1.97c-3.283-.659 2.627-3.951 3.284-3.951a13.094 13.094 0 018.536-.659m-39.4.659a16.371 16.371 0 0112.477 0 6.567 6.567 0 013.283 2.634s.657.659 0 .659c-.656 0-.656.658-1.313.658a25.539 25.539 0 00-9.85-1.317l-8.537 2.634c-1.969.659-1.969-.658-1.313-1.975a9.192 9.192 0 015.253-3.293z" fill="#83592F"/><path d="M488.123 333.737c.042.508.277.98.657 1.317 0 1.318-1.97 1.976-2.626 1.976h-5.91l-1.971-1.976c-.656-1.317 0-1.975.657-3.292a11.223 11.223 0 00-.657-6.586 28.418 28.418 0 01-1.313-7.243c0-.659 0-2.635 1.313-1.976 1.314.659 1.314 2.634 1.314 3.293l8.536 13.17m-39.4-13.17a32.083 32.083 0 0117.731 1.317l3.939 1.975a5.277 5.277 0 011.313 3.293 4.611 4.611 0 01-2.626 3.293 34.747 34.747 0 01-11.82 3.292 18.35 18.35 0 01-8.537-1.975 13.175 13.175 0 01-5.253-7.903v-1.317l2.626-1.975h2.627m36.773 1.975l2.627-1.317h11.164c1.313 0 2.626.659 1.969 1.976v11.195a24.245 24.245 0 01-9.85-1.976 9.862 9.862 0 01-5.252-7.244v-1.975" fill="#F59770"/><path d="M462.513 317.932a4.604 4.604 0 002.627 3.293c1.313 0 2.627-.658 2.627-1.975a1.98 1.98 0 00-.683-3.253 1.962 1.962 0 00-1.288-.04 3.286 3.286 0 00-3.283 1.975m23.641-.658c0 1.317.656 2.634 1.969 2.634 1.313 0 3.283-.658 3.283-1.975a3.293 3.293 0 00-1.969-3.293 3.288 3.288 0 00-3.283 2.634" fill="#402740"/><path d="M445.439 303.445a78.507 78.507 0 00-5.252 13.17 12.551 12.551 0 01-1.314 4.61 4.612 4.612 0 01-1.606 1.865 4.586 4.586 0 01-2.334.769c-1.97-.658-3.283-3.292-3.94-5.926-.657-2.635-1.97-10.537-3.283-15.805a93.704 93.704 0 01-2.627-13.171 13.197 13.197 0 011.313-7.244 7.897 7.897 0 013.283-3.293 60.328 60.328 0 0132.177-12.512c3.284-.658-.656 4.61-1.313 6.586a78.38 78.38 0 01-5.254 10.536l-9.85 20.415" fill="#83592F"/><path d="M414.577 291.591c-5.254-16.463 8.536-35.561 30.206-41.487 21.67-5.927 43.341 1.975 47.937 19.097l3.94 13.171-76.173 24.365-5.91-15.146z" fill="#EF4932"/><path d="M436.903 290.274c19.044-7.902 39.4-15.805 58.443-16.463l3.283 1.317c.657 0 .658.659.658 1.317l5.909 17.78c.337 1.74.337 3.529 0 5.269-.656 1.317-2.626 3.292-3.94 3.292h-1.969a32.095 32.095 0 00-13.791-.658c-7.223 1.317-15.103 1.976-22.326 3.951l-13.791 4.61-28.236 10.536h-2.627c-1.313-.658-.656-3.292-.656-4.61 0-1.317-3.284-9.219-1.971-13.17 1.314-3.951 15.104-10.537 21.014-12.512" fill="#EF4932"/><path d="M430.337 310.689h-.657a5.276 5.276 0 01-1.313-5.268v-1.318c.656-.658 0-1.317-.657-1.975a5.927 5.927 0 01-1.97-3.293c-.657-1.317 0-1.975 0-2.634l4.597-1.976c-1.313 1.317-1.971 2.635-1.314 3.952.657 1.317.657.658 1.314 1.317a9.887 9.887 0 011.969 4.609c0 1.317-.656 1.976-.656 2.634a.657.657 0 00-.657.659h.657l1.313 1.317c1.313 1.317.657 3.293.657 4.61 0 1.317-.657.658-.657 1.317l1.314 1.975-3.94 1.318a28.167 28.167 0 01-.657-3.293v-2.634m-5.91 3.951c0-.658.657-1.317 0-1.976l-1.314-1.975a4.62 4.62 0 01.657-3.293c0-.658-.657-.658-.657-1.317l-1.969-1.317a8.573 8.573 0 01.656-7.244c0-.658.657-.658.657-1.317l3.283-1.317c-2.627 4.61-1.97 6.585-1.313 7.244v1.317c.657.659 1.969 1.317 1.969 2.634v3.293c.657.658.657.658.657 1.317a8.585 8.585 0 01.657 3.951h-.657l-2.626 1.317a4.619 4.619 0 01-.657-3.293m75.517-13.171l-1.313-1.316-1.313-2.635a7.265 7.265 0 01-.658-3.292c0-1.318 0-1.976-.656-1.976-.657 0-.657-1.317-1.313-1.975l-1.971-1.976a7.261 7.261 0 01-1.313-5.268c0-2.635-.656-2.635-.656-3.293a9.19 9.19 0 00-5.254-3.951h5.91a6.581 6.581 0 012.627 3.292 8.576 8.576 0 01.657 3.952c0 1.975.656 2.634.656 3.951l1.971 1.317 2.626 2.634v3.293c0 1.317 0 1.975.657 1.975s.656 1.317.656 1.976a3.942 3.942 0 011.808 1.951c.359.841.416 1.78.162 2.659 0 .658 0 1.317-.657 1.317h-2.626m-16.417-2.634a9.248 9.248 0 01-1.313-4.61 2.644 2.644 0 01.656-1.976c0-.658.001-1.317-1.313-2.634h-.656l-2.627-3.292a8.588 8.588 0 01-.656-3.952v-1.317c0-1.317-1.314-2.634-3.284-3.951l4.597-1.317a5.935 5.935 0 011.97 3.951c.445.806.671 1.714.656 2.634v2.634l1.97 1.976h.657a6.587 6.587 0 012.626 5.268c0 .659-.656 1.318-.656 1.976v1.317c-.657 0 0 .659.656 1.976h.658v1.975h-2.627a.66.66 0 01-.657-.658h-.657m-13.133 0v-2.635s0-.658-1.313-1.975h-.657c-.657-1.317-1.97-1.976-2.627-3.951a7.267 7.267 0 01-.656-3.293v-2.634h-.657l-1.313-1.317a5.271 5.271 0 01-1.313-3.293l3.939-1.317v2.634h.657l1.314 1.317a6.606 6.606 0 011.313 4.61v1.976c0 .878.657 1.536 1.97 1.975a5.257 5.257 0 012.312 1.825 5.28 5.28 0 01.971 2.785c-.14.896-.36 1.777-.657 2.634v2.634h-3.94c-.657-.658-.656-2.634-.656-3.292m-13.134 5.926s.657-.658 0-.658a2.627 2.627 0 00-.656-1.976 5.271 5.271 0 01-1.314-2.634 7.265 7.265 0 010-3.951v-2.634c0-.659-.656-.659-1.313-1.317-.657-.659-.656-.659-.656-1.317a7.262 7.262 0 01-1.971-5.269l4.597-1.975c-.656 2.634-.656 4.61 0 5.268h.657l1.969 2.634a5.944 5.944 0 010 4.61v3.951a5.929 5.929 0 011.971 3.293v1.975l-3.284 1.317a3.96 3.96 0 01-.656-2.634m-13.134 3.951a.66.66 0 01.657-.658v-1.317a5.278 5.278 0 01-2.627-4.61c0-.658.657-1.975.657-2.634a.662.662 0 00-.657-.659 6.6 6.6 0 01-.656-5.926l3.939-1.976a2.636 2.636 0 00-.656 3.293c0 1.317 0 1.975.656 1.975l1.314 1.976a4.619 4.619 0 01-.657 3.951h-.657c0 .659 1.314 1.317 1.314 1.976 0 .658 2.626 3.292 1.97 5.268-.657 1.976 0 1.317-.657 1.317l1.313 1.317-3.94 1.976a5.283 5.283 0 01-.656-5.269" fill="#F27A67"/><path d="M465.14 393.664s-5.91 395.779-84.711 466.242c0 0-26.923-19.097-103.753-36.878 0 0 78.8-179.78 76.174-271.974 0 0 9.193-146.853 60.413-148.171l51.877-9.219zm27.58 3.293s2.627 395.12 36.774 466.242c0 0 11.819-19.756 44.653-36.878 0 0-34.147-180.439-32.834-271.975 0 0-14.447-144.219-39.4-153.438l-9.193-3.951z" fill="#F9AA44"/><path d="M377.803 416.054c-34.803 22.39-65.01 49.39-86.024 91.536-16.416 32.268-22.326 85.61-1.313 121.171a147.369 147.369 0 0040.713 44.78 24.281 24.281 0 009.85 5.268 23.596 23.596 0 009.079-2.603 23.648 23.648 0 007.338-5.958 41.495 41.495 0 0014.447-21.731 45.542 45.542 0 00-1.97-18.439c-3.94-17.122-7.88-34.903-13.133-52.025a36.283 36.283 0 01-1.97-11.195 12.529 12.529 0 012.626-6.585c15.76-31.61 24.953-55.317 42.684-88.902 6.566-12.512 29.55-56.634 42.683-68.488a95.002 95.002 0 00-65.01 13.171" fill="#FCB737"/><path d="M394.877 406.176l19.043-27s30.863 17.122 51.22 15.146c0 0-20.356 20.415-17.73 30.951l-52.533-19.097z" fill="#F9AA44"/><path d="M394.877 406.176l53.19 17.122-2.627 1.317a54.048 54.048 0 0115.104-28.975l1.313-1.317h.656c0-.659.657-.659 1.97-.659 1.314 0 2.627.659 3.284 1.976v27.658l-1.313 31.61-2.627 32.268-11.164 127.755a997.363 997.363 0 01-7.88 63.878 632.753 632.753 0 01-12.477 63.219 513.993 513.993 0 01-18.386 61.903 179.904 179.904 0 01-32.177 55.317h-.656a146.327 146.327 0 0016.416-27.659 222.862 222.862 0 0011.82-28.975 508.186 508.186 0 0017.073-61.902c9.194-41.488 15.761-83.634 21.671-125.781a1201.112 1201.112 0 0012.477-127.755v-32.268l1.313-32.268v-27l1.97 1.317h.656l-1.313 1.317a52.068 52.068 0 00-14.447 26.341v1.976h-1.969l-51.877-19.756v-.659zm133.96 456.364a329.363 329.363 0 01-15.76-61.902c-3.284-21.073-6.567-42.146-7.881-63.219l-3.94-63.22-3.939-63.219c-3.284-42.805-5.254-84.951-6.567-127.097-.657-21.073-.657-42.146-.657-63.878v-23.707c0-.659 0-1.976.657-1.976a2.626 2.626 0 013.283-1.317 2.624 2.624 0 011.971 1.317h.656c.657 1.318.656 2.635 1.313 3.952a89.138 89.138 0 014.597 32.268l-1.314-1.317a19.67 19.67 0 009.85-4.61 14.493 14.493 0 005.254-9.22h.657a13.868 13.868 0 01-1.586 5.497 13.816 13.816 0 01-3.668 4.381 18.371 18.371 0 01-9.85 5.269H500.6v-1.976a83.828 83.828 0 00-6.567-30.292 5.277 5.277 0 01-1.313-3.293h-.657c-.657 0 .001.658.657.658h1.97v-1.317 23.708l1.97 63.877 2.627 126.439c.657 21.732 1.313 42.805 3.283 63.878s4.597 42.146 6.567 62.56c1.97 20.415 4.596 42.147 7.88 63.22a396.183 396.183 0 0011.82 61.902v2.634z" fill="#fff"/><path d="M549.193 594.517a76.574 76.574 0 01-6.566 32.268c-4.597 12.512-7.88 19.098 0 29.634 7.88 10.537 12.477 14.488 22.327 14.488a22.285 22.285 0 0012.476-4.61c13.79-9.878 22.327-24.366 30.863-38.195 8.537-13.829 16.417-25.683 17.074-41.488a20.467 20.467 0 00-1.971-11.195" fill="#FCB737"/></g><rect x="260" y="208" width="421" height="421" rx="210.5" stroke="#fff" stroke-width="10"/><g clip-path="url(#clip1_543_2)"><rect x="56" y="10" width="342" height="343" rx="171" fill="#9AB6DF"/><path fill-rule="evenodd" clip-rule="evenodd" d="M259.339 80.04a88.81 88.81 0 007.563 15.168c.581 1.75-9.889 7.001-11.053 2.917a45.634 45.634 0 012.327-12.251" fill="#F59770"/><path fill-rule="evenodd" clip-rule="evenodd" d="M238.98 54.37c-36.066-4.667-31.412 67.675-5.235 72.342 37.811 7.585 34.32-68.258 5.235-72.342z" fill="#FABA8E"/><path fill-rule="evenodd" clip-rule="evenodd" d="M240.143 111.544c1.745 12.251 1.745 25.67 4.653 37.921a175.121 175.121 0 005.817 18.669c0 .584 1.164 2.334.583 2.334a62.627 62.627 0 01-18.034.583c-2.327 0-16.288 2.334-17.451 1.167-1.163-1.167 1.164-18.086 1.164-20.419a236.982 236.982 0 002.327-53.674" fill="#FABA8E"/><path d="M271.555 328.571c5.236-2.917 6.98-11.084 6.98-18.085a73.669 73.669 0 00-7.562-31.504 38.027 38.027 0 002.327-26.837 114.532 114.532 0 00-9.889-26.837c5.236-20.419 2.908-42.005-6.981-55.423a40.112 40.112 0 00-23.268-14.002 34.8 34.8 0 00-29.085 2.333 75.824 75.824 0 00-19.196 25.087 387.426 387.426 0 00-29.085 69.425 72.535 72.535 0 00-4.654 35.588 14.62 14.62 0 01.581 7.001 10.506 10.506 0 01-2.908 4.084 67.784 67.784 0 00-9.975 25.919 67.86 67.86 0 001.249 27.754 40.936 40.936 0 011.746 8.168 21.095 21.095 0 01-1.163 6.417 102.338 102.338 0 00-2.327 26.837 50.311 50.311 0 002.908 15.752 38.473 38.473 0 0018.614 21.586 51.08 51.08 0 0024.432 5.251 151.431 151.431 0 0064.57-9.918c13.379-5.251 26.758-13.418 33.157-29.17 6.398-15.752 1.745-49.59-10.471-69.426" fill="#C0B2BB"/><path d="M197.097 230.559a266.734 266.734 0 01-30.248-3.501v-2.333a197.197 197.197 0 0026.758 3.5 224.571 224.571 0 0026.177 1.167 349.919 349.919 0 0041.882-4.667c-.582 0-.581.583-.581 1.167h.581a201.963 201.963 0 01-41.301 4.667 132.81 132.81 0 01-23.85-.584m-51.772 57.758v-1.167a2.33 2.33 0 00.582-1.75 240.76 240.76 0 0058.752 5.834 262.823 262.823 0 0066.315-10.502 1.75 1.75 0 01-.582 1.167v1.167a265.147 265.147 0 01-65.733 9.918 284.237 284.237 0 01-59.334-4.667m7.563 46.089v-1.75a277.886 277.886 0 0058.171 5.834l23.268-1.75a196.7 196.7 0 0037.228-7.585c0 .584.583 1.167.583 1.75a235.963 235.963 0 01-37.23 7.001c-11.634 1.751-20.359 1.751-23.268 2.334a282.462 282.462 0 01-58.752-5.834m71.549 68.258l-12.797-21.002h1.745a143.583 143.583 0 0028.503-14.002 140.837 140.837 0 0020.942-15.752l1.164-1.167 12.215 16.335v1.167a162.981 162.981 0 01-22.105 18.669 148.148 148.148 0 01-27.921 15.752h-1.746zm-8.725-19.252l9.889 15.752a188.872 188.872 0 0026.177-14.585 155.494 155.494 0 0020.941-18.086l-8.725-12.252a106.472 106.472 0 01-20.942 15.169 172.623 172.623 0 01-27.34 14.002" fill="#fff"/><path d="M232 127.879l-25.014 5.834-18.033 4.668a21.483 21.483 0 00-8.144 4.084 19.887 19.887 0 00-3.49 16.335 2.335 2.335 0 00.582 1.75h2.327a281.998 281.998 0 0175.621 15.752 4.062 4.062 0 003.49.584 4.655 4.655 0 002.909-2.917c8.144-11.085 12.798-29.754 7.562-43.173-5.235-13.418-28.503-5.834-37.81-3.5" fill="#2464AF"/><path d="M219.784 146.548a12.767 12.767 0 01-6.399-1.167 8.15 8.15 0 01-3.295-2.853 8.178 8.178 0 01-1.359-4.148 6.999 6.999 0 014.072-5.834 13.367 13.367 0 016.399-1.167v4.668h-4.072c-1.164.583-1.745 1.167-1.745 2.333a2.916 2.916 0 001.745 2.334h5.235v4.667h-.581m-17.451-1.167a11.603 11.603 0 01-6.399-1.75c-.582 0-1.745-.583-1.745-2.333a3.5 3.5 0 011.745-4.084l4.072-1.167v4.667h2.908l1.163 4.667h-2.326m57.007 31.505a9.308 9.308 0 01-2.947-2.286 9.345 9.345 0 01-2.213-6.976 9.362 9.362 0 011.088-3.574 11.654 11.654 0 015.175-4.881 11.608 11.608 0 017.041-.953l-1.163 4.668a8.128 8.128 0 00-7.563 3.5 4.675 4.675 0 000 4.084 1.752 1.752 0 001.077 1.617c.212.088.439.133.669.133l-1.164 4.668zm-11.634-4.668l-5.236-2.333a6.434 6.434 0 01-2.326-7.001 5.83 5.83 0 012.326-2.917 48.322 48.322 0 0110.471-7.585l1.746 4.668a24.419 24.419 0 00-9.308 6.417v1.167c-.582 0 0 1.167.582 1.167l3.49 1.75-1.745 4.667zm-12.216-1.167a12.773 12.773 0 01-4.839-2.603 12.829 12.829 0 01-3.305-4.397 7.597 7.597 0 01-1.745-7.585c.582-2.917 4.072-4.667 5.817-5.834l4.072-1.75 1.745 4.667-3.491 1.75c-1.745.584-3.49 1.167-4.071 2.334a6.427 6.427 0 001.163 4.084 8.735 8.735 0 005.817 4.667l-1.163 4.667zm-13.961-2.333l-6.399-4.667a7.595 7.595 0 01-2.908-5.251 5.246 5.246 0 011.745-4.084l4.653-4.667 2.909 3.5a13.41 13.41 0 00-4.072 4.084v1.167s0 .583 1.163 1.75l5.817 4.084-2.908 4.084zm-13.961-5.251a13.343 13.343 0 01-6.399-1.167 8.152 8.152 0 01-3.28-3.459 8.183 8.183 0 01-.791-4.708l2.327-2.917a27.925 27.925 0 016.398-5.251l2.327 4.667a8.725 8.725 0 00-5.235 3.501l-1.164 1.166a2.92 2.92 0 001.745 2.918h5.236v4.667h-1.164m-12.216-1.167a17.992 17.992 0 01-7.562-1.75 6.984 6.984 0 01-3.321-2.484 7.02 7.02 0 01-1.333-3.934 5.834 5.834 0 012.909-3.5l4.072-4.084 3.49 3.5-4.654 4.084-1.163 1.167 1.745 1.167 6.399 1.167-.582 4.667zm71.55-8.168a17.445 17.445 0 01-7.562-5.25 4.096 4.096 0 01-.582-2.917c-.581-1.167.582-2.334.582-2.917l6.981-8.168 3.49 3.5a40.25 40.25 0 00-6.399 7.585 9.312 9.312 0 005.235 4.083l-1.745 4.084zm-14.543-4.084a8.706 8.706 0 01-7.562-3.5 8.185 8.185 0 01.581-9.918 13.98 13.98 0 016.4-5.251l2.326 4.084a18.05 18.05 0 00-5.235 4.084 6.434 6.434 0 00-.582 4.667 6.967 6.967 0 005.817 1.167v4.667h-2.326m-16.869-1.75h-4.654a5.231 5.231 0 01-3.542-1.942 5.278 5.278 0 01-1.112-3.892 4.096 4.096 0 011.745-3.5 27.366 27.366 0 017.563-6.418l2.327 4.084-6.981 5.834h-.582l1.746 1.167h1.744l3.49 1.167-1.744 3.5z" fill="#fff"/><path d="M238.98 203.139c-11.634 23.919-34.903 33.254-49.445 28.587a25.599 25.599 0 01-13.572-9.979 25.723 25.723 0 01-4.461-16.275 57.278 57.278 0 019.214-26.946 57.065 57.065 0 0121.035-19.143c31.994-15.752 55.262 8.168 37.229 43.756" fill="#fff"/><path fill-rule="evenodd" clip-rule="evenodd" d="M232.581 28.117a40.111 40.111 0 00-18.033 10.501 23.792 23.792 0 00-24.758-1.935 23.874 23.874 0 00-9.493 8.755 23.97 23.97 0 00-3.56 12.432 22.801 22.801 0 003.49 12.252 23.248 23.248 0 00-14.603 7.786 23.378 23.378 0 00-5.756 15.55 26.283 26.283 0 008.144 18.086 29.16 29.16 0 00-7.796 10.191 29.247 29.247 0 00-2.675 12.562 29.803 29.803 0 007.297 18.855 29.64 29.64 0 0017.628 9.82 29.592 29.592 0 0019.817-3.751 29.735 29.735 0 0012.847-15.59c.581 0 .582-.583 1.163-1.167a66.053 66.053 0 014.654-12.834 32.654 32.654 0 00-.582 4.083 19.901 19.901 0 00.582 5.834 10.474 10.474 0 005.91 4.611 10.44 10.44 0 007.469-.527c4.654-1.75 12.216-11.668 5.817-28.587-6.398-16.918-22.104-25.086-18.032-30.337 4.071-5.25 6.98 1.75 9.888 1.75 2.909 0 4.654-6.417 5.236-9.334.581-2.917-.001-11.668 7.562-12.835 7.562-1.167 4.072 8.168 11.052 8.168a9.865 9.865 0 007.547-2.262 9.942 9.942 0 003.506-7.073 23.975 23.975 0 00-2.327-7h-.582c0-.584.582 0 .582 0l7.562 4.666a11.017 11.017 0 008.737-1.715 11.073 11.073 0 003.12-3.32 11.112 11.112 0 001.522-4.299c1.163-23.92-37.229-27.42-52.935-23.336" fill="#9D6F11"/><path d="M253.522 87.624h-8.725a6.958 6.958 0 00-4.142-.011 6.977 6.977 0 00-3.42 2.345 2.921 2.921 0 00-1.164 2.334 1.17 1.17 0 000 1.75 8.174 8.174 0 002.604 3.984 8.13 8.13 0 004.377 1.85 19.74 19.74 0 009.889-2.917 8.726 8.726 0 004.072-2.917c2.327-2.917-.001-5.834-3.491-5.834" fill="#F59770"/><path d="M245.379 75.373c.582.583 2.326-1.75 4.653-1.75 2.327 0 5.817 1.75 5.817 1.166 0-.583-2.327-5.25-5.817-4.667-3.49.583-4.653 5.25-4.653 5.25" fill="#83592F"/><path d="M255.268 80.623c.581 1.75 0 3.5-1.163 3.5-1.164 0-2.909-.583-2.909-2.916a3.508 3.508 0 011.163-4.084 3.487 3.487 0 012.1 1.21c.533.642.82 1.455.809 2.29" fill="#402740"/><path d="M258.758 110.96l-6.98-1.75a20.325 20.325 0 01-6.399-4.084l1.163-1.166 6.399 3.5a13.337 13.337 0 006.398 1.167c0 1.167-.581 1.75-.581 2.333z" fill="#CB6D3F"/><path fill-rule="evenodd" clip-rule="evenodd" d="M247.124 91.125c0 14.585-10.471 26.836-23.269 26.836-12.797 0-23.268-12.251-23.268-26.836a23.37 23.37 0 016.816-16.502 23.23 23.23 0 0116.452-6.835c6.172 0 12.09 2.459 16.454 6.835a23.37 23.37 0 016.815 16.502z" fill="#3056A5"/><path fill-rule="evenodd" clip-rule="evenodd" d="M233.163 70.122h-22.105V35.117l13.379-2.917 8.726 37.922z" fill="#3056A5"/><path fill-rule="evenodd" clip-rule="evenodd" d="M241.306 89.958a14.02 14.02 0 01-4.088 9.9 13.94 13.94 0 01-9.873 4.102 13.938 13.938 0 01-9.871-4.101 14.024 14.024 0 01-4.089-9.901 14.02 14.02 0 014.089-9.9 13.939 13.939 0 019.871-4.102c3.703 0 7.255 1.475 9.873 4.101a14.022 14.022 0 014.088 9.9" fill="#C0B2BB"/><path d="M188.372 142.464c0 2.476-.981 4.85-2.727 6.601a9.294 9.294 0 01-6.581 2.734 9.297 9.297 0 01-6.581-2.734 9.352 9.352 0 01-2.726-6.601m46.537-18.085c0 2.476-.981 4.85-2.726 6.6a9.295 9.295 0 01-6.582 2.734 9.293 9.293 0 01-6.209-2.932 9.352 9.352 0 01-2.517-6.402m-5.817-4.667a10.495 10.495 0 01-4.673 5.294 10.445 10.445 0 01-6.961 1.123 9.892 9.892 0 01-5.442-4.597 9.94 9.94 0 01-.957-7.071m12.216-16.919a8.751 8.751 0 01-4.341 5.901 8.7 8.7 0 01-7.293.517 9.315 9.315 0 01-5.394-4.269 9.361 9.361 0 01-1.005-6.816m33.739-32.671a8.756 8.756 0 01-4.34 5.9 8.707 8.707 0 01-7.294.517 9.897 9.897 0 01-5.442-4.596 9.946 9.946 0 01-.956-7.072" stroke="#83592F" stroke-width=".5" stroke-miterlimit="10"/><path d="M198.842 397.413s-45.955-75.259-50.609-113.764c-4.653-38.505 32.576-120.765 58.171-123.682 25.595-2.917 36.066 8.751 22.687 40.255-13.38 31.504-40.72 60.674-33.74 85.761 6.981 25.086 39.557 73.509 44.211 89.844 4.653 16.336-40.72 21.586-40.72 21.586" fill="#2464AF"/></g><rect x="51" y="5" width="352" height="353" rx="176" stroke="#fff" stroke-width="10"/><path d="M183.46 162.696a161.867 161.867 0 00-36.11 23.879c-6.406 5.241-12.23 11.066-18.054 16.89-22.714 23.296-41.934 50.087-66.977 71.636a205.012 205.012 0 01-46.011 30.868H14.56l-8.153 4.659L0 314.705l1.748 2.912a79.818 79.818 0 0111.648-7.571v1.165l-11.648 8.154 2.33 2.329a41.375 41.375 0 0110.482-6.989v1.165a52.388 52.388 0 00-11.648 8.154l2.33 2.329a34.378 34.378 0 0110.484-7.571c0 .582.582 1.165.582 2.33a43.685 43.685 0 00-9.9 8.153l2.328 1.748a51.235 51.235 0 018.736-6.989c.337.298.546.716.583 1.165l-9.901 8.153 1.747 2.33 9.319-7.571 1.164 1.747-9.318 8.736 1.747 1.747 8.737-7.571c.582.582.582 1.747 1.164 2.33l-4.076 4.076-4.078 4.66 2.33 1.747 4.077-4.077 3.495-4.659a964.483 964.483 0 00129.877-128.131c18.637-22.131 36.693-43.681 64.648-54.164-10.483-5.242-26.209 2.33-36.11 6.989" fill="#3056A5"/><path d="M43.099 311.211c-2.912-1.165-5.242-3.494-5.242-5.824a4.078 4.078 0 01.583-2.912 27.368 27.368 0 013.494-8.736l4.077 2.329a30.294 30.294 0 00-3.495 7.572v1.165c0 .582 1.165 1.747 2.912 2.329a11.65 11.65 0 008.736-1.747l2.913 4.077a16.905 16.905 0 01-12.813 1.747h-1.165zm150.844-146.768a.585.585 0 01-.412-.17.585.585 0 01-.17-.412 5.24 5.24 0 01-2.33-6.407 10.489 10.489 0 012.912-4.077l3.494 2.913c-1.164 1.164-1.746 1.747-1.746 2.912v.582s-.001.582 1.164.582l4.66-1.747 2.329 4.077a13.388 13.388 0 01-6.407 1.747 3.487 3.487 0 01-3.494 0zm-10.483 6.989a6.407 6.407 0 01-5.241-5.242 11.062 11.062 0 011.746-5.824l4.078 2.33-1.166 2.912a2.917 2.917 0 002.912 1.747c1.748.582 3.495-.582 5.242-1.165l1.748 4.66a15.73 15.73 0 01-7.572 1.164h-1.747m-13.978 11.066l-2.912-1.747a8.151 8.151 0 01-1.747-6.407c.319-1.824.908-3.59 1.747-5.241l4.077 2.329a8.16 8.16 0 00-1.165 3.495c0 1.165 0 2.33.583 2.33l1.747 1.164a8.146 8.146 0 005.241-1.747l3.495 2.912a10.477 10.477 0 01-9.901 2.912h-1.165zm-14.56 10.483l-2.33-1.164a8.738 8.738 0 01-2.33-5.825c.107-1.798.5-3.567 1.165-5.241l4.077 1.747c0 1.165-.582 2.33-.582 3.494 0 1.165 0 1.748.582 2.33h2.33a11.063 11.063 0 006.989-2.33l2.912 3.495a14.563 14.563 0 01-10.484 3.494h-2.329zm-10.483 13.396a.582.582 0 01-.583-.582 6.402 6.402 0 01-4.659-5.242 10.482 10.482 0 01-1.165-5.824h4.659a14.563 14.563 0 00.583 4.659c.583 1.165 1.164 2.33 2.329 2.33a2.329 2.329 0 002.912 0 9.898 9.898 0 005.824-1.747l2.33 3.494a12.227 12.227 0 01-7.571 2.912h-4.659zm-12.814 13.978h-.583a5.247 5.247 0 01-3.494-2.33 8.74 8.74 0 01-1.747-8.153v-3.495h4.659v3.495c-.582 2.329-.582 4.077.582 5.241l1.748 1.165a8.15 8.15 0 008.736-2.329l3.494 3.494a12.806 12.806 0 01-13.395 2.912zm-12.231 13.396h-2.329a11.655 11.655 0 01-3.495-7.572 12.234 12.234 0 012.912-6.989l3.495 2.912a6.408 6.408 0 00-1.747 4.077 3.496 3.496 0 001.747 3.495c1.165 1.164 3.494.582 4.659.582l5.242-3.495 2.912 3.495a23.887 23.887 0 01-6.406 4.077 9.9 9.9 0 01-6.99 0m-11.648 15.143l-2.329-1.165a11.659 11.659 0 01-2.33-4.659 14.566 14.566 0 011.747-9.901l4.077 2.329a8.739 8.739 0 00-1.165 6.407c0 1.164.583 1.747.583 2.329a6.405 6.405 0 003.495 0l5.241-2.912 2.912 3.495a27.397 27.397 0 01-6.989 4.077 15.179 15.179 0 01-5.242 0zm-13.395 12.813h-1.165a7.578 7.578 0 01-2.912-6.407c.582-2.33.583-4.659 1.165-6.989l4.659 1.165a20.964 20.964 0 00-1.165 5.824c-.087.821.12 1.646.583 2.33h1.165c2.912 0 4.659 0 5.824-1.165h1.747a6.989 6.989 0 014.659-2.33v4.659l-2.912 1.165-1.747 1.165a16.879 16.879 0 01-8.154 1.747h-2.33m-11.065 10.484h-1.165a8.153 8.153 0 01-2.912-6.406 22.71 22.71 0 012.33-5.242l4.077 2.329-1.748 3.495v1.747h2.912a18.63 18.63 0 009.901-5.242l3.495 2.913a27.959 27.959 0 01-12.813 6.989 6.413 6.413 0 01-4.66 0m-11.648 10.483h-1.747c-4.077-2.912-2.912-8.154-2.912-10.484h4.66c-.583 3.495-.583 5.242.581 5.824h2.33l6.989-1.164 1.747 4.076a20.38 20.38 0 01-8.154 1.748h-3.494zm-14.56 12.23c-.583-.582-2.33-1.164-2.912-2.329a6.992 6.992 0 01-1.166-6.989L53 286.75c0-1.165.582-1.748.582-2.912h4.659a8.154 8.154 0 01-1.165 4.077c0 .582-.582.582-.582 1.164a2.33 2.33 0 000 2.912h1.747a12.224 12.224 0 0011.066-1.747l2.912 3.495a19.803 19.803 0 01-15.143 2.912h-1.164" fill="#fff"/><path d="M142.691 223.849c-6.989 9.319-14.56 19.22-20.967 29.703-6.406 10.484-18.054 33.78-27.373 50.088a313.938 313.938 0 01-55.911 71.054 191.04 191.04 0 0043.68 57.659c22.132-18.055 33.198-46.011 42.516-72.802 4.66-13.395 9.319-26.208 14.561-39.021 5.241-12.813 12.231-34.945 18.637-52.417l8.736-24.462a327.91 327.91 0 0113.978-40.186 76.292 76.292 0 0124.461-33.197 18.053 18.053 0 00-15.142 4.659l-15.726 13.395a183.469 183.469 0 00-31.45 35.527z" fill="#3056A5"/><path d="M75.713 382.265H69.89a14.558 14.558 0 01-7.57-6.989 72.226 72.226 0 01-2.33-9.318h4.66a35.53 35.53 0 001.746 7.571 8.734 8.734 0 004.66 4.659c3.164.092 6.26-.939 8.736-2.912l6.989-3.494 2.33 3.494-6.99 4.077-6.407 2.912zm-11.065 15.143c-3.337.74-6.827.33-9.901-1.165a13.396 13.396 0 01-6.407-7.571 23.3 23.3 0 01-1.747-8.736h4.077a37.877 37.877 0 002.33 7.571 6.405 6.405 0 004.077 5.242 12.23 12.23 0 0012.813-2.912l2.912 4.076-8.154 4.077m106.581-188.701h-3.494a4.073 4.073 0 01-2.912-4.077 15.146 15.146 0 01.582-8.736l4.077 1.165a13.997 13.997 0 000 6.989l4.659-2.912 4.078 2.329a11.649 11.649 0 01-6.99 4.66m-6.988 15.142h-1.748a4.663 4.663 0 01-5.242-1.747 2.332 2.332 0 01-1.164-2.33 16.887 16.887 0 010-7.571l4.076 1.165a16.336 16.336 0 00.583 5.242h1.165a9.333 9.333 0 006.989-4.66l4.077 2.912a14.554 14.554 0 01-8.736 5.824m-5.825 14.561h-4.077a11.063 11.063 0 01-5.824-9.901h4.659c.583 3.494 1.165 5.241 2.33 5.824 1.165.582 2.912 0 4.659-1.747l4.659-3.495 3.495 3.495-5.242 4.077-4.659 2.329m-5.241 16.89a5.825 5.825 0 01-6.989-1.165 7.563 7.563 0 01-2.912-6.406 7.57 7.57 0 00-.583-3.495l4.077-1.747a11.07 11.07 0 011.165 4.659 4.658 4.658 0 001.165 3.495 3.498 3.498 0 004.659-.582 22.704 22.704 0 005.824-4.66l3.494 2.912a16.885 16.885 0 01-6.988 5.824l-2.912 1.165zm-4.66 16.89a10.48 10.48 0 01-9.318-2.329c-2.33-1.748-2.33-5.242-2.913-7.572h4.66a7 7 0 00.333 2.801 7.004 7.004 0 001.414 2.441 4.652 4.652 0 004.659.582 8.736 8.736 0 005.242-3.494l3.495 2.33a10.486 10.486 0 01-7.572 5.241zm-7.571 17.472a8.146 8.146 0 01-6.406-.582c-4.077-1.747-4.66-6.406-5.242-10.483h4.659c0 2.329.582 5.824 2.33 6.406h3.494a22.14 22.14 0 008.736-5.241l3.495 2.912a22.706 22.706 0 01-11.066 6.988zm-5.242 15.143a7.56 7.56 0 01-6.988-1.747c-1.165-1.165-1.166-2.329-1.748-3.494-.582-1.165-1.747-4.077-2.33-6.407l4.66-1.747 1.747 6.989c.582.582.583 1.165 1.165 1.165.582 0 2.912.582 4.077 0l2.329-1.748 4.66-2.912 1.747 4.077-3.495 2.33c-1.164.582-1.747 1.747-2.912 1.747l-2.912 1.747zm-6.989 16.308c-2.329.582-3.494 0-4.077-.582a4.077 4.077 0 01-2.33-3.495 43.751 43.751 0 01-2.912-9.318h4.66a48.34 48.34 0 002.33 8.736h2.329a26.199 26.199 0 007.571-6.407l3.495 3.495a35.568 35.568 0 01-8.736 6.989l-2.33 1.164m-3.494 15.142a15.14 15.14 0 01-6.989-.582 10.482 10.482 0 01-2.912-4.077 16.307 16.307 0 01-1.748-7.571h4.66c.042 1.62.44 3.21 1.165 4.659l1.165 2.33c1.165.582 2.329.582 4.659-.583l8.736-4.659 2.912 3.495a44.914 44.914 0 01-10.483 5.824h-1.165m-7.571 17.472h-4.078a6.984 6.984 0 01-3.494-3.494 19.23 19.23 0 01-2.33-7.571h4.66a11.063 11.063 0 001.747 5.824v1.165h1.165a21.553 21.553 0 008.154-4.077l2.912 3.494a17.467 17.467 0 01-9.319 4.659m-6.989 17.472c-4.077 1.165-6.406.001-6.989-1.164a5.246 5.246 0 01-1.747-2.912l-1.747-6.407 4.659-1.165 1.747 6.407v1.165h2.912a24.468 24.468 0 009.319-5.242l3.494 3.494a27.357 27.357 0 01-11.648 5.824zm-4.659 13.979h-2.33a8.733 8.733 0 01-5.242-1.165c-1.164-.582-1.747-1.747-2.33-2.33a21.544 21.544 0 01-2.911-10.483h4.66c-.128 2.898.69 5.76 2.33 8.154v1.165h1.746a29.7 29.7 0 0012.23-5.825l2.912 3.495a28.521 28.521 0 01-11.648 6.406m-8.736 16.307a9.307 9.307 0 01-8.153-1.747 6.995 6.995 0 01-2.912-5.241 9.313 9.313 0 00-1.748-3.495l3.494-2.912a17.47 17.47 0 012.33 4.659 9.32 9.32 0 001.748 3.495c1.747 1.747 4.659.582 5.824 0a48.35 48.35 0 009.318-5.242l2.912 3.495a30.295 30.295 0 01-10.483 5.824l-2.33 1.164zm-8.153 15.143c-4.077 1.165-6.407.001-7.572-1.747-1.165-1.747-1.747-2.912-2.33-4.659a28.542 28.542 0 01-.582-6.989h4.077c.582 2.33.583 4.659 1.165 6.989v2.33a4.672 4.672 0 004.077 0 29.716 29.716 0 0010.483-5.242l2.912 3.494a31.435 31.435 0 01-11.648 5.824h-1.165" fill="#fff"/><path d="M91.44 421.87l-6.99 1.747c-2.446.89-5.126.89-7.571 0l-4.078-2.33a34.358 34.358 0 01-5.824-9.901l4.66-1.747a14.562 14.562 0 004.66 8.154c.582 1.165 1.746 1.164 2.329 1.747.582.582 2.912 0 5.242-.582l6.406-1.165 1.165 4.077zm44.262-174.724h-3.494a5.827 5.827 0 01-3.494-5.242c0-1.747.582-2.912.582-4.077l4.659 1.165a5.245 5.245 0 00-.583 2.912h1.166l4.659-2.912 3.494 2.912a11.069 11.069 0 01-6.406 4.077h-.583m8.154-12.813h-1.748a5.817 5.817 0 01-4.659-2.912 8.167 8.167 0 010-5.242l4.077 2.912h.582c1.165 0 1.748-1.164 2.33-2.329l4.077 1.747a6.408 6.408 0 01-4.659 4.659m6.989-9.901h-2.912a7.564 7.564 0 01-5.242-5.824h4.659l1.748 1.747c.582 0 1.747 0 1.747-.582l4.077 2.33a7.573 7.573 0 01-4.077 2.912m-19.802 41.933c-2.098.57-4.309.57-6.407 0a11.07 11.07 0 01-6.406-9.318h4.659a4.66 4.66 0 003.495 4.659 4.66 4.66 0 005.824-1.165l3.494 2.912a8.148 8.148 0 01-4.659 2.912zm-7.572 13.978a6.99 6.99 0 01-7.571-2.33 8.158 8.158 0 01-2.33-6.989v-2.329h4.66v2.912c0 1.747-.001 3.494 1.164 4.077h2.912l4.078-2.33 2.912 3.494a19.214 19.214 0 01-5.825 3.495zm-7.571 15.725h-2.33a10.483 10.483 0 01-5.824-.582c-2.912-1.165-2.912-5.242-2.912-6.407v-9.318h4.077v9.318c-.087.821.12 1.647.583 2.33h2.33a17.474 17.474 0 008.736-3.495l3.494 2.912a18.058 18.058 0 01-8.736 4.66m-4.077 13.395h-7.571a10.483 10.483 0 01-4.077-6.406v-1.747c0-1.165-.583-2.33-.583-3.495l4.077-1.165c.583 1.165.582 2.33 1.165 3.495v2.329l1.747 2.913h2.33a17.475 17.475 0 009.319-4.66l2.912 3.495a24.452 24.452 0 01-9.319 5.241zm-8.736 16.308a6.997 6.997 0 01-4.366.476 6.996 6.996 0 01-3.788-2.223c-.582-1.165-1.165-1.748-1.165-2.913a70.473 70.473 0 01-2.912-10.483h4.66c.582 2.912 1.747 6.407 2.33 9.901v1.165c.582 1.165 2.911.582 4.658 0a26.78 26.78 0 008.736-5.242l2.912 3.495a24.464 24.464 0 01-9.9 5.824h-1.748m-6.406 16.307a8.146 8.146 0 01-7.57-.582 11.646 11.646 0 01-2.913-5.242l-2.33-8.154 4.659-1.165 2.33 8.154c.582 1.165.582 2.33 1.165 2.912h3.494a17.466 17.466 0 009.901-6.989l4.077 2.912a23.293 23.293 0 01-12.813 8.154zm-3.495 16.308H89.11a10.477 10.477 0 01-9.9-2.33 12.23 12.23 0 01-2.33-5.824l-1.165-6.989h4.66l1.164 6.407a6.408 6.408 0 001.165 3.494c1.165 1.747 4.077 1.165 5.824 1.165a30.28 30.28 0 009.319-3.495l2.329 4.077-8.154 3.495zm-11.648 13.396h-2.912a6.996 6.996 0 01-6.406-2.33 5.242 5.242 0 01-1.748-3.495l-2.912-7.571 4.66-1.747 2.33 7.571c.582.582.582 1.747 1.164 2.33h6.406l10.484-5.242 2.33 3.495a40.21 40.21 0 01-11.066 5.824h-2.33m100.175-175.307a6.402 6.402 0 01-4.659-.582 5.234 5.234 0 01-2.33-3.494 4.654 4.654 0 011.165-2.912l3.495 2.912h1.164l1.748-1.165 3.494-1.747 1.165 4.659-1.747 1.165-2.912 1.747h-.583" fill="#fff"/><defs><clipPath id="clip0_543_2"><rect x="265" y="213" width="411" height="411" rx="205.5" fill="#fff"/></clipPath><clipPath id="clip1_543_2"><rect x="56" y="10" width="342" height="343" rx="171" fill="#fff"/></clipPath></defs></svg>