<svg width="130" height="130" fill="none" xmlns="http://www.w3.org/2000/svg"><circle cx="65" cy="65" r="65" fill="#fff" fill-opacity=".5"/><g clip-path="url(#clip0_36_336)" fill="#1C8849"><path d="M103.789 86.945a9.42 9.42 0 00-.935.806 1.266 1.266 0 00-.343.787c-.038 3.09-.019 6.18-.019 9.27a4.05 4.05 0 01-.058.845 1.01 1.01 0 01-1.049.921c-.572 0-.972-.269-1.106-.844a4.99 4.99 0 01-.076-.922v-9.98h-2.938v10.076c.016.257.004.514-.038.768a1.077 1.077 0 01-.338.626 1.06 1.06 0 01-.654.276c-.553.038-.953-.192-1.144-.71a2.546 2.546 0 01-.114-.749V84.393a2.49 2.49 0 01.038-.538c.133-.633.534-.998 1.182-.96.649.039 1.011.423 1.05 1.095.037.671 0 .902 0 1.42h4.215c0-1.9.057-3.781-.019-5.662-.039-1.056-.706-1.785-1.66-2.207-1.411-.595-2.86-1.152-4.349-1.766-1.526 4.05-4.272 6.756-8.468 7.735-4.197.978-7.801-.25-10.796-3.09-.725 1.228-1.335 2.475-2.174 3.57-.84 1.094-1.507 1.516-2.366 2.13-.858.614-.343 1.305-.4 1.958-.02.172.42.48.686.594 1.145.423 2.308.768 3.453 1.171 2.365.826 3.605 2.591 3.624 5.086 0 1.133.019 2.246 0 3.378-.02.787-.458 1.267-1.125 1.267-.668 0-1.126-.46-1.145-1.248-.038-1.113 0-2.207-.019-3.3-.02-1.766-1.144-3.072-2.9-3.263-.17-.02-.438.172-.571.345-3.529 4.453-9.747 4.76-13.695.691-.363-.384-.42-1.267-1.316-.998-1.221.384-2.366.883-2.575 2.284-.21 1.4-.096 2.495-.134 3.742.014.31-.012.62-.076.922-.134.556-.534.844-1.125.825-.592-.02-1.03-.384-1.03-.94 0-1.766-.077-3.59.21-5.336.285-1.747 1.41-2.687 2.918-3.263a62.62 62.62 0 014.024-1.382c.477-.153.591-.403.63-.863.076-.922-.21-1.478-.992-2.054-2.69-1.938-4.044-4.645-4.216-7.946-.019-.134-.019-.268-.038-.48-1.182-.076-2.25-.48-3.07-1.42-.077-.096-.496.039-.725.154-4.273 1.88-8.412 1.67-12.36-.806-2.708-1.69-4.52-4.127-5.455-7.217a9.72 9.72 0 01-.229-.69c-1.354.421-2.709.786-4.005 1.247-1.297.46-1.832 1.324-1.85 2.572-.039 3.819 0 7.657 0 11.477 0 .057.038.096.076.173h5.378c0-1.613.039-3.186-.038-4.741-.019-.46-.343-.902-.591-1.305-.534-.864-1.125-1.69-1.66-2.572-.534-.883-.247-1.267.268-1.612.515-.346 1.182-.25 1.602.365.763 1.113 1.583 2.207 2.174 3.397.378.777.574 1.63.572 2.495.039 6.41.02 12.82.02 19.23 0 .231.057.538-.077.672-.133.135-.591.691-.973.807-.381.115-.953-.173-1.106-.691a3.204 3.204 0 01-.114-1.056c-.013-3.877-.02-7.76-.02-11.65v-.94h-4.157c-.02.288-.058.595-.058.883v11.726c0 1.229-.362 1.785-1.182 1.766-.82-.02-1.107-.537-1.107-1.747V86.024c0-.48.02-.825-.59-1.017-.325-.115-.687-.73-.687-1.133-.039-4.318-.058-8.636 0-12.955.038-2.226 1.487-3.953 3.757-4.663l8.507-2.572.763-.25c0-.96.038-1.9-.02-2.84 0-.23-.228-.5-.419-.653-2.69-2.245-4.234-5.105-4.711-8.579a1.116 1.116 0 00-.515-.69c-2.308-1.23-2.861-3.955-1.202-5.95a1.58 1.58 0 00.325-.96c.038-1.785.019-3.57.019-5.355.019-5.93 3.948-10.326 9.842-10.633 3.795-.192 7.61-.096 11.406.02 1.964.057 3.3 1.266 4.12 3.07.16.365.394.692.686.96 1.45 1.286 2.29 2.86 2.29 4.817.037 2.38 0 4.74.037 7.12.011.373.145.731.382 1.018 1.583 1.92 1.049 4.721-1.202 5.834a1.012 1.012 0 00-.63.903c-.114.825-.324 1.65-.495 2.533l.534.307c2.079 1.056 4.139 2.073 6.18 3.128.438.23.763.154 1.201.02 1.507-.48 2.099-1.401 2.041-3.014-.076-2.168.115-4.337.172-6.506.21-7.447 5.894-13.819 13.237-14.836 8.583-1.19 16.289 4.606 17.529 13.262.248 1.843.133 3.724.267 5.585.381 4.837.782 9.667 1.201 14.49.096.98-.457 1.44-1.144 1.882a26.458 26.458 0 01-7.496 3.09l-.896.268.782.365c2.365.94 4.692 1.958 7.076 2.802 2.384.845 3.757 2.054 4.311 4.395v7.658zM79.966 47.87c-.077.096-.153.134-.172.211-1.087 2.342-3.07 3.512-5.436 4.165-.687.192-1.297-.115-1.469-.71-.171-.595.077-1.171.763-1.459.382-.154.782-.25 1.164-.403 1.697-.71 2.937-1.843 3.242-3.8.153-1.056 1.03-1.42 1.908-.768 1.888 1.44 4.081 2.092 6.351 2.63 2.27.537 4.215.902 6.256 1.573 2.499.806 4.158 2.534 4.52 5.24.687 5.278-1.22 9.443-5.435 12.571-1.011.749-1.126 1.037-.801 2.38a28.46 28.46 0 007.324-2.687c.496-.288.63-.595.572-1.151-.381-4.99-.725-9.98-1.087-14.952-.114-1.63-.057-3.3-.382-4.875-1.525-7.062-7.82-11.38-14.953-10.383-6.028.826-10.949 6.334-11.12 12.456-.076 2.303-.134 4.587-.21 6.89 0 .135.038.27.057.48l1.965-.979c1.316-.633 2.04-.172 2.06 1.306.019 1.477-.02 2.706.019 4.05.035.366.166.718.381 1.016.82 1.305 1.66 2.61 2.518 3.897.177.32.417.6.706.825 1.583 1.055 3.338 1.554 5.226 1.67 6.351.422 11.864-5.528 10.967-11.861-.229-1.574-.973-2.783-2.441-3.455a16.014 16.014 0 00-2.213-.787c-3.471-.902-7.095-1.228-10.28-3.09zm-45.262-4.472c1.85.173 1.85.173 2.403-1.516.04-.093.072-.19.095-.288.687-2.054.687-2.015 2.861-2.13 4.693-.23 9.385-.519 13.772-2.419.705-.307 1.335-.019 1.583.614.248.634 0 1.21-.706 1.478-1.354.5-2.708 1.017-4.1 1.382-3.262.825-6.6 1.133-9.938 1.21-.897.018-1.335.287-1.507 1.17-.172.883-.42 1.305-.63 1.958a1.215 1.215 0 01-1.259.902 42.5 42.5 0 00-2.212 0c-.744.019-1.64.537-1.717 1.382-.076.844.42 1.362 1.431 1.573 1.011.212 1.145.576 1.164 1.344.019.307.038.614.076.921.42 5.336 5.436 9.808 10.72 9.558 5.721-.269 9.88-4.318 10.356-10.057.134-1.44.134-1.44 1.545-1.842.706-.192 1.05-.691 1.087-1.382a1.349 1.349 0 00-.301-.924 1.333 1.333 0 00-.843-.477 8.814 8.814 0 00-1.43-.096c-.783-.039-1.279-.46-1.298-1.113-.019-.653.458-1.133 1.24-1.19.42-.02.84 0 1.278 0 0-2.495.057-4.914-.019-7.332-.038-1.094-.706-1.92-1.545-2.63-.42-.345-.84-.786-1.01-1.266-.573-1.516-1.393-2.207-2.995-2.226-3.338-.02-6.695-.039-10.052 0-4.196.076-7.553 2.917-8.011 7.024-.248 2.073-.038 4.223-.038 6.372zm20.828 26.236h.344c5.57-.307 11.043-1.036 16.117-3.665.553-.288 1.068-.27 1.507.23.438.499.343 1.44-.515 1.823-1.66.73-3.338 1.497-5.074 2.035-3.91 1.228-7.973 1.727-12.055 1.9-.953.038-1.659.729-1.64 1.554.02.826.668 1.42 1.64 1.459h.992c.801.038 1.221.441 1.26 1.228.018.307.018.614.018.922-.019 2.725 1.03 4.932 3.147 6.66 3.605 2.955 9.385 1.823 11.693-2.246.896-1.593 1.201-3.263 1.144-5.067-.02-1.094.4-1.478 1.469-1.497.477-.02.972 0 1.43-.134 1.05-.307 1.393-1.69.534-2.361-.858-.672-.877-1.228-.839-2.073.038-.844 0-1.17-.038-1.766a10.445 10.445 0 00-1.774-4.99c-.591.634-1.183.5-1.831.173-2.098-1.075-4.234-2.111-6.314-3.186a1.233 1.233 0 00-1.277 0c-1.984 1.037-3.987 2.015-5.97 3.032-.744.365-1.45.826-2.175-.038a10.951 10.951 0 00-1.793 6.007zm37.652 5.432c-1.278-.71-2.632-1.286-3.739-2.169-1.106-.883-.992-2.63-1.01-4.145-3.112.998-6.48.806-9.461-.538 0 .403.019.672 0 .96a3.431 3.431 0 00.667 2.303c1.507 2.13.305 5.067-2.212 5.68l-.725.174c1.621 2.917 5.398 4.587 9.136 4.088 3.357-.442 6.485-3.186 7.344-6.353zM41.208 61.688c0 1.094-.057 2.092 0 3.07.248 3.781 4.425 6.142 7.744 4.376 2.86-1.535 3.261-4.03 2.842-7.408-3.49 1.459-7 1.459-10.586-.038zm12.016 6.41c-1.66 2.61-3.91 4.011-6.847 3.896-3.93-.173-6.314-2.418-7.4-6.16l-2.728.825c.005.117.024.233.057.345.553 2.13 1.717 3.877 3.319 5.355 3.109 2.86 8.297 3.455 11.92 1.324.192-.115.325-.403.44-.633.343-.691.648-1.401.972-2.111.077-.173.248-.346.267-.519.02-.729 0-1.458 0-2.322zm15.66 19.519h-5.532c.134 1.612-.534 2.821-2.327 3.243 2.213 3.263 8.069 3.263 10.167-.019-1.812-.383-2.46-1.631-2.308-3.224zm-14.687-23.32c.763-1.112 1.278-2.283 2.136-3.09 1.221-1.15.668-2.437.84-3.684l-2.747 2.59a.732.732 0 00-.21.462c-.019 1.209-.019 2.418-.019 3.723zm5.264-3.185l4.101-2.054-4.1-2.053v4.107zm13.276-.02v-4.068l-4.063 2.034 4.063 2.035z"/><path d="M84.41 62.82a4.495 4.495 0 01-3.376-1.573c-.496-.557-.515-1.19-.057-1.65.457-.462 1.049-.48 1.62 0 .1.079.189.169.268.268.973.902 2.079.883 3.052-.02l.4-.364c.496-.365 1.011-.346 1.45.096a1.034 1.034 0 01.376.737 1.042 1.042 0 01-.28.78 4.432 4.432 0 01-1.53 1.261c-.598.3-1.255.458-1.923.466zm-4.1-8.29c.009.178.009.358 0 .537-.077.71-.554 1.209-1.145 1.19-.592-.02-1.088-.5-1.126-1.286a9.73 9.73 0 010-1.056c.038-.748.477-1.228 1.087-1.247.61-.02 1.107.46 1.183 1.17.02.23 0 .461 0 .691zm10.413-.02c.02 1.19-.343 1.747-1.106 1.747-.763 0-1.163-.576-1.163-1.728-.01-.302.009-.604.057-.902.114-.633.534-.96 1.125-.94.591.019 1.03.403 1.087 1.055.02.27 0 .519 0 .768zm-44.174 1.766a4.61 4.61 0 01-3.32-1.555c-.514-.576-.552-1.228-.094-1.708.457-.48 1.106-.48 1.678.096.572.576 1.43 1.094 2.384.71.368-.162.704-.39.992-.672.668-.575 1.259-.633 1.755-.134.496.5.438 1.132-.134 1.766a4.68 4.68 0 01-3.261 1.497zm4.081-8.368V47.6c.02-.98.42-1.497 1.145-1.497.725 0 1.125.556 1.144 1.535a5.62 5.62 0 01-.038.979 1.143 1.143 0 01-1.182 1.075c-.592-.039-1.011-.5-1.069-1.171v-.614zm-8.182-.019v.46c-.02.826-.458 1.344-1.126 1.344-.667 0-1.125-.518-1.144-1.363a5.617 5.617 0 01.02-1.132c.075-.691.571-1.114 1.163-1.075.59.038 1.03.46 1.087 1.152v.614zm23.67 34.623a4.46 4.46 0 01-3.395-1.612c-.477-.557-.458-1.21.02-1.65.476-.442 1.048-.384 1.582.038 1.526 1.286 2.06 1.286 3.586 0 .515-.442 1.164-.442 1.583-.039.42.404.477 1.114.02 1.651a4.422 4.422 0 01-3.395 1.612zm-3.91-8.809a1.08 1.08 0 01.794.306 1.095 1.095 0 01.331.788 1.102 1.102 0 01-.29.804 1.088 1.088 0 01-.778.347 1.061 1.061 0 01-.827-.305 1.075 1.075 0 01-.317-.827 1.082 1.082 0 01.306-.792 1.068 1.068 0 01.781-.321zm7.782 2.245a1.082 1.082 0 01-1.027-.684 1.1 1.1 0 01-.08-.429 1.1 1.1 0 01.703-1.063 1.08 1.08 0 01.442-.07 1.082 1.082 0 01.999.707 1.1 1.1 0 01.07.426 1.1 1.1 0 01-.68 1.034c-.136.055-.28.082-.427.08z"/></g><defs><clipPath id="clip0_36_336"><path fill="#fff" transform="translate(25.816 27.66)" d="M0 0h77.992v71.915H0z"/></clipPath></defs></svg>