<svg width="686" height="634" viewBox="0 0 686 634" fill="none" xmlns="http://www.w3.org/2000/svg">
<g clip-path="url(#clip0_543_2)">
<rect x="265" y="213" width="411" height="411" rx="205.5" fill="#9AB6DF"/>
<path d="M421.143 327.152C422.572 334.293 426.753 340.581 432.777 344.65C438.802 348.719 446.184 350.24 453.32 348.884C460.262 346.752 466.086 341.961 469.528 335.55C472.97 329.139 473.753 321.626 471.706 314.64C471.294 310.912 470.092 307.315 468.182 304.09C466.272 300.866 463.698 298.087 460.63 295.941C457.563 293.794 454.074 292.33 450.396 291.645C446.719 290.96 442.938 291.07 439.307 291.969C435.676 292.867 432.278 294.533 429.34 296.855C426.403 299.177 423.994 302.101 422.274 305.432C420.554 308.763 419.563 312.424 419.368 316.17C419.173 319.915 419.779 323.66 421.143 327.152" fill="#83592F"/>
<path d="M542.627 574.761C546.386 580.767 548.846 587.497 549.85 594.517C549.7 605.591 547.472 616.537 543.284 626.785C538.03 639.297 534.747 645.882 543.284 656.419C551.82 666.955 555.104 670.907 564.954 670.907C569.702 670.768 574.29 669.157 578.087 666.297C590.816 655.93 601.127 642.893 608.294 628.102C616.831 614.273 624.71 602.419 626.024 586.614C626.128 582.787 625.459 578.979 624.054 575.419C610.264 532.615 589.907 501.005 562.327 463.469C559.044 459.517 549.193 447.005 541.313 438.444C533.433 429.883 513.077 406.176 496.66 400.249C490.094 404.2 490.75 410.786 481.557 412.761H469.08C470.562 415.984 471.878 419.281 473.02 422.639C475.402 429.844 478.254 436.883 481.557 443.713C494.033 473.347 505.197 499.029 518.987 526.688L542.627 574.102" fill="#FCB737"/>
<path d="M442.813 387.078C442.813 388.395 442.813 389.054 443.47 389.712H446.096C457.748 391.432 469.637 390.532 480.9 387.078L484.183 385.103C485.328 383.355 485.795 381.246 485.496 379.176C484.3 373.08 483.424 366.925 482.87 360.737C482.69 357.506 481.792 354.356 480.243 351.518C479.576 349.967 478.586 348.578 477.341 347.442C476.095 346.306 474.622 345.451 473.02 344.932C464.483 340.323 449.379 316.615 439.529 315.957C429.679 315.298 438.216 352.835 438.873 358.762L442.813 386.42" fill="#FABA8E"/>
<path d="M460.543 389.054C460.068 386.512 459.18 384.065 457.917 381.81C456.603 379.176 454.634 377.859 453.32 375.225C452.007 372.591 450.694 363.371 450.037 357.445C449.423 352.663 448.094 348.001 446.096 343.615C445.972 342.093 445.267 340.677 444.127 339.664C454.046 339.783 463.852 341.794 473.02 345.591C474.623 346.109 476.095 346.965 477.341 348.101C478.587 349.237 479.577 350.626 480.244 352.176C481.793 355.015 482.69 358.165 482.87 361.396C483.424 367.584 484.3 373.739 485.496 379.835C485.795 381.905 485.328 384.013 484.183 385.761L480.9 387.737C474.527 389.788 467.891 390.897 461.2 391.03C461.2 390.371 460.543 389.713 460.543 389.054" fill="#CB6D3F"/>
<path d="M457.917 371.932C465.853 374.108 473.998 375.432 482.213 375.883C484.183 376.542 487.467 375.225 489.437 377.859C490.87 380.235 491.556 382.989 491.407 385.761C492.063 391.688 492.72 398.932 493.377 405.517C503.843 421.134 512.439 437.933 518.987 455.566C530.807 482.566 537.373 526.029 538.03 550.395C537.565 585.208 534.934 619.959 530.15 654.443C530.151 663.841 527.899 673.101 523.583 681.443C516.36 695.272 503.883 697.248 490.75 699.224C444.783 705.15 399.473 706.467 353.506 708.443C350.88 708.443 348.253 709.102 346.283 707.126C344.798 705.911 343.568 704.412 342.666 702.716C341.764 701.021 341.208 699.162 341.029 697.248C333.806 662.346 359.416 629.419 366.64 594.517C373.863 559.614 361.386 531.297 376.49 494.419C385.683 473.346 406.04 438.444 418.517 413.42C421.622 406.203 425.129 399.168 429.023 392.347C428.447 388.348 428.899 384.268 430.337 380.493C434.934 362.054 446.753 369.298 457.917 371.932" fill="#C0B2BB"/>
<path d="M503.227 431.2C506.911 430.102 510.159 427.873 512.515 424.828C514.871 421.782 516.215 418.073 516.36 414.221C516.505 410.37 515.443 406.569 513.323 403.354C511.203 400.14 508.131 397.672 504.54 396.298L492.063 393.005V396.298C492.063 396.298 503.227 422.639 500.6 431.859L503.227 431.2Z" fill="#F9AA44"/>
<path d="M505.854 429.225C502.899 429.195 499.986 428.521 497.317 427.249H496.66C493.406 425.632 489.77 424.948 486.154 425.274L483.527 426.591L480.243 427.908C476.484 428.8 472.53 428.333 469.08 426.591C466.386 425.453 463.454 425 460.543 425.274H457.917L453.32 426.591L447.41 425.274L443.47 423.957C439.83 424.093 436.349 425.489 433.62 427.908L431.65 424.615C435.262 421.957 439.647 420.568 444.127 420.664L448.723 421.981L453.32 423.298L456.604 421.981L459.887 420.664C463.505 420.303 467.151 420.988 470.393 422.639C473.117 423.666 476.024 424.115 478.93 423.957L482.213 422.639L485.496 421.322C489.759 420.638 494.128 421.329 497.973 423.298H498.63C500.327 424.225 502.209 424.765 504.138 424.878C506.068 424.992 507.999 424.677 509.794 423.957L511.107 427.249C509.566 428.297 507.705 428.763 505.854 428.566" fill="#EF4932"/>
<path d="M474.333 443.713H471.05C469.737 443.713 468.423 442.396 467.11 441.737L461.856 440.42L457.26 441.737L452.006 443.054C449.471 443.014 446.987 442.335 444.783 441.079C442.94 440.209 440.861 439.977 438.873 440.42C436.697 440.73 434.65 441.642 432.963 443.054L431.65 439.761C433.622 438.274 435.847 437.158 438.216 436.469C440.911 436.25 443.618 436.703 446.096 437.786L452.006 439.103L455.946 437.786L462.513 436.469C464.57 436.829 466.562 437.495 468.423 438.444L471.706 440.42C474.619 440.909 477.612 440.447 480.243 439.103L482.213 437.786C484.265 436.734 486.49 436.065 488.78 435.81C491.053 435.519 493.359 435.982 495.346 437.127L497.973 438.444C501.433 439.558 505.185 439.323 508.48 437.786L509.793 441.079C505.972 443.157 501.485 443.63 497.317 442.396L494.033 441.079C492.554 439.845 490.703 439.149 488.78 439.103C486.81 439.103 485.497 440.42 483.527 441.079L481.556 442.396L474.333 444.371" fill="#EF4932"/>
<path d="M432.306 460.835L430.337 458.2C433.64 455.437 437.861 454.026 442.156 454.249H447.41L452.663 452.932L458.573 451.615C461.35 451.319 464.142 452.019 466.454 453.591C469.08 454.249 471.707 455.566 473.677 454.908L478.273 453.591L484.183 451.615C486.525 451.566 488.822 452.258 490.75 453.591L494.033 454.908C498.077 455.278 502.148 454.598 505.854 452.932V456.225C501.777 458.204 497.197 458.893 492.72 458.2L488.78 456.883C487.3 455.65 485.45 454.954 483.527 454.908C481.809 454.996 480.178 455.697 478.93 456.883L473.677 458.859C470.509 458.843 467.379 458.17 464.483 456.883L457.917 454.908L453.32 456.225C451.155 457.572 448.644 458.258 446.096 458.2L442.813 456.883H440.843C437.56 456.225 434.933 458.2 431.65 460.176" fill="#EF4932"/>
<path d="M430.337 478.615H427.71L429.023 475.322C430.336 475.981 432.306 475.322 434.933 474.005H435.59C437.459 472.476 439.751 471.556 442.156 471.371L448.066 472.688H450.037C451.481 473.343 453.048 473.681 454.633 473.681C456.218 473.681 457.785 473.343 459.23 472.688H460.543L463.827 471.371C466.949 471.159 470.082 471.608 473.02 472.688L478.93 474.005L484.183 472.688L490.75 471.371C493.04 471.626 495.265 472.295 497.317 473.347L500.6 474.664H509.137L510.45 477.956C506.843 479.264 502.894 479.264 499.287 477.956L496.004 476.639L490.75 475.322L484.84 476.639L478.93 477.956L471.706 476.639C469.558 475.283 466.97 474.811 464.483 475.322H460.543C456.783 476.842 452.628 477.074 448.723 475.981L446.753 474.664H442.156C440.438 474.752 438.809 475.453 437.56 476.639H436.246C434.521 477.882 432.461 478.571 430.337 478.615" fill="#EF4932"/>
<path d="M444.127 496.395L437.56 495.078H433.62C431.496 495.122 429.436 495.811 427.71 497.054L426.396 493.761C428.691 492.092 431.443 491.172 434.277 491.127L437.56 492.444H438.873C442.48 493.752 446.43 493.752 450.037 492.444L452.006 491.127C453.976 490.468 455.29 489.151 457.26 489.151C460.386 488.564 463.617 489.027 466.454 490.469C468.988 491.329 471.692 491.554 474.333 491.127L478.273 489.81L483.527 487.834C486.319 488.098 489.015 488.999 491.407 490.469L497.317 492.444L501.913 491.127H503.227L511.763 489.81V493.761C509.122 493.334 506.417 493.559 503.883 494.42H502.57L497.317 495.737C494.769 495.795 492.259 495.109 490.094 493.761C488.132 492.501 485.857 491.816 483.527 491.785L479.587 493.103L474.99 495.078C471.864 495.666 468.633 495.203 465.796 493.761C463.318 492.678 460.611 492.226 457.917 492.444L453.977 494.42L451.35 495.737L444.127 497.054" fill="#EF4932"/>
<path d="M442.813 515.493L436.246 514.176H434.277C433.122 513.637 431.845 513.414 430.577 513.53C429.308 513.646 428.093 514.095 427.054 514.834L425.083 512.2C426.306 510.869 427.918 509.961 429.688 509.606C431.457 509.251 433.294 509.467 434.933 510.225H437.56L443.47 511.542L448.723 510.225L454.633 508.249L461.2 509.566C463.282 510.406 465.56 510.635 467.767 510.225L472.363 508.249C474.415 507.197 476.64 506.528 478.93 506.273C481.271 506.225 483.568 506.916 485.496 508.249L490.75 509.566L494.69 508.249L499.944 506.932L505.854 508.249C507.936 509.089 510.214 509.318 512.42 508.907L513.733 512.2C512.353 512.742 510.868 512.964 509.39 512.85C507.912 512.736 506.478 512.288 505.196 511.542H499.944L496.004 512.859L490.75 514.176C488.409 514.224 486.111 513.533 484.183 512.2L478.93 510.883C477.007 510.929 475.156 511.625 473.677 512.859L467.767 514.834C465.14 515.493 463.17 514.176 460.543 513.517C458.701 512.647 456.622 512.416 454.633 512.859L450.037 514.176L443.47 516.151H442.813" fill="#EF4932"/>
<path d="M505.854 535.249C502.857 534.975 499.949 534.078 497.317 532.615H496.66C493.515 530.694 489.779 529.991 486.154 530.639H483.527L480.243 532.615C476.474 532.822 472.698 532.377 469.08 531.298C466.434 529.959 463.506 529.281 460.543 529.322L457.917 530.639L453.32 531.956C451.196 531.912 449.136 531.223 447.41 529.981H443.47C441.64 529.873 439.808 530.171 438.105 530.854C436.403 531.537 434.872 532.588 433.62 533.932L431.65 530.639C433.316 529.073 435.279 527.858 437.422 527.066C439.565 526.274 441.845 525.922 444.127 526.029L448.723 527.346L453.32 528.663L456.604 527.346H459.887C463.443 526.78 467.086 527.237 470.393 528.663C473.025 530.008 476.017 530.47 478.93 529.981L482.213 528.663L485.496 527.346C489.838 526.576 494.31 527.52 497.973 529.981H498.63C502.08 531.723 506.034 532.19 509.794 531.298L511.107 534.59L505.854 535.907" fill="#EF4932"/>
<path d="M474.333 549.078H471.05L467.11 547.102C465.14 546.444 463.826 545.127 461.856 545.127L457.26 546.444L452.006 547.761L444.783 546.444L438.873 545.127C436.697 545.437 434.65 546.349 432.963 547.761L431.65 544.468C433.622 542.981 435.847 541.865 438.216 541.176L446.096 542.493L452.006 543.81H455.946C457.874 542.477 460.172 541.786 462.513 541.834L468.423 544.468L471.706 545.785C474.619 546.274 477.612 545.813 480.243 544.468H482.213C484.082 542.939 486.374 542.019 488.78 541.834C491.121 541.786 493.418 542.477 495.346 543.81H497.973C499.656 544.521 501.481 544.832 503.304 544.718C505.127 544.604 506.898 544.068 508.48 543.151L509.793 546.444C505.972 548.522 501.485 548.996 497.317 547.761L494.033 546.444L488.78 545.127C486.857 545.173 485.006 545.869 483.527 547.102H481.556L474.333 549.078" fill="#EF4932"/>
<path d="M432.306 566.858L430.337 563.566C433.64 560.802 437.861 559.391 442.156 559.615H444.783L447.41 560.932L452.663 559.615C454.524 558.665 456.516 557.999 458.573 557.639C461.317 557.677 464.015 558.353 466.454 559.615C468.602 560.971 471.19 561.442 473.677 560.932L478.273 559.615L484.183 557.639C486.525 557.59 488.822 558.282 490.75 559.615L494.033 560.932C498.083 561.615 502.244 560.92 505.854 558.956V562.907C501.777 564.886 497.197 565.575 492.72 564.883L488.78 562.907L483.527 561.59L478.93 562.907C476.96 563.566 475.647 564.883 473.677 564.883C470.483 565.178 467.276 564.488 464.483 562.907L457.917 561.59L453.32 562.907C451.086 564.026 448.58 564.483 446.096 564.224H440.843C437.56 563.566 434.933 565.541 431.65 567.517" fill="#EF4932"/>
<path d="M430.337 583.98H427.71L429.023 580.687C430.336 581.346 432.306 580.687 434.933 579.37C435.019 579.37 435.104 579.353 435.184 579.32C435.264 579.287 435.336 579.239 435.397 579.178C435.458 579.116 435.507 579.044 435.54 578.964C435.573 578.884 435.59 578.798 435.59 578.712L442.156 576.078C444.28 576.122 446.341 576.811 448.066 578.053H450.037C453.095 578.8 456.308 578.569 459.23 577.395H460.543L463.827 576.078C466.949 575.866 470.082 576.314 473.02 577.395C474.746 578.637 476.806 579.326 478.93 579.37L484.183 578.053C486.153 577.395 488.78 576.078 490.75 576.736L497.317 578.053L500.6 579.37C501.932 580.013 503.391 580.346 504.868 580.346C506.346 580.346 507.805 580.013 509.137 579.37L510.45 582.663C506.85 583.858 503.001 584.085 499.287 583.321L496.004 582.005C494.034 581.346 492.72 580.029 490.75 580.029L484.84 581.346L478.93 582.663L471.706 581.346C469.558 579.99 466.97 579.518 464.483 580.029L461.856 581.346C461.2 581.346 460.543 581.346 460.543 582.005C456.711 583.309 452.556 583.309 448.723 582.005H446.753L442.156 580.687L437.56 582.663H436.246C434.521 583.906 432.461 584.594 430.337 584.639" fill="#EF4932"/>
<path d="M444.127 602.419C441.797 602.389 439.522 601.704 437.56 600.444H436.246L433.62 599.127C431.496 599.171 429.436 599.86 427.71 601.102L426.396 597.809C427.513 596.972 428.786 596.366 430.139 596.027C431.492 595.688 432.898 595.622 434.277 595.834H438.873C442.48 597.142 446.43 597.142 450.037 595.834L452.006 594.517L457.26 592.541C460.384 592.287 463.525 592.737 466.454 593.858C468.932 594.941 471.639 595.394 474.333 595.175L478.273 593.858C478.973 593.194 479.799 592.677 480.701 592.338C481.603 591.999 482.564 591.844 483.527 591.883C486.304 591.587 489.095 592.287 491.407 593.858L497.317 595.834L501.913 594.517H503.227L511.763 593.2V597.151L503.883 598.468H502.57L497.317 599.785C494.709 599.611 492.204 598.698 490.094 597.151L483.527 595.175L479.587 597.151L474.99 598.468C471.864 599.056 468.633 598.593 465.796 597.151C463.262 596.291 460.558 596.065 457.917 596.492L453.977 597.809L451.35 599.127C449.146 600.383 446.662 601.062 444.127 601.102" fill="#EF4932"/>
<path d="M442.813 620.858L436.246 619.541H434.277C433.091 619.153 431.839 619.012 430.597 619.125C429.356 619.239 428.15 619.604 427.054 620.199L425.083 617.565C426.48 616.531 428.086 615.817 429.789 615.476C431.491 615.134 433.247 615.173 434.933 615.59L437.56 616.907C439.403 617.777 441.482 618.008 443.47 617.565L448.723 616.248L454.633 614.272L461.2 615.59L467.767 616.907L472.363 614.931L478.93 612.297C481.22 612.552 483.445 613.221 485.496 614.272C487.466 614.931 488.78 616.248 490.75 616.248L494.69 614.931L499.944 612.955L505.854 614.272C507.936 615.113 510.214 615.341 512.42 614.931L513.733 618.882C510.876 619.339 507.951 619.114 505.196 618.224L499.944 616.907L496.004 618.224L490.75 619.541L484.183 618.224C482.704 616.99 480.853 616.294 478.93 616.248C476.96 616.248 475.647 617.565 473.677 618.224L467.767 620.199C465.343 620.63 462.85 620.403 460.543 619.541L454.633 618.224L450.037 619.541C447.985 620.592 445.76 621.262 443.47 621.516H442.813" fill="#EF4932"/>
<path d="M432.306 316.615C432.306 344.274 453.977 366.664 473.02 366.664C492.064 366.664 501.913 344.274 501.913 316.615C501.913 288.957 486.154 266.567 467.11 266.567C448.067 266.567 432.306 288.957 432.306 316.615" fill="#FABA8E"/>
<path d="M421.8 317.933C421.8 325.176 426.396 331.762 432.306 331.762C438.216 331.762 442.813 325.176 442.813 317.933C442.813 310.689 438.216 304.103 432.306 304.103C426.396 304.103 421.8 310.03 421.8 317.933Z" fill="#FABA8E"/>
<path d="M432.306 308.713C428.366 308.713 425.74 312.664 425.74 317.933C425.74 323.201 428.366 327.152 432.306 327.152" fill="#F59770"/>
<path d="M486.81 342.298C492.72 340.981 487.466 352.835 477.616 352.835C467.766 352.835 459.886 342.298 465.796 342.298C472.766 343.289 479.84 343.289 486.81 342.298" fill="white"/>
<path d="M495.346 305.42L497.973 307.396C498.372 307.963 498.638 308.612 498.752 309.296C498.866 309.98 498.823 310.681 498.629 311.347L496.003 310.03C494.489 308.924 492.605 308.452 490.75 308.713L485.496 310.03H483.526C480.243 309.371 486.153 306.079 486.81 306.079C489.502 304.909 492.507 304.677 495.346 305.42" fill="#83592F"/>
<path d="M455.946 306.079C459.943 304.432 464.426 304.432 468.423 306.079C469.776 306.572 470.929 307.498 471.706 308.713C471.706 308.713 472.363 309.372 471.706 309.372C471.05 309.372 471.05 310.03 470.393 310.03C467.227 308.95 463.881 308.503 460.543 308.713L452.006 311.347C450.037 312.006 450.037 310.689 450.693 309.372C452.012 307.698 453.868 306.534 455.946 306.079Z" fill="#83592F"/>
<path d="M488.123 333.737C488.165 334.245 488.4 334.717 488.78 335.054C488.78 336.372 486.81 337.03 486.154 337.03H480.244L478.273 335.054C477.617 333.737 478.273 333.079 478.93 331.762C479.378 329.55 479.149 327.255 478.273 325.176C477.523 322.829 477.082 320.394 476.96 317.933C476.96 317.274 476.96 315.298 478.273 315.957C479.587 316.616 479.587 318.591 479.587 319.25L488.123 332.42" fill="#F59770"/>
<path d="M448.723 319.25C454.639 318.01 460.784 318.466 466.454 320.567L470.393 322.542C471.197 323.455 471.661 324.618 471.706 325.835C471.561 326.554 471.248 327.227 470.791 327.8C470.334 328.373 469.747 328.828 469.08 329.128C465.365 330.918 461.363 332.033 457.26 332.42C454.297 332.461 451.368 331.783 448.723 330.445C446.053 328.557 444.18 325.74 443.47 322.542V321.225L446.096 319.25H448.723" fill="#F59770"/>
<path d="M485.496 321.225L488.123 319.908H499.287C500.6 319.908 501.913 320.567 501.256 321.884V333.079C497.872 333.115 494.517 332.443 491.406 331.103C490.024 330.396 488.827 329.372 487.914 328.113C487.001 326.854 486.398 325.396 486.154 323.859V321.884" fill="#F59770"/>
<path d="M462.513 317.932C462.658 318.651 462.972 319.325 463.429 319.898C463.886 320.47 464.472 320.925 465.14 321.225C466.453 321.225 467.767 320.567 467.767 319.25C468.081 318.939 468.283 318.53 468.338 318.091C468.394 317.652 468.3 317.206 468.073 316.826C467.846 316.446 467.497 316.154 467.084 315.997C466.672 315.839 466.218 315.825 465.796 315.957C465.112 315.9 464.427 316.061 463.838 316.415C463.249 316.769 462.785 317.3 462.513 317.932" fill="#402740"/>
<path d="M486.154 317.274C486.154 318.591 486.81 319.908 488.123 319.908C489.436 319.908 491.406 319.25 491.406 317.933C491.463 317.246 491.303 316.559 490.95 315.968C490.596 315.378 490.067 314.913 489.437 314.64C488.669 314.624 487.919 314.879 487.319 315.361C486.719 315.842 486.307 316.519 486.154 317.274" fill="#402740"/>
<path d="M445.439 303.445C443.295 307.667 441.537 312.075 440.187 316.615C440.049 318.222 439.603 319.788 438.873 321.225C438.516 321.981 437.961 322.626 437.267 323.09C436.573 323.554 435.766 323.82 434.933 323.859C432.963 323.201 431.65 320.567 430.993 317.933C430.336 315.298 429.023 307.396 427.71 302.128C426.52 297.806 425.643 293.405 425.083 288.957C424.825 286.466 425.28 283.953 426.396 281.713C427.136 280.31 428.28 279.162 429.679 278.42C438.964 271.201 450.146 266.853 461.856 265.908C465.14 265.25 461.2 270.518 460.543 272.494C459.058 276.133 457.302 279.655 455.289 283.03L445.439 303.445" fill="#83592F"/>
<path d="M414.577 291.591C409.323 275.128 423.113 256.03 444.783 250.104C466.453 244.177 488.124 252.079 492.72 269.201L496.66 282.372L420.487 306.737L414.577 291.591Z" fill="#EF4932"/>
<path d="M436.903 290.274C455.947 282.372 476.303 274.469 495.346 273.811L498.629 275.128C499.286 275.128 499.287 275.787 499.287 276.445L505.196 294.225C505.533 295.965 505.533 297.754 505.196 299.494C504.54 300.811 502.57 302.786 501.256 302.786H499.287C494.792 301.569 490.086 301.344 485.496 302.128C478.273 303.445 470.393 304.104 463.17 306.079L449.379 310.689L421.143 321.225H418.516C417.203 320.567 417.86 317.933 417.86 316.615C417.86 315.298 414.576 307.396 415.889 303.445C417.203 299.494 430.993 292.908 436.903 290.933" fill="#EF4932"/>
<path d="M430.337 310.689H429.68C429.004 310.013 428.526 309.165 428.294 308.237C428.063 307.309 428.088 306.335 428.367 305.421V304.103C429.023 303.445 428.367 302.786 427.71 302.128C426.707 301.28 426.014 300.122 425.74 298.835C425.083 297.518 425.74 296.86 425.74 296.201L430.337 294.225C429.024 295.542 428.366 296.86 429.023 298.177C429.68 299.494 429.68 298.835 430.337 299.494C431.378 300.835 432.056 302.422 432.306 304.103C432.306 305.42 431.65 306.079 431.65 306.737C431.476 306.737 431.309 306.807 431.186 306.93C431.063 307.054 430.993 307.221 430.993 307.396H431.65L432.963 308.713C434.276 310.03 433.62 312.006 433.62 313.323C433.62 314.64 432.963 313.981 432.963 314.64L434.277 316.615L430.337 317.933C430.053 316.849 429.833 315.75 429.68 314.64V312.006" fill="#F27A67"/>
<path d="M423.77 315.957C423.77 315.299 424.427 314.64 423.77 313.981L422.456 312.006C422.254 310.865 422.489 309.689 423.113 308.713V308.713C423.113 308.055 422.456 308.055 422.456 307.396L420.487 306.079C420.059 304.897 419.896 303.636 420.01 302.384C420.123 301.132 420.51 299.92 421.143 298.835C421.143 298.177 421.8 298.177 421.8 297.518L425.083 296.201C422.456 300.811 423.113 302.786 423.77 303.445V304.762C424.427 305.421 425.739 306.079 425.739 307.396C425.739 308.713 425.739 309.372 425.739 310.689C426.396 311.347 426.396 311.347 426.396 312.006C426.923 313.252 427.149 314.607 427.053 315.957H426.396L423.77 317.274C423.146 316.298 422.911 315.123 423.113 313.981" fill="#F27A67"/>
<path d="M498.63 300.81L497.317 299.494L496.004 296.859C495.531 295.828 495.305 294.701 495.346 293.567C495.346 292.249 495.346 291.591 494.69 291.591C494.033 291.591 494.033 290.274 493.377 289.616L491.406 287.64C490.304 286.121 489.833 284.232 490.093 282.372C490.093 279.737 489.437 279.737 489.437 279.079C488.231 277.158 486.36 275.751 484.183 275.128H490.093C491.305 275.907 492.228 277.064 492.72 278.42C493.248 279.667 493.473 281.021 493.377 282.372C493.377 284.347 494.033 285.006 494.033 286.323L496.004 287.64L498.63 290.274V293.567C498.63 294.884 498.63 295.542 499.287 295.542C499.944 295.542 499.943 296.859 499.943 297.518C500.753 297.939 501.392 298.628 501.751 299.469C502.11 300.31 502.167 301.249 501.913 302.128C501.913 302.786 501.913 303.445 501.256 303.445H498.63" fill="#F27A67"/>
<path d="M482.213 300.811C481.378 299.417 480.925 297.827 480.9 296.201C480.87 295.844 480.912 295.485 481.025 295.145C481.138 294.806 481.319 294.493 481.556 294.225V294.225C481.556 293.567 481.557 292.908 480.243 291.591H479.587L476.96 288.299C476.433 287.052 476.208 285.698 476.304 284.347V283.03C476.304 281.713 474.99 280.396 473.02 279.079L477.617 277.762C478.756 278.775 479.463 280.191 479.587 281.713C480.032 282.519 480.258 283.427 480.243 284.347V286.981L482.213 288.957H482.87C483.686 289.571 484.348 290.366 484.804 291.28C485.26 292.195 485.496 293.203 485.496 294.225C485.496 294.884 484.84 295.543 484.84 296.201V297.518C484.183 297.518 484.84 298.177 485.496 299.494H486.154V301.469H483.527C483.353 301.469 483.186 301.4 483.063 301.276C482.94 301.153 482.87 300.985 482.87 300.811H482.213" fill="#F27A67"/>
<path d="M469.08 300.811V298.176C469.08 298.176 469.08 297.518 467.767 296.201H467.11C466.453 294.884 465.14 294.225 464.483 292.25C464.01 291.219 463.786 290.091 463.827 288.957V286.323H463.17L461.857 285.006C461.052 284.093 460.589 282.93 460.544 281.713L464.483 280.396V283.03H465.14L466.454 284.347C467.453 285.664 467.922 287.31 467.767 288.957V290.933C467.767 291.811 468.424 292.469 469.737 292.908C470.665 293.283 471.467 293.916 472.049 294.733C472.63 295.55 472.968 296.516 473.02 297.518C472.88 298.414 472.66 299.295 472.363 300.152V302.786H468.423C467.766 302.128 467.767 300.152 467.767 299.494" fill="#F27A67"/>
<path d="M454.633 305.42C454.633 305.42 455.29 304.762 454.633 304.762C454.664 304.405 454.621 304.046 454.508 303.706C454.395 303.367 454.214 303.054 453.977 302.786C453.298 302.051 452.842 301.137 452.663 300.152C452.298 298.86 452.298 297.493 452.663 296.201V293.567C452.663 292.908 452.007 292.908 451.35 292.25C450.693 291.591 450.694 291.591 450.694 290.933C450.031 290.231 449.516 289.403 449.178 288.498C448.839 287.593 448.685 286.63 448.723 285.664L453.32 283.689C452.664 286.323 452.664 288.299 453.32 288.957H453.977L455.946 291.591C456.253 292.321 456.412 293.104 456.412 293.896C456.412 294.688 456.253 295.472 455.946 296.201V300.152C456.949 301 457.643 302.158 457.917 303.445V305.42L454.633 306.737C454.111 305.965 453.879 305.032 453.977 304.103" fill="#F27A67"/>
<path d="M440.843 308.054C440.843 307.88 440.913 307.712 441.036 307.589C441.159 307.465 441.326 307.396 441.5 307.396V306.079C440.694 305.613 440.026 304.94 439.565 304.13C439.103 303.32 438.865 302.402 438.873 301.469C438.873 300.811 439.53 299.494 439.53 298.835C439.53 298.66 439.46 298.493 439.337 298.369C439.214 298.246 439.047 298.176 438.873 298.176C438.306 297.31 437.952 296.322 437.837 295.292C437.723 294.262 437.853 293.22 438.217 292.25L442.156 290.274C441.682 290.66 441.357 291.201 441.237 291.802C441.117 292.403 441.21 293.027 441.5 293.567C441.5 294.884 441.5 295.542 442.156 295.542L443.47 297.518C443.664 298.184 443.706 298.885 443.592 299.569C443.478 300.253 443.212 300.902 442.813 301.469H442.156C442.156 302.128 443.47 302.786 443.47 303.445C443.47 304.103 446.096 306.737 445.44 308.713C444.783 310.689 445.44 310.03 444.783 310.03L446.096 311.347L442.156 313.323C441.592 312.581 441.234 311.703 441.118 310.778C441.003 309.852 441.134 308.912 441.5 308.054" fill="#F27A67"/>
<path d="M465.14 393.664C465.14 393.664 459.23 789.443 380.429 859.906C380.429 859.906 353.506 840.809 276.676 823.028C276.676 823.028 355.476 643.248 352.85 551.054C352.85 551.054 362.043 404.201 413.263 402.883L465.14 393.664Z" fill="#F9AA44"/>
<path d="M492.72 396.957C492.72 396.957 495.347 792.077 529.494 863.199C529.494 863.199 541.313 843.443 574.147 826.321C574.147 826.321 540 645.882 541.313 554.346C541.313 554.346 526.866 410.127 501.913 400.908L492.72 396.957Z" fill="#F9AA44"/>
<path d="M377.803 416.054C343 438.444 312.793 465.444 291.779 507.59C275.363 539.858 269.453 593.2 290.466 628.761C300.801 646.352 314.664 661.601 331.179 673.541C334.01 676.04 337.383 677.843 341.029 678.809C344.199 678.562 347.288 677.677 350.108 676.206C352.929 674.735 355.424 672.709 357.446 670.248C364.469 664.753 369.536 657.131 371.893 648.517C372.508 642.3 371.837 636.023 369.923 630.078C365.983 612.956 362.043 595.175 356.79 578.053C355.549 574.449 354.885 570.671 354.82 566.858C355.044 564.455 355.955 562.168 357.446 560.273C373.206 528.663 382.399 504.956 400.13 471.371C406.696 458.859 429.68 414.737 442.813 402.883C420.269 399.319 397.199 403.993 377.803 416.054" fill="#FCB737"/>
<path d="M394.877 406.176L413.92 379.176C413.92 379.176 444.783 396.298 465.14 394.322C465.14 394.322 444.784 414.737 447.41 425.273L394.877 406.176Z" fill="#F9AA44"/>
<path d="M394.877 406.176L448.067 423.298L445.44 424.615C447.368 413.624 452.644 403.501 460.544 395.64L461.857 394.323H462.513C462.513 393.664 463.17 393.664 464.483 393.664C465.797 393.664 467.11 394.323 467.767 395.64V396.957V423.298L466.454 454.908L463.827 487.176L452.663 614.931C450.693 636.663 448.067 657.736 444.783 678.809C441.7 700.081 437.536 721.182 432.306 742.028C427.48 763.029 421.34 783.704 413.92 803.931C406.582 824.152 395.684 842.888 381.743 859.248H381.087C387.557 850.662 393.063 841.386 397.503 831.589C402.117 822.221 406.066 812.538 409.323 802.614C416.313 782.362 422.015 761.687 426.396 740.712C435.59 699.224 442.157 657.078 448.067 614.931C454.5 572.601 458.665 529.954 460.544 487.176V454.908L461.857 422.64V395.64L463.827 396.957H464.483L463.17 398.274C455.875 405.437 450.849 414.6 448.723 424.615V426.591H446.754L394.877 406.835V406.176Z" fill="white"/>
<path d="M528.837 862.54C521.591 842.468 516.313 821.736 513.077 800.638C509.793 779.565 506.51 758.492 505.196 737.419C503.883 716.346 502.57 695.272 501.256 674.199L497.317 610.98C494.033 568.175 492.063 526.029 490.75 483.883C490.093 462.81 490.093 441.737 490.093 420.005V396.298C490.093 395.639 490.093 394.322 490.75 394.322C491.036 393.732 491.53 393.27 492.138 393.027C492.745 392.783 493.421 392.776 494.033 393.005C494.442 393.055 494.833 393.2 495.175 393.429C495.517 393.658 495.801 393.964 496.004 394.322H496.66C497.317 395.64 497.316 396.957 497.973 398.274C501.475 408.654 503.034 419.594 502.57 430.542L501.256 429.225C504.906 428.645 508.319 427.048 511.106 424.615C513.958 422.319 515.836 419.025 516.36 415.395H517.017C516.876 417.318 516.336 419.19 515.431 420.892C514.526 422.593 513.277 424.085 511.763 425.273C509.103 428.011 505.661 429.852 501.913 430.542H500.6V428.566C500.313 418.146 498.085 407.873 494.033 398.274C493.229 397.361 492.765 396.198 492.72 394.981H492.063C491.406 394.981 492.064 395.639 492.72 395.639C493.377 395.639 494.033 395.639 494.69 395.639V394.322V418.03L496.66 481.907L499.287 608.346C499.944 630.078 500.6 651.151 502.57 672.224C504.54 693.297 507.167 714.37 509.137 734.784C511.107 755.199 513.733 776.931 517.017 798.004C519.307 818.92 523.26 839.62 528.837 859.906V862.54Z" fill="white"/>
<path d="M549.193 594.517C549.37 605.624 547.129 616.636 542.627 626.785C538.03 639.297 534.747 645.883 542.627 656.419C550.507 666.956 555.104 670.907 564.954 670.907C569.483 670.677 573.834 669.069 577.43 666.297C591.22 656.419 599.757 641.931 608.293 628.102C616.83 614.273 624.71 602.419 625.367 586.614C625.78 582.771 625.097 578.889 623.396 575.419" fill="#FCB737"/>
</g>
<rect x="260" y="208" width="421" height="421" rx="210.5" stroke="white" stroke-width="10"/>
<g clip-path="url(#clip1_543_2)">
<rect x="56" y="10" width="342" height="343" rx="171" fill="#9AB6DF"/>
<path fill-rule="evenodd" clip-rule="evenodd" d="M259.339 80.0398C261.371 85.3267 263.904 90.4061 266.902 95.2084C267.483 96.9586 257.013 102.209 255.849 98.1254C256.06 93.9538 256.844 89.8312 258.176 85.8739" fill="#F59770"/>
<path fill-rule="evenodd" clip-rule="evenodd" d="M238.98 54.3699C202.914 49.7027 207.568 122.045 233.745 126.712C271.556 134.297 268.065 58.4538 238.98 54.3699Z" fill="#FABA8E"/>
<path fill-rule="evenodd" clip-rule="evenodd" d="M240.143 111.544C241.888 123.795 241.888 137.214 244.796 149.465C246.386 155.792 248.328 162.025 250.613 168.134C250.613 168.718 251.777 170.468 251.196 170.468C245.244 171.532 239.17 171.728 233.162 171.051C230.835 171.051 216.874 173.385 215.711 172.218C214.548 171.051 216.875 154.132 216.875 151.799C219.683 134.055 220.463 116.047 219.202 98.1255" fill="#FABA8E"/>
<path d="M271.555 328.571C276.791 325.654 278.535 317.487 278.535 310.486C278.383 299.551 275.799 288.788 270.973 278.982C274.997 270.623 275.825 261.075 273.3 252.145C271.137 242.819 267.815 233.803 263.411 225.308C268.647 204.889 266.319 183.303 256.43 169.885C250.53 162.65 242.304 157.699 233.162 155.883C228.433 154.144 223.386 153.452 218.365 153.855C213.345 154.258 208.47 155.746 204.077 158.216C195.992 165.133 189.451 173.681 184.881 183.303C172.958 205.441 163.216 228.693 155.796 252.728C151.288 264.011 149.688 276.25 151.142 288.316C151.902 290.567 152.101 292.971 151.723 295.317C151.097 296.894 150.099 298.295 148.815 299.401C143.738 307.256 140.342 316.081 138.84 325.32C137.338 334.558 137.763 344.009 140.089 353.074C140.948 355.73 141.533 358.467 141.835 361.242C141.782 363.429 141.39 365.594 140.672 367.659C138.717 376.463 137.935 385.487 138.345 394.496C138.467 399.869 139.449 405.188 141.253 410.248C144.472 419.569 151.135 427.296 159.867 431.834C167.454 435.581 175.848 437.385 184.299 437.085C206.285 438.517 228.318 435.132 248.869 427.167C262.248 421.916 275.627 413.749 282.026 397.997C288.424 382.245 283.771 348.407 271.555 328.571" fill="#C0B2BB"/>
<path d="M197.097 230.559C186.956 229.969 176.857 228.8 166.849 227.058V224.725C175.678 226.501 184.618 227.671 193.607 228.225C202.303 229.123 211.043 229.513 219.784 229.392C233.825 228.679 247.811 227.121 261.666 224.725C261.084 224.725 261.085 225.308 261.085 225.892H261.666C248.095 228.864 234.255 230.428 220.365 230.559C212.414 231.08 204.432 230.885 196.515 229.975" fill="white"/>
<path d="M144.743 287.733V286.566C144.954 286.329 145.114 286.052 145.214 285.751C145.314 285.45 145.352 285.132 145.325 284.816C164.597 289.164 184.329 291.123 204.077 290.65C226.538 289.999 248.824 286.47 270.392 280.148C270.355 280.598 270.147 281.016 269.81 281.315V282.482C248.399 288.533 226.315 291.865 204.077 292.4C184.191 292.925 164.305 291.361 144.743 287.733" fill="white"/>
<path d="M152.306 333.822V332.072C171.439 336.057 190.936 338.012 210.477 337.906L233.745 336.156C246.369 334.835 258.836 332.295 270.973 328.571C270.973 329.155 271.556 329.738 271.556 330.321C259.352 333.649 246.903 335.99 234.326 337.322C222.692 339.073 213.967 339.073 211.058 339.656C191.325 339.769 171.634 337.814 152.306 333.822" fill="white"/>
<path d="M223.855 402.08L211.058 381.078H212.803C222.79 377.48 232.35 372.784 241.306 367.076C248.76 362.489 255.77 357.215 262.248 351.324L263.412 350.157L275.627 366.492V367.659C268.825 374.527 261.427 380.774 253.522 386.328C244.809 392.575 235.448 397.856 225.601 402.08H223.855ZM215.13 382.828L225.019 398.58C234.116 394.42 242.869 389.543 251.196 383.995C258.698 378.602 265.706 372.55 272.137 365.909L263.412 353.657C257.071 359.547 250.039 364.641 242.47 368.826C233.789 374.298 224.639 378.983 215.13 382.828" fill="white"/>
<path d="M232 127.879L206.986 133.713L188.953 138.381C185.979 139.144 183.202 140.536 180.809 142.465C179.078 144.769 177.869 147.424 177.266 150.246C176.663 153.067 176.681 155.986 177.319 158.8C177.292 159.116 177.331 159.434 177.431 159.735C177.531 160.036 177.69 160.313 177.901 160.55H180.228C206.035 162.306 231.479 167.607 255.849 176.302C256.35 176.657 256.924 176.893 257.528 176.994C258.132 177.095 258.751 177.058 259.339 176.886C260.015 176.655 260.629 176.273 261.133 175.767C261.637 175.261 262.018 174.646 262.248 173.969C270.392 162.884 275.046 144.215 269.81 130.796C264.575 117.378 241.307 124.962 232 127.296" fill="#2464AF"/>
<path d="M219.784 146.548C217.586 146.718 215.382 146.316 213.385 145.381C212.049 144.748 210.91 143.761 210.09 142.528C209.27 141.295 208.8 139.861 208.731 138.38C208.827 137.132 209.256 135.931 209.972 134.905C210.689 133.879 211.666 133.065 212.803 132.546C214.808 131.636 217.006 131.235 219.202 131.379V136.047H215.13C213.966 136.63 213.385 137.214 213.385 138.38C213.446 138.889 213.639 139.372 213.945 139.782C214.252 140.191 214.66 140.513 215.13 140.714H220.365V145.381H219.784" fill="white"/>
<path d="M202.333 144.214C200.076 144.266 197.852 143.658 195.934 142.464C195.352 142.464 194.189 141.881 194.189 140.131C193.963 139.352 194.014 138.52 194.332 137.775C194.65 137.031 195.217 136.42 195.934 136.047L200.006 134.88V139.547H202.914L204.077 144.214H201.751" fill="white"/>
<path d="M258.758 175.719C257.632 175.164 256.629 174.386 255.811 173.433C254.992 172.48 254.375 171.37 253.994 170.171C253.614 168.973 253.479 167.709 253.598 166.457C253.717 165.204 254.087 163.989 254.686 162.883C255.861 160.755 257.671 159.049 259.861 158.002C262.052 156.956 264.513 156.623 266.902 157.049L265.739 161.717C264.281 161.564 262.808 161.808 261.477 162.424C260.146 163.04 259.006 164.005 258.176 165.217C257.867 165.853 257.707 166.552 257.707 167.259C257.707 167.967 257.867 168.665 258.176 169.301C258.176 169.531 258.221 169.758 258.309 169.971C258.397 170.183 258.525 170.376 258.687 170.539C258.849 170.701 259.042 170.83 259.253 170.918C259.465 171.006 259.692 171.051 259.922 171.051L258.758 175.719Z" fill="white"/>
<path d="M247.124 171.051L241.888 168.718C240.829 167.933 240.038 166.839 239.622 165.586C239.205 164.333 239.185 162.982 239.562 161.717C239.998 160.515 240.815 159.49 241.888 158.8C245.024 155.813 248.546 153.262 252.359 151.215L254.105 155.883C250.545 157.263 247.357 159.461 244.797 162.3V163.467C244.215 163.467 244.797 164.634 245.379 164.634L248.869 166.384L247.124 171.051Z" fill="white"/>
<path d="M234.908 169.884C233.126 169.378 231.475 168.49 230.069 167.281C228.663 166.072 227.535 164.572 226.764 162.884C225.817 161.895 225.154 160.668 224.847 159.333C224.54 157.998 224.599 156.604 225.019 155.299C225.601 152.382 229.091 150.632 230.836 149.465L234.908 147.715L236.653 152.382L233.162 154.132C231.417 154.716 229.672 155.299 229.091 156.466C229.005 157.92 229.415 159.361 230.254 160.55C230.82 161.71 231.635 162.731 232.641 163.537C233.647 164.344 234.818 164.918 236.071 165.217L234.908 169.884Z" fill="white"/>
<path d="M220.947 167.551L214.548 162.884C213.732 162.253 213.054 161.462 212.553 160.559C212.053 159.657 211.742 158.661 211.64 157.633C211.615 156.866 211.758 156.102 212.06 155.397C212.361 154.691 212.814 154.061 213.385 153.549L218.038 148.882L220.947 152.382C219.31 153.431 217.921 154.825 216.875 156.466V157.633C216.875 157.633 216.875 158.216 218.038 159.383L223.855 163.467L220.947 167.551Z" fill="white"/>
<path d="M206.986 162.3C204.79 162.445 202.592 162.044 200.587 161.133C199.175 160.334 198.032 159.129 197.307 157.674C196.581 156.218 196.306 154.579 196.516 152.966L198.843 150.049C200.704 147.99 202.86 146.22 205.241 144.798L207.568 149.465C205.45 149.938 203.583 151.187 202.333 152.966L201.169 154.132C201.119 154.741 201.261 155.349 201.574 155.873C201.887 156.396 202.356 156.807 202.914 157.05H208.15V161.717H206.986" fill="white"/>
<path d="M194.77 160.55C192.153 160.524 189.573 159.927 187.208 158.8C185.876 158.328 184.718 157.462 183.887 156.316C183.056 155.17 182.592 153.799 182.554 152.382C182.78 151.633 183.154 150.937 183.654 150.336C184.153 149.734 184.769 149.24 185.463 148.882L189.535 144.798L193.025 148.298L188.371 152.382L187.208 153.549L188.953 154.716L195.352 155.883L194.77 160.55Z" fill="white"/>
<path d="M266.32 152.382C263.377 151.342 260.765 149.529 258.758 147.132C258.205 146.267 257.998 145.226 258.176 144.215C257.595 143.048 258.758 141.881 258.758 141.298L265.739 133.13L269.229 136.63C266.792 138.884 264.643 141.431 262.83 144.215V144.215C264.016 146.174 265.879 147.628 268.065 148.298L266.32 152.382Z" fill="white"/>
<path d="M251.777 148.298C250.326 148.393 248.874 148.123 247.553 147.512C246.232 146.9 245.085 145.967 244.215 144.798C243.211 143.311 242.724 141.533 242.829 139.74C242.935 137.947 243.626 136.239 244.796 134.88C246.352 132.522 248.583 130.692 251.196 129.629L253.522 133.713C251.54 134.738 249.766 136.123 248.287 137.797C247.511 139.223 247.303 140.891 247.705 142.464C248.53 143.075 249.479 143.497 250.484 143.698C251.49 143.9 252.526 143.877 253.522 143.631V148.298H251.196" fill="white"/>
<path d="M234.327 146.548H229.673C228.983 146.476 228.316 146.267 227.708 145.933C227.1 145.6 226.564 145.149 226.131 144.606C225.698 144.064 225.376 143.44 225.186 142.772C224.995 142.104 224.939 141.404 225.019 140.714C224.995 140.031 225.141 139.352 225.446 138.741C225.751 138.129 226.204 137.604 226.764 137.214C228.874 134.631 231.437 132.456 234.327 130.796L236.654 134.88L229.673 140.714H229.091L230.837 141.881H232.581L236.071 143.048L234.327 146.548Z" fill="white"/>
<path d="M238.98 203.139C227.346 227.058 204.077 236.393 189.535 231.726C184.018 230.029 179.236 226.512 175.963 221.747C172.689 216.981 171.117 211.246 171.502 205.472C172.257 195.854 175.427 186.584 180.716 178.526C186.005 170.467 193.241 163.882 201.751 159.383C233.745 143.631 257.013 167.551 238.98 203.139" fill="white"/>
<path fill-rule="evenodd" clip-rule="evenodd" d="M232.581 28.1168C225.752 29.9628 219.532 33.5854 214.548 38.618C210.997 36.0462 206.808 34.5052 202.44 34.1638C198.073 33.8224 193.696 34.6939 189.79 36.6827C185.884 38.6716 182.599 41.7008 180.297 45.4383C177.994 49.1758 176.763 53.4771 176.737 57.8704C176.713 62.2043 177.924 66.4548 180.227 70.122C174.573 70.8362 169.377 73.6068 165.624 77.9083C161.872 82.2097 159.823 87.7428 159.868 93.4582C160.118 100.323 163.042 106.816 168.012 111.544C164.69 114.318 162.028 117.799 160.216 121.735C158.405 125.671 157.491 129.962 157.541 134.297C157.703 141.243 160.285 147.914 164.838 153.152C169.39 158.389 175.627 161.864 182.466 162.972C189.306 164.081 196.317 162.754 202.283 159.221C208.249 155.688 212.794 150.173 215.13 143.631C215.711 143.631 215.712 143.048 216.293 142.464C217.397 138.036 218.957 133.735 220.947 129.63C220.667 130.977 220.473 132.341 220.365 133.713C220.27 135.676 220.466 137.642 220.947 139.547C222.283 141.762 224.387 143.404 226.857 144.158C229.326 144.912 231.986 144.724 234.326 143.631C238.98 141.881 246.542 131.963 240.143 115.044C233.745 98.1256 218.039 89.9578 222.111 84.7071C226.182 79.4565 229.091 86.4575 231.999 86.4575C234.908 86.4575 236.653 80.04 237.235 77.1229C237.816 74.2059 237.234 65.4547 244.797 64.2879C252.359 63.1211 248.869 72.4556 255.849 72.4556C257.194 72.6172 258.559 72.5 259.857 72.111C261.155 71.7221 262.36 71.0697 263.396 70.1944C264.432 69.3192 265.278 68.2397 265.881 67.023C266.484 65.8062 266.832 64.4782 266.902 63.1212C266.492 60.6809 265.707 58.3191 264.575 56.1202H263.993C263.993 55.5368 264.575 56.1202 264.575 56.1202L272.137 60.7874C273.632 61.1248 275.181 61.1466 276.685 60.8513C278.189 60.5561 279.616 59.9504 280.874 59.0725C282.132 58.1947 283.195 57.064 283.994 55.7522C284.793 54.4405 285.311 52.9765 285.516 51.453C286.679 27.5334 248.287 24.0329 232.581 28.1168" fill="#9D6F11"/>
<path d="M253.522 87.6243H244.797C243.449 87.2001 242.005 87.1962 240.655 87.6129C239.304 88.0295 238.112 88.8471 237.235 89.9578C236.874 90.2296 236.58 90.5819 236.378 90.9869C236.177 91.392 236.071 91.8388 236.071 92.2916C235.947 92.4011 235.848 92.5356 235.781 92.6865C235.713 92.8374 235.678 93.0012 235.678 93.1667C235.678 93.3322 235.713 93.4958 235.781 93.6467C235.848 93.7976 235.947 93.9323 236.071 94.0418C236.525 95.5998 237.432 96.9869 238.675 98.026C239.918 99.0651 241.442 99.7091 243.052 99.8759C246.547 99.7973 249.959 98.7907 252.941 96.9588C254.553 96.406 255.969 95.392 257.013 94.0418C259.34 91.1247 257.012 88.2077 253.522 88.2077" fill="#F59770"/>
<path d="M245.379 75.3725C245.961 75.9559 247.705 73.6223 250.032 73.6223C252.359 73.6223 255.849 75.3726 255.849 74.7892C255.849 74.2058 253.522 69.5385 250.032 70.1219C246.542 70.7053 245.379 75.3725 245.379 75.3725" fill="#83592F"/>
<path d="M255.268 80.6233C255.849 82.3735 255.268 84.1236 254.105 84.1236C252.941 84.1236 251.196 83.5402 251.196 81.2065C250.917 80.4921 250.879 79.7054 251.089 78.9675C251.3 78.2296 251.746 77.5815 252.359 77.1228C253.181 77.262 253.925 77.6913 254.459 78.3333C254.992 78.9753 255.279 79.7877 255.268 80.6233" fill="#402740"/>
<path d="M258.758 110.96L251.778 109.21C249.408 108.263 247.238 106.878 245.379 105.126L246.542 103.96L252.941 107.46C254.945 108.371 257.143 108.772 259.339 108.627C259.339 109.794 258.758 110.377 258.758 110.96Z" fill="#CB6D3F"/>
<path fill-rule="evenodd" clip-rule="evenodd" d="M247.124 91.1246C247.124 105.71 236.653 117.961 223.855 117.961C211.058 117.961 200.587 105.71 200.587 91.1246C200.587 84.9354 203.039 78.9997 207.403 74.6233C211.766 70.2469 217.684 67.7883 223.855 67.7883C230.027 67.7883 235.945 70.2469 240.309 74.6233C244.673 78.9997 247.124 84.9354 247.124 91.1246Z" fill="#3056A5"/>
<path fill-rule="evenodd" clip-rule="evenodd" d="M233.163 70.1219H211.058V35.1175L224.437 32.2004L233.163 70.1219Z" fill="#3056A5"/>
<path fill-rule="evenodd" clip-rule="evenodd" d="M241.306 89.9578C241.306 93.6713 239.836 97.2328 237.218 99.8587C234.6 102.485 231.048 103.96 227.345 103.96C223.643 103.96 220.092 102.485 217.474 99.8587C214.856 97.2328 213.385 93.6713 213.385 89.9578C213.385 86.2443 214.856 82.6829 217.474 80.0571C220.092 77.4312 223.643 75.9561 227.345 75.9561C231.048 75.9561 234.6 77.4312 237.218 80.0571C239.836 82.6829 241.306 86.2443 241.306 89.9578" fill="#C0B2BB"/>
<path d="M188.372 142.464C188.372 144.94 187.391 147.314 185.645 149.065C183.9 150.815 181.533 151.799 179.064 151.799C176.596 151.799 174.229 150.815 172.483 149.065C170.738 147.314 169.757 144.94 169.757 142.464" stroke="#83592F" stroke-width="0.5" stroke-miterlimit="10"/>
<path d="M216.294 124.379C216.294 126.855 215.313 129.229 213.568 130.979C211.822 132.73 209.454 133.713 206.986 133.713C204.619 133.565 202.399 132.516 200.777 130.781C199.156 129.047 198.256 126.757 198.26 124.379" stroke="#83592F" stroke-width="0.5" stroke-miterlimit="10"/>
<path d="M192.443 119.712C191.542 121.965 189.891 123.836 187.77 125.006C185.649 126.176 183.189 126.573 180.809 126.129C178.489 125.327 176.549 123.689 175.367 121.532C174.184 119.376 173.843 116.855 174.41 114.461" stroke="#83592F" stroke-width="0.5" stroke-miterlimit="10"/>
<path d="M186.626 97.5421C186.371 98.782 185.852 99.9517 185.102 100.97C184.353 101.989 183.391 102.833 182.285 103.443C181.179 104.053 179.955 104.415 178.696 104.504C177.437 104.593 176.173 104.408 174.992 103.96C172.717 103.279 170.788 101.752 169.598 99.6914C168.409 97.6309 168.049 95.1923 168.593 92.8748" stroke="#83592F" stroke-width="0.5" stroke-miterlimit="10"/>
<path d="M202.332 60.2042C202.078 61.4441 201.557 62.6136 200.808 63.6324C200.058 64.6511 199.098 65.4947 197.992 66.1048C196.886 66.7149 195.661 67.0771 194.401 67.1663C193.142 67.2555 191.879 67.0696 190.698 66.6215C188.378 65.8195 186.439 64.1811 185.256 62.0246C184.074 59.8682 183.733 57.3478 184.3 54.9534" stroke="#83592F" stroke-width="0.5" stroke-miterlimit="10"/>
<path d="M198.842 397.413C198.842 397.413 152.887 322.154 148.233 283.649C143.58 245.144 180.809 162.884 206.404 159.967C231.999 157.05 242.47 168.718 229.091 200.222C215.711 231.726 188.371 260.896 195.351 285.983C202.332 311.069 234.908 359.492 239.562 375.827C244.215 392.163 198.842 397.413 198.842 397.413" fill="#2464AF"/>
</g>
<rect x="51" y="5" width="352" height="353" rx="176" stroke="white" stroke-width="10"/>
<path d="M183.46 162.696C170.408 169.003 158.264 177.034 147.35 186.575C140.944 191.816 135.12 197.641 129.296 203.465C106.582 226.761 87.3621 253.552 62.3185 275.101C48.4491 287.425 32.9708 297.809 16.3078 305.969H14.5603L6.40709 310.628L0 314.705L1.74752 317.617C5.40275 314.76 9.30026 312.226 13.3957 310.046V311.211L1.74752 319.365L4.07731 321.694C7.19426 318.843 10.7293 316.486 14.5603 314.705V315.87C10.3252 318.046 6.40644 320.789 2.91206 324.024L5.24185 326.353C8.22565 323.189 11.7834 320.62 15.7255 318.782C15.7255 319.364 16.3078 319.947 16.3078 321.112C12.6242 323.328 9.28823 326.075 6.40709 329.265L8.73617 331.013C11.3845 328.371 14.314 326.028 17.4723 324.024C17.8093 324.322 18.0185 324.74 18.0553 325.189L8.1539 333.342L9.90142 335.672L19.2199 328.101L20.3844 329.848L11.066 338.584L12.8135 340.331L21.5497 332.76C22.1321 333.342 22.1318 334.507 22.7142 335.09L18.6376 339.166L14.5603 343.826L16.8901 345.573L20.9674 341.496L24.4617 336.837C71.7057 298.327 115.192 255.424 154.339 208.706C172.976 186.575 191.032 165.025 218.987 154.542C208.504 149.3 192.778 156.872 182.877 161.531" fill="#3056A5"/>
<path d="M43.0986 311.211C40.1865 310.046 37.8567 307.717 37.8567 305.387C37.6779 304.378 37.8864 303.338 38.4397 302.475C39.0916 299.383 40.2737 296.427 41.934 293.739L46.0106 296.068C44.5023 298.419 43.3264 300.967 42.5163 303.64V304.805C42.5163 305.387 43.6811 306.552 45.4284 307.134C48.4569 307.732 51.5991 307.104 54.1645 305.387L57.0766 309.464C55.1603 310.582 53.0422 311.312 50.8437 311.612C48.6452 311.912 46.4096 311.776 44.2638 311.211H43.0986Z" fill="white"/>
<path d="M193.943 164.443C193.789 164.443 193.641 164.382 193.531 164.273C193.422 164.163 193.361 164.015 193.361 163.861C192.272 163.246 191.439 162.263 191.012 161.088C190.585 159.913 190.592 158.624 191.031 157.454C191.658 155.88 192.657 154.481 193.943 153.377L197.437 156.29C196.273 157.454 195.691 158.037 195.691 159.202C195.691 160.366 195.691 159.784 195.691 159.784C195.691 159.784 195.69 160.366 196.855 160.366L201.515 158.619L203.844 162.696C201.889 163.807 199.686 164.408 197.437 164.443C196.906 164.75 196.304 164.911 195.691 164.911C195.077 164.911 194.474 164.75 193.943 164.443Z" fill="white"/>
<path d="M183.46 171.432C182.15 171.209 180.943 170.585 180.004 169.646C179.065 168.707 178.441 167.499 178.219 166.19C178.246 164.124 178.85 162.106 179.965 160.366L184.043 162.696L182.877 165.608C183.119 166.167 183.53 166.636 184.053 166.95C184.575 167.263 185.182 167.405 185.789 167.355C187.537 167.937 189.284 166.773 191.031 166.19L192.779 170.85C190.39 171.856 187.788 172.256 185.207 172.014H183.46" fill="white"/>
<path d="M169.482 183.08L166.57 181.333C165.846 180.448 165.316 179.42 165.015 178.316C164.714 177.212 164.648 176.057 164.823 174.926C165.142 173.102 165.731 171.336 166.57 169.685L170.647 172.014C169.997 173.075 169.599 174.271 169.482 175.509C169.482 176.674 169.482 177.839 170.065 177.839L171.812 179.003C173.709 179.049 175.563 178.431 177.053 177.256L180.548 180.168C179.289 181.467 177.715 182.417 175.981 182.927C174.246 183.437 172.408 183.49 170.647 183.08H169.482Z" fill="white"/>
<path d="M154.922 193.563L152.592 192.399C151.121 190.813 150.291 188.737 150.262 186.574C150.369 184.776 150.762 183.007 151.427 181.333L155.504 183.08C155.504 184.245 154.922 185.41 154.922 186.574C154.922 187.739 154.922 188.322 155.504 188.904H157.834C160.361 188.949 162.828 188.126 164.823 186.574L167.735 190.069C164.835 192.566 161.069 193.821 157.251 193.563H154.922Z" fill="white"/>
<path d="M144.439 206.959C144.284 206.959 144.136 206.898 144.027 206.789C143.918 206.68 143.856 206.531 143.856 206.377C142.654 206.051 141.573 205.381 140.746 204.45C139.918 203.519 139.38 202.367 139.197 201.135C138.255 199.347 137.851 197.324 138.032 195.311H142.691C142.632 196.885 142.829 198.459 143.274 199.97C143.857 201.135 144.438 202.3 145.603 202.3C146.016 202.631 146.53 202.811 147.059 202.811C147.589 202.811 148.102 202.631 148.515 202.3C150.592 202.343 152.629 201.732 154.339 200.553L156.669 204.047C154.55 205.851 151.88 206.878 149.098 206.959H144.439Z" fill="white"/>
<path d="M131.625 220.937H131.042C130.331 220.811 129.653 220.538 129.052 220.138C128.45 219.737 127.938 219.216 127.548 218.607C126.6 217.502 125.944 216.177 125.639 214.752C125.334 213.328 125.39 211.851 125.801 210.454V206.959H130.46V210.454C129.878 212.783 129.878 214.531 131.042 215.695L132.79 216.86C134.313 217.377 135.956 217.432 137.511 217.017C139.065 216.603 140.462 215.738 141.526 214.531L145.02 218.025C143.293 219.729 141.116 220.908 138.745 221.423C136.373 221.939 133.905 221.77 131.625 220.937Z" fill="white"/>
<path d="M119.394 234.333H117.065C115.006 232.326 113.761 229.63 113.57 226.761C113.777 224.182 114.797 221.735 116.482 219.772L119.977 222.684C118.928 223.792 118.308 225.238 118.23 226.761C118.14 227.451 118.258 228.153 118.57 228.775C118.881 229.398 119.371 229.913 119.977 230.256C121.142 231.42 123.471 230.838 124.636 230.838L129.878 227.343L132.79 230.838C130.886 232.53 128.723 233.906 126.384 234.915C124.131 235.765 121.646 235.765 119.394 234.915" fill="white"/>
<path d="M107.746 250.058L105.417 248.893C104.299 247.535 103.502 245.943 103.087 244.234C102.476 240.83 103.095 237.321 104.834 234.333L108.911 236.662C107.712 238.568 107.294 240.863 107.746 243.069C107.746 244.233 108.329 244.816 108.329 245.398C109.472 245.722 110.681 245.722 111.824 245.398L117.065 242.486L119.977 245.981C117.863 247.678 115.507 249.052 112.988 250.058C111.254 250.362 109.48 250.362 107.746 250.058Z" fill="white"/>
<path d="M94.3512 262.871H93.1859C92.2182 262.118 91.448 261.142 90.9407 260.026C90.4335 258.91 90.2044 257.688 90.2739 256.464C90.8563 254.134 90.8567 251.805 91.4391 249.475L96.098 250.64C95.4353 252.516 95.0434 254.477 94.9334 256.464C94.8463 257.285 95.0525 258.11 95.5157 258.794H96.681C99.593 258.794 101.34 258.794 102.505 257.629H104.252C105.447 256.281 107.116 255.446 108.911 255.299V259.958L105.999 261.123L104.252 262.288C101.723 263.543 98.9192 264.144 96.098 264.035H93.7689" fill="white"/>
<path d="M82.7031 274.519H81.5378C80.6048 273.736 79.8591 272.755 79.3552 271.646C78.8513 270.537 78.6019 269.33 78.6258 268.113C79.1777 266.274 79.9606 264.513 80.9556 262.871L85.0328 265.2L83.2853 268.695V270.442H86.1974C89.9572 269.752 93.4134 267.922 96.0981 265.2L99.5931 268.113C96.0163 271.536 91.5942 273.948 86.7797 275.102C85.2816 275.686 83.6188 275.686 82.1208 275.102" fill="white"/>
<path d="M70.4721 285.585H68.7246C64.6477 282.673 65.8125 277.431 65.8125 275.101H70.4721C69.8897 278.596 69.8896 280.343 71.0544 280.925H73.3842L80.3728 279.761L82.1203 283.837C79.5519 284.976 76.7757 285.57 73.9664 285.585H70.4721Z" fill="white"/>
<path d="M55.9118 297.815C55.3294 297.233 53.5822 296.651 52.9998 295.486C52.2004 294.53 51.6704 293.379 51.4656 292.15C51.2608 290.921 51.3882 289.66 51.8345 288.497L52.9998 286.75C52.9998 285.585 53.5821 285.002 53.5821 283.838H58.2409C58.219 285.276 57.8174 286.682 57.0764 287.915C57.0764 288.497 56.4941 288.497 56.4941 289.079C56.1633 289.492 55.9829 290.006 55.9829 290.535C55.9829 291.065 56.1633 291.578 56.4941 291.991H58.2409C60.0912 292.603 62.0613 292.763 63.9861 292.459C65.911 292.155 67.735 291.396 69.3069 290.244L72.2189 293.739C70.0179 295.212 67.5441 296.229 64.9431 296.729C62.3421 297.229 59.6669 297.203 57.0764 296.651H55.9118" fill="white"/>
<path d="M142.691 223.849C135.702 233.168 128.131 243.069 121.724 253.552C115.318 264.036 103.67 287.332 94.3511 303.64C79.2403 329.898 60.408 353.831 38.4398 374.694C49.1951 396.52 64.0211 416.09 82.1206 432.353C104.252 414.298 115.318 386.342 124.636 359.551C129.296 346.156 133.955 333.343 139.197 320.53C144.438 307.717 151.428 285.585 157.834 268.113L166.57 243.651C170.355 229.967 175.023 216.544 180.548 203.465C185.5 190.364 193.963 178.878 205.009 170.268C202.297 169.842 199.523 170.04 196.899 170.847C194.275 171.655 191.87 173.05 189.867 174.927L174.141 188.322C162.164 198.753 151.592 210.696 142.691 223.849Z" fill="#3056A5"/>
<path d="M75.7135 382.265H69.8894C66.5981 380.936 63.906 378.451 62.3185 375.276C61.336 372.225 60.5576 369.112 59.9887 365.958H64.6483C64.9521 368.538 65.5376 371.076 66.3951 373.529C67.2805 375.631 68.9529 377.303 71.0547 378.188C74.2194 378.28 77.3144 377.249 79.7908 375.276L86.7795 371.782L89.1093 375.276L82.1206 379.353L75.7135 382.265Z" fill="white"/>
<path d="M64.6483 397.408C61.3111 398.148 57.8212 397.738 54.7469 396.243C51.7213 394.632 49.4287 391.922 48.3405 388.672C47.2015 385.899 46.608 382.933 46.593 379.936H50.6703C51.18 382.534 51.9609 385.071 53.0001 387.507C53.1359 388.67 53.5874 389.773 54.3061 390.697C55.0249 391.621 55.9831 392.331 57.0767 392.749C59.2682 393.533 61.6379 393.675 63.9075 393.159C66.1772 392.644 68.2522 391.491 69.8895 389.837L72.8015 393.913L64.6483 397.99" fill="white"/>
<path d="M171.229 209.289H167.735C166.865 209.031 166.106 208.489 165.579 207.751C165.051 207.012 164.785 206.119 164.823 205.212C164.153 202.306 164.355 199.267 165.405 196.476L169.482 197.641C168.891 199.933 168.891 202.338 169.482 204.63L174.141 201.718L178.219 204.047C176.55 206.416 174.057 208.077 171.229 208.707" fill="white"/>
<path d="M164.241 223.849H162.493C161.547 224.155 160.529 224.151 159.585 223.837C158.642 223.522 157.824 222.914 157.251 222.102C156.847 221.874 156.521 221.53 156.313 221.115C156.105 220.7 156.027 220.233 156.087 219.772C155.514 217.281 155.514 214.692 156.087 212.201L160.163 213.366C160.072 215.133 160.269 216.903 160.746 218.608H161.911C163.359 218.432 164.746 217.919 165.96 217.11C167.174 216.301 168.181 215.218 168.9 213.948L172.977 216.86C170.891 219.821 167.776 221.897 164.241 222.684" fill="white"/>
<path d="M158.416 237.245H154.339C152.555 236.286 151.069 234.855 150.042 233.109C149.015 231.363 148.486 229.369 148.515 227.344H153.174C153.757 230.838 154.339 232.585 155.504 233.168C156.669 233.75 158.416 233.168 160.163 231.421L164.822 227.926L168.317 231.421L163.075 235.498L158.416 237.827" fill="white"/>
<path d="M153.175 254.717C152.044 255.319 150.746 255.53 149.483 255.32C148.219 255.109 147.061 254.488 146.186 253.552C145.218 252.8 144.447 251.824 143.94 250.708C143.433 249.592 143.204 248.37 143.274 247.146C143.359 245.951 143.159 244.754 142.691 243.651L146.768 241.904C147.493 243.353 147.89 244.944 147.933 246.563C147.879 247.195 147.955 247.83 148.155 248.431C148.356 249.031 148.676 249.585 149.098 250.058C149.808 250.557 150.678 250.774 151.539 250.666C152.401 250.558 153.191 250.134 153.757 249.476C155.942 248.254 157.91 246.68 159.581 244.816L163.075 247.728C161.322 250.272 158.905 252.287 156.087 253.552L153.175 254.717Z" fill="white"/>
<path d="M148.515 271.607C146.888 271.99 145.194 271.978 143.573 271.573C141.952 271.167 140.452 270.38 139.197 269.278C136.867 267.53 136.867 264.036 136.284 261.706H140.944C140.864 262.653 140.977 263.606 141.277 264.507C141.578 265.408 142.059 266.239 142.691 266.948C143.346 267.449 144.123 267.767 144.942 267.869C145.76 267.971 146.592 267.855 147.35 267.53C149.471 267.058 151.34 265.812 152.592 264.036L156.087 266.366C155.307 267.758 154.219 268.954 152.907 269.862C151.595 270.771 150.093 271.367 148.515 271.607Z" fill="white"/>
<path d="M140.944 289.079C139.893 289.422 138.782 289.547 137.681 289.447C136.579 289.347 135.51 289.024 134.538 288.497C130.461 286.75 129.878 282.091 129.296 278.014H133.955C133.955 280.343 134.537 283.838 136.285 284.42H139.779C143.059 283.376 146.05 281.581 148.515 279.179L152.01 282.091C149.087 285.456 145.239 287.886 140.944 289.079Z" fill="white"/>
<path d="M135.702 304.222C134.484 304.535 133.207 304.538 131.987 304.233C130.767 303.928 129.642 303.324 128.714 302.475C127.549 301.31 127.548 300.146 126.966 298.981C126.384 297.816 125.219 294.904 124.636 292.574L129.296 290.827L131.043 297.816C131.625 298.398 131.626 298.981 132.208 298.981C132.79 298.981 135.12 299.563 136.285 298.981L138.614 297.233L143.274 294.321L145.021 298.398L141.526 300.728C140.362 301.31 139.779 302.475 138.614 302.475L135.702 304.222Z" fill="white"/>
<path d="M128.713 320.53C126.384 321.112 125.219 320.53 124.636 319.948C123.967 319.631 123.397 319.139 122.987 318.523C122.576 317.908 122.341 317.192 122.306 316.453C120.991 313.466 120.014 310.34 119.394 307.135H124.054C124.556 310.113 125.336 313.038 126.384 315.871H128.713C131.622 314.237 134.191 312.062 136.284 309.464L139.779 312.959C137.254 315.735 134.305 318.094 131.043 319.948L128.713 321.112" fill="white"/>
<path d="M125.219 336.254C122.875 336.61 120.482 336.41 118.23 335.672C116.944 334.568 115.945 333.17 115.318 331.595C114.134 329.249 113.534 326.652 113.57 324.024H118.23C118.272 325.644 118.67 327.234 119.395 328.683L120.56 331.013C121.725 331.595 122.889 331.595 125.219 330.43L133.955 325.771L136.867 329.266C133.649 331.667 130.123 333.626 126.384 335.09H125.219" fill="white"/>
<path d="M117.648 352.562H113.57C112.019 351.862 110.776 350.62 110.076 349.068C108.782 346.733 107.989 344.155 107.746 341.497H112.406C112.433 343.563 113.038 345.581 114.153 347.321V348.486H115.318C118.295 347.724 121.076 346.334 123.472 344.409L126.384 347.903C123.824 350.368 120.573 351.993 117.065 352.562" fill="white"/>
<path d="M110.076 370.034C105.999 371.199 103.67 370.035 103.087 368.87C102.198 368.12 101.583 367.095 101.34 365.958L99.593 359.551L104.252 358.386L105.999 364.793V365.958H108.911C112.366 364.919 115.548 363.129 118.23 360.716L121.724 364.21C118.367 367.061 114.371 369.058 110.076 370.034Z" fill="white"/>
<path d="M105.417 384.013H103.087C101.261 384.185 99.4272 383.777 97.8455 382.848C96.6807 382.266 96.0982 381.101 95.5158 380.518C93.6643 377.331 92.6617 373.721 92.6037 370.035H97.2633C97.1363 372.933 97.954 375.795 99.5931 378.189V379.354H101.34C105.811 378.38 109.997 376.387 113.57 373.529L116.482 377.024C113.158 380.047 109.167 382.242 104.834 383.43" fill="white"/>
<path d="M96.0979 399.737C94.6964 400.1 93.2304 400.13 91.8151 399.827C90.3998 399.524 89.0747 398.895 87.9447 397.99C87.1008 397.387 86.4015 396.604 85.8978 395.698C85.3942 394.791 85.0987 393.784 85.0326 392.749C84.7037 391.473 84.1079 390.282 83.2851 389.254L86.7794 386.342C87.7844 387.77 88.5698 389.34 89.1092 391.001C89.4381 392.276 90.0339 393.468 90.8567 394.496C92.604 396.243 95.516 395.078 96.6808 394.496C99.9713 393.098 103.096 391.341 105.999 389.254L108.911 392.749C105.84 395.369 102.275 397.35 98.4276 398.573L96.0979 399.737Z" fill="white"/>
<path d="M87.9449 414.88C83.868 416.045 81.5381 414.881 80.3733 413.133C79.2085 411.386 78.6259 410.221 78.0435 408.474C77.5628 406.177 77.3673 403.83 77.4612 401.485H81.5378C82.1202 403.815 82.1207 406.144 82.7031 408.474V410.804C83.3382 411.112 84.0351 411.273 84.7414 411.273C85.4477 411.273 86.1446 411.112 86.7797 410.804C90.5876 409.77 94.1517 407.988 97.2634 405.562L100.175 409.056C96.7416 411.789 92.7738 413.773 88.5272 414.88H87.3619" fill="white"/>
<path d="M91.4392 421.87L84.4498 423.617C82.0045 424.507 79.3241 424.507 76.8789 423.617L72.8015 421.287C70.3184 418.337 68.3495 414.99 66.9774 411.386L71.637 409.639C72.2469 412.797 73.8856 415.664 76.2966 417.793C76.879 418.958 78.0433 418.957 78.6257 419.54C79.2081 420.122 81.5379 419.54 83.8675 418.958L90.2739 417.793L91.4392 421.87Z" fill="white"/>
<path d="M135.702 247.146H132.208C131.184 246.699 130.31 245.968 129.69 245.038C129.071 244.109 128.732 243.021 128.714 241.904C128.714 240.157 129.296 238.992 129.296 237.827L133.955 238.992C133.484 239.886 133.282 240.897 133.372 241.904H134.538L139.197 238.992L142.691 241.904C141.103 243.976 138.834 245.42 136.285 245.981H135.702" fill="white"/>
<path d="M143.856 233.168H142.108C141.152 233.104 140.227 232.804 139.414 232.296C138.601 231.788 137.927 231.087 137.449 230.256C136.873 228.556 136.873 226.714 137.449 225.014L141.526 227.926H142.108C143.273 227.926 143.856 226.762 144.438 225.597L148.515 227.344C148.233 228.47 147.651 229.498 146.83 230.319C146.01 231.139 144.982 231.722 143.856 232.003" fill="white"/>
<path d="M150.845 222.102H147.933C146.611 221.702 145.424 220.948 144.5 219.921C143.576 218.894 142.95 217.635 142.691 216.278H147.35L149.098 218.025C149.68 218.025 150.845 218.025 150.845 217.443L154.922 219.773C153.933 221.178 152.495 222.205 150.845 222.685" fill="white"/>
<path d="M131.043 264.618C128.945 265.188 126.734 265.188 124.636 264.618C122.829 263.785 121.28 262.479 120.153 260.839C119.026 259.199 118.361 257.285 118.23 255.3H122.889C122.856 256.358 123.183 257.395 123.819 258.242C124.454 259.089 125.359 259.695 126.384 259.959C127.338 260.473 128.442 260.637 129.506 260.425C130.569 260.212 131.524 259.636 132.208 258.794L135.702 261.706C134.533 263.187 132.886 264.216 131.043 264.618Z" fill="white"/>
<path d="M123.471 278.596C122.122 279.019 120.676 279.023 119.324 278.607C117.972 278.191 116.778 277.375 115.9 276.266C114.99 275.366 114.305 274.264 113.901 273.05C113.496 271.836 113.383 270.543 113.57 269.277V266.948H118.23V269.86C118.23 271.607 118.229 273.354 119.394 273.937H122.306L126.384 271.607L129.296 275.101C127.577 276.603 125.605 277.786 123.471 278.596Z" fill="white"/>
<path d="M115.9 294.321H113.57C111.613 294.684 109.593 294.482 107.746 293.739C104.834 292.574 104.834 288.497 104.834 287.332V278.014H108.911V287.332C108.824 288.153 109.031 288.979 109.494 289.662H111.824C115 289.318 118.022 288.109 120.56 286.167L124.054 289.079C121.633 291.416 118.607 293.03 115.318 293.739" fill="white"/>
<path d="M111.241 307.134H103.67C101.558 305.583 100.104 303.298 99.593 300.728V298.981C99.593 297.816 99.01 296.651 99.01 295.486L103.087 294.321C103.67 295.486 103.669 296.651 104.252 297.816V300.145L105.999 303.058H108.329C111.837 302.488 115.088 300.863 117.648 298.398L120.56 301.893C117.878 304.306 114.696 306.096 111.241 307.134Z" fill="white"/>
<path d="M102.505 323.442C101.139 324.065 99.6078 324.232 98.1392 323.918C96.6705 323.603 95.3422 322.823 94.3512 321.695C93.7688 320.53 93.186 319.947 93.186 318.782C91.9466 315.368 90.973 311.863 90.2739 308.299H94.9335C95.5159 311.211 96.6809 314.706 97.2633 318.2V319.365C97.8457 320.53 100.175 319.947 101.922 319.365C105.143 318.193 108.108 316.413 110.658 314.123L113.57 317.618C110.779 320.317 107.386 322.314 103.67 323.442H101.922" fill="white"/>
<path d="M95.5157 339.749C94.3011 340.274 92.9772 340.495 91.6581 340.393C90.339 340.292 89.0649 339.871 87.9448 339.167C86.5333 337.704 85.5294 335.897 85.0327 333.925L82.7029 325.771L87.3618 324.606L89.6916 332.76C90.274 333.925 90.2744 335.09 90.8568 335.672H94.3512C98.3796 334.599 101.891 332.12 104.252 328.683L108.329 331.595C105.089 335.668 100.578 338.539 95.5157 339.749Z" fill="white"/>
<path d="M92.0213 356.057H89.1093C87.3969 356.541 85.5897 356.581 83.8575 356.173C82.1253 355.766 80.5256 354.924 79.2086 353.727C77.9389 352.021 77.1359 350.014 76.8788 347.903L75.7136 340.914H80.3731L81.5377 347.321C81.5755 348.574 81.9809 349.789 82.7029 350.815C83.8677 352.562 86.7798 351.98 88.527 351.98C91.8047 351.337 94.9532 350.156 97.8455 348.485L100.175 352.562L92.0213 356.057Z" fill="white"/>
<path d="M80.3731 369.453H77.4611C76.2832 369.643 75.0761 369.53 73.9547 369.122C72.8332 368.714 71.8349 368.026 71.0547 367.123C70.0437 366.227 69.4175 364.975 69.3072 363.628L66.3951 356.057L71.0547 354.31L73.3845 361.881C73.9669 362.463 73.9666 363.628 74.549 364.211H80.9554L91.4391 358.969L93.7689 362.464C90.4068 364.97 86.6728 366.936 82.7029 368.288H80.3731" fill="white"/>
<path d="M180.548 192.981C178.977 193.384 177.312 193.176 175.889 192.399C175.281 192.009 174.76 191.497 174.359 190.895C173.958 190.294 173.685 189.616 173.559 188.905C173.599 187.829 174.01 186.8 174.724 185.993L178.219 188.905H179.383L181.131 187.74L184.625 185.993L185.79 190.652L184.043 191.817L181.131 193.564H180.548" fill="white"/>
<defs>
<clipPath id="clip0_543_2">
<rect x="265" y="213" width="411" height="411" rx="205.5" fill="white"/>
</clipPath>
<clipPath id="clip1_543_2">
<rect x="56" y="10" width="342" height="343" rx="171" fill="white"/>
</clipPath>
</defs>
</svg>
