<svg width="597" height="587" fill="none" xmlns="http://www.w3.org/2000/svg"><g clip-path="url(#clip0_540_2)"><path d="M430.045 312.551c-4.756 23.76-18.666 44.679-38.71 58.217a91.563 91.563 0 01-68.349 14.086c-23.099-7.093-42.475-23.033-53.928-44.362a92.247 92.247 0 01-7.246-69.569 87.8 87.8 0 0111.724-35.099 87.55 87.55 0 0125.126-27.114 87.276 87.276 0 0134.051-14.294 87.147 87.147 0 0136.896 1.079 87.281 87.281 0 0133.162 16.257 87.588 87.588 0 0123.511 28.536 87.843 87.843 0 013.763 72.263z" fill="#83592F"/><path d="M357.946 511.929c0 4.382-.003 6.573-2.187 8.764h-8.738a263.664 263.664 0 01-115.799-8.764l-10.924-6.572a28.547 28.547 0 01-4.369-19.72 593.024 593.024 0 008.737-61.347 72.464 72.464 0 018.74-30.673 39.445 39.445 0 019.658-13.56 39.307 39.307 0 0114.375-8.35c28.404-15.337 78.658-94.212 111.431-96.403 32.773-2.191 4.369 122.695 2.184 142.414l-13.108 92.02" fill="#FABA8E"/><path d="M298.951 518.502a79.008 79.008 0 018.74-24.1c4.37-8.764 10.923-13.146 15.293-21.91 4.37-8.764 8.739-39.438 10.924-59.157a160.308 160.308 0 0113.112-46.01 19.736 19.736 0 016.553-13.146 259.365 259.365 0 00-96.135 19.719 39.291 39.291 0 00-14.376 8.351 39.442 39.442 0 00-9.657 13.559 72.45 72.45 0 00-8.74 30.673 592.946 592.946 0 01-8.737 61.347 28.543 28.543 0 004.368 19.719l10.925 6.573a228.788 228.788 0 0065.546 10.955c0-2.191 2.184-4.382 2.184-6.573z" fill="#E7A787"/><path d="M299.506 460.106c-39.004 7.245-79.03 11.655-119.405 13.156-9.682 2.193-25.821-2.192-35.503 6.579-7.042 7.911-10.413 17.079-9.679 26.312-3.227 19.734-6.456 43.854-9.683 65.781-51.435 52-93.68 107.933-125.863 166.646-58.09 89.901-90.36 234.619-93.586 315.75 2.282 115.92 15.215 231.63 38.725 346.45-.007 31.29 11.062 62.12 32.272 89.9 35.5 46.05 96.817 52.62 161.361 59.2 225.906 19.74 448.585 24.12 674.491 30.7 12.909 0 25.817 2.19 35.499-4.39 7.299-4.04 13.342-9.03 17.775-14.68 4.432-5.65 7.167-11.83 8.044-18.21 35.5-116.21-90.363-225.85-125.862-342.06-35.5-116.21 25.817-210.499-48.409-333.291-45.181-70.166-145.226-186.379-206.543-269.702-15.26-24.029-32.499-47.455-51.635-70.167 2.834-13.315.61-26.901-6.457-39.469-22.59-61.395-80.679-37.275-135.542-28.505z" fill="#C0B2BB"/><path d="M392.902 277.494c0 92.021-72.103 166.515-135.464 166.515-63.361 0-96.132-74.494-96.132-166.515 0-92.021 52.435-166.513 115.797-166.513 63.361 0 115.799 74.492 115.799 166.513z" fill="#FABA8E"/><path d="M427.859 281.877c0 24.101-15.293 46.011-34.957 46.011s-34.957-21.91-34.957-46.011c0-24.101 15.293-46.011 34.957-46.011s34.957 19.719 34.957 46.011z" fill="#FABA8E"/><path d="M392.901 251.203c13.11 0 21.849 13.146 21.849 30.674s-8.739 30.674-21.849 30.674" fill="#F59770"/><path d="M279.979 397.659c19.664 4.382 2.184-35.055-30.589-35.055-32.773 0-58.992 35.055-39.329 35.055a248.43 248.43 0 0169.918 0z" fill="#fff"/><path d="M183.156 240.249l-8.74 6.573a15.354 15.354 0 00-2.184 13.146l8.737-4.383a23.983 23.983 0 0117.48-4.381l17.48 4.381h6.553c10.925-2.191-8.739-13.145-10.924-13.145a43.582 43.582 0 00-28.402-2.191zm131.09 2.191a54.474 54.474 0 00-41.512 0 21.853 21.853 0 00-10.924 8.763s-2.185 2.191 0 2.191c2.184 0 2.183 2.191 4.368 2.191a84.978 84.978 0 0132.773-4.382l28.404 8.764c6.555 2.191 6.554-2.191 4.369-6.573a30.57 30.57 0 00-17.478-10.954z" fill="#83592F"/><path d="M207.188 334.46a6.581 6.581 0 01-2.184 4.383c0 4.382 6.552 6.572 8.737 6.572h19.664l6.556-6.572c2.185-4.382 0-6.573-2.184-10.955a37.334 37.334 0 012.184-21.91 94.489 94.489 0 004.369-24.101c0-2.191.001-8.764-4.369-6.573-4.37 2.191-4.371 8.764-4.371 10.955l-28.402 43.82m131.092-43.82a106.777 106.777 0 00-58.993 4.382l-13.109 6.573a17.554 17.554 0 00-4.368 10.955 15.309 15.309 0 008.74 10.955 115.543 115.543 0 0039.326 10.955 61.04 61.04 0 0028.404-6.574 43.823 43.823 0 0017.477-26.291v-4.382l-8.737-6.573h-8.74zm-122.352 6.573l-8.74-4.383h-37.144c-4.37 0-8.738 2.192-6.553 6.574v37.246a80.642 80.642 0 0032.773-6.573 32.794 32.794 0 0011.62-9.949 32.905 32.905 0 005.857-14.152v-6.572" fill="#F59770"/><path d="M292.399 281.877a15.362 15.362 0 01-3.049 6.538 15.289 15.289 0 01-5.692 4.417c-4.369 0-8.74-2.191-8.74-6.573a6.582 6.582 0 012.27-10.823 6.536 6.536 0 014.286-.132 10.899 10.899 0 016.516 1.524 10.949 10.949 0 014.409 5.049zm-78.658-2.191c0 4.382-2.183 8.764-6.553 8.764-4.369 0-10.924-2.191-10.924-6.573a10.972 10.972 0 011.52-6.534 10.928 10.928 0 015.033-4.421c2.556-.051 5.05.797 7.046 2.399a10.95 10.95 0 013.878 6.365z" fill="#402740"/><path d="M349.205 233.676a261.137 261.137 0 0117.478 43.819 41.712 41.712 0 004.371 15.337 15.324 15.324 0 005.342 6.205 15.261 15.261 0 007.767 2.559c6.554-2.191 10.924-10.955 13.108-19.719 2.185-8.764 6.555-35.055 10.925-52.583a311.877 311.877 0 008.74-43.82 43.927 43.927 0 00-4.369-24.1 26.255 26.255 0 00-10.924-10.955 200.693 200.693 0 00-107.059-41.629c-10.925-2.191 2.183 15.337 4.368 21.91a261.077 261.077 0 0017.48 35.056l32.773 67.92z" fill="#83592F"/><path d="M440.265 137.649c6.231-57.156-51.376-110.296-125.958-115.276-74.583-4.98-140.012 35.13-143.666 93.999l-4.128 45.552 264.507 29.022 9.245-53.297z" fill="#EF4932"/><path d="M366.592 148.134c-67.325-13.16-138.931-25.452-201.462-14.993l-9.834 6.468c-2.141.434-1.707 2.582-1.271 4.73l-7.499 61.885a46.124 46.124 0 003.488 17.177c3.013 3.86 10.744 8.998 15.026 8.128l6.422-1.303a106.763 106.763 0 0144.531-11.276c24.425-.488 50.553-3.556 75.414-1.896l48.019 5.901 99.044 15.665 8.565-1.739c3.847-3.017-.039-11.171-.91-15.465-.872-4.295 4.603-32.234-2.294-44.248-6.898-12.014-56.224-24.357-76.803-26.886" fill="#EF4932"/><path d="M401.517 210.35l2.143-.435a17.545 17.545 0 002.894-8.91 17.58 17.58 0 00-2.1-9.137l-.872-4.294c-2.577-1.713-.872-4.294.833-6.876a19.733 19.733 0 004.245-12.04c1.269-4.729-1.308-6.442-1.744-8.589l-16.298-3.399c5.155 3.425 8.169 7.285 6.9 12.014-1.269 4.729-1.707 2.582-3.412 5.164a32.918 32.918 0 00-3.371 16.334c.872 4.294 3.449 6.007 3.885 8.154a2.191 2.191 0 012.576 1.712l-2.14.435-3.41 5.164c-3.41 5.163.037 11.17.908 15.465.872 4.294 2.58 1.712 3.016 3.859l-2.977 7.311 13.719 1.687a94.408 94.408 0 00-.036-11.171l-1.744-8.589m21.886 8.972c-.436-2.147-3.013-3.86-1.308-6.442l2.977-7.311a15.372 15.372 0 00-4.321-10.301c-.436-2.148 1.705-2.582 1.269-4.73l5.55-5.597a28.557 28.557 0 00-6.936-23.185c-.436-2.147-2.576-1.713-3.012-3.86l-11.578-2.12c11.616 13.291 10.782 20.167 9.076 22.749l.872 4.294c-1.705 2.582-5.55 5.598-4.678 9.893l2.18 10.736c-1.706 2.581-1.705 2.582-1.269 4.729a28.553 28.553 0 00.472 13.318l2.144-.435 9.434 2.556a15.376 15.376 0 00-.036-11.171m-254.957 7.044l3.409-5.163 2.538-9.459c.86-3.674.849-7.5-.037-11.171-.871-4.294-1.308-6.441.833-6.875 2.142-.435 1.269-4.729 2.974-7.311l5.117-7.746a24.152 24.152 0 00.794-18.046c-1.744-8.589.397-9.023-.039-11.171a30.593 30.593 0 0114.515-16.36l-19.272 3.912a21.895 21.895 0 00-6.385 12.474 28.54 28.54 0 00.475 13.318c1.307 6.442-.397 9.024.475 13.318l-5.553 5.598-6.819 10.327 2.179 10.736c.872 4.294 1.306 6.442-.835 6.877-2.141.435-1.269 4.729-.833 6.876a13.13 13.13 0 00-4.602 7.558 13.18 13.18 0 001.232 8.776c.436 2.147.871 4.294 3.012 3.859l8.565-1.738m51.787-19.456a30.727 30.727 0 001.23-15.899 8.777 8.777 0 00-3.448-6.007c-.436-2.148-.873-4.294 2.537-9.458l2.141-.435 6.386-12.474a28.566 28.566 0 00-.475-13.318l-.872-4.294c-.872-4.294 2.538-9.458 8.09-15.057l-15.859-1.252a19.742 19.742 0 00-3.809 14.188 17.563 17.563 0 00-.397 9.023l1.744 8.588-5.114 7.746-2.144.435a21.897 21.897 0 00-4.766 8.855 21.958 21.958 0 00-.309 10.061c.436 2.147 3.013 3.86 3.449 6.007l.871 4.294c2.142-.435.437 2.147-.832 6.876l-2.144.436 1.308 6.441 8.565-1.739a2.18 2.18 0 001.386-.936c.32-.485.435-1.076.319-1.646l2.143-.435zm42.824-8.693l-1.744-8.589s-.437-2.147 2.974-7.31l2.14-.435c1.27-4.729 5.117-7.746 5.95-14.622.86-3.674.846-7.5-.039-11.17l-1.744-8.589 2.141-.435 3.412-5.164a17.553 17.553 0 002.102-11.605l-13.719-1.687 1.744 8.59-2.141.434-3.412 5.164a21.954 21.954 0 00-1.229 15.899l1.307 6.442c.582 2.863-1.125 5.445-5.116 7.746a17.485 17.485 0 00-6.331 7.479 17.56 17.56 0 00-1.324 9.724 50.522 50.522 0 003.887 8.154l1.744 8.589 12.847-2.608c1.705-2.582.396-9.023-.039-11.171m46.746 10.631s-2.577-1.713-.436-2.147a8.769 8.769 0 01.833-6.876 17.552 17.552 0 002.54-9.459 24.166 24.166 0 00-2.616-12.883l-1.744-8.589c-.435-2.147 1.705-2.581 3.41-5.163 1.705-2.582 1.705-2.582 1.269-4.729a24.128 24.128 0 003.331-8.941 24.165 24.165 0 00-.394-9.54l-16.298-3.399c3.885 8.154 5.193 14.596 3.488 17.178l-2.141.434-4.678 9.892a19.778 19.778 0 00.007 7.824 19.77 19.77 0 003.044 7.207l2.616 12.882a19.73 19.73 0 00-4.245 12.041l1.308 6.441 11.577 2.121a13.17 13.17 0 00.397-9.023m45.44 4.189a2.196 2.196 0 00-.936-1.39c-.483-.322-1.073-.438-1.641-.322l-.872-4.294a17.512 17.512 0 005.02-7.635 17.561 17.561 0 00.494-9.135c-.436-2.147-3.448-6.006-3.884-8.154a2.19 2.19 0 011.704-2.581 21.938 21.938 0 001.468-10.091 21.976 21.976 0 00-3.25-9.668l-14.155-3.834a8.77 8.77 0 014.01 4.373 8.789 8.789 0 01.311 5.928c.871 4.294 1.308 6.442-.833 6.876l-2.977 7.311a15.386 15.386 0 00.961 6.768 15.358 15.358 0 003.798 5.68l2.141-.434c.436 2.147-3.412 5.164-2.976 7.311.436 2.147-6.384 12.474-2.935 18.481 3.449 6.007.872 4.294 3.013 3.86l-3.41 5.163 14.155 3.834a17.58 17.58 0 00-1.347-17.612" fill="#F27A67"/></g><g clip-path="url(#clip1_540_2)"><path d="M315.161 533.921S330.806 1848.38 539.41 2082.4c0 0 71.271-63.43 274.66-122.48 0 0-208.603-597.08-201.65-903.28 0 0-24.336-487.726-159.928-492.1l-137.331-30.619z" fill="#F9AA44"/><path d="M546.361 608.282c92.133 74.362 172.1 164.034 227.727 304.009 43.459 107.169 59.104 284.329 3.476 402.429-27.358 58.43-64.058 109.07-107.777 148.72-7.495 8.3-16.423 14.29-26.076 17.5-8.391-.82-16.567-3.76-24.034-8.64-7.467-4.89-14.073-11.62-19.425-19.79-18.591-18.25-32.006-43.57-38.245-72.18-1.626-20.64.15-41.49 5.216-61.24 10.43-56.86 20.86-115.91 34.767-172.78 3.283-11.97 5.042-24.52 5.214-37.18-.593-7.98-3.006-15.58-6.952-21.87C558.531 982.278 534.194 903.542 487.259 792c-17.384-41.555-78.227-188.092-112.994-227.46 59.679-11.839 120.751 3.684 172.096 43.742z" fill="#FCB737"/><path d="M501.164 575.476l-50.413-89.672s-81.702 56.865-135.591 50.304c0 0 53.888 67.8 46.935 102.794l139.069-63.426z" fill="#F9AA44"/><path d="M501.164 575.476l-140.807 56.865 6.954 4.374c-5.103-36.505-19.072-70.124-39.983-96.233l-3.476-4.374h-1.738c0-2.187-1.739-2.187-5.216-2.187-3.477 0-6.953 2.187-8.692 6.561v91.859l3.476 104.981 6.954 107.169 29.554 424.299c5.215 72.18 12.167 142.16 20.859 212.15 8.162 70.65 19.187 140.73 33.029 209.96 12.777 69.75 29.032 138.42 48.673 205.59 19.426 67.16 48.277 129.39 85.181 183.72h1.738c-17.13-28.51-31.705-59.32-43.459-91.86-12.213-31.11-22.668-63.27-31.29-96.23-18.503-67.26-33.599-135.93-45.197-205.59-24.337-137.79-41.721-277.76-57.367-417.74-17.029-140.59-28.055-282.225-33.029-424.299V737.322l-3.476-107.168v-89.672l-5.216 4.374h-1.738l3.476 4.375c19.313 23.791 32.618 54.223 38.245 87.484v6.561h5.214l137.331-65.613v-2.187z" fill="#fff"/><path d="M256.137 532.638S241.129 1847.09 41.029 2081.11c0 0-68.367-63.42-263.464-122.47 0 0 200.1-597.09 193.43-903.28 0 0 23.344-487.728 153.409-492.103l131.733-30.619z" fill="#F9AA44"/><path d="M34.36 606.999c-88.377 74.362-165.084 164.034-218.444 304.009-41.687 107.172-56.694 284.322-3.334 402.432 26.243 58.42 61.447 109.06 103.384 148.72 7.19 8.3 15.753 14.29 25.013 17.5 8.049-.82 15.891-3.76 23.054-8.65 7.163-4.88 13.5-11.61 18.633-19.78 17.834-18.26 30.701-43.57 36.686-72.18 1.56-20.65-.143-41.49-5.003-61.24C4.344 1260.95-5.66 1201.89-19 1145.03c-3.15-11.97-4.836-24.52-5.001-37.18.568-7.98 2.883-15.58 6.668-21.87 40.02-104.985 63.365-183.721 108.388-295.263 16.675-41.556 75.037-188.092 108.388-227.46-57.247-11.84-115.829 3.684-165.082 43.742z" fill="#FCB737"/><path d="M77.715 574.193l48.358-89.672s78.372 56.865 130.064 50.304c0 0-51.692 67.8-45.022 102.794l-133.4-63.426z" fill="#F9AA44"/><path d="M77.715 574.193l135.067 56.865-6.67 4.374c4.895-36.505 18.294-70.124 38.353-96.233l3.335-4.374h1.667c0-2.187 1.668-2.187 5.003-2.187s6.67 2.187 8.337 6.561v91.859l-3.334 104.981-6.67 107.169-28.349 424.302c-5.002 72.17-11.672 142.16-20.009 212.15-7.83 70.65-18.405 140.73-31.683 209.96-12.256 69.75-27.849 138.41-46.689 205.59-18.634 67.16-46.309 129.38-81.708 183.72h-1.667c16.431-28.52 30.411-59.32 41.687-91.86 11.715-31.12 21.744-63.27 30.014-96.24 17.75-67.25 32.23-135.92 43.355-205.58 23.345-137.79 40.021-277.77 55.028-417.74 16.336-140.59 26.912-282.227 31.683-424.302V736.039l3.335-107.168v-89.672l5.003 4.375h1.667l-3.334 4.374c-18.526 23.791-31.288 54.223-36.687 87.484v6.562h-5.001L77.715 576.38v-2.187z" fill="#fff"/></g><defs><clipPath id="clip0_540_2"><path fill="#fff" transform="matrix(-1 0 0 1 709 -5)" d="M0 0h841v731H0z"/></clipPath><clipPath id="clip1_540_2"><path fill="#fff" transform="matrix(-1 0 0 1 709 485)" d="M0 0h798v237H0z"/></clipPath></defs></svg>