<svg width="189" height="281" fill="none" xmlns="http://www.w3.org/2000/svg"><g clip-path="url(#clip0_532_2)" fill="#ECECEC"><path d="M117.742 248.535l-11.399 3.186a85.88 85.88 0 01-53.02-12.122 80.081 80.081 0 01-37.103-39.733 49.904 49.904 0 012.3-46.729l13.338-24.998 2.135 9.329-11.301 18.757a47.589 47.589 0 00-.772 42.048 83.566 83.566 0 0033.456 37.68 78.924 78.924 0 0049.374 10.069 46.433 46.433 0 0036.71-22.551l6.669-12.499 13.945-10.988-16.442 26.575a45.271 45.271 0 01-27.89 21.976z"/><path d="M122.639 119.78c-35.429-21.057-74.849-16.656-89.746 7.834-14.898 24.489 1.953 62.792 36.856 82.815 34.903 20.022 76.409 17.165 90.781-8.36 14.372-25.524-1.954-62.792-37.891-82.289zm15.602 87.102c-1.544 2.086-4.665 1.067-6.751-.477l-69.032-82.093c-1.051-2.069-1.068-4.664 1.002-5.715 2.07-1.052 4.664-1.068 6.75.476l69.033 82.093c1.051 2.069 1.067 4.665-1.002 5.716z"/></g><g clip-path="url(#clip1_532_2)" fill="#ECECEC"><path d="M123.517 87.805l-3.547 3.355a35.43 35.43 0 01-21.681 5.774 33.036 33.036 0 01-21.183-7.363 20.587 20.587 0 01-8.149-17.496l.059-11.689 2.574 2.994-.517 9.02a19.63 19.63 0 007.806 15.493 34.473 34.473 0 0019.458 7.316 32.558 32.558 0 0019.955-5.823 19.148 19.148 0 009.06-15.29l.029-5.845 2.976-6.692-.889 12.861a18.657 18.657 0 01-5.951 13.385z"/><path d="M100.538 39.874c-16.98-.87-30.52 8.319-31.245 20.122-.727 11.803 12.79 22.54 29.38 23.133 16.588.594 31.186-8.432 31.522-20.512.335-12.08-12.791-22.54-29.657-22.743zm22.448 28.787c-.162 1.058-1.497 1.287-2.555 1.124l-40.984-16.68c-.782-.554-1.287-1.498-.734-2.28.554-.781 1.497-1.286 2.556-1.124l40.983 16.68c.782.554 1.287 1.498.734 2.28z"/></g><g clip-path="url(#clip2_532_2)" fill="#ECECEC"><path d="M113.048 17.08l-.329 2.544a18.605 18.605 0 01-6.904 9.552 17.352 17.352 0 01-11.066 4.041 10.815 10.815 0 01-9.128-4.412l-3.86-4.776 2.042.364 2.787 3.841a10.312 10.312 0 008.323 3.711 18.106 18.106 0 0010.348-3.487 17.101 17.101 0 006.186-8.999 10.058 10.058 0 00-1.393-9.232l-1.93-2.388-1.012-3.712 3.911 5.53a9.817 9.817 0 012.025 7.423z"/><path d="M87.774 5.21c-7.199 5.287-9.656 13.524-6.03 18.568 3.626 5.045 12.693 4.923 19.641-.347 6.948-5.27 9.889-13.792 6.012-18.82-3.876-5.026-12.693-4.922-19.623.599zm18.698 4.256c.285.485-.182 1.021-.666 1.307L83.586 17.6c-.501.034-1.02-.182-1.055-.684-.035-.502.182-1.021.666-1.307l22.219-6.828c.502-.034 1.021.182 1.056.684z"/></g><defs><clipPath id="clip0_532_2"><path fill="#fff" transform="rotate(153.073 68.72 129.495)" d="M0 0h147.397v153.2H0z"/></clipPath><clipPath id="clip1_532_2"><path fill="#fff" transform="rotate(125.281 55.444 67.676)" d="M0 0h60.806v63.2H0z"/></clipPath><clipPath id="clip2_532_2"><path fill="#fff" transform="rotate(86.052 56.06 60.063)" d="M0 0h31.942v33.2H0z"/></clipPath></defs></svg>